<svg width="149" height="162" viewBox="0 0 149 162" fill="none" xmlns="http://www.w3.org/2000/svg">
<path d="M86.3652 137.807C81.6452 133.087 75.9486 126.251 69.2754 117.299C62.6022 108.347 57.1497 100.616 52.918 94.1055L46.3262 84.3398C40.4668 88.4089 36.1536 91.5827 33.3867 93.8613C30.6198 95.9772 27.8529 99.3138 25.0859 103.871C22.4818 108.428 21.1797 113.474 21.1797 119.008C21.1797 129.75 24.5163 137.807 31.1895 143.178C37.8626 148.549 46.082 151.234 55.8477 151.234C60.8932 151.234 66.2643 150.014 71.9609 147.572C77.8203 145.131 82.6217 141.876 86.3652 137.807ZM63.6602 9.63281C58.2891 9.63281 53.7318 11.4232 49.9883 15.0039C46.2448 18.4219 44.373 22.8978 44.373 28.4316C44.373 38.8483 48.6048 51.7064 57.0684 67.0059C65.5319 62.123 71.6354 57.2402 75.3789 52.3574C79.2852 47.3118 81.2383 40.3945 81.2383 31.6055C81.2383 25.7461 79.6107 20.6191 76.3555 16.2246C73.1003 11.8301 68.8685 9.63281 63.6602 9.63281ZM62.4395 0.84375C73.3444 0.84375 81.9707 3.28516 88.3184 8.16797C94.666 12.888 97.8398 19.5612 97.8398 28.1875C97.8398 38.1159 94.666 46.5794 88.3184 53.5781C81.9707 60.5768 73.0189 67.6569 61.4629 74.8184C70.903 90.7689 82.9473 106.964 97.5957 123.402C101.665 117.217 105.001 111.277 107.605 105.58C110.21 99.8835 111.512 96.3027 111.512 94.8379C111.512 93.373 110.698 92.3965 109.07 91.9082C107.605 91.2572 105.896 90.9316 103.943 90.9316C101.99 90.7689 100.851 90.6061 100.525 90.4434C100.2 89.7923 100.037 88.8158 100.037 87.5137C100.037 86.2116 100.281 85.3164 100.77 84.8281H120.057C122.498 84.8281 125.021 84.7467 127.625 84.584C130.392 84.4212 133.566 84.2585 137.146 84.0957C140.89 83.9329 144.145 83.7702 146.912 83.6074C147.726 84.0957 148.133 85.1536 148.133 86.7812C148.133 89.2227 147.645 90.4434 146.668 90.4434C144.552 90.4434 141.541 90.9316 137.635 91.9082C133.729 92.8848 131.124 93.7799 129.822 94.5938C129.66 94.7565 128.52 96.6283 126.404 100.209C124.288 103.627 121.196 108.347 117.127 114.369C113.058 120.391 108.826 125.925 104.432 130.971C108.175 134.877 110.779 137.562 112.244 139.027C113.709 140.492 115.662 142.364 118.104 144.643C120.545 146.758 122.498 148.223 123.963 149.037C125.428 149.688 126.893 150.014 128.357 150.014C130.636 150.014 133.077 148.63 135.682 145.863C138.449 143.096 140.239 140.736 141.053 138.783C142.355 138.783 143.576 139.271 144.715 140.248C146.017 141.225 146.668 142.201 146.668 143.178C146.017 144.48 145.285 145.782 144.471 147.084C143.657 148.386 142.192 150.258 140.076 152.699C138.123 155.141 135.356 157.175 131.775 158.803C128.357 160.268 124.451 161 120.057 161C115.825 161 111.349 159.535 106.629 156.605C101.909 153.676 98.3281 150.746 95.8867 147.816L91.9805 143.422C77.9831 155.629 63.1719 161.732 47.5469 161.732C33.0612 161.732 21.5052 158.233 12.8789 151.234C4.41536 144.236 0.183594 134.633 0.183594 122.426C0.183594 111.846 3.76432 103.057 10.9258 96.0586C18.0872 88.8971 28.0156 82.0612 40.7109 75.5508C37.6185 70.3424 35.2585 66.1921 33.6309 63.0996C32.166 59.8444 30.6198 55.5312 28.9922 50.1602C27.3646 44.7891 26.5508 39.4993 26.5508 34.291C26.5508 25.0137 29.9688 17.1198 36.8047 10.6094C43.6406 4.09896 52.1855 0.84375 62.4395 0.84375Z" fill="#E8E8E8" fill-opacity="0.9"/>
</svg>
