<svg width="21" height="16" viewBox="0 0 21 16" fill="none" xmlns="http://www.w3.org/2000/svg">
<path d="M19.6875 0H1.3125C0.964403 0 0.630564 0.140476 0.384422 0.390524C0.138281 0.640573 0 0.979711 0 1.33333V14.6667C0 15.0203 0.138281 15.3594 0.384422 15.6095C0.630564 15.8595 0.964403 16 1.3125 16H19.6875C20.0356 16 20.3694 15.8595 20.6156 15.6095C20.8617 15.3594 21 15.0203 21 14.6667V1.33333C21 0.979711 20.8617 0.640573 20.6156 0.390524C20.3694 0.140476 20.0356 0 19.6875 0V0ZM18.6769 14.6667H2.40187L6.99562 9.84L6.05063 8.91333L1.3125 13.8933V2.34667L9.46969 10.5933C9.7156 10.8417 10.0483 10.9811 10.395 10.9811C10.7417 10.9811 11.0744 10.8417 11.3203 10.5933L19.6875 2.14V13.8067L14.8575 8.9L13.9322 9.84L18.6769 14.6667ZM2.17219 1.33333H18.6244L10.395 9.64667L2.17219 1.33333Z" fill="black"/>
</svg>
