<svg width="66" height="92" viewBox="0 0 66 92" fill="none" xmlns="http://www.w3.org/2000/svg">
<g filter="url(#filter0_d)">
<circle cx="28" cy="28" r="23" fill="black"/>
<path d="M28 77L8.08142 39L47.9186 39L28 77Z" fill="black"/>
<circle cx="28" cy="28" r="13" fill="white"/>
<path d="M24.583 33.776H27.355V24.983C27.355 24.719 27.364 24.452 27.382 24.182L25.078 26.153C25.018 26.201 24.958 26.237 24.898 26.261C24.838 26.279 24.781 26.288 24.727 26.288C24.637 26.288 24.556 26.27 24.484 26.234C24.412 26.192 24.358 26.144 24.322 26.09L23.818 25.397L27.652 22.076H28.957V33.776H31.495V35H24.583V33.776Z" fill="black"/>
</g>
<defs>
<filter id="filter0_d" x="0" y="0" width="66" height="92" filterUnits="userSpaceOnUse" color-interpolation-filters="sRGB">
<feFlood flood-opacity="0" result="BackgroundImageFix"/>
<feColorMatrix in="SourceAlpha" type="matrix" values="0 0 0 0 0 0 0 0 0 0 0 0 0 0 0 0 0 0 127 0"/>
<feOffset dx="5" dy="5"/>
<feGaussianBlur stdDeviation="5"/>
<feColorMatrix type="matrix" values="0 0 0 0 0 0 0 0 0 0 0 0 0 0 0 0 0 0 0.05 0"/>
<feBlend mode="normal" in2="BackgroundImageFix" result="effect1_dropShadow"/>
<feBlend mode="normal" in="SourceGraphic" in2="effect1_dropShadow" result="shape"/>
</filter>
</defs>
</svg>
