<svg width="66" height="92" viewBox="0 0 66 92" fill="none" xmlns="http://www.w3.org/2000/svg">
<g filter="url(#filter0_d)">
<circle cx="28" cy="28" r="23" fill="black"/>
<path d="M28 77L8.08142 39L47.9186 39L28 77Z" fill="black"/>
<circle cx="28" cy="28" r="13" fill="white"/>
<path d="M28.58 21.959C29.126 21.959 29.63 22.037 30.092 22.193C30.554 22.349 30.95 22.571 31.28 22.859C31.616 23.147 31.877 23.495 32.063 23.903C32.249 24.311 32.342 24.764 32.342 25.262C32.342 25.67 32.288 26.036 32.18 26.36C32.078 26.678 31.928 26.96 31.73 27.206C31.538 27.446 31.304 27.65 31.028 27.818C30.752 27.986 30.443 28.121 30.101 28.223C30.941 28.445 31.571 28.817 31.991 29.339C32.417 29.861 32.63 30.515 32.63 31.301C32.63 31.895 32.516 32.429 32.288 32.903C32.066 33.377 31.76 33.782 31.37 34.118C30.98 34.448 30.524 34.703 30.002 34.883C29.486 35.057 28.931 35.144 28.337 35.144C27.653 35.144 27.068 35.06 26.582 34.892C26.096 34.718 25.685 34.481 25.349 34.181C25.013 33.881 24.737 33.527 24.521 33.119C24.305 32.705 24.122 32.258 23.972 31.778L24.656 31.49C24.782 31.436 24.908 31.409 25.034 31.409C25.154 31.409 25.259 31.436 25.349 31.49C25.445 31.538 25.517 31.616 25.565 31.724C25.577 31.748 25.589 31.775 25.601 31.805C25.613 31.829 25.625 31.856 25.637 31.886C25.721 32.06 25.823 32.258 25.943 32.48C26.063 32.696 26.225 32.9 26.429 33.092C26.633 33.284 26.885 33.446 27.185 33.578C27.491 33.71 27.869 33.776 28.319 33.776C28.769 33.776 29.162 33.704 29.498 33.56C29.84 33.41 30.122 33.218 30.344 32.984C30.572 32.75 30.743 32.489 30.857 32.201C30.971 31.913 31.028 31.628 31.028 31.346C31.028 30.998 30.98 30.68 30.884 30.392C30.794 30.104 30.626 29.855 30.38 29.645C30.14 29.435 29.804 29.27 29.372 29.15C28.946 29.03 28.397 28.97 27.725 28.97V27.809C28.271 27.803 28.736 27.743 29.12 27.629C29.51 27.515 29.828 27.359 30.074 27.161C30.32 26.963 30.497 26.726 30.605 26.45C30.719 26.174 30.776 25.868 30.776 25.532C30.776 25.16 30.716 24.836 30.596 24.56C30.482 24.284 30.323 24.056 30.119 23.876C29.915 23.696 29.672 23.561 29.39 23.471C29.114 23.381 28.814 23.336 28.49 23.336C28.166 23.336 27.866 23.384 27.59 23.48C27.314 23.576 27.068 23.711 26.852 23.885C26.642 24.053 26.465 24.257 26.321 24.497C26.177 24.731 26.069 24.986 25.997 25.262C25.949 25.436 25.877 25.562 25.781 25.64C25.685 25.718 25.562 25.757 25.412 25.757C25.382 25.757 25.349 25.757 25.313 25.757C25.283 25.751 25.247 25.745 25.205 25.739L24.368 25.595C24.452 25.007 24.614 24.488 24.854 24.038C25.094 23.582 25.397 23.201 25.763 22.895C26.135 22.589 26.558 22.358 27.032 22.202C27.512 22.04 28.028 21.959 28.58 21.959Z" fill="black"/>
</g>
<defs>
<filter id="filter0_d" x="0" y="0" width="66" height="92" filterUnits="userSpaceOnUse" color-interpolation-filters="sRGB">
<feFlood flood-opacity="0" result="BackgroundImageFix"/>
<feColorMatrix in="SourceAlpha" type="matrix" values="0 0 0 0 0 0 0 0 0 0 0 0 0 0 0 0 0 0 127 0"/>
<feOffset dx="5" dy="5"/>
<feGaussianBlur stdDeviation="5"/>
<feColorMatrix type="matrix" values="0 0 0 0 0 0 0 0 0 0 0 0 0 0 0 0 0 0 0.05 0"/>
<feBlend mode="normal" in2="BackgroundImageFix" result="effect1_dropShadow"/>
<feBlend mode="normal" in="SourceGraphic" in2="effect1_dropShadow" result="shape"/>
</filter>
</defs>
</svg>
