<svg width="66" height="92" viewBox="0 0 66 92" fill="none" xmlns="http://www.w3.org/2000/svg">
<g filter="url(#filter0_d)">
<circle cx="28" cy="28" r="23" fill="black"/>
<path d="M28 77L8.08142 39L47.9186 39L28 77Z" fill="black"/>
<circle cx="28" cy="28" r="13" fill="white"/>
<path d="M30.127 30.347H32.08V31.265C32.08 31.361 32.05 31.442 31.99 31.508C31.936 31.574 31.849 31.607 31.729 31.607H30.127V35H28.714V31.607H22.999C22.879 31.607 22.774 31.574 22.684 31.508C22.6 31.436 22.546 31.349 22.522 31.247L22.36 30.428L28.633 22.103H30.127V30.347ZM28.714 25.028C28.714 24.872 28.717 24.704 28.723 24.524C28.735 24.344 28.756 24.158 28.786 23.966L24.097 30.347H28.714V25.028Z" fill="black"/>
</g>
<defs>
<filter id="filter0_d" x="0" y="0" width="66" height="92" filterUnits="userSpaceOnUse" color-interpolation-filters="sRGB">
<feFlood flood-opacity="0" result="BackgroundImageFix"/>
<feColorMatrix in="SourceAlpha" type="matrix" values="0 0 0 0 0 0 0 0 0 0 0 0 0 0 0 0 0 0 127 0"/>
<feOffset dx="5" dy="5"/>
<feGaussianBlur stdDeviation="5"/>
<feColorMatrix type="matrix" values="0 0 0 0 0 0 0 0 0 0 0 0 0 0 0 0 0 0 0.05 0"/>
<feBlend mode="normal" in2="BackgroundImageFix" result="effect1_dropShadow"/>
<feBlend mode="normal" in="SourceGraphic" in2="effect1_dropShadow" result="shape"/>
</filter>
</defs>
</svg>
