<svg width="66" height="92" viewBox="0 0 66 92" fill="none" xmlns="http://www.w3.org/2000/svg">
<g filter="url(#filter0_d)">
<circle cx="28" cy="28" r="23" fill="black"/>
<path d="M28 77L8.08142 39L47.9186 39L28 77Z" fill="black"/>
<circle cx="28" cy="28" r="13" fill="white"/>
<path d="M28.409 21.959C28.955 21.959 29.465 22.04 29.939 22.202C30.413 22.364 30.821 22.601 31.163 22.913C31.511 23.219 31.784 23.594 31.982 24.038C32.18 24.482 32.279 24.986 32.279 25.55C32.279 26.03 32.207 26.474 32.063 26.882C31.919 27.29 31.724 27.683 31.478 28.061C31.232 28.433 30.947 28.796 30.623 29.15C30.305 29.498 29.966 29.855 29.606 30.221L26.213 33.695C26.453 33.629 26.696 33.578 26.942 33.542C27.188 33.5 27.425 33.479 27.653 33.479H31.973C32.147 33.479 32.285 33.53 32.387 33.632C32.489 33.734 32.54 33.866 32.54 34.028V35H23.936V34.451C23.936 34.337 23.957 34.22 23.999 34.1C24.047 33.98 24.122 33.869 24.224 33.767L28.355 29.618C28.697 29.27 29.009 28.937 29.291 28.619C29.573 28.295 29.813 27.971 30.011 27.647C30.215 27.323 30.371 26.996 30.479 26.666C30.587 26.33 30.641 25.973 30.641 25.595C30.641 25.217 30.581 24.887 30.461 24.605C30.341 24.317 30.176 24.08 29.966 23.894C29.756 23.708 29.51 23.57 29.228 23.48C28.946 23.384 28.643 23.336 28.319 23.336C27.995 23.336 27.695 23.384 27.419 23.48C27.143 23.576 26.897 23.711 26.681 23.885C26.471 24.053 26.291 24.254 26.141 24.488C25.997 24.722 25.895 24.98 25.835 25.262C25.787 25.436 25.715 25.562 25.619 25.64C25.523 25.718 25.397 25.757 25.241 25.757C25.211 25.757 25.178 25.757 25.142 25.757C25.112 25.751 25.076 25.745 25.034 25.739L24.197 25.595C24.281 25.007 24.443 24.488 24.683 24.038C24.923 23.582 25.226 23.201 25.592 22.895C25.964 22.589 26.387 22.358 26.861 22.202C27.341 22.04 27.857 21.959 28.409 21.959Z" fill="black"/>
</g>
<defs>
<filter id="filter0_d" x="0" y="0" width="66" height="92" filterUnits="userSpaceOnUse" color-interpolation-filters="sRGB">
<feFlood flood-opacity="0" result="BackgroundImageFix"/>
<feColorMatrix in="SourceAlpha" type="matrix" values="0 0 0 0 0 0 0 0 0 0 0 0 0 0 0 0 0 0 127 0"/>
<feOffset dx="5" dy="5"/>
<feGaussianBlur stdDeviation="5"/>
<feColorMatrix type="matrix" values="0 0 0 0 0 0 0 0 0 0 0 0 0 0 0 0 0 0 0.05 0"/>
<feBlend mode="normal" in2="BackgroundImageFix" result="effect1_dropShadow"/>
<feBlend mode="normal" in="SourceGraphic" in2="effect1_dropShadow" result="shape"/>
</filter>
</defs>
</svg>
