<svg width="69" height="55" viewBox="0 0 69 55" fill="none" xmlns="http://www.w3.org/2000/svg">
<path d="M4.76405 54.66C4.76405 54.618 4.80605 54.582 4.91405 54.582C4.97405 54.582 5.04005 54.588 5.10005 54.588C5.73605 54.588 5.85605 54.276 5.85605 53.172C5.85605 52.002 5.73605 52.026 4.60205 52.026C4.39205 52.026 3.45005 52.122 3.22805 52.122C2.98805 52.122 2.42405 52.038 2.20205 52.038C1.98005 52.038 1.81805 52.116 1.81805 52.428C1.81805 52.626 1.86005 52.812 1.86005 53.004C1.86005 53.172 1.79405 53.316 1.79405 53.478C1.79405 54.324 1.91405 54.498 2.83805 54.582C2.94605 54.588 2.98805 54.624 2.98805 54.666C2.98805 54.726 2.88005 54.792 2.74205 54.792C2.35205 54.792 1.96205 54.774 1.57205 54.774C1.37405 54.774 1.18205 54.774 0.984053 54.792C0.864053 54.774 0.816053 54.768 0.816053 54.69C0.816053 54.606 0.900053 54.51 1.02005 54.504C1.42805 54.486 1.51805 54.276 1.51805 54.048C1.51805 53.862 1.45205 53.664 1.45205 53.52C1.45205 53.334 1.51805 53.172 1.51805 52.992C1.51805 52.806 1.47605 52.62 1.47605 52.434C1.47605 52.11 1.53605 51.78 1.53605 51.456C1.53605 51.144 1.45205 50.904 1.41605 50.622C1.38005 50.334 1.39205 50.046 1.39205 49.734C1.39205 49.572 1.32605 49.404 0.834053 49.392C0.714053 49.374 0.654053 49.296 0.654053 49.224C0.654053 49.146 0.804053 49.128 1.03805 49.128C1.62605 49.128 2.76005 49.128 2.76005 49.212C2.76005 49.638 1.72805 49.044 1.72805 49.884C1.72805 50.13 1.73405 50.37 1.76405 50.604C1.80005 50.874 1.87205 51.138 1.87205 51.42C1.87205 51.732 2.73005 51.768 2.90405 51.768C3.59405 51.768 4.28405 51.684 4.82405 51.684C5.67005 51.684 5.85005 51.6 5.85005 50.232C5.85005 49.554 5.68205 49.428 4.95005 49.374C4.83005 49.368 4.69805 49.35 4.69805 49.278C4.69805 49.2 4.76405 49.11 4.88405 49.11C5.27405 49.11 5.67005 49.116 6.06605 49.116C6.17405 49.116 6.37205 49.092 6.54005 49.092C6.72005 49.092 6.88205 49.128 6.88205 49.236C6.88205 49.314 6.71405 49.362 6.60005 49.374C6.03005 49.422 6.20405 50.052 6.12605 50.262C6.12605 50.424 6.16805 50.616 6.16805 50.772C6.16805 51.012 6.10205 51.282 6.10205 51.516C6.10205 52.116 6.18605 52.422 6.18605 53.298C6.18605 53.502 6.16205 53.694 6.16205 53.85C6.16205 54.672 6.90005 54.63 6.90005 54.672C6.90005 54.756 6.89405 54.774 6.72005 54.774C6.62405 54.774 6.49805 54.768 6.29405 54.768C5.76005 54.768 5.14205 54.774 4.94405 54.774C4.83605 54.786 4.76405 54.72 4.76405 54.66Z" fill="black"/>
<path d="M12.9061 50.8559C12.9721 50.8559 13.0441 50.9039 13.0741 50.9999C13.0741 51.2399 13.0501 51.4739 13.0381 51.7139C13.0381 51.7979 13.0201 51.8759 13.0201 51.9779C13.0201 52.1879 13.1161 52.3919 13.1161 52.5179C13.1161 52.5959 13.0741 52.6859 12.9661 52.6859C12.9661 52.6859 12.8641 52.6619 12.8641 52.5779C12.8641 52.0199 12.7561 51.9419 12.3121 51.9419C10.6561 51.9419 10.6321 51.8159 10.6321 53.2379C10.6321 54.3179 10.8841 54.4679 11.2861 54.4679C11.6341 54.4679 12.1021 54.5639 12.4741 54.5639C13.2781 54.5639 13.9441 54.4379 13.9441 53.8319V53.8079C13.9441 53.6819 14.0041 53.5979 14.1061 53.5979C14.1901 53.5979 14.2861 53.6639 14.2861 53.8259C14.2861 53.9699 14.1901 54.1199 14.1361 54.2399C14.0761 54.3479 14.0401 54.4859 13.9921 54.5939C13.8901 54.7979 13.5961 54.8459 13.2901 54.8459C12.0121 54.8459 11.1601 54.7679 10.0261 54.7679C9.90606 54.7679 9.78006 54.7919 9.68406 54.7919C9.58806 54.7919 9.53406 54.7679 9.53406 54.6839C9.53406 54.6059 9.59406 54.5159 9.70206 54.5159C10.2301 54.5159 10.2541 54.1499 10.2541 53.4119C10.2541 52.6259 10.4221 51.1799 10.4221 50.4359C10.4221 49.7339 10.4221 49.3559 9.92406 49.3559C9.79806 49.3559 9.65406 49.3379 9.65406 49.2539C9.65406 49.1519 9.82206 49.1459 9.99606 49.1459C10.2901 49.1459 10.5961 49.1519 11.0641 49.1519C11.2861 49.1519 11.6041 49.0859 11.8501 49.0859C12.3241 49.0859 12.7981 49.1459 13.3261 49.1459C13.4521 49.1459 13.5781 49.2659 13.5781 49.4279C13.5781 49.6919 13.7221 49.8779 13.7221 50.1299C13.7221 50.2499 13.6381 50.3159 13.5541 50.3159C13.3441 50.3159 13.3021 49.4999 12.9001 49.4999C12.3061 49.4999 11.7181 49.4339 11.2381 49.4339C10.9501 49.4339 10.7221 49.4339 10.7221 49.7639C10.7221 50.2919 10.6561 50.8499 10.6561 51.1319C10.6561 51.6419 10.8961 51.6419 12.2581 51.6419C12.5641 51.6419 12.7501 51.5579 12.7501 51.0059C12.7321 50.9099 12.8281 50.8559 12.9061 50.8559Z" fill="black"/>
<path d="M18.162 49.296C18.282 49.524 18.516 49.65 18.648 49.872C18.732 50.022 18.786 50.202 18.876 50.358C19.08 50.712 19.332 51.018 19.512 51.39C19.722 51.84 19.866 52.326 20.04 52.788C20.148 53.112 20.286 53.442 20.37 53.772C20.478 53.46 20.616 53.142 20.796 52.848C21 52.506 21.246 52.212 21.414 51.864C21.6 51.48 21.738 51.09 21.924 50.718C22.152 50.232 22.434 49.8 22.71 49.362C22.854 49.14 23.208 49.134 23.634 49.134C23.82 49.134 24.042 49.134 24.042 49.272C24.042 49.314 24.036 49.356 24.006 49.368C23.712 49.476 23.232 49.146 23.232 50.37C23.232 50.568 23.25 50.802 23.25 51.09C23.25 51.528 23.232 52.05 23.232 52.416C23.232 52.866 23.316 53.334 23.316 53.766C23.316 54.726 24.036 54.606 24.036 54.744C24.036 54.78 24.012 54.882 23.91 54.882C23.712 54.882 23.496 54.822 23.28 54.822C23.094 54.822 22.908 54.78 22.722 54.78C22.482 54.78 22.29 54.876 22.104 54.876C22.056 54.876 22.026 54.81 22.026 54.738C22.026 54.66 22.05 54.588 22.104 54.576C22.662 54.456 22.962 54.39 22.962 53.688C22.962 53.28 22.896 52.824 22.896 52.44C22.896 51.66 22.938 50.958 22.938 50.13C22.938 49.968 22.932 49.818 22.914 49.698C22.728 49.98 22.464 50.376 22.218 50.88C22.032 51.252 21.906 51.654 21.72 52.026C21.54 52.392 21.276 52.704 21.078 53.058C20.784 53.574 20.586 54.15 20.466 54.738C20.43 54.834 20.364 54.864 20.304 54.864C20.052 54.864 20.136 54.276 20.076 53.982C19.998 53.616 19.854 53.28 19.728 52.932C19.56 52.476 19.422 52.026 19.218 51.576C19.05 51.204 18.774 50.904 18.582 50.55C18.432 50.28 18.378 50.034 18.15 49.806C18.186 50.214 18.216 50.64 18.216 51.054C18.216 51.234 18.15 51.36 18.15 51.522C18.15 51.69 18.186 51.852 18.186 52.014C18.186 52.386 18.042 52.752 18.018 53.124C18.012 53.274 17.994 53.658 17.994 53.94C17.994 54.042 18 54.126 18 54.18C18.018 54.768 18.744 54.504 18.744 54.714C18.744 54.792 18.696 54.864 18.594 54.882C18.042 54.84 17.904 54.828 17.862 54.828C17.766 54.828 17.61 54.78 17.472 54.78C17.274 54.78 17.1 54.846 16.98 54.846C16.872 54.846 16.812 54.768 16.812 54.684C16.812 54.48 17.106 54.636 17.346 54.498C17.73 54.276 17.64 53.55 17.676 53.082C17.7 52.71 17.844 52.35 17.844 51.996C17.844 51.846 17.808 51.69 17.808 51.546C17.808 51.354 17.874 51.222 17.874 51.006C17.874 50.814 17.88 50.61 17.88 50.406C17.88 49.92 17.802 49.5 17.28 49.5C17.214 49.5 17.136 49.5 17.07 49.506C16.962 49.488 16.902 49.41 16.902 49.338C16.902 49.17 17.106 49.158 17.292 49.158C17.496 49.158 17.688 49.182 17.892 49.194C18.018 49.17 18.114 49.206 18.162 49.296Z" fill="black"/>
<path d="M26.8201 54.666C26.8201 54.48 27.4801 54.732 27.4801 54.15C27.4801 53.634 27.5461 53.124 27.5461 52.608C27.5461 52.176 27.4201 51.768 27.4201 51.354C27.4201 51.042 27.5461 50.754 27.5461 50.448C27.5461 50.16 27.5401 49.47 27.2341 49.47C27.0961 49.47 26.9641 49.518 26.8681 49.518C26.7601 49.518 26.7001 49.44 26.7001 49.356C26.7001 49.17 26.9941 49.134 27.1921 49.134C27.4981 49.134 27.7861 49.23 28.1281 49.23C28.4761 49.23 28.6861 49.152 28.9501 49.152C29.7121 49.152 30.8161 49.68 30.8161 50.676C30.8161 51.558 29.3761 52.104 28.6441 52.104C28.2301 52.104 28.0561 52.038 28.0561 51.894C28.0561 51.798 28.1161 51.774 28.1941 51.774C28.2721 51.774 28.3801 51.798 28.4581 51.798C29.1301 51.798 30.4921 51.408 30.4921 50.646C30.4921 50.232 30.0361 49.788 29.6941 49.638C29.3821 49.5 28.8601 49.452 28.6141 49.452C28.1161 49.452 27.8821 49.698 27.8821 50.43C27.8821 50.736 27.7561 51.006 27.7561 51.312C27.7561 51.48 27.8041 51.654 27.8341 51.822C27.8761 52.068 27.8821 52.32 27.8821 52.584C27.8821 53.16 27.9181 54.456 28.2301 54.456C28.4821 54.456 28.9681 54.564 28.9681 54.66C28.9681 54.726 28.9081 54.762 28.7881 54.786C28.6021 54.786 28.3921 54.768 28.2001 54.768C27.7861 54.768 27.4021 54.786 26.9941 54.786C26.8981 54.768 26.8201 54.738 26.8201 54.666Z" fill="black"/>
<path d="M36.9241 50.1299C36.9241 50.2379 36.8821 50.2799 36.7861 50.2799C36.6001 50.2799 36.7681 49.9139 36.1561 49.4399C35.9881 49.3139 35.8081 49.2959 35.6041 49.2959C34.9081 49.2959 34.2961 49.7459 34.2961 50.5319C34.2961 50.7779 34.6801 51.3479 34.9321 51.5759C35.0161 51.6539 35.2621 51.7799 35.2981 51.8039C35.8261 52.1279 36.8101 52.3799 36.8101 53.5619C36.8101 54.3059 36.1921 54.8879 35.2561 54.8879C34.0861 54.8879 33.6421 54.6059 33.6421 53.5199C33.6421 53.4539 33.6601 53.3939 33.7501 53.3819C33.9541 53.3819 34.0621 54.5639 35.0221 54.5639C35.8081 54.5639 36.3541 54.1799 36.3541 53.5979C36.3541 52.6679 35.2861 52.2839 34.7281 51.8519C34.2961 51.5219 33.9481 51.0539 33.9481 50.5559C33.9481 49.7219 34.5781 49.0559 35.4001 49.0559C35.6101 49.0559 35.9401 49.0619 36.1441 49.0799C36.8581 49.1339 36.9241 49.4279 36.9241 50.1299Z" fill="black"/>
<path d="M44.2801 49.152C44.7121 49.152 44.7781 48.984 44.8561 48.984C44.9041 48.984 44.9161 49.05 44.9521 49.128C44.9461 49.368 44.8741 49.584 44.8741 50.046C44.8741 50.208 44.8681 50.328 44.7901 50.328C44.4241 50.328 44.9821 49.47 43.6441 49.47C42.5581 49.47 42.3901 49.572 42.3901 50.694C42.3901 51.12 42.4501 51.678 42.4501 52.11C42.4501 52.332 42.3541 52.536 42.3541 52.746C42.3541 52.782 42.3121 53.364 42.3121 53.406C42.4081 54.438 42.5161 54.528 43.3201 54.576C43.4221 54.582 43.4221 54.612 43.4221 54.678C43.4221 54.786 43.2541 54.816 43.0681 54.816C42.4501 54.816 41.8321 54.792 41.2441 54.792C41.0761 54.792 41.0401 54.81 41.0401 54.666C41.0401 54.588 41.0821 54.582 41.1481 54.582C41.2981 54.582 41.3761 54.456 41.5561 54.456C41.9701 54.456 42.0841 54.192 42.0841 53.712C42.0841 53.484 42.0241 52.998 42.0241 52.854C42.0241 52.65 42.1201 52.386 42.1201 52.164C42.1201 51.816 42.0361 51.462 42.0361 51.114C42.0361 50.772 42.1621 50.334 42.1621 50.01C42.1621 49.74 42.0661 49.44 41.7361 49.44C41.3101 49.44 40.8781 49.518 40.4221 49.518C39.9241 49.518 39.8701 50.256 39.7261 50.256C39.6421 50.25 39.5581 50.256 39.5581 50.148C39.5581 50.01 39.7381 49.446 39.7981 49.248L39.8641 48.984C39.8701 48.936 39.9121 48.906 39.9601 48.906C40.0021 48.906 40.0381 48.924 40.0441 48.954C40.0921 49.158 40.3561 49.2 40.6201 49.2C40.8061 49.2 40.9921 49.176 41.0941 49.176C41.2921 49.176 41.4841 49.194 41.6701 49.194C42.4681 49.194 43.2541 49.146 44.0521 49.146C44.1361 49.146 44.2081 49.152 44.2801 49.152Z" fill="black"/>
<path d="M50.6641 48.9661C51.3841 48.9661 52.1341 49.3561 52.5301 49.8301C52.6561 49.9801 52.8241 50.1181 52.9201 50.2981C53.2021 50.8141 53.3161 51.3061 53.3161 51.7981C53.3161 52.4161 53.1241 53.0221 52.8301 53.6701C52.7221 53.9101 52.5841 54.1681 52.3861 54.3421C51.8941 54.7681 50.8141 54.9601 50.5441 54.9601C50.1541 54.9601 49.2121 54.5881 48.8161 54.3601C48.6121 54.2521 48.4261 53.9881 48.2641 53.8201C47.6941 53.2321 47.4901 52.5721 47.4901 51.7081C47.4901 50.6161 48.2881 49.5781 49.2541 49.2661C49.7221 49.1461 50.1901 48.9661 50.6641 48.9661ZM50.4541 49.3261C50.1901 49.3261 49.8661 49.4761 49.5661 49.5361C48.4621 49.7581 47.8081 50.9761 47.8081 51.8761C47.8081 52.2901 47.9041 52.6141 48.0481 52.9381C48.1741 53.2261 48.7681 54.0001 49.0561 54.0901C49.4401 54.2161 50.1001 54.6301 50.4901 54.6301C50.8441 54.6301 51.2041 54.4921 51.5341 54.3841C51.7321 54.3181 52.0021 54.2401 52.1521 54.1021C52.7641 53.5441 52.9921 52.2841 52.9921 51.7801C52.9921 51.4681 52.9501 51.1501 52.8301 50.8561C52.6861 50.4901 52.4341 50.2621 52.2121 49.9561C51.8281 49.4401 51.8041 49.6141 51.1861 49.4641C51.0301 49.4341 50.6581 49.3261 50.4541 49.3261Z" fill="black"/>
<path d="M59.208 52.146C59.208 52.266 59.616 52.848 59.742 53.082C60.156 53.844 60.678 54.51 61.242 54.666C61.368 54.672 61.41 54.732 61.41 54.786C61.41 54.828 61.374 54.864 61.344 54.864C60.174 54.864 59.628 53.886 59.292 52.914C59.172 52.566 58.92 52.278 58.638 52.278C58.344 52.278 58.044 52.212 57.732 52.212C57.51 52.212 57.42 52.29 57.42 52.68C57.42 53.034 57.48 53.616 57.48 54.096C57.48 54.756 58.47 54.402 58.47 54.648C58.47 54.732 58.446 54.798 58.362 54.798C58.2 54.798 58.008 54.762 57.792 54.762C57.468 54.762 57.03 54.81 56.712 54.81C56.484 54.81 56.322 54.786 56.322 54.684C56.322 54.606 56.346 54.564 56.466 54.564C56.922 54.564 57.156 54.546 57.156 54.066C57.156 53.922 57.114 53.712 57.114 53.496C57.114 53.244 57.156 52.968 57.156 52.782C57.156 51.924 57.138 51.138 57.138 50.244C57.138 49.92 57.114 49.608 56.796 49.506C56.616 49.446 56.4 49.47 56.4 49.278C56.4 49.2 56.442 49.194 56.526 49.194C56.868 49.194 57.126 49.092 57.552 49.092C57.936 49.092 58.326 49.116 58.686 49.158C59.178 49.218 60.426 49.464 60.426 50.55C60.426 50.694 60.402 50.844 60.36 51.018C60.222 51.684 59.208 52.08 59.208 52.146ZM57.918 49.44C57.468 49.44 57.462 49.338 57.462 50.406C57.462 51.552 57.462 51.9 58.236 51.9C59.112 51.9 60.168 51.366 60.168 50.418C60.168 49.74 59.016 49.494 58.158 49.452C58.068 49.452 57.99 49.44 57.918 49.44Z" fill="black"/>
<path d="M66.816 49.236C66.816 49.158 66.84 49.14 66.966 49.14C67.314 49.14 67.62 49.224 67.908 49.224C68.004 49.224 68.154 49.146 68.274 49.146C68.4 49.146 68.514 49.164 68.514 49.23C68.514 49.332 68.436 49.374 68.346 49.374C68.148 49.374 68.034 49.458 67.974 49.5C67.446 50.034 66.894 50.88 66.546 51.348C66.438 51.492 66.036 51.864 66.036 52.152C66.036 52.32 66.078 52.506 66.084 52.602C66.084 53.046 65.958 53.478 65.958 53.91C65.958 54.756 67.044 54.462 67.044 54.63C67.044 54.708 67.02 54.792 66.96 54.798C66.174 54.78 65.85 54.762 65.832 54.756C65.568 54.756 65.238 54.774 64.866 54.774C64.698 54.774 64.686 54.756 64.686 54.69C64.686 54.57 64.728 54.564 64.878 54.552C65.394 54.528 65.622 54.6 65.622 54.018C65.622 53.466 65.718 52.992 65.718 52.5C65.718 52.458 65.712 52.422 65.7 52.38C65.478 51.726 64.956 51.234 64.596 50.652C64.356 50.262 64.164 49.404 63.414 49.362C63.294 49.356 63.27 49.314 63.27 49.236C63.27 49.158 63.348 49.14 63.534 49.14C63.72 49.14 64.02 49.158 64.452 49.158C64.68 49.158 64.884 49.134 65.04 49.134C65.184 49.134 65.28 49.158 65.28 49.254C65.28 49.356 65.202 49.374 65.112 49.374C65.076 49.374 64.95 49.44 64.764 49.458C64.596 49.476 64.524 49.56 64.524 49.68C64.524 49.89 64.728 50.208 64.89 50.478C65.172 50.964 65.478 51.426 65.778 51.888C65.898 51.642 66.102 51.396 66.228 51.216C66.438 50.928 67.308 50.022 67.308 49.596C67.308 49.47 67.23 49.386 67.044 49.374C66.87 49.38 66.816 49.35 66.816 49.236Z" fill="black"/>
<path d="M41.016 37.05C41.016 36.768 41.298 36.546 42.024 36.546C42.414 36.546 42.864 36.6 43.254 36.6C47.448 36.6 48.234 34.53 48.234 27.258C48.234 19.536 47.448 19.704 39.954 19.704C38.556 19.704 32.346 20.322 30.894 20.322C29.328 20.322 25.578 19.764 24.126 19.764C22.674 19.764 21.606 20.268 21.606 22.338C21.606 23.622 21.888 24.858 21.888 26.142C21.888 27.264 21.438 28.212 21.438 29.274C21.438 34.866 22.224 35.988 28.32 36.546C29.046 36.6 29.328 36.828 29.328 37.104C29.328 37.494 28.602 37.944 27.708 37.944C25.134 37.944 22.56 37.83 19.986 37.83C18.702 37.83 17.412 37.83 16.128 37.944C15.342 37.83 15.006 37.776 15.006 37.272C15.006 36.714 15.564 36.096 16.35 36.042C19.038 35.928 19.65 34.53 19.65 33.024C19.65 31.794 19.2 30.504 19.2 29.556C19.2 28.326 19.65 27.264 19.65 26.088C19.65 24.858 19.368 23.628 19.368 22.398C19.368 20.274 19.758 18.09 19.758 15.966C19.758 13.896 19.2 12.33 18.972 10.482C18.75 8.58 18.804 6.678 18.804 4.608C18.804 3.546 18.354 2.424 15.114 2.37C14.328 2.256 13.938 1.752 13.938 1.248C13.938 0.743996 14.946 0.629996 16.458 0.629996C20.316 0.629996 27.816 0.629996 27.816 1.188C27.816 3.984 20.994 0.0659965 20.994 5.604C20.994 7.23 21.048 8.796 21.216 10.362C21.438 12.15 21.942 13.884 21.942 15.732C21.942 17.802 27.594 18.024 28.764 18.024C33.294 18.024 37.884 17.466 41.406 17.466C46.998 17.466 48.174 16.908 48.174 7.902C48.174 3.426 47.058 2.586 42.246 2.25C41.46 2.196 40.566 2.082 40.566 1.632C40.566 1.128 41.016 0.509996 41.796 0.509996C44.37 0.509996 46.998 0.563997 49.572 0.563997C50.298 0.563997 51.588 0.395996 52.704 0.395996C53.88 0.395996 54.942 0.617996 54.942 1.344C54.942 1.848 53.82 2.184 53.094 2.238C49.344 2.574 50.466 6.714 49.962 8.112C49.962 9.174 50.244 10.458 50.244 11.466C50.244 13.032 49.794 14.82 49.794 16.386C49.794 20.358 50.352 22.374 50.352 28.134C50.352 29.478 50.184 30.762 50.184 31.77C50.184 37.194 55.05 36.918 55.05 37.194C55.05 37.752 54.996 37.866 53.874 37.866C53.256 37.866 52.422 37.812 51.078 37.812C47.556 37.812 43.47 37.866 42.186 37.866C41.52 37.89 41.016 37.44 41.016 37.05Z" fill="black"/>
</svg>
