<svg width="66" height="55" viewBox="0 0 66 55" fill="none" xmlns="http://www.w3.org/2000/svg">
<path d="M39.8309 15.4102H0.615479V54.8928H39.8309V15.4102Z" fill="white"/>
<path d="M62.2168 5.09876L62.3771 5.04534L62.5374 4.99191L62.6442 4.93848L62.7511 4.83163L62.8579 4.72477L62.9648 4.56449C63.499 3.44252 62.9113 2.53426 61.6291 2.58769H59.9194V4.72477V7.02214H60.614V5.04534H61.2017L62.4305 7.02214H63.1785L61.9497 5.04534L62.2168 5.09876ZM60.7208 3.22882H61.5757C62.8045 3.12196 62.8045 4.72477 61.5757 4.56449H60.7208V3.22882Z" fill="#1D1A18"/>
<path d="M65.1551 4.4577C64.514 -0.0301716 58.3164 -0.0301716 57.6753 4.4577V4.77827V4.88512C57.889 9.90726 64.9948 9.90726 65.2085 4.88512V4.77827L65.1551 4.4577ZM64.4605 4.77827V4.88512C64.3537 9.15929 58.4767 9.15929 58.3698 4.88512V4.77827V4.51113C58.8507 0.771234 63.9797 0.771234 64.4071 4.51113L64.4605 4.77827Z" fill="#1D1A18"/>
<path d="M0.615479 54.8928H10.0721L0.615479 43.406V54.8928Z" fill="#C7C7C7"/>
<path d="M0.615479 15.1431V17.2267L4.94307 23.2106L6.33217 24.5997L7.13358 25.7216L8.41583 27.6984L13.2243 34.0028L20.3835 42.3909L31.7635 54.8928H40.2049L40.0981 15.1431H0.615479Z" fill="#C5C5C5"/>
<path d="M0.615479 0.0771484V15.4107H39.8309V54.8933H55.4316V0.0771484H0.615479Z" fill="#1D1A18"/>
<path d="M48.1655 7.23589H47.3641V4.19055H48.1655C50.7834 4.03027 50.7834 7.4496 48.1655 7.23589ZM53.241 5.41937L53.1876 5.09881C52.8671 2.64116 50.5163 2.10689 48.3792 2.05347H47.8983H44.1584V9.37297V13.2197H47.3106V9.31955V9.26612H48.5929H49.0203C51.2642 9.15927 53.241 8.14415 53.2945 5.68651L53.241 5.41937Z" fill="white"/>
<path d="M41.754 2.10718H36.999L34.4345 9.42669L34.381 9.53354H34.3276V9.42669L31.87 2.10718H26.9012V9.42669V13.2734H30L29.9466 9.42669L29.8932 4.67168H29.9466L31.496 9.42669L32.8316 13.2734H35.7167L36.999 9.53354L37.1058 9.2664L38.7086 4.67168V9.31983L38.6552 13.2734H41.754V9.42669V2.10718Z" fill="white"/>
<path d="M19.5287 11.1898V9.53354V9.42669V9.31983V8.62528H24.3906V6.4882H19.5287V4.19083H24.7111V2.10718H16.4299V9.42669V13.2734H24.8714V11.1898H19.5287Z" fill="white"/>
<path d="M10.7663 2.10718V6.38134H7.07981V2.10718H3.92761V9.42669V13.2734H7.07981V9.48011V8.465H10.7663V9.42669V13.2734H13.9185V9.48011V9.42669V2.10718H10.7663Z" fill="white"/>
<path d="M41.754 16.479V18.0284H47.0433V21.982H48.5393V18.0284H51.9586V22.1423H53.4011V16.479H41.754ZM41.754 24.2259V30.2098H43.25V25.7753H53.4011V24.2259H41.754ZM41.754 30.6906V32.2934L44.6925 33.362V38.5978L41.754 39.6663V41.3226L53.4011 36.8347V35.2319L41.754 30.6906ZM46.0816 38.117V33.8962L51.8517 36.0333L46.0816 38.117ZM41.754 41.8034V43.62L46.6693 46.6653L41.754 49.8175V51.7409L47.8447 47.7873L53.4011 51.3669V49.6038L48.9133 46.7722L53.4011 43.9405V42.124L47.7913 45.7036L41.754 41.8034Z" fill="white"/>
<path d="M7.93481 33.7894V33.2017L7.98824 32.614C10.1253 15.6242 33.9538 16.1051 35.3429 33.2017V33.7894V34.3771C33.9538 51.4738 10.1253 51.9546 7.98824 34.9648L7.93481 34.3771V33.7894Z" fill="white"/>
<path d="M33.4194 54.8929L33.2591 54.4655L33.1523 54.0381C32.6714 52.5422 32.5646 50.6188 32.8851 49.0694L32.9386 48.9091L32.992 48.6954L33.0454 48.4817C33.1523 48.0009 33.366 47.5734 33.4728 47.0926L33.5263 46.8789L33.5797 46.6652C33.6865 46.3446 33.74 45.9706 33.8468 45.6501L33.9003 45.5966L33.9537 45.5432H34.0071L34.0605 45.8103V46.0775C34.0071 47.6269 33.9537 47.894 34.3811 49.39L34.4345 49.4968L34.488 49.6037C35.1825 51.0462 35.5565 52.649 35.5565 54.2518V54.5724V54.8929H33.4194Z" fill="#1D1A18"/>
<path d="M11.6749 54.0913C10.5529 52.8091 9.43094 51.5803 8.30898 50.298L7.82813 49.6569C6.33218 48.0541 7.561 45.7567 7.29386 43.8333V43.5662L7.24044 43.2991C6.91987 41.6962 5.95819 39.3455 5.10335 37.9564V37.9029H5.04993V37.9564C5.04993 38.4372 5.15678 38.918 5.10335 39.3989V39.6126V39.8797C5.10335 40.04 5.10335 40.1469 5.04993 40.3071C3.76768 38.7578 2.48543 37.155 1.2566 35.5521L0.668906 34.7507V38.5441L1.52374 39.5592C2.64571 40.9483 3.76768 42.2839 4.83622 43.673V43.7799C5.21021 45.2759 5.95819 46.5581 6.43903 48.1609C4.62251 46.0773 2.80599 43.9402 1.14975 41.6962L0.615479 41.0017V44.1005L1.14975 44.795C2.432 46.4513 3.76768 48.0541 5.10335 49.6569C4.03481 49.8706 2.48543 48.4281 0.882614 48.5883H0.615479V51.3131H0.936041C4.51565 51.2063 4.03481 48.8555 6.59931 51.42L6.70616 51.5268V51.4734C7.40072 52.3282 8.1487 53.1296 8.89667 53.9845L9.59123 54.8927H12.4229L11.6749 54.0913Z" fill="#1D1A18"/>
<path d="M14.5065 54.8932L14.0256 54.359L13.5448 53.8247C11.4611 51.6876 9.75146 49.4971 7.82809 47.1997V46.986V46.7723C7.82809 45.8106 7.88151 44.8489 7.77466 43.9407V43.7804V43.6201L8.14865 44.101C10.9269 47.734 13.8119 50.8862 16.9107 54.3055L17.5518 55.0001H14.5065V54.8932Z" fill="#1D1A18"/>
<path d="M19.4752 54.8931L18.8875 54.252C12.8503 47.1462 6.49246 40.0404 1.04289 32.5072L0.615479 31.9195V28.7139L0.989468 29.1947C7.29386 38.117 14.4531 46.1845 21.7726 54.3589L22.3069 54.9466L19.4752 54.8931Z" fill="#1D1A18"/>
<path d="M26.7413 54.4121L26.2605 53.8779C22.6274 49.8174 18.9944 45.757 15.4682 41.5362L14.7736 40.7348L14.0791 39.88C10.8735 35.9798 7.88156 31.9728 4.67593 28.126L4.72936 28.0726C5.53077 26.6301 6.91987 25.615 7.45414 24.0121L7.561 23.6916L7.61442 23.3176L7.66785 22.9436C7.82813 21.7148 7.66785 20.486 7.72128 19.2571V19.1503V19.0434C7.7747 18.7229 7.93499 18.4023 8.04184 18.0817V18.0283V17.9749C7.72128 18.2954 7.40071 18.7229 7.24043 19.1503L7.08015 19.4708L6.91987 19.7914C6.3856 20.9134 5.85133 21.9819 5.21021 22.997L4.30195 21.7682L3.34026 20.4325L2.432 19.0968L1.52374 17.7612L0.615479 16.3721V20.1654L1.31003 20.9668C2.48543 22.3559 3.60739 23.7984 4.72936 25.241C4.72936 25.615 4.72936 26.0424 4.72936 26.4164V26.6301V26.8438C4.67593 27.3246 4.67593 27.4849 4.4088 27.8055C3.66082 26.8972 2.91284 25.9889 2.11144 25.0807L1.36346 24.2258L0.615479 23.371V26.4698L1.09632 27.0041L1.57717 27.5383C4.83622 31.4385 7.88156 35.499 11.0872 39.506L11.7283 40.254L12.3694 41.0019C16.0025 45.3295 19.7958 49.4434 23.4823 53.6642L24.0165 54.2519L24.4974 54.8396H27.2222L26.7413 54.4121Z" fill="#1D1A18"/>
<path d="M37.6403 38.8114C37.106 38.9183 36.6786 39.0785 36.3046 39.3457L35.7169 39.7197C34.6484 40.4142 33.5798 41.0553 32.4044 41.5896L32.1373 41.7499L31.9236 41.9102L31.7099 42.0704C30.6948 42.8184 30.1605 45.0089 29.092 45.1158H29.0385L29.4125 43.7267V43.6733C30.1605 41.5896 31.3359 39.8799 32.1373 37.9031L32.2442 37.636L32.351 37.3689C32.9921 35.6058 32.5647 31.4919 31.8702 29.7288L31.8167 29.6219L31.7633 29.5151L31.7099 29.4617L31.6565 29.4082H31.603H31.5496H31.4962V29.4617V29.5151V29.5685V29.6754V29.7822V29.8891V29.9959V30.1562V30.3165V30.4768C31.5496 31.4919 30.9619 32.9344 30.5879 33.8427L30.3742 34.3235L30.1071 34.8044L29.8399 35.2852C28.5577 37.0483 29.092 40.8951 28.8783 43.0321V43.2993L28.8248 43.5664L28.4508 44.7952V44.7418C26.9549 42.017 27.0083 40.5211 26.2069 37.6894L26.1 37.3689L26.1535 37.1017C24.0698 31.385 21.3985 30.8508 18.0326 26.6835L17.7654 26.3095L17.4449 25.9355H17.3914V25.9889V26.0423C17.5517 27.1643 18.6203 28.7137 19.208 29.6219L19.4217 29.9959L19.6354 30.3699C20.9176 32.7741 21.7725 35.4455 22.6807 38.01L22.8944 38.384L23.1081 38.758L23.3218 39.132C24.8712 41.8033 26.9549 42.2307 28.2371 44.9021V44.9555H28.1837C26.4206 44.5281 24.9247 43.3527 23.5355 42.1773L23.2684 41.9636L23.0013 41.7499C21.4519 40.4676 20.0628 39.7731 18.46 39.2388C14.7735 34.9646 11.1405 30.6371 7.72114 26.1492L7.24029 25.5081C6.97316 25.9355 6.6526 26.4163 6.27861 26.7369L6.17175 26.8437L6.54574 27.3246C9.53766 31.7056 12.7967 35.6592 16.1626 39.6662L17.9257 41.6965L18.5134 42.391C22.093 46.5049 25.6726 50.6188 29.3591 54.6258L29.6797 54.9998H32.0839H32.6716H33.2058L33.1524 54.9464C31.8167 53.5573 30.9619 51.4736 30.5345 49.6571L30.4276 49.0694L30.2674 48.5886L30.1071 48.1077C29.9468 47.4132 29.3057 46.5583 29.2522 45.9706V45.9172V45.8638C29.2522 45.5966 29.6262 45.5966 29.7865 45.4898L29.8934 45.4364L30.0002 45.3829L30.1605 45.3295L30.3208 45.2226L30.4811 45.1692C32.1907 44.6349 33.473 44.3144 34.7018 42.8719L34.9155 42.6047L35.1292 42.2842C36.0909 40.9485 36.2512 39.9334 37.5869 39.0251L37.6403 38.9717V38.8114ZM26.6877 45.1158L28.2906 45.5432C27.0083 45.8638 25.7261 45.8103 24.4438 46.024C23.9095 45.4364 23.4287 44.9021 22.8944 44.3144C24.1232 44.6349 25.4055 44.8487 26.6877 45.1158ZM30.8551 53.023C29.1454 51.2065 27.4357 49.39 25.7261 47.52C26.5275 46.9857 27.3289 46.398 28.2371 46.024L28.344 45.9706H28.4508C28.6645 45.9706 28.718 46.2912 28.718 46.398V46.4515L28.8248 46.7186C30.2139 49.016 29.7865 50.8859 30.8551 53.023Z" fill="#1D1A18"/>
</svg>
