<svg width="20" height="20" viewBox="0 0 20 20" fill="none" xmlns="http://www.w3.org/2000/svg">
<rect width="19.393" height="19.393" rx="5" fill="white"/>
<path d="M14.5433 2.15479H4.93588C3.4024 2.15479 2.15479 3.4024 2.15479 4.93588V14.5433C2.15479 16.0768 3.4024 17.3248 4.93588 17.3248H14.5433C16.0768 17.3248 17.3248 16.0771 17.3248 14.5433V4.93588C17.3248 3.4024 16.0771 2.15479 14.5433 2.15479ZM9.73959 14.7336C6.98615 14.7336 4.7459 12.4934 4.7459 9.73959C4.7459 6.98615 6.98615 4.7459 9.73959 4.7459C12.4934 4.7459 14.7336 6.98615 14.7336 9.73959C14.7336 12.493 12.493 14.7336 9.73959 14.7336ZM14.8942 5.7784C14.2424 5.7784 13.7123 5.24832 13.7123 4.59686C13.7123 3.9454 14.2424 3.41533 14.8942 3.41533C15.5456 3.41533 16.0757 3.9454 16.0757 4.59686C16.0757 5.24832 15.5456 5.7784 14.8942 5.7784Z" fill="black"/>
<path d="M9.70754 6.82373C8.11803 6.82373 6.82373 8.11731 6.82373 9.70682C6.82373 11.297 8.11803 12.591 9.70754 12.591C11.2978 12.591 12.591 11.297 12.591 9.70682C12.591 8.11767 11.2974 6.82373 9.70754 6.82373Z" fill="black"/>
</svg>
