<svg width="164" height="45" fill="none" xmlns="http://www.w3.org/2000/svg"><path fill-rule="evenodd" clip-rule="evenodd" d="M59.046 22.628l.408.85h8.21l-.073-.85h-8.545zM85.115 22.628l.085.85h22.174l-.123-.85H85.115zM127.326 22.628l-.181.85h36.281l-.044-.85h-36.056zM104.623 39.85v.887h56.604l-.041-.85-56.563-.037zM48.026 39.85v.887H98.74l-.036-.85-50.677-.037zM55.701 27.54c-.934-.642-1.827-1.259-1.85-2.52.044-1.064.744-1.88 1.532-1.88 1.062 0 1.529 1.017 1.529 1.947 0 .884-.382 1.79-1.21 2.454zm-.893 1.104c1.55.996 3.57 3.452 4.397 5.243-.805 1.015-2.04 2.056-3.632 2.056-2.018 0-3.313-1.615-3.313-3.358 0-1.574.976-2.923 2.548-3.941zm.127 8.448c1.806 0 3.443-1.258 4.57-2.676.297.42.955 1.747 1.359 2.08.339.265 1.105.596 2.25.596a4.34 4.34 0 003.27-1.459c.024-.175-.04-.308-.188-.331-.402.442-1.255.842-2.019.842-.915 0-1.93-.31-3.103-2.103-.21-.332-.422-.641-.592-.995a69.43 69.43 0 002.42-3.803c.554-.95 1.17-1.925 1.34-2.1.192-.2.466-.331.784-.4l1.191-.263c.041-.111.041-.266-.041-.356-.554.047-2.02.09-2.975.09h-1.617c-.127.088-.127.242-.04.354l.763.156c.405.064.554.153.554.308 0 .2-.106.597-.468 1.439-.554 1.214-1.17 2.476-2.232 4.043-1.316-2.32-2.697-3.603-4.015-4.642.936-.575 1.977-1.372 1.977-2.675 0-1.416-1.085-2.566-2.655-2.566-1.424 0-2.805 1.216-2.805 2.92 0 1.173.7 2.011 1.678 2.719-1.763 1.083-3.507 2.698-3.507 4.82 0 1.812 1.191 4.002 4.101 4.002zM70.942 33.632c0 1.165-.075 2.11-.268 2.413-.155.24-.543.36-.89.422l-.289.058c-.078.103-.057.282.04.322.788-.04 1.292-.06 2.066-.06.886 0 1.7.02 2.568.06.076-.08.076-.219.02-.322l-.62-.078c-.347-.062-.693-.162-.887-.403-.214-.302-.271-1.247-.271-2.412v-2.794c0-.604.038-.644.928-.644h5.715c.87 0 .909.04.909.644v2.794c0 1.165-.079 2.071-.251 2.371-.174.262-.463.344-.89.444l-.403.078c-.08.103-.059.263.038.322.694-.04 1.447-.06 2.202-.06.753 0 1.582.02 2.354.06.098-.06.116-.219.04-.322l-.465-.078c-.29-.062-.696-.142-.886-.383-.213-.304-.272-1.267-.272-2.432v-6.957c0-1.125.059-2.13.272-2.431.19-.241.597-.303.886-.36l.408-.103c.076-.118.057-.263-.039-.321-.793.04-1.43.058-2.318.058-.755 0-1.411-.018-2.182-.058-.117.058-.117.22-.038.321l.384.08c.31.08.715.142.89.404.191.28.27 1.285.27 2.41v2.252c0 .602-.039.645-.909.645H73.34c-.89 0-.928-.063-.928-.645v-2.252c0-1.144.038-2.11.252-2.41.194-.241.463-.345.907-.423l.367-.06c.06-.142.079-.264-.018-.322-.85.04-1.546.058-2.318.058-.774 0-1.392-.018-2.278-.058-.1.058-.1.18-.02.321l.462.08c.348.06.754.163.91.404.21.32.267 1.266.267 2.41v6.957zM84.988 32.805c-.094 0-.094-.04-.094-.068.014-.46.696-1.21 1.483-1.21.778 0 1.032.486 1.032.874 0 .184-.04.24-.082.268-.107.084-.4.136-1.389.136h-.95zm2.593.417c.562 0 .75-.01.79-.095a.947.947 0 00.053-.362c0-.833-.75-1.655-1.898-1.655-1.605 0-2.688 1.431-2.688 3.143 0 .613.16 1.266.562 1.81.39.529 1.07.919 1.938.919.696 0 1.657-.348 2.1-1.294-.014-.125-.107-.21-.24-.17-.416.546-.79.684-1.23.684-1.43 0-2.22-1.196-2.22-2.602 0-.348.013-.378.358-.378h2.475zM97.622 35.23c0 1.001-.01 1.129-.507 1.21l-.242.043c-.093.068-.066.305.03.346.372-.027.734-.04 1.216-.04.465 0 .853.013 1.294.04.096-.04.121-.278.027-.346l-.32-.043c-.482-.07-.508-.209-.508-1.21v-2.395c0-.96-.52-1.725-1.59-1.725-.63 0-1.285.321-1.818.707-.121.086-.215.14-.336.116-.372-.573-.748-.823-1.416-.823-.642 0-1.272.335-1.777.707-.096 0-.148-.068-.148-.152 0-.124 0-.333.025-.655-.025-.068-.094-.096-.147-.096-.266.209-1.027.57-1.336.682-.067.044-.067.193-.015.251l.121.086c.361.248.361.317.361.86v2.437c0 1.001-.013 1.14-.508 1.21l-.32.043c-.095.068-.068.305.026.346a19.451 19.451 0 012.515 0c.094-.04.119-.278.026-.346l-.242-.043c-.48-.081-.506-.209-.506-1.21v-2.159c0-.444.067-.626.2-.794.2-.248.575-.5 1.123-.5.83 0 1.23.5 1.23 1.433v2.02c0 1.001-.013 1.129-.509 1.21l-.24.043c-.094.068-.066.305.027.346.374-.027.737-.04 1.217-.04.467 0 .857.013 1.257.04.093-.04.12-.278.027-.346l-.28-.043c-.483-.07-.51-.209-.51-1.21V33.1c0-.488.04-.628.202-.835.188-.251.6-.488 1.108-.488.843 0 1.243.488 1.243 1.433v2.02zM102.031 32.988c0-.46.039-.667.159-.82.148-.168.562-.391 1.138-.391 1.202 0 1.803 1.13 1.803 2.24 0 1.447-.643 2.507-1.737 2.507-.281 0-.695-.098-.962-.308-.27-.222-.401-.388-.401-.834v-2.394zm-.989 5.79c0 1.003-.013 1.14-.505 1.211l-.283.041c-.093.069-.066.306.029.35.37-.03.772-.044 1.254-.044.466 0 .853.015 1.496.044.092-.044.119-.282.026-.35l-.523-.069c-.478-.07-.505-.195-.505-1.183v-1.461c0-.293.067-.362.187-.39.12.028.493.054.732.054 1.899 0 3.263-1.391 3.263-3.326 0-1.404-.87-2.545-2.222-2.545-.852 0-1.693.571-1.868.654-.092 0-.12-.083-.12-.18 0-.183.028-.39.055-.641-.027-.07-.08-.097-.16-.097-.348.264-.976.6-1.321.75-.069.044-.069.194-.016.252l.124.085c.357.248.357.318.357.86v5.985zM108.975 36.511c-.097.081-.074.282.021.323.674-.041 1.274-.06 1.91-.06.735 0 1.487.019 2.142.06.079-.06.079-.22 0-.323l-.732-.12c-.328-.059-.637-.222-.752-.483-.095-.22-.135-.661-.135-1.81 0-1.404.04-3.194.097-4.422.018-.844.115-3.456.173-3.699.153.162.445.844 1.256 2.756l1.796 4.121c.446 1.002 1.349 2.974 1.737 4.08.078.059.194.059.288-.02.312-.943 1.22-2.855 2.049-4.605l1.662-3.516c.442-.944 1.1-2.212 1.332-2.713.077.16.077.824.077 1.184l.038 7.399c0 .422 0 .884-.079 1.245-.055.284-.383.424-.829.505l-.619.098c-.077.122-.055.263.042.323a42.29 42.29 0 014.501 0c.095-.08.095-.2.036-.323l-.655-.12c-.233-.04-.523-.14-.659-.3-.173-.223-.213-.705-.248-1.449a287.364 287.364 0 01-.158-5.649c-.015-.885.02-2.513.039-3.097.022-.863.077-1.383.349-1.626.172-.16.52-.323.83-.382l.579-.12c.077-.08.059-.262-.018-.323-.502.04-1.352.06-1.718.06-.37 0-.696 0-1.18-.06-.425 1.729-1.545 3.84-1.99 4.765l-1.391 2.916c-.673 1.405-1.273 2.672-1.659 3.335-.308-.663-.696-1.426-1.429-3.036l-1.662-3.678c-.85-1.89-1.447-3.135-1.544-4.302-.426.06-1.103.06-1.547.06-.695 0-1.234-.039-1.504-.06-.097.06-.117.222-.041.322l.388.102c.445.1.83.22 1.023.44.193.223.311.665.311 1.33-.022 1.182-.099 2.892-.158 4.258-.095 2.092-.192 3.72-.289 4.725-.057.564-.154 1.186-.366 1.427-.175.222-.559.302-.89.383l-.424.08zM127.337 32.402c0-.681.014-.973.042-1.209-.016-.056-.054-.086-.135-.098-.293.111-.817.234-1.431.25-.094.043-.105.236-.027.306l.162.07c.4.18.4.306.4 1.185v2.323c0 1.128.442 1.74 1.62 1.74.789 0 1.441-.46 1.845-.726.079 0 .119.07.119.197v.57a.186.186 0 00.16.096c.456-.262 1.23-.402 1.752-.514.108-.056.097-.335.013-.404-.185.043-.361.069-.521.069-.374 0-.412-.416-.412-1.516v-2.34c0-.513.012-.944.038-1.208-.015-.056-.054-.086-.12-.098-.294.138-1.029.234-1.564.25-.109.055-.109.252-.014.306l.173.07c.402.167.495.195.495 1.1v2.281c0 .433-.093.643-.267.808-.293.265-.722.42-1.084.42-1.017 0-1.244-.642-1.244-1.604v-2.324zM135.241 31.095c-1.018 0-1.82.57-1.82 1.587 0 .766.547 1.252 1.324 1.71.496.293 1.028.642 1.028 1.282 0 .598-.413.89-.896.89-.76 0-1.189-.667-1.417-1.434-.067-.083-.24-.069-.306.013-.028.461.052 1.142.158 1.408.337.28.805.417 1.433.417.989 0 1.926-.527 1.926-1.587 0-.989-.655-1.462-1.365-1.878-.469-.28-1.029-.585-1.029-1.154 0-.5.335-.85.856-.85.547 0 .949.402 1.175 1.015.069.083.27.056.321-.041 0-.377-.095-.82-.213-1.128-.122-.112-.616-.25-1.175-.25zM139.52 32.79c-.096 0-.096-.04-.096-.067.016-.458.696-1.21 1.486-1.21.776 0 1.027.487 1.027.876 0 .181-.038.237-.08.265-.105.083-.4.137-1.387.137h-.95zm2.593.42c.564 0 .749-.014.789-.096.027-.056.054-.167.054-.363 0-.834-.749-1.656-1.9-1.656-1.603 0-2.687 1.434-2.687 3.145 0 .61.162 1.266.563 1.808.388.53 1.069.92 1.937.92.695 0 1.658-.348 2.101-1.293-.014-.127-.108-.211-.24-.17-.417.543-.793.683-1.232.683-1.432 0-2.221-1.197-2.221-2.603 0-.346.015-.376.363-.376h2.473zM145.884 32.402c0-.681.013-.973.039-1.209-.011-.056-.054-.086-.134-.098-.292.111-.813.234-1.431.25-.091.043-.105.236-.025.306l.161.07c.4.18.4.306.4 1.185v2.323c0 1.128.444 1.74 1.618 1.74.79 0 1.444-.46 1.844-.726.082 0 .123.07.123.197v.57a.184.184 0 00.16.096c.455-.262 1.228-.402 1.752-.514.108-.056.093-.335.013-.404-.188.043-.363.069-.523.069-.375 0-.412-.416-.412-1.516v-2.34c0-.513.011-.944.037-1.208-.012-.056-.052-.086-.12-.098-.292.138-1.03.234-1.564.25-.105.055-.105.252-.01.306l.17.07c.402.167.497.195.497 1.1v2.281c0 .433-.095.643-.27.808-.291.265-.72.42-1.081.42-1.016 0-1.244-.642-1.244-1.604v-2.324zM159.563 35.216c0 1-.016 1.127-.511 1.21l-.24.041c-.092.07-.067.307.026.35.377-.03.737-.043 1.219-.043.468 0 .855.012 1.296.043.093-.043.119-.28.027-.35l-.32-.042c-.484-.068-.508-.208-.508-1.21v-2.393c0-.96-.524-1.728-1.592-1.728-.629 0-1.286.319-1.817.71-.124.085-.216.14-.335.113-.375-.572-.748-.823-1.418-.823-.642 0-1.273.335-1.779.71-.094 0-.145-.069-.145-.152 0-.124 0-.333.025-.656-.025-.068-.092-.096-.147-.096-.267.208-1.03.572-1.337.68-.069.044-.069.197-.013.253l.121.084c.36.25.36.32.36.862v2.437c0 1-.013 1.141-.508 1.21l-.321.041c-.094.07-.067.307.026.35.415-.03.819-.043 1.297-.043.469 0 .855.012 1.218.043.092-.043.12-.28.028-.35l-.244-.042c-.48-.082-.505-.208-.505-1.21v-2.158c0-.446.066-.626.201-.793.198-.251.572-.5 1.12-.5.831 0 1.232.5 1.232 1.432v2.02c0 1-.016 1.127-.509 1.21l-.24.041c-.094.07-.069.307.025.35.376-.03.736-.043 1.216-.043.47 0 .857.012 1.26.043.093-.043.121-.28.027-.35l-.282-.042c-.482-.068-.509-.208-.509-1.21v-2.13c0-.487.041-.626.2-.834.188-.25.603-.486 1.11-.486.843 0 1.246.486 1.246 1.43v2.02zM94.362 19.635c-.095.081-.076.282.02.321.674-.04 1.272-.058 1.912-.058.728 0 1.483.019 2.14.058.08-.058.08-.22 0-.32l-.731-.12c-.33-.06-.638-.223-.755-.484-.098-.22-.134-.663-.134-1.81 0-1.407.036-3.194.096-4.42.016-.846.112-3.458.174-3.7.155.16.444.845 1.255 2.753l1.796 4.12c.445 1.005 1.352 2.977 1.738 4.082.076.061.195.061.289-.02.31-.944 1.216-2.853 2.048-4.6l1.663-3.52c.444-.947 1.099-2.213 1.331-2.711.077.158.077.822.077 1.182l.039 7.399c0 .422 0 .884-.076 1.245-.063.284-.388.424-.83.501l-.62.102c-.077.122-.059.263.04.321a43.873 43.873 0 014.499 0c.095-.079.095-.199.035-.32l-.654-.12c-.231-.041-.521-.14-.656-.302-.172-.22-.214-.704-.252-1.448a284.222 284.222 0 01-.155-5.649c-.019-.883.02-2.512.039-3.094.021-.864.076-1.386.349-1.629.175-.161.52-.322.828-.383l.581-.122c.077-.08.057-.26-.02-.32-.503.04-1.35.06-1.717.06-.37 0-.695 0-1.178-.06-.427 1.729-1.548 3.84-1.992 4.765l-1.39 2.913c-.673 1.407-1.273 2.677-1.659 3.34-.312-.663-.696-1.428-1.432-3.04l-1.659-3.676c-.85-1.89-1.448-3.135-1.546-4.302-.425.06-1.1.06-1.544.06-.696 0-1.233-.039-1.505-.06-.096.06-.116.223-.04.32l.388.103c.444.1.828.22 1.022.442.192.22.31.663.31 1.328-.02 1.185-.098 2.892-.156 4.259-.097 2.092-.193 3.72-.29 4.725-.058.564-.154 1.186-.366 1.427-.173.222-.557.302-.887.383l-.425.08zM112.481 18.63c0-.544.387-.75 1.176-1.029.242-.083.466-.14.548-.14.08 0 .132.029.132.181l-.025.82c0 .293-.014.488-.174.655-.132.14-.548.35-.813.35-.684 0-.844-.601-.844-.837zm.079-1.014c-.855.318-1.109.639-1.109 1.18 0 .391.162.738.415.976.227.208.55.32.935.32.375 0 .668-.182.963-.348.27-.152.429-.277.521-.277.08 0 .161.11.216.194.225.305.548.43.867.43.655 0 1.126-.543 1.126-.61 0-.1-.044-.182-.095-.182-.042 0-.108.056-.175.097a.759.759 0 01-.335.084c-.521 0-.642-.57-.616-1.213l.081-2.42c.043-1.043-.428-1.629-1.389-1.629-.979 0-2.49.988-2.49 1.713 0 .124.07.194.19.194.201 0 .562-.096.764-.263.104-.085.119-.251.131-.476.027-.43.481-.623.857-.623.828 0 .989.694.975 1.207l-.011.644c-.016.206-.029.33-.23.403l-1.591.6zM118.389 18.338c0 1.001-.012 1.128-.508 1.21l-.257.043c-.093.07-.065.306.029.346.346-.027.749-.04 1.229-.04.466 0 .857.013 1.485.04.093-.04.121-.277.027-.346l-.483-.044c-.509-.04-.533-.208-.533-1.21v-1.891c0-.476.04-.877.174-1.073.108-.152.268-.276.48-.276.189 0 .391.083.59.22a.489.489 0 00.295.098c.211 0 .572-.179.572-.64 0-.332-.266-.557-.601-.557-.494 0-1.002.43-1.47.834-.025-.011-.04-.056-.04-.124v-.807c0-.056-.041-.083-.108-.098-.334.209-1.043.572-1.35.68-.067.044-.067.197-.013.252l.12.086c.362.248.362.317.362.861v2.436zM123.964 10.684a.705.705 0 00-.723.738c0 .374.266.68.682.68.361 0 .693-.222.693-.71 0-.39-.252-.707-.652-.707zm-.445 7.654c0 1.002-.012 1.142-.508 1.21l-.279.044c-.093.068-.065.305.025.346.378-.028.777-.041 1.259-.041.468 0 .857.013 1.256.04.094-.04.122-.277.029-.345l-.284-.043c-.479-.07-.509-.21-.509-1.211v-2.503c0-.573.03-1.24.053-1.728-.01-.056-.063-.083-.13-.083-.307.207-1.071.57-1.376.68-.069.045-.069.197-.014.252l.119.084c.359.25.359.318.359.862v2.436zM127.52 18.338c0 1.001-.012 1.154-.508 1.21l-.334.043c-.094.07-.067.306.025.346a20.175 20.175 0 012.568 0c.093-.04.12-.29.027-.346l-.282-.044c-.481-.067-.508-.208-.508-1.21V16c0-.486.04-.558.283-.763a1.545 1.545 0 011.043-.377c.854 0 1.269.597 1.269 1.489v1.99c0 1.001-.015 1.128-.507 1.21l-.27.043c-.09.07-.065.306.027.346.361-.027.763-.04 1.243-.04.47 0 .858.013 1.337.04.095-.04.123-.277.029-.346l-.364-.044c-.478-.055-.506-.208-.506-1.21v-2.324c0-.972-.454-1.795-1.727-1.795-.677 0-1.321.335-1.802.724-.041-.03-.055-.138-.055-.265v-2.92c0-.615.027-1.311.04-1.729a.145.145 0 00-.132-.083c-.482.264-1.112.472-1.444.584-.065.043-.065.238 0 .28l.132.081c.404.252.416.336.416 1.157v6.29zM135.381 15.527c0-.68.013-.974.036-1.21-.012-.057-.051-.084-.131-.098-.294.11-.817.237-1.43.25-.094.043-.11.237-.028.307l.161.07c.4.178.4.307.4 1.184v2.323c0 1.127.444 1.74 1.617 1.74.79 0 1.444-.46 1.844-.725.083 0 .124.07.124.195v.57a.186.186 0 00.16.097c.455-.264 1.229-.402 1.754-.514.105-.056.09-.335.01-.402-.186.042-.36.067-.52.067-.375 0-.416-.416-.416-1.515v-2.339c0-.513.014-.948.041-1.21-.013-.057-.053-.084-.121-.098-.293.14-1.032.237-1.564.25-.105.057-.105.252-.012.307l.172.07c.401.168.496.195.496 1.097v2.285c0 .431-.095.638-.268.806a1.696 1.696 0 01-1.084.418c-1.017 0-1.241-.64-1.241-1.602v-2.323zM142.157 18.63c0-.544.39-.75 1.176-1.029.242-.083.47-.14.55-.14.081 0 .131.029.131.181l-.027.82c0 .293-.012.488-.169.655-.138.14-.552.35-.82.35-.681 0-.841-.601-.841-.837zm.079-1.014c-.854.318-1.109.639-1.109 1.18 0 .391.161.738.416.976.227.208.545.32.934.32.374 0 .668-.182.963-.348.267-.152.428-.277.524-.277.08 0 .159.11.213.194.225.305.548.43.867.43.657 0 1.126-.543 1.126-.61 0-.1-.043-.182-.094-.182-.045 0-.107.056-.176.097a.738.738 0 01-.332.084c-.524 0-.645-.57-.619-1.213l.082-2.42c.041-1.043-.428-1.629-1.388-1.629-.978 0-2.489.988-2.489 1.713 0 .124.066.194.188.194.201 0 .561-.096.761-.263.108-.085.124-.251.133-.476.027-.43.483-.623.855-.623.831 0 .991.694.976 1.207l-.011.644c-.012.206-.026.33-.229.403l-1.591.6zM148.061 18.338c0 1.001-.012 1.142-.504 1.21l-.28.043c-.094.07-.069.306.026.346.373-.027.774-.04 1.257-.04.467 0 .856.013 1.216.04.092-.04.121-.277.028-.346l-.241-.044c-.482-.08-.507-.208-.507-1.21v-2.13c0-.402.025-.597.201-.834.184-.263.627-.487 1.135-.487.909 0 1.254.584 1.254 1.377v2.075c0 1.001-.013 1.128-.506 1.21l-.255.043c-.091.07-.068.306.026.346.362-.027.762-.04 1.246-.04.467 0 .855.013 1.256.04.096-.04.12-.277.026-.346l-.292-.044c-.483-.067-.51-.208-.51-1.21v-2.394c0-.93-.454-1.725-1.564-1.725-.681 0-1.311.347-1.873.71-.092 0-.144-.07-.144-.153 0-.126 0-.332.025-.654-.025-.07-.093-.098-.149-.098-.264.209-1.028.572-1.335.68-.068.044-.069.197-.014.252l.118.086c.36.248.36.317.36.861v2.436zM155.565 18.63c0-.544.389-.75 1.177-1.029.239-.083.468-.14.547-.14.081 0 .132.029.132.181l-.023.82c0 .292-.016.488-.176.654-.16.183-.548.351-.817.351-.679 0-.84-.601-.84-.837zm1.485-4.412c-.977 0-2.489.988-2.489 1.713 0 .124.069.194.188.194.2 0 .561-.096.764-.263.105-.085.118-.251.13-.476.03-.43.483-.623.855-.623.831 0 .979.721.979 1.207l-.014.644c-.013.206-.028.33-.229.403l-1.591.6c-.856.317-1.109.638-1.109 1.194 0 .836.696 1.28 1.192 1.28.521 0 .88-.154 1.133-.319.255-.168.483-.305.562-.305.081 0 .147.067.216.15.188.252.629.571 2.074.571 1.456 0 2.634-.347 3.168-.763.296-.225.506-.502.506-.835 0-.252-.158-.572-.482-.572-.24 0-.455.224-.455.473 0 .223.203.391.203.487 0 .113-.092.222-.268.321-.308.168-.787.332-2.217.332-1.084-.055-1.444-.316-1.621-.54-.158-.209-.197-.613-.185-.963l.078-2.28c.041-1.044-.371-1.63-1.388-1.63zM60.143 16.74c0 1.167-.078 2.112-.27 2.416-.155.24-.544.36-.892.42l-.289.06c-.077.1-.057.281.038.32.793-.039 1.296-.059 2.068-.059.889 0 1.7.02 2.569.06.078-.08.078-.22.018-.321l-.617-.081c-.348-.06-.697-.16-.889-.4-.212-.303-.27-1.248-.27-2.414v-2.795c0-.6.038-.644.927-.644h5.717c.87 0 .908.044.908.644v2.795c0 1.166-.079 2.07-.251 2.373-.175.262-.465.341-.889.44l-.406.082c-.078.1-.058.261.038.32.696-.039 1.45-.059 2.202-.059.754 0 1.585.02 2.358.06.094-.06.115-.22.038-.321l-.461-.081c-.293-.06-.699-.142-.891-.382-.214-.302-.27-1.266-.27-2.432V9.787c0-1.127.056-2.133.27-2.433.192-.242.598-.303.89-.361l.403-.103c.077-.121.06-.26-.039-.322a40.327 40.327 0 01-4.5 0c-.116.063-.116.224-.038.322l.387.082c.308.08.713.14.887.402.193.28.272 1.286.272 2.413v2.25c0 .603-.038.643-.908.643h-5.717c-.889 0-.927-.06-.927-.643v-2.25c0-1.145.038-2.112.25-2.413.194-.24.464-.341.909-.424l.368-.06c.055-.139.078-.26-.021-.322-.85.04-1.546.063-2.317.063-.772 0-1.39-.023-2.28-.063-.096.063-.096.183-.02.322l.465.082c.349.06.755.161.91.402.209.32.27 1.268.27 2.413v6.954zM74.529 18.63c0-.544.389-.75 1.177-1.029.24-.083.467-.14.547-.14.081 0 .134.029.134.181l-.026.82c0 .293-.014.488-.173.655-.134.14-.55.35-.817.35-.683 0-.842-.601-.842-.837zm.08-1.014c-.856.318-1.11.639-1.11 1.18 0 .391.162.738.414.976.227.208.55.32.938.32.374 0 .668-.182.963-.348.267-.152.428-.277.52-.277.08 0 .159.11.215.194.227.305.546.43.867.43.657 0 1.124-.543 1.124-.61 0-.1-.04-.182-.093-.182-.042 0-.106.056-.173.097a.76.76 0 01-.336.084c-.522 0-.64-.57-.614-1.213l.081-2.42c.039-1.043-.429-1.629-1.392-1.629-.976 0-2.488.988-2.488 1.713 0 .124.07.194.188.194.2 0 .56-.096.763-.263.106-.085.118-.251.133-.476.027-.43.482-.623.856-.623.827 0 .989.694.976 1.207l-.014.644c-.013.206-.026.33-.227.403l-1.591.6zM81.88 14.219c-1.015 0-1.817.57-1.817 1.587 0 .763.547 1.254 1.324 1.711.493.292 1.028.64 1.028 1.279 0 .6-.414.893-.896.893-.76 0-1.189-.668-1.417-1.434-.067-.081-.24-.07-.309.012-.025.461.054 1.145.162 1.408.332.278.803.417 1.432.417.987 0 1.924-.528 1.924-1.59 0-.985-.656-1.458-1.363-1.873-.469-.282-1.03-.587-1.03-1.16 0-.499.334-.847.856-.847.548 0 .948.403 1.176 1.017.067.084.268.055.322-.042 0-.376-.093-.82-.214-1.128-.122-.11-.616-.25-1.178-.25zM85.453 18.338c0 1.001-.015 1.154-.508 1.21l-.335.043c-.093.07-.066.306.024.346a20.319 20.319 0 012.57 0c.094-.04.12-.29.023-.346l-.277-.044c-.482-.067-.507-.208-.507-1.21V16c0-.486.037-.558.28-.763.24-.212.588-.377 1.043-.377.854 0 1.27.597 1.27 1.489v1.99c0 1.001-.014 1.128-.509 1.21l-.268.043c-.093.07-.065.306.028.346.36-.027.764-.04 1.243-.04.47 0 .854.013 1.336.04.094-.04.122-.277.026-.346l-.358-.044c-.482-.055-.508-.208-.508-1.21v-2.324c0-.972-.455-1.795-1.727-1.795-.679 0-1.322.335-1.803.724-.041-.03-.053-.138-.053-.265v-2.92c0-.615.025-1.311.037-1.729a.142.142 0 00-.131-.083c-.483.264-1.11.472-1.445.584-.066.043-.066.238 0 .28l.133.081c.401.252.416.336.416 1.157v6.29zM19.404 32.023c.035.082.115.162.158.244-1.07-.315-1.757-1.302-2.444-2.148.01-.052-.064-.084-.089-.117a.6.6 0 00-.18.38c-.248-.272-.427-.686-.641-1.024 1.168.71 2.3 1.598 3.196 2.665zM34.01 10.215c.118-.024.225-.135.34-.203-.205.524-.412 1.06-.526 1.615.107-.035.258-.083.382-.152-.238.49-.481.989-.56 1.538.133.018.257-.085.382-.135-.117.482-.341.992-.527 1.472.152-.037.312-.135.468-.23-.219.55-.415 1.195-.586 1.77.145-.045.25-.179.403-.213l-.641 1.566c.14-.01.302-.086.444-.136-.168.49-.375.963-.669 1.403l.589-.152c-.224.558-.68 1.03-.964 1.563.177-.016.358-.127.534-.194-.32.57-.723 1.093-1.16 1.616.242-.061.508-.127.742-.228-.456.481-.894.972-1.288 1.486.186.01.357-.084.528-.133-.395.465-.795.878-1.216 1.31.223.009.431-.135.655-.17-.46.372-.854.785-1.273 1.166l.536-.059c-.51.416-1.098.864-1.6 1.31l.52-.015c-.458.295-.878.66-1.334.947l.61-.017c-.565.44-1.137.863-1.735 1.218l.49.06c-.536.36-1.055.675-1.572 1.083.11.041.258.041.384.057l-1.476.992c.037.099.188.083.286.108l-1.369.668c.593-.534.949-1.32 1.673-1.734.35.027.456-.314.663-.509-.248.06-.438.347-.725.366.269-.254.448-.557.706-.806.296-.259.994-.116.94-.65-.01-.025.01-.049-.018-.065-.24.2-.502.438-.806.531.199-.314.484-.642.744-.94.412-.226 1.15-.048 1.25-.667l.02-.061c-.144.053-.297.191-.44.3-.008-.027-.008-.145-.026-.23-.243.144-.467.381-.724.49.24-.21.286-.56.571-.701a9.006 9.006 0 001.341-.44c.082-.136.108-.305.125-.44l-.625.533c-.035-.117 0-.204-.035-.322-.207.205-.456.474-.731.474l.487-.726c.555-.178 1.076-.432 1.602-.678.073-.11.187-.251.143-.38-.24.236-.537.406-.841.53l-.026-.233c-.204.134-.43.38-.678.497.079-.22.215-.473.383-.665.589-.197 1.153-.459 1.724-.688.074-.118.128-.252.109-.38l-.303.271-.1-.178c-.196.154-.39.33-.608.457l.02-.186c-.253.12-.486.373-.743.497.196-.21.215-.554.464-.74.626-.255 1.18-.646 1.806-.9a.544.544 0 00.095-.38l-.4.363c-.037-.067.048-.203-.052-.268-.197.195-.357.38-.563.555.017-.151.107-.295.051-.453h-.05c-.216.31-.5.599-.825.828l.394-.828c.636-.298 1.27-.594 1.862-1a.97.97 0 00.15-.506c-.223.185-.305.59-.634.608-.02-.102.053-.193 0-.288l-.513.567c-.032-.117.057-.253.086-.381l-.863.788c.255-.364.263-.94.745-1.186.623-.312 1.152-.827 1.751-1.174 0-.109.017-.227-.007-.328l-.52.532c.007-.11-.02-.204-.036-.297-.187.245-.42.532-.652.755.009-.138.044-.273.027-.384l-.709.788c.296-.422.217-1.066.854-1.293l1.224-.786.052-.524c-.157.134-.251.369-.402.548a.44.44 0 00-.053-.245h-.048c-.151.16-.212.363-.37.524.015-.128.048-.236 0-.356-.217.221-.352.57-.656.703l-.037-.043c.145-.465.331-.954.84-1.234l.968-.795c.028-.092-.018-.194-.054-.288-.206.152-.296.448-.564.57.011-.146.06-.282.02-.418-.216.306-.433.66-.741.915l.292-.897 1.314-1.268c-.125-.016-.17-.119-.189-.237.01-.059-.024-.095-.033-.144-.172.381-.45.796-.866 1.039.242-.44.214-.979.58-1.37l.848-.836c-.089-.05-.161.109-.26.042-.008-.084-.044-.152-.08-.227-.114.236-.189.557-.502.658l.263-.946c.267-.27.478-.565.642-.88-.19.077-.375.236-.563.365.206-.484.07-1.159.617-1.54l.045-.11c-.109.033-.235.11-.343.186a27.43 27.43 0 01.89-3.426c.096-.092.239-.068.336-.135-.222.507-.336 1.067-.5 1.6zM8.206 35.253c-.205.152-.48.202-.75.235l.304.246.546-.457c.462.035.964 0 1.43.035-.332.157-.7.304-1.092.288.146.124.403.05.582.134v.05l-.535.153c.535.399.775-.432 1.159-.643.493-.017 1.095.042 1.592-.041-.364.193-.804.294-1.25.347.205.152.508.142.785.184-.186.12-.462.153-.705.197.099.134.358.166.562.193.325-.28.53-.67.87-.94.454-.008.847-.04 1.286-.093-.301.22-.724.255-1.099.34.161.119.403.127.58.228-.216.124-.481.134-.672.253.18.119.414.095.628.135.288-.278.563-.616.77-.956l1.163-.093c-.28.211-.654.264-.984.363.095.118.373.089.516.152-.169.135-.421.161-.58.298h.527c.293-.27.546-.525.76-.829l.128-.043c.294 0 .625.01.9-.058-.241.21-.564.31-.849.44.18.058.403.025.608.034.28-.164.28-.627.689-.552l2.042-.38c-.499.287-1.044.49-1.48.898l-.01-.187c-.481.196-.96.456-1.439.72l.018-.27c-.518.217-1.01.506-1.509.76.017-.102.098-.18.117-.28h-.1c-.554.262-1.116.509-1.724.645.105-.119.19-.247.258-.383-.294.027-.573.167-.848.255-.304.032-.626.119-.939.167.068-.108.139-.227.224-.328-.655-.044-1.281.126-1.933.085l.24-.29c-.597.044-1.197-.073-1.778-.073.061-.095.187-.17.242-.27l-1.505-.094.298-.273c-1.547-.414-3.102-.8-4.579-1.368 2.084.585 4.257 1.115 6.536 1.066zM24.31.076c-.207 1.597-.412 3.289-.322 4.964.152.025.25-.211.403-.204-.127.562-.146 1.152-.295 1.695.134-.028.263-.13.4-.18-.026.473-.125 1.015-.158 1.455l.24-.076c-.115.565-.143 1.164-.286 1.724l.018.137.418-.289c-.015.71-.204 1.395-.275 2.114a.925.925 0 00.321-.17c-.025.72-.222 1.404-.356 2.107.167-.034.331-.188.481-.278-.108.606-.275 1.238-.412 1.856.137.01.233-.193.37-.183-.083.55-.36 1.054-.387 1.58l.43-.254c-.16.635-.252 1.337-.43 1.996.172-.05.316-.278.502-.337-.216.692-.42 1.42-.68 2.111.126 0 .25-.11.368-.168-.154.669-.468 1.326-.692 1.97.128-.067.252-.186.387-.186-.163.534-.377 1.057-.566 1.582.174 0 .324-.118.484-.177-.295.626-.645 1.267-.982 1.903.116-.028.252-.093.355-.154-.276.618-.715 1.22-.962 1.87.167-.012.348-.101.516-.151-.33.616-.64 1.267-.94 1.917l.424-.092c-.073.202-.262.406-.368.625-.503.95-.788 1.976-1.002 3.045-.01.183.01.357.043.539.825-.71 1.31-1.608 1.451-2.612.02-.44.18-.828.116-1.293.223.212.268.583.446.854.233-.66.298-1.243.258-1.971.092.112.207.297.279.458.127-.652.206-1.22.243-1.91.168.244.24.507.366.76.026-.684.088-1.343.061-2.039l.375.543c-.096-.669-.151-1.43-.079-2.14.122.152.197.412.367.592.099-.644.08-1.296.08-1.956.153.12.234.375.359.536-.04-.697 0-1.347.026-2.08.162.102.224.328.373.48.046-.6.127-1.19.162-1.792.127.167.259.433.388.65l.035-.008c-.035-.692.15-1.337.268-1.977h.034l.285.532c.038-.752.236-1.428.46-2.104l.247.488c.172-.598.262-1.257.537-1.825l.186.457c.199-.566.314-1.159.617-1.676.1.069.128.257.226.365.23-.467.364-.965.627-1.414.096.128.124.291.22.425.29-.637.522-1.294.924-1.885.068.15.046.388.142.48.23-.516.42-1.055.677-1.565.109.078.082.24.18.34l.083-.092.607-1.498c.07.093.15.28.222.416.35-.533.412-1.212.662-1.794.044.008.102.116.143.178.5-1.083.985-2.165 1.584-3.213.114-.042.22.015.304.092-.508 1.43-1.12 2.816-1.528 4.28.17-.035.364-.112.549-.17l-.506 1.522c.126.01.242-.077.357-.118-.079.38-.285.751-.383 1.142l-.162.457c.096.006.188-.088.305-.093-.117.498-.412.964-.545 1.48.143-.019.314-.087.464-.145-.144.457-.304.94-.464 1.403a.92.92 0 00.385-.118c-.262.473-.262 1.099-.521 1.598.151-.008.279-.152.421-.203v.094c-.25.514-.403 1.064-.643 1.58.16-.018.31-.143.481-.177-.197.482-.429.997-.678 1.49.152-.029.295-.153.473-.172-.133.542-.417 1.057-.742 1.542.143-.028.314-.095.466-.154-.162.523-.534 1.004-.868 1.486l.59-.133v.049c-.456.473-.87.971-1.287 1.473.143.009.303-.076.456-.04l-.966 1.162.463-.082c-.32.472-.858.796-1.241 1.257.143.026.296.011.438.021-.438.521-1.09.834-1.575 1.334l.545.018c-.363.251-.793.582-1.206.853.118.01.225.042.35.026a16.42 16.42 0 01-1.638 1.293l.287.094-1.33 1.03c.15.06.339.017.481.094-.627.253-1.19.634-1.752 1.008.142.058.313.064.465.108-1.343.743-2.863 1.3-3.9 2.613l.017.035c1.405.141 2.53-.745 3.284-1.804v.534c.339-.261.724-.599 1.065-.913.016.126-.038.26-.02.397l.062-.018 1.325-1.597c.009.18-.017.405.016.568.357-.433.753-.889 1.11-1.338l.018.348c.268-.283.502-.66.75-.99l.403-.516.017.574c.413-.471.884-1.006 1.269-1.537l.056.355c.412-.474.83-1.048 1.312-1.523l.018.415 1.065-1.21.036.018c-.017.162.028.296.008.455.55-.49 1.156-1.04 1.826-1.335l-.08.332c.483-.323.992-.687 1.512-.975l-.047.433c.44-.238.894-.533 1.398-.678.014.12-.091.228-.101.357.625-.273 1.268-.568 1.949-.745-.011.135-.1.278-.178.404.677-.083 1.312-.369 2.01-.454-.019.101-.114.209-.205.302.546-.059 1.08-.237 1.645-.32-.017.152-.225.254-.258.415 1.287-.119 2.645-.026 3.861.338v.1a7.44 7.44 0 00-4.364.761l-.043.05c.187.112.438.153.67.195-.404.236-.912.432-1.352.702.197.104.43.11.646.169-.178.103-.475.145-.69.27-.322.146-.608.346-.94.458.18.092.414.066.602.136-.395.22-.93.328-1.351.575.142.102.387.058.545.15-.466.205-.974.28-1.422.526.127.083.277.083.401.152-.517.253-1.025.532-1.607.65.142.11.411.151.597.263a9.02 9.02 0 00-1.322.38c.1.135.35.135.5.255-.561.118-1.09.302-1.624.49.061.112.248.143.376.211-.54.219-1.1.432-1.674.575.186.066.393.12.59.17-.518.158-1.072.293-1.592.49.188.057.359.169.53.252-.573.112-1.11.28-1.672.416.08.136.304.168.338.288-.476.059-.931.134-1.387.229.19.133.448.15.642.28-.676.005-1.341.072-1.974.174.169.145.402.213.591.355l-1.59.135c.06.086.223.154.341.214-.53.032-1.038 0-1.549.032l.581.33c-.637-.016-1.26-.168-1.914-.136.109.145.285.212.431.324-.54 0-1.064-.118-1.623-.14.02.121.137.248.224.367-1.15-.112-2.26-.6-3.474-.415-.117-.01-.253.026-.37.034 1.039.178 1.934.796 3.045.728.75 0 1.408-.212 2.106-.347a3.84 3.84 0 01-.714.55c.75 0 1.402-.265 2.09-.338l-.508.454.062.044c.831-.11 1.619-.346 2.413-.559-.069.128-.223.264-.304.408.564-.094 1.175-.229 1.719-.347-.082.118-.186.218-.242.347.545-.13 1.163-.162 1.724-.274-.016.153-.187.288-.26.443.548.015 1.103-.018 1.635-.076l-.149.305c.582.083 1.209-.103 1.79.05l-.153.252c1.072.042 2.028.229 3.093.247.403 0 .924-.059 1.366-.059.062.06.206.117.18.228a69.803 69.803 0 00-5.39 1.412c-.1.023-.205.017-.298.06.183.118.389.209.566.335-.534.069-1.154-.017-1.689.076l.372.265-1.661.1.199.287c-.474-.035-.978-.05-1.45-.042l.161.288a19.043 19.043 0 01-1.528-.27l.035.27c-.414-.135-.814-.355-1.247-.481l.067.405c-.503-.17-.955-.525-1.465-.745.016.16.052.372.035.552-.449-.3-.887-.602-1.324-.93l.096.513c-.551-.397-1.117-.971-1.592-1.52l-.043.075c.037.15 0 .303-.034.44l-.208-.237c-.132.033-.265.045-.39.1.579.34 1.23.557 1.838.871-.178.072-.417-.006-.596.06l1.804.838c-.162.077-.449.1-.658.153.428.294.936.607 1.392.945-.126.051-.25-.042-.383.008.48.355 1.025.683 1.51 1.065-.249.018-.546-.024-.807-.006 1.225.862 1.862 2.123 2.274 3.39l.196.667c-.063.051-.125.076-.18.135-.473-1.37-1.732-2.68-3.138-3.33l-.064.06.03.489c-.402-.244-.813-.6-1.21-.897.02.187-.018.431.04.628-.332-.315-.674-.71-1.083-.967-.072.154-.082.329-.082.518-.385-.347-.723-.812-1.054-1.227l-.134.482c-.388-.431-.662-.948-.947-1.413-.1.028-.178.154-.242.246-.135-.43-.325-.837-.387-1.292l-.275.193c-.018-1.134.186-2.24-.48-3.178.06 1.99-.317 3.949-1.255 5.596a4.081 4.081 0 01-.721.896c.525-1.25 1.256-2.486 1.426-3.88.209-1.158.134-2.275.242-3.452.484.365.75.924 1.01 1.432.833 2.257 3.184 4.119 5.348 5.25 1.422.871 2.367 2.231 2.975 3.595h.038c-.411-1.498-1.352-2.917-2.693-3.977-.068.129.065.206.065.323-.218-.205-.528-.34-.807-.474.385.026.832.076 1.226.017l-1.172-.839c-.044-.016-.1-.016-.153-.016a.36.36 0 00.071.271c-.176-.075-.393-.193-.594-.211-.038.094.049.18.076.261-.238-.243-.553-.33-.846-.454l1.635-.051c-.382-.271-.789-.627-1.235-.744l.162.43c-.277-.118-.554-.33-.855-.448l-.02.293a2.477 2.477 0 00-.412-.3c-.02.073.107.177.008.269-.15-.177-.34-.262-.509-.397.65.018 1.297-.017 1.95-.093-.452-.356-1.074-.508-1.61-.762-.053 0-.027.052-.04.077l.244.373c-.243-.147-.552-.273-.805-.398l.181.251a2.243 2.243 0 01-.724-.422c.5.036 1.052.017 1.557-.04-.116-.11-.36-.154-.529-.265-.27-.168-.564-.27-.842-.421-.008.11.053.228.099.33-.278-.085-.59-.27-.77-.534.285-.017.592-.008.835-.115-.504-.197-1.056-.374-1.459-.797-.395-.584-.697-1.302-1.197-1.734.917.38 1.814.803 2.75 1.125 2.075.932 4.133 1.877 6.598 1.886 2.255.092 4.41-.49 6.493-1.015l.51-.059c-1.514.407-3.014.964-4.55 1.166-.045.078.04.137.06.204-.16.017-.31-.095-.463-.145-.297.068-.636.062-.905.128l.199.17c-.252 0-.49-.189-.742-.144-.233.034-.483-.018-.722.016l.3.32c-.268-.032-.49-.261-.74-.395-.271.006-.476-.01-.727-.045.074.129.164.282.304.4-.21-.112-.437-.296-.641-.458-.26-.032-.494-.126-.752-.152 0 .16.186.296.258.457a2.724 2.724 0 01-.676-.549c-.279-.07-.566-.112-.844-.205 0 .136.066.264.135.382a2.345 2.345 0 01-.465-.534c-.348-.058-.635-.225-.939-.379 0 .117.066.238.133.337-.246-.108-.445-.413-.659-.573-.557-.257-1.11-.543-1.666-.738.38.346.63.77.957 1.144l.011-.349c.58.358 1.026.889 1.528 1.355 0-.152-.053-.312-.08-.475.395.33.887.55 1.279.89l-.036-.433c.107.009.205.127.323.168.381.212.785.381 1.163.629 0-.13-.073-.257-.136-.365.403.083.813.245 1.206.387.053.037.1.076.164.076a.422.422 0 00-.111-.27c.475.036.94.23 1.433.246l-.277-.281c.449.087 1.019.054 1.483.035l-.278-.245c.493-.007 1.01-.047 1.487-.017l-.359-.363h1.66l.05-.025-.52-.261c1.215.008 2.111-.702 3.255-.855.856-.17 1.716-.331 2.575-.5-1.487.12-3.044.05-4.508-.06-.046.068-.168.045-.179.138l.133.119c-.19.04-.4.04-.563.123.045.03.098.052.145.103-.36.102-.707.22-1.046.357.465-.414 1.046-.762 1.555-1.177l-1.735.018c.081.136.295.185.446.252-.273.058-.57.068-.828.17.06.1.187.11.267.186-.215.05-.465.017-.67.091.08.087.215.129.322.199l-.79.108.188.213c-.356.048-.678.191-1.045.228.716-.503 1.493-1.068 2.191-1.692l-.038-.035c-.482.043-1.017-.015-1.507.093l.357.204c-.199.1-.439.09-.627.194l.171.135c-.242.076-.502.127-.733.212l.265.17c-.23.1-.516.134-.748.242.08.07.175.13.25.213l-1.091.21c.75-.648 1.663-1.182 2.395-1.959-.627.101-1.269.134-1.85.286.215.11.448.169.676.227-.354.103-.756.111-1.107.23l.287.22c-.251.067-.536.044-.768.134.123.11.297.136.43.229a5.154 5.154 0 00-.851.179l.19.168-.886.15c.635-.564 1.322-1.199 2.028-1.698.046-.049.08-.099.117-.151-.563.059-1.19.143-1.706.387.087.153.329.093.48.17-.293.093-.607.134-.92.204.088.091.223.124.321.21-.24.043-.491.085-.705.214l.214.117c-.204.04-.42.05-.615.109.087.101.231.125.338.197-.285.025-.618.04-.868-.077.65-.51 1.396-1.032 2.076-1.584-.654.143-1.369.255-2.049.4.187.133.475.1.68.21l-.95.093c.047.137.279.1.389.212-.333.023-.59-.04-.925.018.146.152.359.198.537.305-.418.058-.841.04-1.208-.112.546-.323 1.145-.651 1.612-1.14-.59.169-1.263.227-1.887.336.171.145.423.153.624.23l-.042.04-.805.053c.015.065.148.108.223.17-.251.025-.493-.053-.725-.112.268-.245.663-.439.94-.744-.225.017-.466.086-.715.102-1.664.135-2.897-.753-4.309-1.199 3.44-.095 6.443-1.17 9.137-2.951l3.612-2.327c2.844-1.692 5.41-4.016 8.698-4.693 1.011-.27 2.127-.328 3.192-.422-1.098-.161-2.11-.17-3.173.058.028-.115.134-.245.18-.38-.484.068-1.012.119-1.453.34.145.048.336.076.522.076-.285.168-.68.32-.982.547.08-.348.336-.66.526-.98-.635.069-1.224.33-1.834.525l-.063.057c.206-.009.467-.04.69-.032-.23.135-.574.272-.826.49l.684-.033c-.199.126-.494.244-.74.365a.5.5 0 01.238.14l-.482.254c-.036-.617.322-1.115.538-1.655-.645.118-1.234.448-1.806.779l.56-.06c-.204.227-.488.453-.641.74l.517-.126c-.145.156-.411.347-.538.552h.378l-.321.307.089.072c-.057.095-.125.245-.225.264-.117-.719 0-1.456.143-2.114-.447.126-.86.43-1.253.743.18.015.393-.034.583-.017a3.085 3.085 0 00-.66.838c.12.007.266-.007.383-.043-.16.185-.343.405-.464.633l.403-.075c-.073.135-.304.28-.34.438.085 0 .176-.005.22.078l-.32.38c-.252-.87 0-1.816.1-2.663-.457.305-.977.601-1.31 1.057.17-.01.35-.093.52-.075-.292.304-.587.607-.786.954.152-.008.298-.12.45-.152.061 0 .103-.033.16-.041-.154.286-.387.584-.61.862.146 0 .313-.042.484-.042-.108.194-.365.389-.422.608.098.018.17-.034.277-.017-.132.203-.329.414-.5.627-.178-.955.027-1.904.256-2.775.051-.152.104-.296.17-.44-.578.307-1.097.788-1.552 1.276.17-.032.37-.169.545-.176l-.608.862c.151-.009.286-.119.464-.119-.211.288-.427.62-.56.956.123.032.23-.093.364-.093-.041.22-.224.431-.337.645h.23l-.314.624-.045-.05c-.167-.989.025-1.987.083-2.967a8.207 8.207 0 00-1.11 1.308l.028.034c.203-.05.384-.151.562-.243-.161.373-.411.75-.648 1.124.14-.028.272-.128.407-.188-.176.297-.387.611-.527.932l.448-.119c-.11.22-.379.42-.411.668.103-.018.175.035.285.017l-.402.422c-.163-1.032 0-2.096.178-3.07-.518.484-.905 1.049-1.26 1.608l.643-.236c-.16.304-.492.585-.671.913l.448-.129c-.125.24-.376.468-.481.737.158-.018.326-.093.498-.146-.125.206-.375.383-.465.61l.34-.082a3.378 3.378 0 01-.393.456c-.243-.795-.081-1.667-.01-2.487-.412.475-.876 1.015-1.239 1.556l.034.028.588-.24-.045.1a3.066 3.066 0 00-.517.627l.322-.04-.368.516c.088.016.19-.028.289-.036-.028.117-.18.23-.243.354l.196.078c-.07.12-.17.228-.256.348-.118-.728-.19-1.548-.065-2.303-.393.441-.688 1-1.082 1.482.045.059.143.006.197-.018.088-.05.187-.076.286-.109-.125.186-.385.372-.43.581l.363-.05c-.104.16-.307.313-.416.49.155-.031.348-.059.516-.092-.222.187-.589.456-.678.76-.106-.668-.007-1.361.099-2.001-.357.415-.707.92-1.108 1.369.143-.019.31-.086.463-.128-.088.169-.311.312-.385.509.163-.026.35-.085.527-.112-.149.145-.408.28-.589.476l.27.022c-.215.113-.278.33-.419.492-.116-.558.007-1.192.08-1.735-.402.45-.752.974-1.253 1.372.268-.034.547-.17.79-.245-.243.21-.533.363-.755.573.208.01.43-.059.628-.12-.155.273-.51.424-.762.648-.108-.36-.07-.773-.028-1.137-.331.265-.633.569-.938.87l.04.037c.114-.069.265-.06.38-.13-.07.153-.288.288-.402.44l.261-.008c-.197.128-.385.297-.62.35.03-.341.135-.688.215-1.024-.91.97-2.155 1.486-3.574 1.311.09-.24.293-.475.498-.67 1.789-1.853 3.569-3.822 5.028-5.86 2.09-3.195 3.69-6.61 4.746-10.198.886-2.366 1.415-4.868 2.094-7.32.57-1.691 1.196-3.373 1.937-5.008l-.06-.04c-.743 1.048-1.064 2.327-1.636 3.467-.07 0-.065-.129-.134-.179-.198.616-.403 1.234-.607 1.852.068.035.117-.066.185-.076l-.08.516c-.205-.18-.296-.5-.365-.786-.214.515-.5.996-.664 1.538.164 0 .29-.185.42-.278-.008.296-.231.574-.238.87.096-.034.177-.11.276-.136 0 .237-.063.49-.136.73-.233-.493-.443-.997-.561-1.54l-.082.076a29.76 29.76 0 01-.607 1.633c.223-.03.27-.245.447-.321-.063.291-.071.649-.099.988.056.033.131-.043.195-.058l.16-.018c.01.202-.062.423-.121.624l.265-.075c-.026.178-.08.39-.124.573l-.18-.21c-.305-.634-.596-1.268-.82-1.936-.278.44-.43.946-.61 1.436l.446-.37c-.063.33-.14.693-.14 1.067.116.008.215-.103.32-.154-.043.262-.105.559-.124.828.115-.093.241-.178.366-.261l.019.744.32-.178-.05.77c-.735-.737-1.049-1.736-1.54-2.615-.177.391-.355.815-.534 1.218-.011.093-.075.196-.046.288.197-.136.32-.34.51-.472-.107.361-.199.794-.163 1.217.106-.045.186-.171.295-.171l-.035.857c.142-.021.265-.203.403-.228-.02.312-.02.65 0 .96.127-.016.206-.158.336-.202l-.032.49c.079.01.187-.023.276-.032l-.116.507a11.88 11.88 0 01-1.778-3.214c-.277.491-.314 1.076-.475 1.616l.517-.475c-.034.366-.122.779-.042 1.168l.041.17c.109.009.217-.119.325-.103-.008.305-.062.676.045.956l.357-.286c-.02.352-.08.725-.08 1.107.136-.008.223-.203.383-.194l.053.559c.027.059.091.022.143.034.018.132.04.311-.017.437-.985-1.082-1.503-2.402-2.045-3.677-.118.456-.28.889-.351 1.369.146-.1.252-.312.43-.432-.08.467-.17.991-.108 1.506l.446-.389c.016.405-.105.836-.017 1.26.142-.027.25-.144.395-.119.008.347-.045.728.041 1.052.109.005.234-.031.362-.036.098.152-.172.619.22.532.008.195-.027.363-.034.548-.806-1.063-1.327-2.273-1.869-3.456l-.25-.687c-.087.136-.035.261-.078.418-.189.48-.173 1.029-.264 1.553.19-.134.264-.397.422-.582.01.405-.043.81.044 1.2.073-.05.17-.186.277-.271l.008 1.1c.11-.11.2-.374.378-.434 0 .374-.01.764-.019 1.12l.438-.509-.038 1.265c.119-.031.255-.098.387-.14 0 .238-.035.507-.16.719-.546-.7-.86-1.505-1.288-2.25l-.769-1.573c-.205.542-.27 1.192-.26 1.812.152-.13.233-.365.404-.536-.048.33-.11.71-.128 1.056.118-.098.208-.235.351-.292.009.37-.082.75-.047 1.132.117-.102.235-.197.368-.244.011.316-.026.707.038 1.029.088-.076.176-.203.282-.196.01.297-.024.601.038.883l.403-.29-.062.973c-.333-.328-.547-.803-.795-1.215-.458-.806-.762-1.685-1.238-2.48-.133.472-.139 1.04-.175 1.52l.384-.394c-.026.312-.083.702-.02 1.03l.24-.177c-.034.244-.062.532-.086.804.098-.035.223-.102.366-.076-.047.253-.115.557-.063.854a.82.82 0 01.32-.118c0 .176.01.387-.062.559.082.057.216.08.334.093-.008.14-.03.318-.046.486l.356.027c-.098.152-.07.346-.15.51-.278-.28-.422-.67-.608-1.009-.431-.963-.904-1.9-1.208-2.907l-.114-.188c-.053.67-.03 1.422-.012 2.057l.027.05c.129-.16.188-.331.26-.507.063.346.01.735.044 1.081.091-.067.179-.111.258-.177.03.294-.034.591-.059.895.14-.049.276-.195.436-.242-.123.242-.172.557-.256.837.124-.08.256-.216.418-.248-.038.203-.133.408-.162.627.11.11.277.203.429.286l-.142.628c-.717-.97-1.001-2.113-1.431-3.198-.053-.176-.142-.346-.224-.513l-.034.132v1.718c.14-.117.241-.305.366-.438.007.362-.136.726-.108 1.097.137-.06.16-.23.304-.288-.02.253-.088.533-.126.803l.35-.302c-.063.253-.135.566-.125.852.114-.11.205-.25.32-.381.018.288-.167.557-.077.88.114-.07.14-.211.265-.269 0 .234-.144.445-.087.725-.315-.217-.368-.667-.585-.99-.31-.659-.463-1.387-.84-2.02l-.044.079c-.008.632.148 1.206.11 1.85l.257-.255c.008.264-.082.552-.043.821l.32-.186c-.027.23-.088.474-.06.736.105-.017.213-.126.32-.187l-.15.67c.069.007.142-.06.21-.096 0 .162-.034.358-.175.458-.547-.753-.662-1.69-1.128-2.46-.018.542.063 1.243-.082 1.793l.386-.44-.098.914c.08.007.161-.069.243-.112-.02.188-.1.383-.09.6.107.017.195-.117.304-.152-.052.205-.168.425-.138.687-.433-.552-.632-1.288-.971-1.918-.07.565-.064 1.182-.197 1.765.133-.068.187-.245.322-.354.01.179-.07.346-.115.514.105-.016.214-.151.322-.21-.083.21-.179.456-.207.701v.036l.26-.096c-.171.176-.197.415-.295.625-.24-.465-.365-.97-.572-1.445a6.271 6.271 0 01-.323 1.523c.118-.041.233-.16.332-.263.007.23-.11.448-.227.653.137-.035.27-.17.406-.256-.1.262-.342.518-.388.822-.293-.357-.328-.838-.524-1.252a16.01 16.01 0 00-.1.584c-.135 1.175-.877 2.114-1.724 3.009-.072.042-.127.118-.188.17-.03-.66-.03-1.33-.053-1.98.053-.387-.037-.776.081-1.14.08.177.033.414.114.592a11.47 11.47 0 01.911-2.117c-.417.087-.748.459-1.153.645-.01-.146-.063-.28-.015-.415.067.036.115.119.204.11.22-.263.22-.61.375-.903.096.152.054.389.177.547.314-.556.52-1.193.888-1.748h-.08c-.528.345-1.022.768-1.53 1.142l-.16.059c-.04-.128-.012-.27-.021-.406l.187.168c.263-.152.246-.466.316-.719.08.108.123.237.186.348.19-.28.286-.592.42-.897.093.085.127.228.16.355.35-.549.7-1.126.951-1.691-.384.214-.6.625-.984.87-.414.337-.832.736-1.317.956l-.032-.59.357.27c.099-.195.126-.449.178-.67.087.086.087.34.24.416.188-.245.217-.55.323-.83.091.06.118.228.222.32.215-.361.36-.785.509-1.18.084.107.047.302.102.438.372-.534.721-1.157 1.06-1.75-1.078.743-1.92 1.757-3.075 2.324l.02-.54.285.118c.262-.237.368-.515.555-.78l.159.34c.27-.21.322-.54.448-.82.055.092.08.211.16.302.19-.252.286-.563.388-.85.072.092.104.2.178.302.087-.262.224-.534.303-.812l.144.434c.213-.515.491-1 .677-1.508-1.14.813-2.155 1.98-3.415 2.536l.02-.495c.105 0 .133.192.275.167l.384-.66.324.153c.267-.237.368-.54.598-.786.124.035.314.143.37-.068l.284-.609.24.095c.17-.22.213-.485.278-.747.081.086.106.279.16.423.206-.575.548-1.123.759-1.716-.248.144-.39.372-.695.575l-1.19 1.059c-.562.406-1.134.792-1.726 1.165v-.44c.091 0 .177.075.28.093.196-.162.257-.397.384-.592.117.034.213.205.304.18.196-.367.382-.73.596-1.084.118.059.224.118.287.229l.439-.803c.087.05.114.219.179.336.151-.43.377-.83.58-1.234.088.22.073.484.145.71.312-.634.445-1.369.724-2.035-1.08.987-2.274 2.026-3.495 2.848l-.37.178c-.024-.161-.009-.374-.016-.534l.324.22c.237-.228.293-.558.463-.83l.32.263c.253-.287.362-.624.546-.93l.324.245c.223-.27.358-.59.5-.899l.143.29c.195-.321.24-.727.42-1.063l.196.488.046-.016.482-1.726c-1.188.94-2.281 2.176-3.685 2.79a3.304 3.304 0 01.046-.658c.106.093.118.288.296.321.323-.176.49-.525.578-.853l.286.219c.242-.254.368-.584.549-.87.08.084.143.185.24.244.26-.347.447-.744.642-1.124l.198.254c.493-.136.482-.633.645-.99l.24-1.007c-1.056 1.04-2.215 2.133-3.556 2.735l-.037-.019c0-.313.061-.593.133-.874.025.222.09.39.161.569.206-.288.248-.634.403-.949l.418.38c.296-.278.447-.649.674-.971.06.093.078.27.24.261.302-.43.455-.912.679-1.368.118.153.072.424.285.5.28-.443.387-.948.538-1.431l.079-.364c-.329.211-.617.586-.963.821-.771.559-1.54 1.167-2.432 1.463-.072-.229-.011-.482.061-.682.08.125.08.361.305.361.232-.068.392-.33.518-.515l.187-.339.314.227c.287-.312.41-.75.572-1.14l.277.415c.206-.357.285-.72.4-1.115.153.157.153.465.308.668.158-.678.265-1.404.384-2.081-.315.244-.583.591-.914.896-.676.523-1.359 1.115-2.154 1.403a1.031 1.031 0 01.065-.601c.06.034.133.185.24.22.348-.06.438-.423.59-.658.124 0 .278.255.34.031.063-.202.141-.387.179-.59.107.041.242.195.304.312.223-.372.339-.814.482-1.225l.32.465.065-.024c.178-.678.31-1.312.393-2.03-.796.734-1.7 1.454-2.647 1.97-.053-.204.035-.391.054-.586.072.028.098.19.221.213.198-.143.198-.423.368-.61.09.086.19.196.315.224.16-.283.275-.57.383-.857l.286.196c.186-.322.286-.678.36-1.049.103.101.187.303.239.47.028-.58.295-1.08.243-1.63-.655.45-1.243 1.056-1.952 1.389.027-.154.013-.365.08-.518l.1.195c.152-.195.195-.437.348-.634.082.11.102.255.198.364.238-.315.284-.703.483-1.025.064.13.196.238.285.355.053-.017.115-.04.136-.092l.268-1.448-.029-.031c-.473.372-.905.906-1.448 1.14-.026-.226.03-.473.082-.702.08.11.037.297.097.433.02.017.037.043.06.024.073-.312.29-.566.433-.846l.15.287c.09-.21.153-.44.187-.668.055-.014.083.087.137.03.034-.383.17-.74.24-1.11-.285.204-.573.5-.902.65V5.88c.072-.179.105-.367.158-.551.109.017.171.363.35.152-.008-1.792.224-3.551.558-5.267-.03-.028-.056-.033-.082-.028-.28.745-.43 1.54-.68 2.294-.225 1.083-.717 2.045-1.13 3.042-.086-.015-.095-.152-.175-.226-.11.66-.465 1.223-.628 1.86l-.193-.23c-.286.601-.36 1.286-.674 1.87-.123-.103-.133-.271-.258-.388-.221.532-.366 1.098-.643 1.605-.053-.044-.153-.202-.22-.238-.334.637-.467 1.346-.69 2.022l-.323-.338c-.238.61-.313 1.285-.497 1.902-.09-.128-.152-.27-.257-.39-.1.187-.073.46-.144.67a9.815 9.815 0 00-.137 1.522 4.463 4.463 0 01-.399-.44c-.109.7-.038 1.422.034 2.131-.133-.059-.277-.17-.419-.244.133.598.249 1.26.339 1.901-.133-.009-.278-.136-.403-.152.09.633.27 1.225.403 1.844-.153-.035-.278-.178-.438-.229.195.641.563 1.25.78 1.91-.137 0-.286-.103-.422-.119l.036.151.77 1.507c-.144 0-.281-.093-.423-.116.365.657.795 1.334 1.186 2.004l-.444-.12c.232.583.74 1.084 1 1.674-.125 0-.26-.11-.393-.094.374.549.684 1.125.962 1.71l-.265-.037c.418.77.908 1.515 1.185 2.346-.043-.57.055-1.135-.114-1.658-.321-.305-.634-.644-.59-1.11.17.23.213.543.465.762.072-.356-.117-.64-.134-.98l-.83-.82c.276-.018.123-.33.257-.465.15.379.276.777.547 1.124a13.31 13.31 0 00-.145-1.343c-.42-.39-.94-.636-1.338-1.067.19-.042.107-.27.195-.389.143.202.223.49.368.65.07-.16.078-.328.099-.498.179.305.346.703.596 1.03.1-.352.008-.749.008-1.123-.615-.476-1.277-.871-1.919-1.277l.107-.296c.118.085.224.252.342.381a.869.869 0 00.094-.364c.202.17.316.457.509.67.098-.12.072-.315.153-.457l.59 1.1c.037.032.09.081.124.056-.015-.44 0-.846-.078-1.257-.726-.466-1.484-.925-2.162-1.526l-.053-.278c.035.161.234.34.42.418.07-.121.06-.292.122-.418.136.273.225.602.474.83a2.49 2.49 0 00.287-.569c.195.317.178.704.402 1.01l.185-.382c.125.23.19.49.325.71.07-.405-.054-.83-.01-1.24-.822-.528-1.686-.991-2.447-1.618-.02-.134-.027-.272-.04-.415.13.164.136.592.508.566.113-.117.132-.27.194-.414l.06.07c.11.305.287.58.465.862.117-.162.11-.372.18-.55.207.328.286.735.58 1.04.106.009.061-.126.098-.184l-.017-.561c.124.261.223.534.383.787l.037-1.007c-.832-.564-1.715-.986-2.475-1.698l.027-.458c.09.17.096.415.295.552.096.076.196.175.328.175.143-.117.118-.312.218-.454.09.303.256.572.428.836.099-.17.071-.415.152-.61.133.287.168.643.331.93.158-.16.158-.415.256-.61.107.35.302.662.44 1.009.033-.407.045-.804.107-1.218a25.373 25.373 0 01-2.356-1.65c-.084-.1-.207-.177-.226-.303l.161.033c.038-.118.053-.252.09-.38.09.219.146.473.294.684.144-.108.295-.237.383-.396.168.288.304.674.501 1.007.119-.162.26-.422.43-.593.196.48.363.997.742 1.385l.159-1.293c-.86-.658-1.749-1.192-2.438-2.054.096-.018.214-.076.242-.185l.239-.61c.037.405.028.836.171 1.202l.375-.323c.028.278.054.558.159.81.155-.194.285-.422.429-.625.029.338.07.71.152 1.05.152-.152.215-.363.369-.533.096.34.035.753.302 1.006.141-.118 0-.253.062-.415l.132-.82c-.532-.548-1.167-1.004-1.658-1.621-.152-.254-.395-.476-.508-.738.023-.008.113.145.223.11.195-.326.248-.71.445-1.04-.027.466-.068.983-.079 1.447.247-.176.232-.482.456-.686.008.38.015.801.141 1.159.168-.136.205-.344.34-.515 0 .303-.017.657.08.946l.09-.092.259-.475.05.044.012.64.073.383.076.075.046-.043.097-.793.046-.306-.061-.135-.785-.895-.465-.734-.26-.518.123.032.403-.732.039-.028-.047.365.008.7.039.288.347-.566.098-.093-.062.83.015.388v.051l.224-.213.24-.322h.045l.02.806.06.184c0 .008-.06.036.054.06l.098-.304.09-.642.073-.227-.117-.195-.322-.425-.366-.717-.32-.796.248.186.102-.117.214-.45-.086 1.218.191-.152.32-.44.036 1.406.079.193.062-.026.228-1.19.134-.883-.52-.96-.127-.24.404-.398.124-.202-.195.853v.035l.237-.228c0-.034-.066.187.076-.076l.028 1.047.096-.261.18-.846.257-.989-.159-.76.063.057.143.382.035-.017.245-.84.282-.835v-.338c.017 0-.116.136.096.019l.03.034.18-.399.221-.651.36-.886.195-.637v-.053l-.015.4-.219.914-1.17 3.806-.724 3.314-.176.89-.422 2.678-.109.77-.176 1.748-.143 1.666-.038 1.227-.043 2.528.02 2.434.219 2.317.126.898.099 1.259.017.67.018.987-.055.949.02.093-.046-.053-.418-.725-.617-.794-.831-.99-.161-.237-.838-1.14c-.007-.028.046.068.046.068l-.108-.18.804.852-.02-.227-.141-.778-.064-.548-.256.354-.323-.913-.108-.609c-.009-.026.048-.044-.015-.067l-.103.201-.274.865-.045.107-.175-.27-.13-.278.163.058.043.053.037-.017-.062-.364-.26-.643.19.153.148.185.065.06v-.12l-.18-.53-.257-1.084-.445 1.428-.118.272-.043-.043-.198-.548c.01-.034.063-.086-.017-.119l.294.12.025-.06-.087-.518-.195-.565.24.218.178.228.063.06v-.229l-.303-1.81-.054-.183-.061.058-.228.795-.275 1.41c-.053.054.223-.404-.062.189l-.047-.053-.142-.406.171.044V25.3l-.144-.508h.261l-.063-.592-.146-.726.063.057.189.5c.046.033-.098.043.075.079l-.018-.864-.1-.812v-.502l-.117.155-.284.988-.359 1.616-.061.12-.082-.12-.127-.416c0-.006-.008.069-.018-.031h.198l.046-.012-.145-.986.288.083-.019-.457-.09-.76.304.472.026.035.073-.126-.054-.713-.144-.867-.044-.29-.26.475-.384 1.216-.214.932-.108.5-.036.033-.178-.357.214-.076-.115-.61-.063-.328.286.162h.036l-.065-.558-.08-.323.145.06.243.183v-.207l-.164-1.119.18.128.142.212.048.043.053-.06-.1-.668-.224-.99-.037-.15-.623 1.841-.196.542-.261.99-.144-.695c-.008-.019-.034.067-.016-.035h.214l-.135-.792.021-.042.195.117.107.017c.01.006-.07.034.035.018l.035-.035-.213-1.033-.028-.21.127.117.273.458c.015.01-.038.021-.038.02 0-.003.02-.008.086-.02l-.048-.484-.21-.827.095.092.305.475.063-.06v-.204l-.348-1.624-.197.323-.502 1.446-.284.895-.162.687-.046-.051-.15-.481.02-.034h.158l.054-.045-.15-.643.321-.024-.17-.93.006-.051.085.077.158.204.055.04.062-.058-.02-.592-.042-.136-.084-.627.27.255.118.171.043.05.073-.078v-.277l-.338-1.37-.295.718-.385 1.064-.326 1.008-.143.575-.138-.244-.118-.424.213.024-.02-.665-.014-.044v-.05l.285-.01-.092-.758-.051-.306.404.288-.018-.431-.19-.924.161.155.207.235.177.144c.035-.01.02-.077.062-.032l-.399-1.279-.11-.432-.36 1.117-.56 1.69-.178.35-.11-.29v-.051l.092-.042-.027-.492-.036-.117.016-.032.2.015h.043l.037-.059-.021-.796-.035-.151.02-.06.277.127.06.009-.097-.694-.036-.17v-.05l.28.398.033.033.08-.093v-.269l-.293-1.327c-.011.009.062.042-.02-.036l-.125.263-.501 1.329-.446 1.047-.037.025-.045-.769h.262l-.082-.752h.09l.195.09.036-.013-.036-1.09h.1l.24.09-.24-1.192-.052-.397-.323.992-.593 1.631c-.034.049-.08-.12-.061.09l-.098-.488.142-.045-.044-.792h.06l.147.11.034.025.063-.076-.02-.913-.033-.151.071-.028.252.213.053.04v-.135l-.376-1.411-.062-.21c0-.01-.053.059-.02-.05l-.046.093-.525 1.578-.179.417-.134-.93.259.194.036-.027-.099-1.174.26.186.161.102v-.196l-.358-1.429v-.109l-.063.058-.4 1.134-.146.304-.06-.627-.116-.582.356.415.062-.118v-.297l-.223-.837-.116-.482-.287.378-.197-1.06-.383-2.742c-.01-.008-.025.007-.035-.018l-.029.06.145 1.801.18 1.244.087.76.375 1.962.508 2.123.521 1.655.367 1.091.821 2.182.499 1.014.611 1.042.727 1.276 1.08 1.785.662.92.5.642 1.135 1.616.376.532.863 1.143 1.59 2.112.543.702.598.804.465.744-.195-.04-1.135-.587-1.205-.608-1.224-.592-.676-.27-.931-.38-1.225-.437-2.94-1.138-1.79-.74-1.303-.686-1.27-.805-1.574-1.158-1.209-1.142-.311-.362-.708-.78-.562-.785-.724-1.209-.027-.103.088.091.6.809.706.928c.099.067-.189-.04.082.1l.034-.006-.081-.415-.063-.168c-.015-.018-.053.041-.034-.043l.082.075.24.635.045.22 1.082.995-.033-.134-.21-.346-.303-.398c.001.007-.001-.006-.018-.034l.143.034.222.12.26.429.143.536.296.327.502.414v-.135l-.26-.657-.08-.156h.045l.357.418.178.395.142.406.582.433.271.168-.018-.092-.493-.584c-.02.006-.028-.008-.038-.008l.018-.035.26-.016h.044l.038-.026-.242-.304-.039-.033h.146l.117.042.18.243.347 1.01.967.648.017-.093c-.27-.183-.502-.464-.707-.666l.446.075-.579-.686.292-.01.1.027.368.594.463.884.053.136.707.443.27.118v-.087l-.09-.226-.475-.356c-.027-.019.19.108-.08-.042l.338-.095-.5-.472.162-.026c.01-.014-.043.005-.043.005a.441.441 0 00.114-.038l-.421-.33c-.052-.018.037.108.018-.07l.045-.022h.063l.518.54.403.72.271.575c.21.076.4.37.598.277l-.305-.43.142-.177-.288-.355-.033-.027.066-.125-.164-.255-.206-.229-.056-.044.102-.065h.053l.543.702.287.7.135.44.171.094.562.212.034.035-.016-.077-.348-.49.168-.17-.32-.399.034-.116-.08-.154-.195-.229.08-.043.1-.016.4.635.216.458.168.606.394.204.284.12c.03.003-.075-.06-.076-.059 0 .005.039.035.195.135.01-.01-.072-.02.026-.02l-.22-.328-.243-.246v-.04l.159-.17-.365-.474.159-.15.366.665.323.822.682.228-.02-.136-.322-.347.187-.185-.06-.33c-.011-.019.015.1-.02-.052l.359.567.276.61.562.243.029-.032-.099-.168-.446-.381.383-.017v-.29l.457.915.026.093.76.34-.02-.229-.416-.4.417-.014c0-.008 0-.053.048-.017l.175.701.377.194.242.077.241.127v-.153l-.357-.263-.038-.022.28.072.22.078.136.377.99.485.517.26-.06-.134-.567-.674-.097-.164-.036-.03c-.015.124-.105.251-.015.378l-.171-.121-.722-.944-.053-.11c-.1.1-.119.263-.162.357l-.804-1.039-.144-.215-.062-.058-.118.398-1.008-1.066-.055-.05-.043.092-.036.379h-.065l-.93-1.141-.035.566-.204-.166-.76-.931-.019.38v.052l-.142-.07-1.143-.92-.01.422h-.071l-1.13-.838v.129l.056.347c-.02.005.035.016-.02.032l-.705-.607-.356-.374c-.03.016.08.043-.047.035l.047.474-1.145-1.101-.011.518-.07-.01-.652-.751-.234-.317-.142.518-.564-.533-.499-.547-.062.421-.423-.39-.525-.683c-.03-.058.321.38-.08-.17l-.126.302-.377-.487-.268-.398-.394-.611-.125.306-.034.034-.331-.61c-.081-.22-.163-.45-.241-.65l-.074.06-.087.304-.197-.185-.678-1.034-.469-1.024-.079-.252c0-.008-.02-.093-.064 0l-.043.059.224.701.607 1.55.26.666.367.719.5.803-.099-.083-.51-.704-.241-.183v.09l.707 1.177.403.303.527.228.179.346-.259-.107-.16-.137v.126l.096.305-.337-.37-.252-.23-.321-.152v.076l.366.523.608.729 1.422.262.223.379-.083.01c-.133-.101-.285-.077-.438-.255l.018.169.163.383.062.117-.77-.65.019.1.143.433c.001 0-.101-.099.018.059l-.161-.152-.536-.611-.225-.05h-.06l.437.583.49.518.244.108.74.085h1.289l.134.229.043.135-.276-.102-.224-.127-.043.05v.17l-.038.024-.641-.253.062.23.176.301-.462-.26-.278-.227.08.473-.572-.517H3.46l.016.06 1.002.838 1.056-.017 1.323-.136.035-.017h.044l.324.348-.625-.102-.038.024.018.22v.044l-.196-.043-.482-.202.033.38-.804-.272.118.196.386.454-.165-.059-.856-.44-.171-.076H4.22l.125.151 1.018.689.24.058.708-.118 1.913-.474h.064l.356.226h-.42l-.338-.033.212.281-.66-.077h-.061l.008.077.197.236c0 .008.025-.049.017.034l-.222-.04-.441-.148-.18-.022.02.09.36.332-.154-.02-.59-.159c-.044-.024-.062.043-.1 0l.195.179.244.15-.716-.176-.345-.093-.215.028.257.181.903.367.224.031.84-.21 1.72-.6h.16l.274.168.039.035c-.173 0-.342-.009-.54.06-.025.076.18.144.066.228l-.655-.042.047.084.239.227-.519-.009-.222-.015h-.064l.259.211-.277-.016-.32-.06c-.02-.018-.063-.036-.098.017l.31.306-.48-.11-.18-.078-.537.128.07.06.593.177.818.169.45-.06.84-.27 1.109-.51.297-.073.163.091.041.042-.383.019.02.244-.423-.017-.063.017v.06l.167.227-.811.052.365.304-1.045.008-.224.126-.052.044 1 .123.342.013.75-.229.823-.38.643-.348c.117.031.207.11.324.171l-.352.04c-.002.054.058.005.05-.009-.004-.006-.041 0-.147.063l.097.193.028.031-.58.087.314.279-.78-.06.375.27-1.035.059-.307.152.137.062c.517.09 1.258.025 1.637 0l1.303-.517.583-.193.265.167.037.026-.387.034c-.068-.01.488.026-.213-.034l.259.278-.767.025.16.152.204.092-1.15.078-.1.034-.194.159.16.05 1.626-.092.422-.11.98-.379.126.033.224.152-.35.017.126.195-.017.034-.626-.052.208.202c.032.018-.228-.041.096.044l-.752-.018h-.16l-.323.144.626.027 1.03.058.437.017.83-.21.275.135.028.034-.48-.016c-.278.082-.538.099-.787.395l1.587.018 1.18.422.848.475.445.32.404.237-.67.033-3.338.49.044-.05 1.829-.363-1.287-.424-.508-.22v.068l.545.636-.465-.075-.657-.198c-.012-.008-.03.01-.04-.014l.617-.094-.372-.17-1.074-.313h-.08v.044l1.028 1.046-.805-.179.205-.14.115-.044.03-.033-.093-.043-1.097-.194v-.033l.6-.17-.054-.04-.27-.018-1.161-.17.724.642.722.592.136.154-.777-.06h-.045l.08-.076.34-.136-1.003-.143-.032-.026.47-.153-.097-.093-.678-.118-.467-.018.101-.092.482-.15-.226-.06h-.874l-.493.016 1.135.822.521.403.035.036-.324.014-.398-.134.06-.067.187-.077-.089-.075-.956-.042.536-.134c.01-.028.034-.01.045-.036l-.482-.104-.726-.047-.142.016.044-.042.539-.17c.012-.032-.099.017-.098.017 0 0 .05-.018.219-.094l-.016-.03-1.577.016 1.312 1.155-.62.078.08-.152.098-.092v-.06c-.284-.007-.546.024-.785-.033l.4-.178.082-.078v-.032H9.628l.725-.23.025-.044-.08-.073-1.717.073.931.619.338.262-.543.044h-.071l.213-.161c-.008-.017-.045.035-.035-.05l-1.19-.06.064-.06.455-.135c.052-.05.152-.092.16-.143l-.07-.025h-1.53l.324.328.401.324-.142.05-.402-.036-.592-.108.51-.194.054-.045-.055-.032h-.867l-.822-.075.035.116.1.145-.556-.036-1.236-.27.033.104.114.152.018.05.99.211 1.52.178 1.11.051 2.36-.051 1.681-.076 3.767-.237 2.95-.473.91-.151.984-.037-.258.476-.284.361-.546.552-.528.363-.884.363-.535.186.262.15.703.155.033.035-.623.346.19-.264-.1-.058-.484.172-.221.117.303-.365-.303.052-1.33.53-.036.027.439.17.828.184c.03.016-.065.013-.065.013l.164.014-.803.32-.097.059.238-.271c.019-.023.082.06.053-.076h-.143c-.275.094-.524.254-.775.365l.06-.136.297-.363-.143.025-.806.456-.48.357c-.01.006-.063-.044-.019.043l.768.11.779.073-.071.062-.69.438.198-.347v-.05h-.163l-.516.17-.14.059.014-.381-.876.609-.724.398 1.528.117-.008.066-.375.229.118-.22-.162-.01-.1.03-.849.58c-.017.011.109-.022-.053.026l.463-.576v-.03l-.043-.03-.195.06-1.175.854c-.005.012.11-.033-.033.044h.921l-.285.287c-.029-.067.05-.136-.075-.193l-.642.634-.448.53-1.815 1.727-.405.44.033.034.515-.38.833-.704 1.199-.835 1.286-.797.27-.134.033-.035-.017.382 1.19-.745v.322l.92-.624.365-.29.036.192v.036h.082l.908-.879.036.12v.211l1.01-1.397.079.39c.01.018.037-.018.018.036l.141-.229.617-1.37.098.337.08-.153.386-1.217.124-.277h-.044l-.466.43-.149.422-.029.186c-.036.034.208-.271-.134.102l.036-.328-.036-.033-.669.65-.098.87-.445.27.328-.381v-.078l-.41.13.428-.508v-.136h-.06l-.761.661-.106.988-.498.238.38-.424-.015-.035-.509.111.348-.38.08-.152v-.058h-.065l-.703.545-.097.79-.483.304.322-.44v-.035l-.146.034-.354.137.482-.459.07-.09c-.01-.019-.027.152-.018-.06l-.918.66-.046.483-.502.184.288-.322v-.153l-.082-.014-.527.381-.357.226-.046.245-.079-.119-.707.38-.563.39.484-.457 1.311-.996 1.388-.93 1.064-.836 1.561-1.312 1.793-1.75.606-.652.072-.067-.162 2.622-.276 1.478-.418 1.244-.627 1.267-.445.745-.08.024h-.064l-.036-.024.44-.82.648-1.59.245-.837.257-1.447.1-1.504v-.094l-.134.145-.448 1.243-.54 1.42-.084-.45-.226.377-.301.707-.232.474-.125-.625-.117.11-.59.912-.48.573-.018-.498-1 .897-.027-.321h-.052l-.304.28-.822.558-.044.05-.046-.355-.08.017-.97.72c-.031 0-.052.034-.078.04v-.422l-.08.009-1.581.965-2.364 1.69-.212-.076-.026-.034 1.447-1.539 1.61-1.75h-.681l.583-.517.742-.643-.258-.01h-.162l.75-.58.957-.632-.456-.054.114-.1 1.657-1.009-.422-.151 1.082-.49.837-.33-.053-.067-.258-.102.794-.279 1.188-.381.59-.423.482-.534.291-.361-.013-.036-.538.06-.846.228-.564.203-1.302.956-.402.364-.011-.382h-.068l-.383.22-1.127.56-.028-.254-1.448.763v-.281l-.76.286-.742.205-.27.025a.455.455 0 01.109-.289l-.161.021-.95.192-.787.11h-.034l.116-.21.098-.13H8.323l.046-.098.16-.171-.019-.032-1.368-.046-.428-.072.178-.247-.562-.093-.958-.06.313-.329-.071-.052-1.296-.304-1.55-.499-1.044-.43-.518-.239-.026-.09v-.06l2.815.572-.338-.55c0-.038.033.01.028.014 0 .004-.018-.012-.063-.07l1.284.337.466.06-.142-.303.179-.019 1.413.094.213-.035c.037 0-.088.103.064-.015l-.288-.24h.95l.483-.032-.117-.194 1.745-.153.024-.034-.127-.186v-.04l1.631-.077v-.059l-.216-.17-.046-.041h1.71l.24.025-.215-.247 1.029.067.804.102v-.093a.26.26 0 00-.079-.162l.215.01 1.187.338.123.06v-.177l-.023-.07.122.02 1.26.49.08.024.401.111.805.093.765-.06-.579-.371-.823-.365-.81-.27h-1.221l-.599.04-.08.037h-.048l.189-.357-1.127-.12-.724.038h-.57l.269-.295-.85.065-.825.059-.284.06.225-.348-.583-.018-1.45-.11-.035-.024.259-.217.054-.045-.322-.059-.885-.035-.635-.04.232-.215.16-.108.028-.032-.098-.042-.465-.045-.608-.15-1.181-.396.324-.171-.045-.06-.761-.28-.866-.437-.1-.096.321-.08c.01-.012-.025.056.036-.02l-1.428-1.08-.082-.077.02-.035.542-.024-.22-.214-.94-.81-.243-.211h.538l-1.021-1.126-.203-.338.321.018.06.036h.046l-.588-.737-.52-.77c-.027-.045.008-.085-.1-.128l.235.036.222.076-.936-1.584.15.008.303.154-.017-.076-.421-.819-.467-1.446-.203-.744L0 18.537l.24-.23.18.355.368.84.552.818.243.303.087-.136.116-.276.038-.028.224.44.158.424.181.323.168-.247.394.684.545.763.109.143.133-.322.902 1.262.064-.212c.022-.047-.015.176-.02.176 0 0 .01-.1.066-.439l.517.625.269.32.213.186.164-.582.304.355.596.668.046-.49.966.93c.018.026-.044.051.044.075l.02-.49.052-.025.946 1.03v-.515l.027-.033 1.18 1.042.02-.434v-.042l.08.017.726.55.524.364h.038l.087-.44.618.726.187.304.073-.127.044-.422.035-.032.51.674.437.654.146-.516.686.683.475.476.081-.07.09-.347.034-.033.243.373.223.286.386.533.116.092.096-.218v-.06l-.357-.177.145-.093.398-.06-.562-.356-1.153-.634.53-.065-.144-.087-1.207-.624-.5-.338c0-.012.009-.035-.027-.017l.491-.044-.08-.075-.992-.634-.805-.567.206-.035.144.019-.01-.044-1.77-1.1.607-.059h.117l-.133-.118-.95-.607-.483-.356-.114-.076c-.011-.024.022.178-.029-.076h.51l-.653-.701-.66-.652.38.043-.194-.228-.751-.803-.222-.247-.054-.025.544.078-.161-.246-.241-.281-.285-.456-.368-.481c-.028-.019-.02-.042-.054-.058l.6.117-.035-.138-.61-1.08-.293-.55.259.052.16.076-.019-.143-.428-1.379c-.026-.102.054.572-.063-.247l.491.397v-.185l-.16-.72-.187-1.013c.007-.033-.027.219.017-.094l.348.232-.383-1.71.365.203.018-.135-.126-.734-.178-1.109c.02-.025-.06-.045.035-.06l.224.176v-.116l-.24-.873-.133-.59v-.034l.392.154.046-.23L7.295 7l.082-1.731.079-1.084.206-.075.034.118.092 1.117.257 1.412.243 1.42.133.789.43-.459.096.337.205 1.091.074-.059.161-.32.402 1.65.251-.493.295 1.178.188.557.1-.086.21-.338.35 1.631.034.136.08-.075.163-.322c.03-.008-.097-.075.065-.017l.143.701.18.574.257-.302.584 1.935.06-.058.181-.322.024-.033.08.245.144.736.16.684.038.026.321-.456c0 .007-.07-.076.043 0l.298 1.732.014.146.065-.069.178-.362.09-.06.116.412.179.925.143.564.339-.515.125 1.142.115.703.146-.146.194-.303.11 1.056.114.743.267-.303.164.938.177 1.101c-.003-.013.004.001.016.032l.259-.372.508 2.19c.011.018-.008.023.02.034l.198-.271.185-.303.054.041.267 1.6.036.152c.006.014-.018-.11.02.042l.336-.389.125 1.225.259 1.083.126.28.58.617.901 1.216-.051-.787-.186-.55-.296-.64-.75-1.302-.437-.611.438.06-.647-1.127-.355-.548.375.093-.02-.093-.454-.65-.59-.982h.11l.213.051h.064l-.661-1.116-.59-1.15.123.059.422.27.015-.04-.437-.794-.353-.84.481.229-.044-.177-.342-.777-.202-.593-.082-.338.161.035.305.161-.02-.155-.24-.712-.206-1.001.382.117s.004-.082.047.034l-.172-.795-.214-1.077-.06-.184.126.032.433.288-.043-.776.008-.5.134-.761.044-.05.28.323c.005.01-.042.019-.042.019 0-.003.02-.008.086-.018l.017-.611.204-.956.152-.398.17.18c0 .005.027-.105.036.048l.048-.135.034-.305.259-.98.098-.229.026-.194c-.01-.022.027-.022.016-.043l.384.39.065-.117.39-1.336.226-.611.062-.108.186.227c.124-.27.294-.616.294-.838l.404-.802.06.06.205.326.182-.421.133-.422.285-.87.204.168.567-1.724.258.226.062-.117.482-1.428 1.2-3.46.042-.134c.128 0 .29-.017.342.075zm-1.482 37.347c.32.333.123.82.22 1.22h.037l.142-.55c.394.421.62.997.741 1.57.085-.192-.005-.386.02-.599.31.397.974.618.902 1.21-.01.041.01.076.043.102.072-.146.062-.322.062-.5l.664.474c.046.22.171.406.277.61v-.533c.78.373 1.585.83 2.26 1.412-.3-.145-.596-.321-.908-.438l-.038.378c-.356-.27-.688-.566-1.09-.76-.009.083-.045.16-.037.253l-1.01-.804c-.07.121-.053.27-.08.414l-.98-1.133c-.056.162-.09.323-.128.475-.284-.456-.538-.923-.803-1.387-.084.028-.133.153-.198.227l-.364-1.3-.183.16c.062-.515-.043-1.067-.034-1.53.142.356.367.668.485 1.03zM42.783 23.94c-.161.142-.403.237-.593.381.107.122.368.15.547.243-.464.21-.939.481-1.406.718l.619.118c-.51.239-1.046.415-1.501.762l.017.033c.16-.008.286.06.446.06-.446.145-.85.39-1.295.533.125.084.312.076.462.135-.41.16-.908.33-1.34.567.134.066.294.11.457.136-.53.261-1.098.423-1.644.65.114.084.35.145.536.186-.43.152-.949.297-1.384.516.167.11.4.083.586.153-.613.202-1.32.261-1.932.532l.727.196c-.57.1-1.09.328-1.61.566.064.083.259.083.374.167-.516.144-1.036.263-1.545.422.19.111.438.139.646.23-.52.161-1.084.227-1.594.413l.226.23c-.538.094-1.118.176-1.675.271l.744.244c-.6.018-1.172.144-1.77.189l-.034.022.433.279-1.528.137c.028.082.171.14.27.176-.41.01-.842.042-1.252.095l.188.153-1.478-.028.29.27c-.429-.007-.977-.167-1.48-.152l.308.381c-.52-.023-.974-.168-1.448-.286.795-.213 1.615-.356 2.375-.644.298.085.563.211.871.247l.015-.263c-.232-.025-.49.058-.722-.006.41-.08.813-.593 1.26-.264l.723.11c.073-.507-.59-.12-.875-.28.178-.118.437-.195.644-.306.414.105.877.129 1.288.152-.092-.615-.707-.092-1.092-.212.25-.16.556-.286.821-.471.528.043.992.229 1.532.243.06-.065.054-.159.08-.243-.19-.078-.6.185-.584-.171a13.66 13.66 0 01-.818.093c.204-.16.524-.277.774-.456.602.11 1.172.287 1.837.264-.04-.102-.208-.144-.282-.248-.134.037-.274.06-.418.095-.037-.095.035-.194-.008-.288l-.924.085.744-.424c.637.07 1.232.22 1.852.339.052-.067-.038-.151-.053-.231-.083-.03-.137.105-.244.08l-.08-.262a2.707 2.707 0 01-.367.108l.018-.242c-.303.022-.641.134-.946.1.277-.18.562-.398.866-.54.67.064 1.343.16 2.029.21.028-.043.01-.103.01-.15-.143-.028-.302.039-.466 0l-.025-.154c-.172-.018-.34.059-.52.077-.018-.077-.018-.163-.063-.231-.257.068-.536.203-.804.154l.672-.474c.579.153 1.196.21 1.85.186a.204.204 0 00.053-.17c-.143.01-.314.101-.467.092-.051-.082.082-.15.127-.227-.24.01-.5.085-.757.12.052-.094.098-.187.15-.273-.269.019-.53.195-.805.195.187-.195.446-.358.687-.49.725.043 1.449.118 2.172.11a.549.549 0 00.099-.27l-.465.1c-.007-.094.037-.203 0-.27-.252.094-.472.238-.74.288l.078-.34c-.333.052-.672.213-1.017.28.268-.228.643-.406.962-.608l2.13.119c.111-.044.1-.187.125-.29-.125-.006-.25.068-.383.11l.08-.32c-.249.094-.528.236-.821.29l.015-.305c-.357.041-.671.27-1.044.32l.965-.685c.707.093 1.464.008 2.171.015l.215-.279c-.134.06-.305.12-.473.138.015-.07.08-.128.1-.197-.261.045-.521.197-.825.197l.1-.229c-.34.077-.714.23-1.092.23.251-.198.627-.382.93-.61.636.076 1.339.076 2.028.093.137-.084.297-.22.367-.364l-.609.2-.033-.227-.644.227.037-.301c-.344.043-.681.2-1.032.272.556-.695 1.594-.45 2.399-.501l.365.042c.056-.07.083-.151.116-.229-.088-.034-.166.052-.277.042l-.044-.152c-.18 0-.366.07-.544.093l-.038-.135c-.266-.034-.49.118-.767.112.232-.188.494-.33.751-.45.517-.068 1.116-.05 1.644-.01.046-.098.1-.194.146-.292-.156.033-.327.108-.503.142a.304.304 0 00-.046-.223c-.294.104-.599.2-.928.156.276-.156.573-.355.888-.466.362.017.784.1 1.132-.016l-.078-.06-.77-.05c.617-.221 1.179-.534 1.833-.625zM7.617 4.51c-.109 1.85.224 3.649.27 5.502.141.67.22 1.351.382 2.012-.375-.102-.277-.525-.428-.779l-.038.02c.03.252 0 .522.144.727.718.347.483 1.142.76 1.69l.098.322c-.58-.195-.393-.881-.662-1.294l-.035.033c.063.17.027.373.035.56l-.257-.5c-.035.245-.073.507.034.726.27.261.58.5.905.669l.06.112c.118.598.277 1.19.467 1.764-.296-.37-.386-.829-.628-1.217-.06.204-.018.492-.033.652-.143-.23-.151-.516-.342-.726-.125.11-.068.38-.17.472-.159-.245-.206-.542-.338-.779a1.004 1.004 0 000 .652 7.193 7.193 0 001.573 1.157l.383 1.142c-.293-.16-.41-.6-.622-.897l-.128.501a2.644 2.644 0 01-.242-.61l-.037.018-.025.566c-.135-.17-.195-.45-.322-.66l-.052.439a8.082 8.082 0 00-.467-.592l-.035.018.053.491c.571.489 1.296.66 1.96.939l.482 1.19c-.466-.083-.646-.633-.85-.985-.07.185-.063.428-.063.631-.159-.195-.313-.508-.463-.762-.063.188.017.388.005.593-.158-.21-.338-.423-.425-.667-.065.142-.083.328-.118.49l-.403-.431c.053.17.008.446.224.523.707.315 1.422.601 2.174.802.17.358.311.72.534 1.049-.347-.125-.679-.422-.786-.76-.062.126-.024.29-.037.431-.14-.05-.247-.202-.357-.297-.098.024-.061.195-.142.28a1.072 1.072 0 01-.447-.475c-.056.096-.099.195-.143.29H9.01a4.894 4.894 0 00-.463-.382c-.008.163.133.297.176.459.742.31 1.566.44 2.354.657.168.347.357.696.562 1.033-.358-.046-.627-.363-.797-.643l-.043.323c-.153-.147-.304-.329-.438-.482-.09.107-.08.276-.129.423l-.578-.57-.047.306-.514-.305c.015.135.08.288.142.416.785.346 1.653.486 2.491.702.209.246.325.534.506.786-.217-.045-.342-.296-.485-.458v.355l-.645-.592c-.035.186-.018.38-.044.541-.17-.059-.33-.288-.459-.422v.363c-.176-.008-.294-.152-.425-.253-.056.093.016.177.058.253.685.154 1.354.32 2.079.382.149.338.438.584.599.912-.196-.034-.332-.219-.484-.346-.1.007-.1.15-.115.246l-.431-.398-.117.302c-.17-.038-.329-.284-.482-.378l-.018.346c-.186-.095-.346-.238-.527-.327l.189.44c.65.142 1.33.216 2.045.227.235.32.484.666.726 1.004-.305.162-.458-.209-.643-.352-.093.1.025.211.018.317l-.564-.588c-.071.09-.027.192-.02.302l-.483-.354c0 .142.12.277.147.43l-.504-.211c.253.55.913.432 1.406.573.303.128.848-.158.945.307l.465.667c-.294-.075-.51-.432-.767-.608.052.195.155.406.224.608l-.482-.405a.795.795 0 00.063.389c-.208-.125-.384-.305-.591-.44.06.195.097.473.338.582.448.061.903.13 1.378.12l.712.989c-.276-.104-.55-.379-.793-.608.026.158.118.338.232.481-.212-.05-.43-.248-.646-.371.126.236.395.547.69.65.286.06.644-.024.826.243.16.222.303.45.48.67-.248.008-.49-.168-.697-.356-.019.07.035.135.08.188.275.574 1.03.313 1.239.947.27.438.732.803.948 1.26-.42-.271-.85-.524-1.284-.761l.401-.061c-.35-.328-.777-.567-1.205-.837l-.384-.212h.422v-.048a20.068 20.068 0 00-1.79-.99c.152-.052.364-.018.544-.026-.51-.414-1.177-.702-1.707-1.159-.07-.04-.17-.084-.243-.152.152.033.331.033.478.033-.558-.499-1.235-.768-1.827-1.217l.456-.092c-.456-.372-.99-.678-1.448-1.082h.527c-.471-.507-1.073-.915-1.492-1.373.241.098.52.172.75.247L8.467 20.81c.177-.015.338.026.5.01a8.855 8.855 0 01-1.1-1.412c.117-.02.26.064.402.059-.249-.576-.624-1.151-.966-1.719.168.07.314.17.485.216-.143-.543-.485-1.052-.574-1.635.127.075.232.17.368.22-.118-.643-.225-1.33-.342-1.969.082.035.19.143.296.184-.065-.514-.214-1.047-.241-1.563l.27.16c-.057-.685-.208-1.368-.305-2.056.097.095.224.162.304.28-.073-.599-.223-1.21-.37-1.8l.309.204c-.02-1.953.015-3.545.033-5.479.034.023.053-.052.081 0zm16.79 31.97c-.537-.214-1.116-.383-1.53-.821a9.031 9.031 0 00-.561-.94 6.644 6.644 0 012.092 1.761z" fill="#000"/></svg>