<svg width="248" height="83" fill="none" xmlns="http://www.w3.org/2000/svg"><path fill-rule="evenodd" clip-rule="evenodd" d="M80.054 36.978l.742 1.46h14.94l-.133-1.46H80.054zM124.494 36.978l.137 1.46h35.946l-.201-1.46h-35.882zM193.244 36.978l-.266 1.46h53.486l-.065-1.46h-53.155zM153.993 63.288v1.525h93.578l-.07-1.463-93.508-.062zM50.188 63.288v1.525h97.097l-.068-1.463-97.029-.062z" fill="#000"/><path fill-rule="evenodd" clip-rule="evenodd" d="M74.967 44.631c-1.701-1.105-3.326-2.164-3.367-4.33.08-1.829 1.354-3.232 2.787-3.232 1.932 0 2.782 1.747 2.782 3.345 0 1.52-.694 3.077-2.202 4.217zm-1.626 1.895c2.82 1.713 6.497 5.932 8.001 9.01-1.465 1.744-3.711 3.533-6.609 3.533-3.673 0-6.029-2.776-6.029-5.771 0-2.705 1.777-5.021 4.637-6.772zm.232 14.516c3.286 0 6.265-2.16 8.317-4.597.538.723 1.737 3.002 2.471 3.575.617.454 2.01 1.022 4.096 1.022 1.933 0 4.176-.644 5.95-2.505.043-.302-.072-.53-.342-.57-.732.76-2.283 1.446-3.675 1.446-1.664 0-3.512-.531-5.646-3.613-.383-.57-.768-1.102-1.078-1.71a118.79 118.79 0 004.404-6.534c1.009-1.633 2.13-3.308 2.437-3.607.35-.345.85-.57 1.428-.687l2.168-.454c.075-.191.075-.457-.075-.611-1.008.08-3.677.154-5.414.154h-2.941c-.232.151-.232.417-.074.608l1.39.269c.735.11 1.007.263 1.007.529 0 .343-.194 1.026-.852 2.472-1.009 2.086-2.13 4.255-4.062 6.949-2.395-3.987-4.908-6.192-7.306-7.977 1.703-.988 3.597-2.358 3.597-4.598 0-2.433-1.973-4.409-4.83-4.409-2.593 0-5.106 2.09-5.106 5.02 0 2.014 1.273 3.454 3.054 4.67-3.207 1.862-6.382 4.637-6.382 8.283 0 3.113 2.168 6.875 7.464 6.875zM100.702 55.097c0 2.003-.137 3.626-.488 4.146-.282.413-.988.618-1.618.726l-.528.1c-.141.176-.104.484.072.553a69.457 69.457 0 013.761-.103c1.613 0 3.092.034 4.672.103.14-.136.14-.377.037-.553l-1.127-.135c-.633-.105-1.262-.278-1.615-.691-.389-.52-.494-2.143-.494-4.146v-4.801c0-1.038.07-1.106 1.689-1.106h10.401c1.583 0 1.653.068 1.653 1.106v4.801c0 2.003-.143 3.559-.457 4.075-.315.449-.842.59-1.619.762l-.733.135c-.144.176-.107.45.07.553a74.824 74.824 0 014.006-.103c1.371 0 2.88.034 4.285.103.178-.103.211-.377.072-.553l-.847-.135c-.526-.105-1.266-.244-1.612-.657-.387-.524-.494-2.177-.494-4.18V43.144c0-1.934.107-3.66.494-4.178.346-.415 1.086-.521 1.612-.62l.743-.175c.139-.204.104-.452-.07-.552-1.445.068-2.603.1-4.22.1a77.34 77.34 0 01-3.969-.1c-.214.1-.214.378-.07.552l.699.136c.563.138 1.301.244 1.619.695.348.482.491 2.208.491 4.142v3.869c0 1.035-.07 1.107-1.653 1.107h-10.401c-1.619 0-1.689-.106-1.689-1.107v-3.87c0-1.965.07-3.625.46-4.14.352-.415.842-.593 1.649-.728l.669-.104c.108-.242.143-.452-.033-.552-1.548.068-2.814.1-4.218.1-1.408 0-2.533-.032-4.146-.1-.18.1-.18.31-.037.552l.842.136c.633.103 1.372.28 1.654.695.385.55.488 2.175.488 4.142v11.953z" fill="#000"/><path fill-rule="evenodd" clip-rule="evenodd" d="M124.261 53.677c-.17 0-.17-.069-.17-.117.025-.79 1.266-2.079 2.7-2.079 1.414 0 1.877.834 1.877 1.501 0 .316-.072.411-.15.462-.195.142-.728.233-2.527.233h-1.73zm4.72.717c1.023 0 1.365-.02 1.437-.165.043-.095.096-.284.096-.62 0-1.433-1.363-2.844-3.453-2.844-2.92 0-4.892 2.459-4.892 5.4 0 1.053.291 2.175 1.023 3.111.709.907 1.947 1.577 3.526 1.577 1.267 0 3.015-.598 3.823-2.223-.027-.215-.195-.36-.439-.29-.756.936-1.434 1.174-2.236 1.174-2.605 0-4.041-2.056-4.041-4.471 0-.598.025-.65.652-.65h4.504zM145.253 57.843c0 1.72-.019 1.94-.922 2.078l-.442.076c-.167.116-.12.523.055.594.678-.047 1.336-.07 2.214-.07.846 0 1.552.023 2.354.07.175-.07.221-.478.049-.594l-.582-.075c-.877-.12-.924-.358-.924-2.079v-4.115c0-1.651-.947-2.964-2.894-2.964-1.147 0-2.339.551-3.308 1.214-.221.149-.391.242-.613.2-.675-.984-1.36-1.414-2.576-1.414-1.167 0-2.315.576-3.233 1.214-.175 0-.27-.117-.27-.26 0-.213 0-.572.046-1.126-.046-.117-.17-.165-.268-.165-.484.358-1.868.98-2.43 1.172-.123.075-.123.33-.028.432l.221.147c.657.426.657.545.657 1.478v4.187c0 1.72-.025 1.958-.924 2.078l-.583.076c-.174.116-.124.523.047.594.757-.047 1.487-.07 2.359-.07.855 0 1.558.023 2.218.07.17-.07.215-.478.047-.594l-.44-.075c-.876-.14-.922-.358-.922-2.079v-3.71c0-.763.122-1.075.364-1.364.365-.426 1.046-.86 2.043-.86 1.511 0 2.238.86 2.238 2.463v3.471c0 1.72-.023 1.94-.924 2.078l-.439.076c-.17.116-.119.523.05.594a31.22 31.22 0 012.215-.07c.851 0 1.559.023 2.287.07.17-.07.22-.478.05-.594l-.509-.075c-.88-.12-.928-.358-.928-2.079v-3.661c0-.838.073-1.078.367-1.433.342-.432 1.092-.84 2.016-.84 1.533 0 2.262.84 2.262 2.463v3.471z" fill="#000"/><path fill-rule="evenodd" clip-rule="evenodd" d="M151.275 53.99c0-.79.072-1.146.292-1.407.268-.29 1.021-.674 2.069-.674 2.187 0 3.281 1.94 3.281 3.85 0 2.485-1.17 4.308-3.161 4.308-.511 0-1.264-.169-1.75-.53-.49-.38-.731-.667-.731-1.434V53.99zm-1.798 9.95c0 1.722-.024 1.96-.919 2.08l-.515.071c-.17.117-.12.526.052.6.674-.05 1.405-.074 2.283-.074.847 0 1.551.024 2.721.074.169-.074.217-.483.048-.6l-.951-.119c-.87-.121-.921-.336-.921-2.032v-2.511c0-.504.124-.623.341-.67.219.047.897.093 1.334.093 3.455 0 5.937-2.39 5.937-5.716 0-2.413-1.584-4.372-4.044-4.372-1.551 0-3.082.98-3.4 1.124-.168 0-.218-.143-.218-.31 0-.315.05-.671.101-1.102-.051-.121-.147-.166-.292-.166-.633.454-1.775 1.03-2.404 1.29-.125.074-.125.332-.029.43l.225.148c.651.426.651.545.651 1.478V63.94zM161.913 60.044c-.176.14-.135.484.038.555a58.39 58.39 0 013.477-.104c1.336 0 2.705.033 3.896.104.145-.104.145-.38 0-.555l-1.332-.207c-.597-.1-1.159-.381-1.368-.83-.174-.377-.245-1.136-.245-3.108 0-2.415.071-5.49.176-7.6.033-1.45.209-5.938.315-6.355.279.277.81 1.45 2.286 4.735l3.268 7.08c.811 1.723 2.454 5.111 3.16 7.01.142.103.353.103.526-.034.566-1.62 2.218-4.904 3.727-7.912l3.025-6.042c.805-1.621 2.002-3.8 2.423-4.66.141.273.141 1.415.141 2.033l.07 12.714c0 .725 0 1.519-.145 2.139-.1.488-.696.73-1.508.868l-1.127.17c-.14.209-.099.45.077.554a81.502 81.502 0 018.19 0c.174-.14.174-.345.067-.555l-1.192-.207c-.425-.068-.953-.24-1.201-.514-.314-.384-.387-1.212-.451-2.49-.141-3.177-.25-7.84-.287-9.707-.028-1.521.037-4.319.072-5.322.04-1.482.139-2.377.633-2.794.314-.275.948-.555 1.512-.656l1.054-.208c.139-.136.107-.449-.033-.553-.914.068-2.461.104-3.126.104-.674 0-1.267 0-2.149-.104-.772 2.97-2.81 6.598-3.621 8.187l-2.531 5.011c-1.224 2.413-2.317 4.59-3.018 5.73-.562-1.14-1.267-2.45-2.601-5.216l-3.025-6.32c-1.547-3.25-2.633-5.386-2.81-7.392-.775.104-2.006.104-2.814.104-1.266 0-2.246-.068-2.738-.104-.176.104-.212.38-.074.553l.706.174c.809.173 1.51.378 1.861.757.352.383.567 1.142.567 2.284-.041 2.032-.18 4.971-.287 7.318-.174 3.595-.351 6.39-.527 8.118-.104.97-.281 2.04-.665 2.452-.32.382-1.019.52-1.621.659l-.771.136z" fill="#000"/><path fill-rule="evenodd" clip-rule="evenodd" d="M193.328 52.983c0-1.17.026-1.672.076-2.077-.029-.096-.098-.147-.246-.169-.533.192-1.486.402-2.605.43-.17.074-.19.406-.047.527l.293.119c.728.31.728.526.728 2.036v3.992c0 1.938.805 2.989 2.949 2.989 1.435 0 2.621-.79 3.357-1.247.145 0 .216.121.216.339v.978a.345.345 0 00.292.166c.829-.45 2.237-.691 3.189-.883.196-.096.175-.576.022-.694a4.453 4.453 0 01-.946.118c-.682 0-.751-.715-.751-2.604v-4.02c0-.883.021-1.624.069-2.077-.026-.096-.098-.147-.218-.169-.536.238-1.873.402-2.846.43-.199.095-.199.432-.025.527l.315.119c.731.287.899.336.899 1.89v3.92c0 .744-.168 1.104-.486 1.388-.531.456-1.313.722-1.972.722-1.851 0-2.263-1.103-2.263-2.756v-3.994zM205.71 50.737c-1.852 0-3.312.98-3.312 2.727 0 1.317.996 2.151 2.409 2.939.903.503 1.872 1.103 1.872 2.203 0 1.028-.752 1.529-1.632 1.529-1.383 0-2.163-1.146-2.577-2.463-.123-.143-.438-.12-.558.022-.05.791.095 1.962.289 2.419.612.479 1.463.717 2.606.717 1.801 0 3.505-.907 3.505-2.728 0-1.699-1.192-2.511-2.483-3.226-.853-.482-1.873-1.005-1.873-1.984 0-.86.61-1.462 1.558-1.462.995 0 1.728.693 2.138 1.746.126.142.491.096.585-.07 0-.649-.173-1.41-.388-1.939-.222-.193-1.121-.43-2.139-.43zM211.498 53.652c-.175 0-.175-.069-.175-.117.029-.787 1.267-2.08 2.704-2.08 1.411 0 1.869.838 1.869 1.506 0 .312-.069.407-.146.455-.191.143-.728.236-2.524.236h-1.728zm4.719.72c1.025 0 1.362-.023 1.435-.166.049-.095.098-.286.098-.623 0-1.433-1.363-2.846-3.457-2.846-2.918 0-4.889 2.464-4.889 5.405 0 1.048.295 2.175 1.024 3.107.705.909 1.945 1.58 3.525 1.58 1.264 0 3.016-.597 3.822-2.222-.025-.217-.196-.363-.436-.29-.758.932-1.443 1.172-2.243 1.172-2.604 0-4.041-2.056-4.041-4.473 0-.595.028-.645.661-.645h4.501zM221.078 52.983c0-1.17.025-1.672.072-2.077-.021-.096-.098-.147-.243-.169-.533.192-1.48.402-2.605.43-.166.074-.191.406-.045.527l.292.119c.728.31.728.526.728 2.036v3.992c0 1.938.807 2.989 2.945 2.989 1.436 0 2.627-.79 3.355-1.247.149 0 .223.121.223.339v.978c.047.095.175.166.293.166.828-.45 2.234-.691 3.187-.883.196-.096.17-.576.025-.694a4.562 4.562 0 01-.953.118c-.681 0-.75-.715-.75-2.604v-4.02c0-.883.02-1.624.069-2.077-.022-.096-.096-.147-.219-.169-.531.238-1.875.402-2.846.43-.191.095-.191.432-.019.527l.31.119c.731.287.903.336.903 1.89v3.92c0 .744-.172 1.104-.491 1.388-.529.456-1.31.722-1.966.722-1.849 0-2.265-1.103-2.265-2.756v-3.994z" fill="#000"/><path fill-rule="evenodd" clip-rule="evenodd" d="M243.971 57.818c0 1.72-.028 1.937-.93 2.078l-.437.073c-.168.118-.121.526.048.6.686-.052 1.34-.074 2.217-.074.853 0 1.558.022 2.359.074.17-.074.217-.482.049-.6l-.582-.073c-.881-.116-.925-.358-.925-2.078v-4.113c0-1.65-.953-2.97-2.897-2.97-1.144 0-2.34.549-3.306 1.222-.225.144-.393.239-.61.193-.683-.983-1.361-1.414-2.58-1.414-1.169 0-2.316.576-3.236 1.22-.172 0-.265-.118-.265-.261 0-.214 0-.572.045-1.128-.045-.117-.168-.165-.268-.165-.484.358-1.873.983-2.433 1.17-.125.074-.125.336-.022.433l.219.145c.656.43.656.55.656 1.48v4.188c0 1.72-.025 1.962-.924 2.078l-.585.073c-.172.118-.123.526.048.6.754-.052 1.49-.074 2.359-.074.854 0 1.557.022 2.217.074.168-.074.219-.482.051-.6l-.445-.073c-.873-.14-.918-.358-.918-2.078v-3.709c0-.767.119-1.077.365-1.363.361-.431 1.041-.858 2.039-.858 1.513 0 2.242.858 2.242 2.459v3.47c0 1.721-.029 1.938-.927 2.079l-.436.073c-.172.118-.125.526.045.6a27.7 27.7 0 012.213-.074c.856 0 1.56.022 2.294.074.168-.074.219-.482.047-.6l-.512-.073c-.877-.116-.927-.358-.927-2.078v-3.662c0-.836.076-1.075.365-1.432.343-.431 1.096-.836 2.019-.836 1.535 0 2.268.836 2.268 2.459v3.47zM135.321 34.27c-.174.138-.14.483.037.551a60.323 60.323 0 013.478-.1c1.325 0 2.698.032 3.896.1.143-.1.143-.379 0-.551l-1.332-.206c-.599-.102-1.161-.383-1.373-.832-.179-.378-.245-1.138-.245-3.108 0-2.418.066-5.49.175-7.597.03-1.453.204-5.941.316-6.358.282.278.808 1.453 2.284 4.733l3.269 7.08c.809 1.725 2.46 5.113 3.163 7.012.138.105.354.105.526-.034.564-1.623 2.213-4.902 3.726-7.905l3.026-6.048c.808-1.626 2.001-3.802 2.423-4.659.139.272.139 1.413.139 2.032l.072 12.713c0 .726 0 1.52-.139 2.139-.113.488-.705.73-1.51.862l-1.128.175c-.141.21-.108.451.072.552a84.424 84.424 0 014.144-.1c1.162 0 2.635.032 4.043.1.174-.136.174-.342.065-.551l-1.19-.206c-.42-.07-.949-.241-1.195-.52-.313-.376-.39-1.208-.459-2.487-.141-3.174-.245-7.841-.281-9.706-.034-1.517.036-4.316.072-5.317.037-1.485.137-2.382.634-2.799.319-.277.946-.553 1.508-.657l1.055-.21c.141-.137.105-.446-.035-.55-.916.069-2.457.104-3.125.104-.673 0-1.265 0-2.144-.104-.777 2.97-2.816 6.598-3.625 8.187l-2.529 5.006c-1.225 2.418-2.316 4.6-3.018 5.738-.568-1.138-1.267-2.454-2.607-5.221l-3.019-6.319c-1.546-3.248-2.636-5.385-2.814-7.39-.772.103-2 .103-2.809.103-1.266 0-2.243-.068-2.739-.104-.174.104-.211.382-.074.55l.708.177c.807.17 1.506.379 1.859.76.349.376.565 1.138.565 2.281-.038 2.036-.178 4.969-.285 7.318-.176 3.595-.35 6.391-.526 8.119-.107.969-.281 2.038-.666 2.451-.316.383-1.015.52-1.616.659l-.772.136z" fill="#000"/><path fill-rule="evenodd" clip-rule="evenodd" d="M166.293 32.543c0-.935.705-1.29 2.141-1.768.439-.143.846-.24.997-.24.145 0 .24.048.24.31l-.047 1.41c0 .501-.025.837-.316 1.123-.24.24-.998.603-1.48.603-1.244 0-1.535-1.033-1.535-1.438zm.144-1.742c-1.555.545-2.018 1.097-2.018 2.028 0 .67.294 1.267.754 1.676.414.356 1.001.55 1.702.55.683 0 1.216-.313 1.753-.599.49-.262.781-.475.948-.475.146 0 .292.187.393.332.41.525.998.741 1.577.741 1.193 0 2.05-.934 2.05-1.051 0-.169-.08-.31-.173-.31-.076 0-.198.094-.319.165-.148.07-.365.145-.61.145-.948 0-1.167-.979-1.119-2.085l.146-4.157c.078-1.793-.779-2.8-2.528-2.8-1.781 0-4.532 1.698-4.532 2.943 0 .214.128.334.347.334.365 0 1.022-.165 1.39-.452.19-.146.216-.432.239-.818.049-.74.875-1.07 1.559-1.07 1.506 0 1.801 1.193 1.775 2.074l-.02 1.106c-.029.355-.053.569-.419.693l-2.895 1.03z" fill="#000"/><path fill-rule="evenodd" clip-rule="evenodd" d="M175.044 32.04c0 1.721-.022 1.94-.924 2.08l-.467.074c-.17.12-.12.526.052.594a31.03 31.03 0 012.237-.068c.848 0 1.559.022 2.702.068.169-.068.22-.475.049-.594l-.879-.075c-.927-.068-.97-.358-.97-2.078V28.79c0-.818.072-1.506.316-1.843.197-.262.489-.475.874-.475.344 0 .711.143 1.073.379.167.096.29.167.538.167.384 0 1.04-.306 1.04-1.098 0-.572-.483-.959-1.093-.959-.899 0-1.823.741-2.676 1.435-.044-.02-.072-.097-.072-.214v-1.386c0-.096-.074-.143-.196-.17-.608.36-1.899.983-2.457 1.17-.123.075-.123.337-.024.432l.218.147c.659.427.659.546.659 1.48v4.186zM183.189 18.89c-.707 0-1.316.477-1.316 1.267 0 .642.485 1.17 1.242 1.17.657 0 1.26-.383 1.26-1.221 0-.67-.459-1.216-1.186-1.216zm-.809 13.15c0 1.722-.022 1.962-.925 2.081l-.508.074c-.168.117-.117.524.046.594.687-.048 1.413-.07 2.29-.07.852 0 1.56.022 2.287.07.171-.07.221-.477.052-.594l-.517-.074c-.871-.119-.926-.359-.926-2.08V27.74c0-.985.055-2.131.097-2.97-.019-.095-.116-.142-.237-.142-.559.356-1.949.98-2.504 1.17-.126.075-.126.337-.024.431l.215.145c.654.43.654.546.654 1.48v4.186zM187.659 32.04c0 1.721-.021 1.985-.924 2.08l-.607.074c-.171.12-.122.526.046.594a38.84 38.84 0 012.388-.068c.849 0 1.557.022 2.284.068.17-.068.218-.497.05-.594l-.513-.075c-.875-.116-.925-.358-.925-2.078v-4.019c0-.835.073-.958.515-1.31.439-.365 1.068-.65 1.898-.65 1.554 0 2.31 1.028 2.31 2.56v3.419c0 1.72-.027 1.94-.924 2.078l-.49.075c-.164.12-.119.526.048.594a32.35 32.35 0 012.263-.068c.855 0 1.561.022 2.433.068.172-.068.224-.475.052-.594l-.663-.075c-.868-.094-.92-.358-.92-2.078v-3.994c0-1.672-.826-3.086-3.143-3.086-1.232 0-2.403.577-3.279 1.245-.074-.05-.1-.238-.1-.455v-5.02c0-1.055.05-2.251.073-2.968a.264.264 0 00-.24-.143c-.878.453-2.023.811-2.627 1.003-.119.074-.119.409 0 .482l.239.139c.735.432.756.577.756 1.987v10.81zM199.966 27.21c0-1.17.022-1.674.066-2.08-.023-.097-.095-.144-.24-.168-.535.19-1.486.407-2.603.431-.17.072-.199.405-.051.526l.295.12c.727.307.727.529.727 2.035v3.993c0 1.935.808 2.988 2.943 2.988 1.437 0 2.628-.791 3.355-1.245.152 0 .226.12.226.335v.98c.047.096.174.166.291.166.828-.454 2.236-.691 3.192-.883.191-.096.164-.575.019-.69-.34.07-.656.115-.947.115-.682 0-.756-.715-.756-2.604V27.21c0-.882.024-1.629.074-2.08-.025-.097-.096-.144-.221-.168-.533.242-1.878.407-2.845.431-.191.097-.191.431-.022.526l.313.12c.729.289.902.335.902 1.886v3.926c0 .74-.173 1.097-.487 1.386-.532.457-1.317.716-1.972.716-1.851 0-2.259-1.1-2.259-2.751V27.21zM210.297 32.543c0-.935.708-1.29 2.14-1.768.44-.143.855-.24 1-.24.147 0 .239.048.239.31l-.049 1.41c0 .501-.023.837-.309 1.123-.251.24-1.003.603-1.491.603-1.239 0-1.53-1.033-1.53-1.438zm.143-1.742c-1.554.545-2.018 1.097-2.018 2.028 0 .67.293 1.267.756 1.676.415.356.992.55 1.701.55.68 0 1.216-.313 1.753-.599.485-.262.777-.475.952-.475.146 0 .289.187.388.332.41.525.998.741 1.578.741 1.195 0 2.049-.934 2.049-1.051 0-.169-.079-.31-.172-.31-.081 0-.194.094-.319.165-.143.07-.363.145-.605.145-.953 0-1.173-.979-1.125-2.085l.149-4.157c.074-1.793-.779-2.8-2.527-2.8-1.779 0-4.53 1.698-4.53 2.943 0 .214.12.334.342.334.366 0 1.022-.165 1.387-.452.196-.146.225-.432.241-.818.049-.74.879-1.07 1.555-1.07 1.513 0 1.805 1.193 1.778 2.074l-.022 1.106c-.021.355-.046.569-.416.693l-2.895 1.03z" fill="#000"/><path fill-rule="evenodd" clip-rule="evenodd" d="M219.04 32.04c0 1.721-.021 1.963-.917 2.08l-.51.074c-.17.12-.126.526.049.594a33.364 33.364 0 012.286-.068c.85 0 1.557.022 2.214.068.167-.068.219-.475.051-.594l-.44-.075c-.877-.139-.923-.358-.923-2.078v-3.66c0-.692.046-1.027.366-1.434.335-.453 1.142-.837 2.066-.837 1.654 0 2.283 1.003 2.283 2.366v3.565c0 1.72-.024 1.94-.921 2.078l-.464.075c-.167.12-.124.526.046.594.66-.046 1.387-.068 2.268-.068.849 0 1.555.022 2.285.068.175-.068.219-.475.047-.594l-.53-.075c-.879-.116-.929-.358-.929-2.078v-4.115c0-1.599-.826-2.965-2.847-2.965-1.238 0-2.384.597-3.407 1.22-.168 0-.263-.118-.263-.261 0-.218 0-.572.046-1.124-.046-.12-.168-.17-.27-.17-.48.36-1.872.983-2.431 1.17-.124.075-.124.337-.025.432l.214.147c.656.427.656.546.656 1.48v4.186zM230.697 32.543c0-.935.707-1.29 2.141-1.768.435-.143.851-.24.995-.24.148 0 .24.048.24.31l-.042 1.41c0 .5-.029.837-.32 1.123-.29.315-.997.603-1.486.603-1.236 0-1.528-1.034-1.528-1.438zm2.701-7.582c-1.777 0-4.529 1.698-4.529 2.943 0 .214.125.334.342.334.364 0 1.02-.165 1.389-.453.193-.145.216-.431.238-.817.055-.74.879-1.07 1.555-1.07 1.513 0 1.782 1.239 1.782 2.074l-.025 1.106c-.023.354-.051.569-.416.693l-2.896 1.03c-1.557.545-2.018 1.097-2.018 2.052 0 1.437 1.266 2.201 2.169 2.201.948 0 1.601-.266 2.062-.55.463-.288.879-.523 1.022-.523.148 0 .268.115.394.258.342.433 1.144.98 3.773.98 2.649 0 4.794-.596 5.765-1.31.539-.388.922-.863.922-1.435 0-.433-.288-.983-.877-.983-.437 0-.828.385-.828.812 0 .383.369.673.369.838 0 .193-.167.38-.487.552-.562.288-1.433.57-4.036.57-1.971-.095-2.627-.544-2.949-.93-.289-.357-.358-1.052-.338-1.653l.142-3.919c.075-1.793-.675-2.8-2.525-2.8zM81.049 29.295c0 2.004-.142 3.628-.492 4.15-.281.413-.988.62-1.621.722l-.526.103c-.142.174-.106.484.069.552a70.66 70.66 0 013.763-.103c1.616 0 3.092.035 4.674.103.142-.137.142-.378.033-.552l-1.123-.14c-.633-.103-1.269-.272-1.617-.685-.385-.522-.492-2.146-.492-4.15v-4.801c0-1.031.07-1.106 1.687-1.106h10.404c1.582 0 1.652.075 1.652 1.106v4.801c0 2.004-.143 3.56-.457 4.079-.317.449-.846.586-1.617.757l-.74.139c-.14.174-.104.45.07.552a75.967 75.967 0 014.007-.103c1.373 0 2.885.035 4.291.103.172-.103.209-.378.07-.552l-.84-.14c-.533-.103-1.272-.242-1.622-.655-.389-.518-.491-2.176-.491-4.18V17.347c0-1.937.102-3.665.491-4.18.35-.416 1.089-.52 1.622-.621l.731-.177c.142-.208.109-.446-.07-.552-1.438.069-2.6.106-4.217.106-1.371 0-2.566-.037-3.972-.106-.21.106-.21.384-.07.552l.705.14c.56.138 1.297.242 1.615.691.351.482.494 2.21.494 4.147v3.866c0 1.037-.07 1.105-1.652 1.105H85.404c-1.617 0-1.687-.102-1.687-1.105v-3.866c0-1.967.07-3.629.455-4.147.352-.413.845-.586 1.654-.727l.67-.104c.1-.238.141-.446-.039-.552a91.131 91.131 0 01-4.215.106 90.59 90.59 0 01-4.148-.106c-.177.106-.177.314-.037.552l.846.14c.634.105 1.373.278 1.654.691.38.55.492 2.18.492 4.147v11.948zM105.229 32.543c0-.935.707-1.29 2.142-1.768.436-.143.85-.24.995-.24.148 0 .245.048.245.31l-.048 1.41c0 .501-.026.837-.315 1.123-.244.24-1.002.603-1.486.603-1.244 0-1.533-1.033-1.533-1.438zm.145-1.742c-1.557.545-2.02 1.097-2.02 2.028 0 .67.295 1.267.754 1.676.414.356 1 .55 1.707.55.68 0 1.215-.313 1.752-.599.486-.262.779-.475.947-.475.145 0 .289.187.392.332.412.525.993.741 1.578.741 1.194 0 2.044-.934 2.044-1.051 0-.169-.073-.31-.17-.31-.075 0-.192.094-.315.165-.148.07-.365.145-.611.145-.948 0-1.165-.979-1.117-2.085l.148-4.157c.07-1.793-.781-2.8-2.533-2.8-1.777 0-4.529 1.698-4.529 2.943 0 .214.127.334.344.334.363 0 1.019-.165 1.388-.452.192-.146.215-.432.241-.818.05-.74.878-1.07 1.558-1.07 1.506 0 1.8 1.193 1.777 2.074l-.025 1.106c-.025.355-.049.569-.414.693l-2.896 1.03zM116.606 24.962c-1.848 0-3.307.979-3.307 2.727 0 1.312.995 2.155 2.41 2.94.897.502 1.871 1.1 1.871 2.198 0 1.032-.754 1.535-1.631 1.535-1.384 0-2.163-1.148-2.579-2.465-.121-.14-.436-.119-.561.022-.046.792.098 1.966.295 2.419.602.477 1.461.717 2.605.717 1.797 0 3.502-.909 3.502-2.732 0-1.693-1.195-2.507-2.481-3.22-.853-.484-1.874-1.007-1.874-1.992 0-.858.607-1.457 1.558-1.457.996 0 1.725.694 2.139 1.75.123.142.488.094.587-.074a5.51 5.51 0 00-.39-1.937c-.221-.19-1.121-.431-2.144-.431zM121.108 32.04c0 1.721-.027 1.985-.924 2.08l-.609.074c-.17.12-.121.526.043.594a39.172 39.172 0 012.388-.068c.852 0 1.558.022 2.289.068.171-.068.217-.497.042-.594l-.504-.075c-.877-.116-.924-.358-.924-2.078v-4.019c0-.835.068-.958.511-1.31.436-.365 1.069-.65 1.897-.65 1.555 0 2.312 1.028 2.312 2.56v3.419c0 1.72-.026 1.94-.926 2.078l-.489.075c-.169.12-.117.526.051.594a32.38 32.38 0 012.262-.068c.855 0 1.555.022 2.432.068.171-.068.222-.475.047-.594l-.652-.075c-.877-.094-.924-.358-.924-2.078v-3.994c0-1.672-.828-3.086-3.143-3.086-1.234 0-2.404.577-3.28 1.245-.076-.05-.098-.238-.098-.455v-5.02c0-1.055.047-2.251.068-2.968a.26.26 0 00-.238-.143c-.879.453-2.021.811-2.629 1.003-.121.074-.121.409 0 .482l.241.139c.73.432.757.577.757 1.987v10.81zM32.204 49.085c.051.127.17.248.234.374-1.578-.484-2.593-1.995-3.605-3.293.014-.078-.094-.129-.131-.179-.158.14-.238.362-.267.582-.365-.417-.629-1.051-.944-1.57 1.723 1.088 3.391 2.45 4.713 4.086zm21.543-33.427c.174-.036.332-.208.502-.312-.303.803-.608 1.625-.777 2.477.158-.054.382-.129.564-.234-.35.752-.71 1.515-.826 2.357.197.028.38-.129.564-.206-.173.738-.504 1.52-.777 2.256.224-.056.46-.207.689-.352-.322.844-.611 1.83-.863 2.713.213-.069.369-.274.594-.327l-.946 2.4c.206-.014.446-.131.655-.208-.247.751-.553 1.476-.986 2.15l.867-.233c-.33.856-1.002 1.578-1.42 2.396.26-.025.527-.194.787-.297-.471.873-1.066 1.674-1.711 2.476.357-.093.75-.194 1.094-.35a28.892 28.892 0 00-1.9 2.28c.275.015.527-.13.78-.204-.583.711-1.173 1.345-1.794 2.008.328.012.636-.208.965-.26-.678.568-1.258 1.202-1.877 1.786l.791-.09c-.752.637-1.619 1.324-2.359 2.008l.767-.024c-.676.453-1.295 1.013-1.968 1.452l.898-.026c-.832.675-1.677 1.323-2.558 1.867l.724.09c-.791.555-1.558 1.036-2.32 1.662.162.063.38.063.568.087l-2.178 1.52c.055.152.277.127.421.165L38.7 47.71c.875-.818 1.4-2.022 2.467-2.657.517.04.672-.481.978-.78-.365.091-.646.532-1.07.56.397-.388.662-.853 1.041-1.234.437-.397 1.467-.179 1.387-.997-.014-.038.015-.075-.026-.099-.353.306-.74.67-1.19.814.294-.481.715-.985 1.098-1.442.608-.346 1.697-.073 1.844-1.021l.029-.095c-.212.083-.437.294-.648.46-.013-.041-.013-.222-.039-.352-.358.22-.689.585-1.068.75.354-.322.423-.858.843-1.074a12.903 12.903 0 001.977-.674c.121-.208.16-.467.184-.675l-.921.818c-.052-.18 0-.312-.052-.494-.305.314-.672.727-1.078.727l.718-1.113c.82-.273 1.587-.663 2.363-1.04.108-.17.276-.384.21-.582-.354.363-.79.623-1.24.812l-.038-.356c-.301.205-.633.581-1 .76.117-.335.317-.724.566-1.018.868-.302 1.7-.703 2.543-1.054.108-.18.188-.386.16-.584l-.447.417-.148-.274c-.289.236-.576.507-.896.701l.03-.286c-.374.184-.718.572-1.097.763.289-.321.317-.85.684-1.135.924-.39 1.74-.99 2.664-1.378.12-.167.156-.363.14-.584l-.589.557c-.055-.102.07-.312-.077-.41-.291.298-.527.582-.83.85.024-.232.157-.452.075-.695h-.076a5.17 5.17 0 01-1.215 1.27l.58-1.27c.939-.456 1.875-.91 2.747-1.533a1.53 1.53 0 00.221-.776c-.328.285-.449.905-.935.933-.029-.157.078-.296 0-.441l-.756.868c-.047-.179.085-.387.127-.584l-1.273 1.208c.375-.557.388-1.441 1.099-1.818.918-.477 1.699-1.267 2.582-1.799 0-.167.025-.348-.01-.503l-.767.815c.01-.169-.028-.312-.053-.455-.276.377-.619.816-.961 1.158.012-.212.064-.418.04-.588l-1.046 1.206c.436-.646.32-1.633 1.258-1.981l1.806-1.205.077-.803c-.23.205-.37.566-.593.84a.697.697 0 00-.078-.375h-.07c-.224.244-.314.556-.547.804.022-.197.071-.363 0-.547-.32.339-.519.873-.968 1.078l-.053-.066c.213-.713.488-1.462 1.238-1.892l1.428-1.218c.041-.14-.026-.298-.08-.441-.303.233-.436.686-.832.872.017-.224.088-.431.029-.639-.318.468-.637 1.012-1.093 1.402l.431-1.375 1.939-1.944c-.185-.024-.25-.181-.279-.362.014-.09-.035-.146-.05-.222-.252.584-.663 1.22-1.276 1.593.357-.675.316-1.5.854-2.1l1.252-1.282c-.13-.076-.237.167-.383.065-.012-.129-.066-.234-.118-.348-.169.362-.279.854-.74 1.009l.387-1.45c.394-.414.705-.867.947-1.35-.28.119-.553.363-.83.56.303-.741.104-1.776.91-2.36l.066-.168c-.16.05-.347.167-.505.284.31-1.75.78-3.539 1.312-5.251.142-.14.352-.104.496-.208-.328.778-.496 1.637-.738 2.452zM15.689 54.036c-.304.233-.71.31-1.107.36l.449.377.805-.701c.68.054 1.422 0 2.109.054-.49.242-1.031.466-1.611.441.215.191.595.076.858.206v.076l-.788.236c.788.61 1.143-.663 1.709-.987.727-.026 1.614.065 2.349-.062-.537.295-1.187.45-1.846.531.304.234.751.218 1.159.282-.275.185-.68.236-1.04.303.146.205.528.255.829.295.479-.429.78-1.025 1.285-1.44a17.224 17.224 0 001.895-.143c-.444.338-1.067.39-1.62.522.237.181.594.194.856.349-.32.19-.711.205-.992.388.266.181.61.145.926.207.425-.426.83-.944 1.136-1.466l1.715-.143c-.412.324-.965.405-1.451.558.14.18.549.135.76.232-.248.207-.62.247-.854.457h.776c.433-.415.806-.806 1.122-1.27l.188-.067c.434 0 .922.016 1.328-.09-.356.323-.832.476-1.253.676.267.089.595.038.897.052.413-.252.413-.96 1.016-.846l3.012-.584c-.735.441-1.54.751-2.182 1.378l-.014-.286c-.712.3-1.419.699-2.123 1.103l.026-.415c-.765.333-1.49.776-2.226 1.164.025-.155.144-.273.172-.426h-.147c-.817.4-1.645.779-2.543.986.155-.18.28-.378.38-.585-.434.04-.844.255-1.25.39-.448.048-.923.182-1.385.256.1-.165.205-.348.33-.503-.965-.067-1.89.193-2.85.13l.352-.443c-.879.067-1.764-.112-2.62-.112.09-.146.275-.262.356-.416l-2.22-.143.439-.418c-2.282-.635-4.575-1.227-6.753-2.097 3.074.896 6.28 1.71 9.64 1.634zM39.44.117c-.305 2.447-.608 5.04-.475 7.609.224.039.368-.324.595-.314-.187.862-.216 1.766-.435 2.598.197-.042.387-.197.59-.276-.039.726-.184 1.557-.234 2.232l.353-.116c-.168.865-.21 1.784-.42 2.642l.026.21.617-.444c-.022 1.088-.3 2.14-.405 3.24a1.35 1.35 0 00.473-.261c-.037 1.104-.328 2.153-.525 3.23.247-.052.488-.287.71-.426-.16.93-.407 1.899-.609 2.846.202.014.344-.297.545-.28-.12.841-.531 1.615-.57 2.42l.633-.388c-.235.973-.37 2.048-.633 3.06.254-.08.466-.428.74-.518-.318 1.061-.619 2.177-1.002 3.236.186 0 .368-.169.543-.257-.227 1.025-.69 2.032-1.02 3.02.188-.104.37-.285.57-.285-.24.818-.557 1.62-.835 2.423.256 0 .477-.18.713-.27-.435.959-.951 1.941-1.448 2.917a2.06 2.06 0 00.524-.236c-.408.947-1.054 1.869-1.418 2.864.246-.016.512-.153.76-.23a55.625 55.625 0 00-1.385 2.939l.625-.141c-.109.31-.387.623-.544.957-.741 1.456-1.161 3.029-1.477 4.668-.014.28.015.547.063.826 1.216-1.087 1.93-2.465 2.14-4.004.03-.673.267-1.268.17-1.982.33.325.396.895.658 1.31.344-1.013.44-1.906.381-3.021.136.17.306.455.412.702.187-1 .303-1.87.358-2.929.249.375.356.778.54 1.165.038-1.047.13-2.058.09-3.124l.554.832c-.142-1.025-.224-2.191-.117-3.28.18.232.29.631.54.907.146-.987.118-1.986.118-2.997.227.183.346.574.53.82-.058-1.068 0-2.065.04-3.189.237.158.33.504.549.737.067-.92.188-1.825.239-2.747.187.256.381.663.572.997l.051-.012c-.05-1.061.221-2.05.396-3.031h.05l.42.816c.057-1.152.35-2.19.679-3.225l.365.747c.252-.916.386-1.927.791-2.797l.275.7c.293-.867.462-1.776.91-2.568.147.105.188.393.334.559.337-.716.536-1.48.924-2.168.141.198.182.447.325.653.427-.977.77-1.984 1.362-2.89.1.231.067.594.209.734.34-.79.62-1.615 1-2.398.16.12.12.368.264.521l.123-.14.895-2.297c.103.143.222.43.328.639.515-.818.607-1.86.976-2.751.065.014.15.178.21.274.739-1.66 1.454-3.32 2.337-4.925.168-.064.326.022.45.141-.75 2.191-1.653 4.316-2.255 6.56.25-.054.537-.171.81-.26l-.747 2.333c.187.013.357-.12.527-.181-.117.581-.42 1.151-.566 1.75l-.237.7c.141.01.276-.134.449-.143-.173.764-.607 1.478-.803 2.268.21-.028.462-.133.684-.221a89.21 89.21 0 01-.684 2.15c.181 0 .392-.088.567-.18-.386.724-.386 1.684-.769 2.449.224-.012.412-.234.622-.31v.142c-.37.788-.595 1.632-.95 2.424.236-.028.46-.22.711-.272-.29.739-.633 1.528-1.001 2.284.225-.044.436-.236.699-.264-.198.83-.615 1.62-1.096 2.363.212-.043.464-.146.688-.236-.239.801-.788 1.539-1.28 2.278l.87-.204v.075c-.673.725-1.283 1.489-1.898 2.258.211.014.446-.117.672-.062l-1.424 1.781.682-.126c-.471.725-1.265 1.22-1.83 1.928.211.04.436.017.646.032-.646.8-1.607 1.278-2.323 2.044l.805.028c-.536.385-1.171.893-1.78 1.307.174.015.332.065.517.04-.713.686-1.599 1.384-2.417 1.983l.424.143-1.96 1.58c.219.091.498.025.708.144-.926.387-1.756.97-2.584 1.545.21.088.461.098.685.164-1.98 1.14-4.222 1.995-5.75 4.007l.024.052c2.072.218 3.732-1.141 4.843-2.765v.82c.5-.401 1.067-.918 1.571-1.4.023.193-.057.398-.029.608l.09-.028 1.954-2.447c.014.276-.024.62.024.87.527-.663 1.11-1.362 1.638-2.05l.026.533c.396-.433.74-1.01 1.107-1.518l.594-.79.025.88c.608-.723 1.303-1.542 1.871-2.356l.083.544c.608-.726 1.225-1.606 1.936-2.335l.026.636 1.57-1.854.053.028c-.024.247.041.452.013.696.81-.751 1.705-1.592 2.692-2.046l-.118.51c.713-.496 1.463-1.053 2.231-1.495l-.069.663c.647-.364 1.317-.816 2.061-1.04.021.184-.134.35-.15.549.923-.42 1.872-.87 2.876-1.143-.016.208-.147.428-.262.62.998-.128 1.934-.565 2.963-.696-.026.155-.168.32-.3.463.804-.09 1.592-.363 2.425-.491-.024.233-.332.39-.381.636 1.898-.181 3.902-.04 5.695.52v.153c-2.24-.322-4.561.155-6.437 1.166l-.063.077c.276.171.645.233.987.298-.594.362-1.344.662-1.993 1.075.29.16.635.17.953.26-.263.157-.7.222-1.017.415-.475.223-.897.53-1.387.7.266.142.61.102.887.21-.582.337-1.371.502-1.992.88.21.158.572.089.803.232-.686.313-1.436.427-2.096.804.187.128.408.128.592.233-.764.39-1.512.816-2.37.998.208.169.605.23.88.402-.672.143-1.316.339-1.951.583.148.207.517.207.738.39-.828.181-1.606.463-2.396.752.09.17.367.22.555.324-.795.334-1.623.66-2.469.88.275.102.58.183.87.261-.763.242-1.58.45-2.347.75.276.088.529.26.78.386-.843.173-1.637.43-2.465.639.117.208.45.258.498.441-.7.09-1.373.205-2.045.35.281.206.66.23.947.43-.997.008-1.978.11-2.912.267.25.222.594.327.873.544l-2.347.208c.09.13.33.236.504.328-.78.048-1.53 0-2.285.048l.857.506c-.939-.024-1.857-.258-2.823-.207.16.221.42.324.636.495-.797 0-1.57-.181-2.393-.213.028.185.202.379.33.561-1.698-.171-3.335-.92-5.124-.636-.172-.014-.373.04-.545.053 1.531.273 2.85 1.22 4.49 1.115 1.107 0 2.076-.324 3.106-.532-.274.297-.686.609-1.053.842 1.105 0 2.068-.405 3.083-.517l-.75.697.092.066c1.226-.169 2.387-.53 3.56-.856-.103.196-.33.405-.449.625.832-.143 1.733-.35 2.535-.532-.12.181-.275.334-.357.532.803-.198 1.715-.248 2.543-.42-.024.234-.276.442-.383.68.807.022 1.626-.03 2.41-.117l-.219.467c.859.127 1.783-.157 2.64.077l-.226.386c1.582.065 2.992.35 4.562.379.594 0 1.363-.09 2.015-.09.092.09.303.178.266.35-2.689.62-5.35 1.331-7.951 2.163-.146.036-.302.026-.44.09.271.183.575.322.835.516-.787.105-1.7-.026-2.49.117l.55.405-2.452.153.294.44a23.012 23.012 0 00-2.138-.063l.238.44a27.06 27.06 0 01-2.255-.412l.052.413c-.611-.208-1.201-.544-1.839-.738l.098.62c-.741-.26-1.407-.803-2.16-1.141.023.245.077.57.052.846a42.947 42.947 0 01-1.953-1.426l.141.787c-.813-.608-1.648-1.489-2.348-2.33l-.064.115c.056.23 0 .465-.049.675l-.307-.363c-.195.05-.392.068-.577.152.855.522 1.816.855 2.712 1.336-.262.11-.615-.01-.879.09l2.661 1.285c-.239.12-.661.156-.97.235.63.45 1.38.932 2.053 1.45-.186.078-.369-.065-.565.012.707.544 1.512 1.047 2.227 1.631-.367.029-.806-.036-1.19-.008 1.807 1.321 2.746 3.253 3.354 5.194l.29 1.023c-.093.08-.186.118-.268.208-.696-2.1-2.553-4.109-4.627-5.104l-.094.09.043.75c-.592-.373-1.199-.918-1.783-1.373.028.286-.027.66.057.962-.49-.483-.993-1.089-1.596-1.482-.107.235-.12.504-.12.794-.569-.532-1.067-1.245-1.556-1.881l-.197.738c-.572-.66-.977-1.452-1.398-2.164-.145.041-.262.235-.356.376-.2-.66-.48-1.283-.57-1.98l-.406.296c-.027-1.738.274-3.434-.71-4.872.089 3.05-.466 6.053-1.85 8.578a6.219 6.219 0 01-1.063 1.373c.775-1.916 1.852-3.81 2.104-5.947.307-1.774.197-3.487.357-5.291.714.56 1.107 1.416 1.49 2.195 1.227 3.459 4.695 6.313 7.886 8.047 2.098 1.335 3.492 3.42 4.39 5.51h.055c-.607-2.295-1.994-4.47-3.972-6.096-.1.198.096.316.096.495-.321-.314-.778-.52-1.19-.727.568.04 1.227.117 1.808.026l-1.729-1.285c-.065-.024-.148-.024-.225-.024a.57.57 0 00.105.415c-.26-.115-.58-.296-.877-.324-.056.145.072.276.113.4-.351-.372-.816-.505-1.248-.696l2.411-.078c-.563-.416-1.163-.961-1.821-1.14l.238.66c-.408-.181-.816-.508-1.26-.687l-.03.449a3.658 3.658 0 00-.608-.461c-.029.113.158.272.012.413-.222-.272-.502-.401-.75-.608.96.027 1.912-.027 2.875-.143-.666-.546-1.584-.778-2.375-1.169-.078 0-.04.081-.057.12l.358.571c-.358-.225-.814-.42-1.186-.61l.266.385c-.357-.14-.754-.347-1.068-.647a12.36 12.36 0 002.297-.063c-.171-.169-.532-.235-.78-.405-.4-.257-.832-.412-1.242-.646-.012.17.078.35.145.508-.41-.131-.869-.415-1.135-.82.42-.027.873-.012 1.231-.177-.743-.3-1.557-.572-2.151-1.22-.582-.895-1.029-1.997-1.766-2.66 1.352.582 2.676 1.233 4.057 1.725 3.06 1.43 6.095 2.878 9.73 2.892 3.327.14 6.505-.753 9.577-1.557l.753-.089c-2.233.623-4.446 1.476-6.71 1.787-.068.119.059.21.088.312-.236.026-.46-.145-.683-.222-.438.104-.938.096-1.336.196l.294.26c-.372 0-.724-.289-1.095-.22-.343.053-.711-.028-1.064.024l.443.492c-.396-.05-.723-.401-1.092-.606-.4.01-.702-.015-1.072-.069.108.197.241.431.448.613-.311-.172-.645-.454-.946-.702-.384-.05-.727-.193-1.109-.233 0 .245.275.453.382.701a4.052 4.052 0 01-.999-.842c-.41-.107-.834-.171-1.244-.314 0 .207.097.405.2.586a3.56 3.56 0 01-.687-.82c-.512-.089-.937-.344-1.384-.58 0 .18.096.364.195.515-.363-.164-.656-.632-.971-.878-.822-.393-1.636-.831-2.458-1.13.56.53.929 1.178 1.412 1.753l.017-.534c.855.548 1.512 1.362 2.252 2.077 0-.234-.078-.48-.116-.73.58.506 1.307.844 1.885 1.364l-.054-.663c.158.014.304.196.478.258.562.324 1.158.584 1.715.963 0-.2-.108-.393-.2-.558.593.127 1.198.375 1.778.592.078.057.148.117.242.117a.66.66 0 00-.164-.413c.7.055 1.386.353 2.113.376l-.408-.43c.662.133 1.503.082 2.187.054l-.41-.377c.727-.01 1.49-.072 2.193-.026l-.529-.556h2.447l.076-.038-.769-.4c1.793.012 3.115-1.076 4.802-1.31 1.263-.26 2.53-.508 3.797-.767-2.192.183-4.488.078-6.648-.09-.067.102-.248.067-.264.21l.197.182c-.281.062-.59.062-.83.19.065.044.143.078.212.156-.53.157-1.042.338-1.542.548.686-.635 1.542-1.168 2.293-1.805l-2.558.029c.12.207.435.283.658.386-.404.089-.842.103-1.221.26.088.153.275.167.393.285-.318.076-.687.027-.988.14.119.133.316.197.474.304l-1.164.166.276.326c-.524.075-1 .294-1.54.35 1.055-.77 2.202-1.637 3.231-2.594l-.056-.052c-.71.064-1.5-.025-2.223.141l.527.313c-.293.154-.648.14-.925.297l.253.207c-.357.117-.742.195-1.082.325l.391.262c-.34.152-.76.205-1.103.37.117.109.259.2.367.326l-1.608.323c1.107-.993 2.453-1.813 3.533-3.003-.924.155-1.871.205-2.73.439.317.167.662.257.998.348-.523.157-1.115.17-1.632.35l.423.34c-.371.102-.791.065-1.133.204.182.17.438.208.633.351-.44.05-.86.157-1.255.274l.282.258-1.308.23c.937-.864 1.95-1.837 2.992-2.604.068-.074.119-.15.172-.23-.83.09-1.755.22-2.517.593.13.234.486.143.71.26-.433.144-.896.206-1.357.314.13.14.327.19.473.32-.354.067-.725.132-1.041.329l.316.18c-.301.062-.62.076-.906.167.127.155.34.191.498.302-.42.038-.912.06-1.281-.119.96-.78 2.06-1.581 3.062-2.427-.964.22-2.019.39-3.02.612.274.205.7.155 1.001.323l-1.4.143c.068.209.41.152.572.324-.49.036-.869-.063-1.363.028.216.233.529.304.791.467-.616.089-1.24.062-1.78-.171.805-.496 1.688-1 2.377-1.748-.871.26-1.863.348-2.783.515.252.222.623.234.92.353l-.062.062-1.188.08c.022.1.219.166.33.26-.37.039-.728-.08-1.07-.17.396-.377.978-.673 1.386-1.14-.33.025-.687.13-1.054.155-2.455.207-4.273-1.154-6.355-1.837 5.074-.146 9.503-1.795 13.477-4.525l5.326-3.566c4.195-2.593 7.98-6.156 12.83-7.193 1.49-.413 3.137-.504 4.706-.647-1.618-.247-3.11-.261-4.679.09.041-.178.198-.377.265-.585-.714.105-1.492.184-2.142.522.213.075.494.117.769.117-.42.257-1.002.49-1.449.84.119-.534.496-1.012.776-1.505-.936.107-1.805.508-2.705.806l-.092.088c.304-.014.69-.062 1.019-.05-.34.208-.849.417-1.22.751l1.009-.05c-.293.193-.728.374-1.092.56a.733.733 0 01.352.215l-.712.389c-.052-.946.476-1.71.794-2.538-.95.182-1.82.687-2.664 1.194l.828-.092c-.302.348-.722.695-.947 1.136l.762-.194c-.213.239-.606.532-.793.846h.558l-.474.47.13.11c-.083.146-.183.377-.33.405-.173-1.101 0-2.232.21-3.24-.66.193-1.269.66-1.848 1.14.266.022.58-.052.86-.027-.409.392-.74.818-.973 1.284.176.012.392-.01.564-.065-.234.284-.505.62-.683.97l.594-.116c-.108.208-.449.43-.501.672.125 0 .26-.008.323.12l-.471.583c-.371-1.334 0-2.785.148-4.082-.674.467-1.441.92-1.933 1.62.252-.015.516-.143.769-.115-.433.465-.867.93-1.16 1.461.223-.012.438-.182.661-.233.092 0 .154-.05.236-.062-.225.439-.57.894-.898 1.321.216 0 .462-.065.713-.065-.16.298-.538.597-.622.933.145.028.252-.052.41-.026-.196.31-.486.634-.74.96-.26-1.463.04-2.918.38-4.253a6.73 6.73 0 01.25-.673c-.854.47-1.618 1.206-2.29 1.955.252-.05.545-.259.805-.27l-.898 1.322c.224-.014.423-.183.685-.183-.312.441-.629.949-.826 1.464.182.05.34-.141.537-.141-.061.337-.33.661-.498.987h.34l-.463.957-.066-.077c-.247-1.515.037-3.045.122-4.547a12.467 12.467 0 00-1.636 2.005l.04.053c.3-.077.567-.232.829-.373-.238.572-.606 1.15-.955 1.722.205-.042.401-.195.6-.287-.26.455-.571.936-.778 1.427l.662-.181c-.162.338-.56.645-.607 1.023.152-.026.258.055.42.026l-.592.647c-.242-1.58 0-3.212.262-4.705-.764.741-1.334 1.607-1.859 2.465l.95-.362c-.236.465-.726.896-.99 1.4l.66-.198c-.185.369-.554.717-.71 1.13.234-.028.482-.143.736-.224-.184.314-.554.587-.687.935l.502-.127c-.145.218-.362.48-.58.7-.358-1.22-.12-2.555-.014-3.812-.608.727-1.293 1.555-1.828 2.385l.05.043.868-.369-.067.154c-.301.299-.568.624-.763.961l.475-.062-.542.792c.129.024.28-.043.426-.055-.041.18-.267.35-.359.542l.289.12c-.102.182-.25.35-.377.532-.174-1.115-.28-2.372-.096-3.528-.58.675-1.015 1.53-1.597 2.27.068.09.212.01.291-.026.131-.079.277-.118.422-.168-.184.285-.567.57-.635.89l.537-.076c-.153.246-.453.48-.615.752.23-.049.515-.091.763-.142-.328.286-.87.7-1 1.165-.156-1.023-.01-2.087.145-3.068-.527.637-1.043 1.412-1.633 2.099.21-.029.457-.131.682-.196-.13.259-.459.478-.567.78.24-.04.516-.131.777-.171-.22.221-.603.429-.87.728l.398.035c-.316.173-.41.506-.617.753-.172-.854.01-1.827.117-2.658-.592.688-1.108 1.492-1.847 2.102.396-.052.806-.259 1.164-.375-.358.323-.785.556-1.112.879.307.014.635-.09.926-.184-.23.417-.753.65-1.125.992-.158-.55-.103-1.185-.041-1.742-.488.406-.932.872-1.383 1.335l.06.055c.167-.105.39-.092.56-.198-.104.233-.426.44-.594.674l.386-.013c-.291.197-.568.454-.914.535.042-.522.199-1.053.317-1.569-1.342 1.489-3.179 2.278-5.273 2.01.133-.366.433-.728.736-1.027 2.638-2.84 5.263-5.857 7.415-8.981 3.084-4.899 5.443-10.133 7-15.631 1.307-3.628 2.087-7.463 3.088-11.221.84-2.593 1.765-5.17 2.857-7.676l-.088-.063c-1.096 1.608-1.57 3.567-2.412 5.315-.105 0-.096-.197-.199-.274-.291.945-.594 1.892-.895 2.838.1.055.172-.1.273-.116l-.117.79c-.304-.275-.437-.764-.54-1.203-.315.79-.737 1.526-.979 2.356.242 0 .429-.283.621-.425-.012.453-.342.88-.353 1.332.142-.05.263-.167.408-.208 0 .365-.094.752-.2 1.12-.345-.755-.654-1.529-.828-2.36l-.121.116c-.28.84-.566 1.67-.896 2.502.33-.044.4-.375.66-.491-.092.447-.105.994-.146 1.514.082.05.193-.066.287-.089l.238-.027c.014.31-.092.648-.18.956l.391-.115c-.039.274-.117.599-.183.878l-.266-.322c-.449-.97-.879-1.944-1.209-2.967-.41.675-.633 1.45-.9 2.202l.658-.569c-.092.506-.205 1.064-.205 1.636.17.012.316-.157.472-.235-.064.4-.156.856-.185 1.268.17-.142.357-.272.541-.4l.027 1.142.471-.274-.071 1.18c-1.085-1.13-1.548-2.66-2.274-4.008-.26.6-.522 1.249-.786 1.867-.017.143-.11.3-.068.441.291-.208.471-.52.753-.723-.158.554-.294 1.217-.24 1.865.156-.068.274-.262.434-.262l-.052 1.313c.21-.031.392-.31.595-.348-.029.477-.029.997 0 1.472.187-.026.303-.243.496-.31l-.047.751c.115.015.275-.036.406-.05l-.17.778c-1.122-1.48-2.007-3.19-2.624-4.927-.408.753-.463 1.65-.7 2.477l.762-.729c-.05.562-.178 1.195-.062 1.791l.062.26c.16.014.32-.181.48-.157-.013.467-.093 1.037.065 1.466l.527-.44c-.029.54-.12 1.113-.12 1.699.201-.014.33-.312.566-.299l.079.857c.04.09.135.034.21.052.027.203.06.477-.025.67-1.452-1.659-2.216-3.681-3.016-5.637-.174.7-.414 1.363-.518 2.099.215-.153.372-.478.635-.661-.117.715-.25 1.519-.16 2.308l.658-.596c.024.62-.154 1.28-.025 1.931.21-.042.37-.221.582-.182.013.532-.066 1.115.062 1.611.16.008.344-.047.533-.055.145.235-.254.949.325.816.011.299-.04.556-.05.84-1.19-1.63-1.957-3.484-2.757-5.297l-.369-1.054c-.129.21-.05.401-.115.641-.279.737-.256 1.577-.389 2.38.279-.205.389-.608.622-.892.015.621-.063 1.243.065 1.839.108-.076.251-.284.41-.415l.01 1.686c.163-.169.295-.572.557-.664 0 .574-.015 1.17-.027 1.716l.645-.78-.055 1.94c.175-.049.375-.151.57-.216 0 .365-.05.777-.236 1.102-.805-1.074-1.268-2.306-1.899-3.448l-1.134-2.411c-.303.83-.4 1.827-.383 2.777.224-.199.343-.56.595-.822-.07.508-.162 1.088-.189 1.62.175-.151.308-.36.518-.449.013.568-.12 1.15-.069 1.736.172-.157.346-.302.543-.375.016.486-.039 1.084.056 1.577.129-.116.26-.31.416-.3.014.456-.036.923.055 1.354l.594-.445-.09 1.492c-.492-.503-.808-1.23-1.173-1.863-.675-1.235-1.124-2.582-1.826-3.8-.196.723-.204 1.595-.258 2.33l.566-.604c-.039.477-.123 1.075-.03 1.579l.354-.273c-.05.375-.09.816-.127 1.233.145-.054.33-.156.541-.117-.07.389-.17.854-.093 1.31.142-.095.302-.153.472-.182 0 .27.014.594-.092.857.12.088.319.124.493.143-.012.215-.045.487-.069.745l.526.042c-.145.232-.104.53-.22.78-.411-.43-.624-1.027-.898-1.545-.636-1.477-1.332-2.913-1.781-4.456l-.168-.288c-.078 1.026-.045 2.18-.02 3.153l.042.076c.19-.246.277-.508.383-.778.092.532.015 1.128.064 1.658.135-.102.264-.17.381-.272.044.452-.05.907-.086 1.372.205-.074.406-.298.642-.37-.181.37-.253.853-.378 1.282.183-.122.378-.33.617-.38-.055.312-.196.626-.24.96.164.17.41.313.634.44l-.209.962c-1.058-1.488-1.477-3.239-2.111-4.902-.078-.27-.21-.53-.33-.785l-.051.2v2.635c.206-.18.356-.467.541-.672.01.556-.201 1.113-.16 1.681.203-.09.236-.352.449-.44-.03.388-.131.817-.187 1.23l.516-.463c-.092.389-.198.868-.184 1.307.169-.17.303-.385.471-.585.027.441-.246.855-.112 1.35.168-.107.207-.324.39-.413 0 .359-.212.683-.128 1.112-.465-.334-.543-1.023-.863-1.517-.457-1.01-.682-2.127-1.237-3.097l-.066.12c-.012.969.217 1.85.162 2.835l.38-.39c.011.405-.122.846-.064 1.26l.473-.287c-.041.353-.131.727-.09 1.128.155-.026.315-.193.471-.286l-.221 1.027c.102.01.21-.092.312-.147 0 .248-.052.548-.26.702-.807-1.154-.976-2.59-1.663-3.77-.027.83.092 1.905-.12 2.748l.568-.675-.145 1.4c.12.012.238-.104.36-.17-.03.287-.149.587-.134.92.158.026.288-.18.449-.234-.077.314-.248.65-.203 1.053-.64-.846-.933-1.974-1.433-2.94-.105.866-.094 1.812-.29 2.705.196-.103.276-.375.475-.542.014.274-.105.53-.17.788.155-.024.315-.232.475-.323-.123.323-.264.7-.305 1.076v.054l.383-.147c-.253.27-.291.637-.435.96-.355-.714-.539-1.488-.844-2.216a9.934 9.934 0 01-.476 2.334c.173-.063.343-.246.489-.403.011.352-.162.687-.335 1.001.203-.054.398-.262.599-.393-.146.403-.504.794-.572 1.26-.432-.547-.484-1.284-.773-1.918-.055.298-.108.624-.148.894-.198 1.802-1.292 3.24-2.543 4.613-.106.063-.186.18-.276.26-.044-1.01-.044-2.037-.078-3.034.078-.594-.055-1.19.12-1.748.117.271.048.634.167.908.342-1.13.79-2.205 1.344-3.245-.615.133-1.104.703-1.701.989-.014-.224-.092-.43-.022-.636.098.054.17.18.3.167.325-.403.325-.933.554-1.384.141.233.08.596.26.84.464-.854.767-1.83 1.31-2.68h-.116c-.78.529-1.51 1.177-2.259 1.75l-.236.09c-.057-.196-.016-.413-.03-.622l.276.258c.387-.234.362-.714.465-1.102.12.165.183.362.275.533.28-.43.422-.908.619-1.375.137.131.188.35.238.544.516-.84 1.032-1.726 1.401-2.592-.565.328-.885.958-1.45 1.335-.612.515-1.228 1.128-1.944 1.464l-.046-.904.526.412c.145-.298.186-.686.262-1.025.13.132.13.52.355.637.276-.375.32-.842.475-1.273.135.093.175.35.329.493.317-.555.53-1.204.75-1.81.124.165.07.463.15.67.55-.817 1.065-1.772 1.565-2.68-1.59 1.137-2.832 2.693-4.536 3.56l.029-.827.42.181c.387-.363.544-.79.818-1.194l.235.52c.398-.32.476-.829.66-1.258.083.142.12.325.237.464.28-.387.421-.862.573-1.303.105.14.154.306.262.462.13-.4.33-.817.447-1.244l.212.665c.315-.79.725-1.533 1-2.31-1.683 1.246-3.18 3.035-5.038 3.887l.029-.76c.156 0 .196.294.406.256l.567-1.01.478.233c.393-.363.542-.826.881-1.205.183.055.463.22.545-.104l.42-.933.355.145c.25-.338.313-.743.41-1.144.118.131.155.427.235.649.304-.883.808-1.722 1.12-2.63-.366.22-.576.569-1.025.88L36.563 33.3a48.132 48.132 0 01-2.545 1.786v-.674c.135 0 .262.114.413.143.29-.248.38-.609.566-.909.173.053.314.315.45.276.288-.562.563-1.118.878-1.661.174.09.33.18.424.35l.647-1.23c.129.075.169.336.264.515.223-.659.555-1.271.856-1.892.13.337.107.742.213 1.088.46-.97.656-2.097 1.068-3.117-1.594 1.512-3.354 3.105-5.154 4.364l-.545.272c-.037-.246-.014-.572-.025-.817l.478.337c.35-.35.432-.855.682-1.272l.474.403c.372-.44.533-.957.805-1.425l.477.375c.329-.415.527-.904.736-1.378l.212.446c.288-.494.356-1.116.62-1.632l.289.75.068-.025.71-2.646c-1.752 1.44-3.364 3.335-5.434 4.277-.01-.324.012-.686.067-1.009.156.142.175.441.437.492.476-.27.723-.805.852-1.307l.423.334c.356-.388.543-.894.81-1.333.118.128.21.284.352.374.385-.532.66-1.14.949-1.722l.29.389c.728-.21.712-.97.952-1.517l.354-1.544c-1.558 1.595-3.266 3.268-5.245 4.191l-.055-.028c0-.48.09-.908.197-1.34.037.34.133.597.238.872.303-.44.365-.972.594-1.454l.617.582c.436-.426.658-.995.994-1.488.089.143.115.415.355.4.444-.66.67-1.397 1-2.096.174.234.107.648.42.766.413-.68.571-1.453.793-2.194l.117-.558c-.484.324-.91.898-1.42 1.26-1.138.855-2.27 1.787-3.587 2.24-.106-.35-.017-.739.09-1.045.117.192.117.555.45.555.341-.106.577-.506.764-.79l.276-.52.463.349c.423-.48.605-1.151.843-1.749l.41.637c.303-.548.42-1.104.59-1.71.225.241.225.713.453 1.024.233-1.039.39-2.152.567-3.19-.465.375-.86.907-1.349 1.374-.997.802-2.003 1.71-3.176 2.151-.067-.286-.016-.646.095-.922.088.052.196.284.354.336.514-.09.646-.646.87-1.007.184 0 .411.39.503.048.092-.31.208-.594.263-.906.158.064.356.3.449.48.328-.57.5-1.247.71-1.878l.472.713.096-.038c.262-1.04.457-2.01.58-3.112-1.174 1.126-2.506 2.23-3.904 3.021-.078-.312.05-.6.08-.898.105.042.143.29.326.326.291-.22.291-.648.543-.935.133.131.278.301.463.343a9.5 9.5 0 00.565-1.313l.423.3c.274-.493.422-1.04.53-1.607.152.155.276.463.353.721.041-.89.435-1.658.358-2.5-.967.69-1.833 1.62-2.879 2.13.04-.237.019-.56.118-.794l.147.298c.225-.298.288-.67.514-.971.121.17.15.39.292.558.352-.483.419-1.078.712-1.571.095.197.289.364.42.544.079-.027.17-.063.201-.142l.396-2.22-.043-.047c-.697.571-1.334 1.39-2.135 1.748-.04-.347.042-.725.12-1.076.117.168.054.455.144.663.028.027.053.066.087.038.11-.48.427-.868.639-1.297l.222.44c.134-.323.226-.675.275-1.024.082-.022.123.133.203.044.05-.586.25-1.134.355-1.7-.422.313-.847.766-1.332.997v-.178c.106-.274.155-.563.233-.845.16.027.252.556.516.234-.012-2.747.33-5.444.822-8.075-.042-.042-.082-.05-.12-.042-.412 1.142-.633 2.36-1.003 3.516-.332 1.66-1.057 3.135-1.665 4.664-.128-.025-.142-.235-.26-.347-.161 1.01-.686 1.875-.925 2.852l-.286-.354c-.421.922-.53 1.971-.993 2.866-.182-.158-.197-.415-.381-.595-.326.816-.54 1.684-.949 2.46-.078-.067-.225-.309-.324-.364-.492.976-.688 2.063-1.016 3.099l-.478-.518c-.35.934-.461 1.97-.733 2.915-.133-.196-.224-.413-.38-.596-.147.286-.106.703-.21 1.027-.112.763-.204 1.492-.204 2.332a6.77 6.77 0 01-.588-.675c-.16 1.074-.056 2.18.05 3.267-.195-.09-.409-.262-.618-.374.197.916.367 1.93.5 2.914-.196-.014-.41-.21-.593-.234.13.97.397 1.878.593 2.826-.225-.052-.41-.271-.645-.35.287.983.83 1.916 1.15 2.926-.203 0-.423-.156-.623-.18l.053.23 1.136 2.31c-.212 0-.415-.142-.624-.178.539 1.007 1.173 2.045 1.75 3.072l-.655-.184c.342.895 1.092 1.662 1.475 2.566-.184 0-.383-.167-.58-.143.552.84 1.008 1.724 1.419 2.62l-.392-.056c.617 1.18 1.34 2.322 1.748 3.596-.063-.873.082-1.74-.168-2.543-.473-.467-.934-.986-.869-1.7.25.351.314.833.684 1.167.107-.544-.171-.98-.196-1.501l-1.226-1.257c.408-.028.182-.507.38-.712.223.58.408 1.19.807 1.721a21.222 21.222 0 00-.213-2.058c-.621-.598-1.386-.975-1.974-1.635.279-.065.158-.413.287-.596.211.31.33.751.543.997.102-.246.115-.505.146-.764.264.467.51 1.077.88 1.579.146-.54.011-1.148.011-1.722-.907-.729-1.883-1.336-2.83-1.958l.157-.453c.175.13.33.387.505.584.076-.143.131-.35.14-.558.297.26.465.701.749 1.026.146-.184.107-.482.226-.7l.87 1.687c.054.048.132.124.183.086-.023-.675 0-1.297-.115-1.927-1.071-.715-2.188-1.419-3.188-2.339l-.078-.427c.05.248.344.522.619.64.104-.185.09-.446.18-.64.2.419.332.922.699 1.273.174-.262.32-.572.422-.873.289.486.264 1.08.594 1.548l.273-.584c.184.35.28.751.48 1.087.102-.62-.08-1.272-.015-1.901-1.213-.808-2.488-1.518-3.61-2.48-.028-.205-.04-.416-.06-.636.194.252.202.908.75.868.168-.18.195-.413.287-.634l.09.106c.16.468.422.89.684 1.321.172-.247.162-.57.267-.843.303.503.42 1.128.854 1.595.156.014.09-.193.144-.282l-.025-.86c.183.4.33.818.566 1.207l.053-1.544c-1.226-.865-2.529-1.512-3.65-2.604l.04-.7c.134.26.142.636.436.845.141.117.288.268.483.268.211-.179.174-.477.322-.694.133.463.377.875.631 1.28.146-.262.105-.636.224-.935.196.44.247.985.489 1.427.232-.248.232-.637.377-.937.158.538.445 1.015.648 1.547.05-.624.068-1.233.158-1.867a37.421 37.421 0 01-3.474-2.53c-.125-.153-.306-.27-.334-.463l.238.05c.055-.18.077-.386.133-.582.131.335.215.725.433 1.05.213-.167.436-.365.566-.608.247.44.448 1.032.739 1.542.174-.248.383-.646.633-.908.29.737.535 1.529 1.094 2.123l.234-1.983c-1.267-1.008-2.578-1.826-3.594-3.147.141-.028.316-.117.356-.285l.353-.934c.055.62.04 1.281.252 1.843l.553-.495c.041.426.08.855.234 1.242.23-.298.422-.649.633-.959.043.518.104 1.088.225 1.61.224-.234.316-.558.544-.818.141.522.05 1.154.444 1.543.21-.181 0-.39.093-.636l.194-1.258c-.785-.84-1.721-1.538-2.445-2.484-.225-.39-.582-.73-.75-1.131.035-.012.168.221.33.167.287-.5.365-1.087.656-1.592-.04.714-.1 1.506-.117 2.217.365-.27.342-.74.672-1.051.012.581.023 1.228.209 1.776.248-.208.302-.528.5-.79 0 .466-.024 1.007.12 1.45l.132-.14.382-.728.073.067.019.98.107.589.112.114.068-.066.143-1.216.068-.468-.09-.207-1.158-1.372-.685-1.125-.385-.794.182.048.595-1.122.057-.042-.07.56.012 1.073.058.441.512-.868.144-.143-.09 1.271.022.597v.078l.33-.326.355-.494h.066l.028 1.235.09.282c0 .012-.09.055.078.093l.146-.467.133-.984.106-.348-.172-.298-.475-.652-.54-1.099-.472-1.22.366.284.15-.18.316-.688-.126 1.867.281-.234.471-.675.054 2.156.117.296.092-.04.336-1.825.196-1.352-.766-1.472-.187-.367.595-.61.184-.31-.289 1.307v.054l.35-.35c0-.052-.097.286.113-.117l.041 1.606.142-.401.265-1.295.379-1.517-.234-1.166.092.089.212.586.05-.027.361-1.287.416-1.281V8.93c.027 0-.17.207.144.028l.042.053.267-.611.326-1 .53-1.357.287-.977v-.08l-.022.612-.322 1.402-1.725 5.833-.447 2.127-.621 2.953-.26 1.363-.623 4.105-.16 1.18-.26 2.681-.212 2.554-.055 1.88-.063 3.875.029 3.731.323 3.552.187 1.375.145 1.93.025 1.027.026 1.513-.08 1.454.029.143-.067-.08-.617-1.112-.91-1.217-1.226-1.519-.238-.362-1.236-1.748c-.01-.042.068.105.068.105l-.16-.277 1.187 1.308-.029-.349-.209-1.192-.093-.84-.378.542-.478-1.4-.157-.933c-.014-.04.07-.067-.023-.102l-.152.308-.405 1.325-.066.165-.258-.413-.19-.427.24.09.063.08.053-.027-.09-.557-.384-.985.28.233.219.284.096.091v-.182l-.265-.813-.38-1.662-.657 2.19-.174.416-.063-.066-.291-.84c.015-.052.092-.131-.027-.181l.434.181.038-.09-.13-.794-.287-.866.353.334.264.349.092.092v-.35l-.446-2.774-.08-.282-.09.089-.337 1.218-.405 2.164c-.078.08.33-.62-.09.287l-.07-.08-.21-.623.253.067v-.272l-.213-.779h.385l-.092-.907-.216-1.113.093.088.278.765c.069.051-.144.067.111.121l-.026-1.323-.148-1.245v-.769l-.172.238-.42 1.514-.529 2.476-.09.185-.121-.185-.187-.637c0-.01-.012.105-.026-.048h.291l.068-.018-.213-1.511.424.127-.027-.7-.134-1.167.45.725.037.054.108-.193-.08-1.093-.213-1.33-.064-.443-.383.727-.567 1.863-.316 1.43-.16.766-.051.05-.264-.546.316-.117-.17-.935-.093-.503.422.248h.053l-.096-.854-.116-.495.212.09.359.282V33.3l-.242-1.714.264.195.211.326.07.065.078-.09-.148-1.026-.33-1.519-.054-.23-.919 2.824-.29.83-.384 1.517-.211-1.065c-.013-.028-.051.104-.025-.053h.316l-.2-1.214.032-.065.287.18.158.025c.014.01-.103.053.052.029l.052-.054-.314-1.583-.043-.323.189.18.402.703c.022.016-.055.032-.055.03 0-.005.028-.013.126-.03l-.071-.742-.31-1.269.141.142.45.728.092-.093v-.312l-.513-2.49-.291.496-.74 2.216-.42 1.372-.237 1.053-.068-.078-.221-.737.028-.053h.234l.08-.069-.223-.985.475-.036-.252-1.425.01-.08.125.12.234.312.08.06.092-.088-.03-.907-.062-.21-.123-.96.397.391.174.262.064.076.108-.12v-.423l-.5-2.101-.434 1.101-.568 1.632-.48 1.545-.212.88-.203-.375-.174-.648.314.036-.03-1.019-.02-.067v-.076l.42-.016-.135-1.162-.076-.47.596.441-.026-.66-.28-1.416.237.237.305.36.26.222c.053-.016.03-.119.093-.05l-.589-1.96-.161-.662-.531 1.711-.826 2.593-.263.534-.163-.444v-.078l.135-.065-.04-.753-.053-.18.025-.05.294.025h.064l.054-.09-.03-1.222-.052-.23.029-.092.41.194.088.014-.143-1.064-.054-.26v-.076l.412.608.05.052.118-.143v-.412l-.432-2.035c-.017.014.092.065-.03-.054l-.183.403-.74 2.036-.658 1.606-.054.038-.067-1.179h.387l-.12-1.152h.13l.29.137.053-.02-.054-1.672h.148l.355.14-.355-1.828-.078-.607-.475 1.52-.875 2.5c-.05.074-.119-.184-.09.139l-.144-.75.209-.068-.065-1.215h.09l.215.17.05.037.093-.116-.028-1.4-.05-.232.105-.042.37.326.079.063v-.208l-.553-2.163-.092-.322c0-.016-.078.09-.03-.077l-.067.143-.775 2.42-.264.638-.197-1.426.381.298.054-.04-.146-1.801.383.286.238.155v-.3l-.529-2.19v-.167l-.092.09-.59 1.737-.216.466-.088-.961-.171-.892.524.636.092-.181v-.455l-.33-1.283-.17-.74-.424.58-.29-1.625-.564-4.202c-.017-.013-.037.01-.052-.028l-.043.093.213 2.76.265 1.907.13 1.164.552 3.007.75 3.255.769 2.537.541 1.672 1.211 3.344.735 1.555.902 1.597 1.072 1.956 1.593 2.735.977 1.412.735.982 1.675 2.478.555.816 1.273 1.752 2.347 3.237.799 1.076.883 1.232.685 1.14-.287-.062-1.674-.899-1.778-.932-1.805-.907-.998-.413-1.373-.583-1.805-.671-4.337-1.743-2.64-1.135-1.922-1.052-1.873-1.233-2.322-1.776-1.783-1.75-.459-.555-1.043-1.194-.83-1.204-1.068-1.853-.04-.159.13.14.886 1.24 1.04 1.423c.146.103-.278-.062.122.154l.05-.01-.12-.637-.092-.257c-.022-.027-.078.063-.051-.065l.12.115.355.973.066.337 1.597 1.525-.05-.205-.31-.532-.446-.608c.001.01-.002-.01-.027-.053l.21.053.329.182.383.658.211.822.437.501.74.634v-.207l-.383-1.006-.12-.239h.068l.527.641.262.604.21.623.858.664.4.258-.027-.14-.728-.897c-.029.01-.04-.012-.055-.012l.026-.054.384-.025h.065l.056-.038-.357-.468-.057-.05h.215l.172.065.265.373.512 1.546 1.427.995.024-.143c-.398-.28-.74-.711-1.041-1.02l.657.114-.854-1.051.43-.015.148.04.543.911.682 1.355.078.208 1.044.679.397.181v-.133l-.131-.346-.701-.547c-.04-.028.278.166-.119-.063l.499-.146-.736-.723.237-.04c.014-.022-.063.008-.063.008.006.004.04-.008.168-.059l-.621-.505c-.076-.028.055.165.026-.107l.068-.034h.093l.763.828.595 1.102.4.882c.31.117.588.568.88.425l-.448-.66.209-.27-.425-.544-.048-.043.096-.191-.241-.391-.304-.35-.082-.069.15-.098h.078l.8 1.075.425 1.073.199.675.252.143.828.325.051.054-.025-.117-.512-.75.248-.261-.473-.613.05-.178-.118-.236-.287-.35.119-.067.145-.024.592.973.319.703.247.928.58.312.42.185c.043.004-.11-.092-.112-.09 0 .006.057.052.287.206.014-.015-.105-.031.039-.031l-.326-.502-.357-.378v-.06l.234-.263-.537-.724.233-.232.54 1.021.477 1.26 1.006.35-.029-.21-.475-.532.275-.284-.088-.505c-.017-.029.022.153-.03-.079l.53.868.407.935.828.373.043-.049-.146-.258-.657-.584.564-.026v-.444l.674 1.403.039.143 1.121.522-.029-.353-.615-.612.615-.023c0-.012 0-.08.072-.026l.258 1.076.556.296.356.118.357.194v-.233l-.527-.404-.057-.033.413.11.326.12.199.577 1.46.743.763.4-.09-.207-.834-1.032-.143-.25-.053-.049c-.023.191-.156.387-.023.58l-.252-.185-1.066-1.447-.078-.169c-.145.156-.174.404-.237.548l-1.187-1.592-.213-.33-.09-.09-.174.61-1.488-1.633-.08-.076-.064.14-.053.581h-.096l-1.371-1.749-.052.868-.3-.255-1.121-1.426-.03.581v.081l-.209-.109-1.686-1.407-.014.646h-.105l-1.666-1.285v.197l.082.532c-.029.008.051.024-.029.049l-1.04-.93-.525-.573c-.044.025.117.065-.07.053l.07.726-1.689-1.687-.016.794-.103-.015-.963-1.151-.345-.486-.208.794-.832-.817-.736-.84-.092.647-.624-.598-.774-1.047c-.044-.089.474.583-.12-.26l-.183.463-.558-.747-.394-.61-.581-.937-.185.47-.05.052-.489-.935c-.119-.336-.24-.689-.355-.997l-.108.093-.13.465-.29-.284-1-1.584-.69-1.57-.118-.387c0-.012-.028-.141-.094 0l-.064.09.33 1.076.896 2.375.384 1.02.54 1.103.738 1.23-.145-.126-.753-1.08-.356-.28v.137l1.043 1.806.594.464.777.35.264.53-.38-.165-.238-.21v.194l.143.467-.498-.568-.371-.35-.474-.234v.117l.54.802.897 1.116 2.097.402.33.58-.124.015c-.196-.154-.42-.117-.645-.39l.026.259.24.587.092.18-1.135-.997.027.153.211.664c.002 0-.15-.15.027.09l-.238-.233-.79-.936-.331-.076h-.09l.645.894.722.793.36.166 1.093.13h1.9l.198.35.064.208-.408-.157-.33-.194-.063.077v.26l-.056.037-.946-.387.092.35.26.463-.683-.398-.41-.349.117.726-.842-.792h-.434l.024.09 1.478 1.285 1.557-.026 1.951-.207.052-.026h.065l.478.533-.922-.157-.056.037.027.338v.066l-.29-.066-.71-.309.049.583-1.187-.417.175.3.57.697-.245-.091-1.262-.675-.252-.116h-.381l.184.231 1.502 1.056.355.088 1.043-.18 2.822-.726h.095l.524.346h-.62l-.497-.05.311.43-.973-.118h-.09l.012.119.29.361c0 .011.038-.075.025.052l-.327-.062-.65-.226-.264-.034.029.14.53.507-.227-.031-.871-.243c-.064-.037-.09.066-.146 0l.287.274.36.23-1.056-.27-.509-.142-.318.043.38.278 1.332.561.33.049 1.24-.323 2.534-.92h.236l.406.258.057.054c-.255 0-.504-.014-.795.09-.038.117.265.223.096.351l-.966-.065.07.13.351.348-.764-.014-.328-.024h-.094l.381.324-.407-.024-.472-.093c-.03-.028-.094-.054-.146.026l.457.47-.709-.17-.264-.118-.791.195.103.093.874.271 1.207.258.665-.09 1.237-.415 1.635-.782.44-.112.239.14.061.065-.565.028.029.374-.624-.026-.092.026v.093l.246.347-1.196.08.538.465-1.54.013-.331.194-.077.067 1.475.188.505.02 1.106-.35 1.213-.583.949-.534c.172.049.306.17.478.263l-.52.06c-.003.083.085.008.075-.012-.006-.01-.062-.002-.217.095l.143.296.04.048-.856.133.464.427-1.15-.09.553.413-1.527.09-.453.234.203.094c.762.14 1.855.038 2.414 0l1.922-.792.86-.295.391.256.055.04-.571.05c-.1-.014.72.04-.314-.05l.381.424-1.131.04.236.233.3.14-1.696.12-.146.052-.287.244.236.076 2.398-.141.623-.169 1.444-.58.187.05.33.234-.517.026.187.298-.024.052-.925-.08.308.31c.047.028-.336-.063.141.068l-1.109-.028h-.235l-.478.221.924.04 1.519.09.644.026 1.225-.322.406.207.041.052-.71-.024c-.409.125-.792.151-1.159.606l2.34.027 1.74.646 1.252.73.656.489.596.364-.987.05-4.925.752.066-.077 2.697-.557-1.898-.65-.75-.335v.102l.805.976-.687-.115-.969-.305c-.018-.012-.045.016-.059-.02l.91-.145-.548-.26-1.584-.48h-.118v.067l1.516 1.603-1.186-.274.301-.215.17-.067.043-.05-.136-.066-1.618-.298v-.05l.885-.26-.08-.063-.398-.026-1.713-.261 1.068.984 1.066.907.2.236-1.147-.092h-.066l.117-.116.504-.208-1.48-.22-.048-.04.695-.233-.144-.144-1-.18-.69-.029.15-.14.71-.23-.332-.091h-1.29l-.727.024 1.675 1.259.768.618.052.055-.478.022-.588-.205.09-.103.274-.119-.13-.114-1.41-.065.79-.205c.014-.043.05-.015.066-.055l-.711-.16-1.07-.072-.21.025.065-.065.795-.26c.018-.049-.146.027-.144.027 0 0 .074-.029.322-.146l-.023-.046-2.326.026 1.935 1.77-.914.12.117-.234.145-.14v-.094c-.42-.01-.805.038-1.158-.05l.59-.272.121-.12v-.05h-1.729l1.07-.35.036-.069-.117-.112-2.532.112 1.373.95.498.4-.801.069h-.105l.315-.248c-.012-.026-.067.054-.052-.076l-1.755-.09.095-.094.67-.207c.077-.077.225-.141.237-.22l-.104-.038h-2.257l.478.503.592.496-.21.076-.593-.054-.873-.165.751-.298.08-.069-.08-.048h-1.278l-1.213-.117.051.18.147.221-.82-.055-1.822-.413.048.158.168.234.027.076 1.461.324 2.242.272 1.637.08 3.48-.08 2.48-.116 5.556-.363 4.35-.725 1.343-.232 1.451-.057-.38.73-.42.554-.805.846-.778.556-1.304.557-.789.285.386.23 1.037.237.049.054-.919.53.28-.405-.146-.089-.716.264-.325.18.446-.56-.446.08-1.962.814-.053.04.647.26 1.222.282c.043.024-.096.02-.096.02l.242.022-1.185.49-.143.09.352-.415c.027-.035.12.091.078-.116h-.212c-.405.144-.771.388-1.143.56l.09-.21.437-.556-.211.038-1.189.7-.707.547c-.016.008-.094-.068-.028.065l1.133.17 1.147.112-.104.095-1.016.67.29-.532v-.076h-.24l-.761.26-.208.09.022-.584-1.292.934-1.068.611 2.255.18-.013.1-.553.35.174-.336-.238-.014-.148.046-1.252.889c-.026.016.16-.035-.078.038l.683-.883v-.044l-.064-.046-.288.09-1.733 1.31c-.007.018.162-.05-.048.066h1.358l-.42.44c-.043-.102.074-.209-.11-.295l-.947.971-.662.814-2.677 2.647-.597.674.048.052.76-.582 1.228-1.08 1.769-1.28 1.898-1.221.397-.205.049-.055-.025.586 1.755-1.142v.494l1.358-.957.537-.445.053.296v.055h.121l1.339-1.348.053.185v.323l1.492-2.141.115.598c.014.026.055-.028.026.054l.21-.35.91-2.1.143.516.118-.235.569-1.865.184-.425h-.066l-.687.659-.219.648-.043.284c-.053.053.306-.415-.199.157l.054-.504-.054-.05-.986.995-.145 1.336-.655.413.483-.584v-.12l-.604.2.63-.78v-.207h-.09l-1.12 1.013-.156 1.515-.736.364.562-.65-.023-.053-.75.17.513-.582.118-.235v-.087h-.096l-1.037.835-.144 1.21-.71.466.473-.675v-.052l-.216.052-.522.21.711-.703.105-.14c-.015-.028-.041.234-.027-.092l-1.355 1.011-.067.741-.74.282.424-.493v-.234l-.12-.022-.777.584-.527.346-.068.377-.117-.183-1.043.584-.83.596.713-.7 1.935-1.527 2.047-1.426 1.568-1.281 2.304-2.01 2.643-2.683.894-1 .106-.102-.238 4.018-.407 2.266-.617 1.908-.924 1.94-.656 1.143-.119.037h-.094l-.054-.037.65-1.257.955-2.436.361-1.284.38-2.218.146-2.306v-.143l-.196.222-.662 1.906-.795 2.175-.125-.69-.332.578-.445 1.085-.342.726-.185-.958-.172.167-.87 1.4-.708.878-.027-.764-1.473 1.376-.041-.493h-.078l-.447.43-1.213.855-.065.076-.068-.543-.117.026-1.43 1.103c-.047 0-.078.053-.117.063v-.648l-.117.013-2.332 1.479-3.486 2.59-.314-.117-.038-.05 2.135-2.36 1.318-1.49 1.055-1.194h-1.004l.86-.791 1.095-.985-.381-.014h-.238l1.107-.89 1.41-.97-.673-.082.169-.153 2.444-1.546-.622-.232 1.596-.752 1.234-.505-.078-.103-.382-.157 1.173-.427 1.752-.584.869-.649.71-.818.431-.553-.02-.055-.793.091-1.248.35-.832.31-1.92 1.467-.593.558-.017-.586h-.1l-.566.338-1.661.858-.041-.389-2.136 1.169v-.431l-1.121.439-1.094.314-.397.038a.715.715 0 01.16-.443l-.239.032-1.399.295-1.162.169h-.05l.17-.323.146-.2H15.86l.068-.15.236-.262-.027-.048-2.019-.071-.63-.111.262-.378-.828-.143-1.414-.09.463-.505-.107-.08-1.91-.467-2.285-.764-1.541-.66-.765-.365-.038-.139v-.09l4.152.875-.498-.842c0-.06.049.015.04.02 0 .007-.026-.017-.091-.108l1.893.517.687.093-.21-.465.265-.028 2.084.143.313-.053c.056 0-.129.158.095-.024l-.424-.369h1.4l.713-.047-.172-.298 2.573-.234.036-.053-.187-.284v-.062l2.406-.117v-.09l-.32-.263-.067-.062h2.52l.355.038-.316-.378 1.517.103 1.187.156v-.143a.405.405 0 00-.117-.247l.317.014 1.75.52.182.09v-.27l-.034-.107.18.029 1.857.753.119.036.592.17 1.187.143 1.129-.093-.855-.568-1.213-.56-1.197-.413h-1.8l-.882.062-.12.055h-.07l.28-.546-1.662-.184-1.068.057h-.84l.395-.451-1.254.099-1.215.09-.42.093.332-.534-.86-.028-2.139-.167-.05-.039.38-.332.08-.068-.475-.09-1.305-.055-.937-.062.342-.33.238-.164.04-.048-.145-.065-.685-.069-.897-.23-1.742-.607.478-.263-.066-.092-1.123-.427-1.277-.67-.147-.148.474-.124c.013-.018-.037.086.052-.029L8.98 42.553l-.121-.117.029-.054.8-.037-.325-.328-1.387-1.241-.357-.324h.793l-1.506-1.726-.3-.518.474.028.09.055h.066l-.867-1.13-.767-1.18c-.04-.069.012-.131-.147-.196l.346.055.328.117-1.381-2.428.22.012.448.236-.024-.117-.622-1.255-.688-2.217-.3-1.14-.196-.635.354-.352.267.544.54 1.287.815 1.255.358.465.13-.21.17-.422.056-.043.33.675.234.649.267.495.248-.38.581 1.05.804 1.17.16.218.196-.493 1.33 1.934.094-.325c.033-.072-.022.27-.027.27 0 0 .013-.153.096-.672l.762.958.397.491.314.285.242-.892.449.543.879 1.024.067-.752 1.425 1.426c.026.04-.064.079.065.115l.029-.752.078-.037 1.395 1.58v-.791l.04-.05 1.74 1.597.028-.665v-.064l.118.026 1.073.842.773.558h.055l.129-.673.912 1.112.274.465.109-.194.064-.646.052-.05.753 1.033.643 1.003.216-.792 1.012 1.048.7.73.12-.108.133-.531.05-.051.358.572.33.437.568.818.171.141.142-.334v-.093l-.527-.27.214-.143.587-.092-.83-.546-1.699-.971.781-.101-.212-.133-1.78-.956-.737-.518c0-.018.012-.054-.04-.026l.724-.067-.117-.115-1.465-.973-1.187-.87.304-.052.213.028-.014-.067-2.613-1.685.897-.09h.173l-.198-.182-1.4-.93-.712-.546-.168-.117c-.017-.037.032.274-.043-.117h.752l-.964-1.074-.973-.998.561.064-.287-.349-1.108-1.23-.326-.379-.08-.038.802.12-.238-.378-.355-.431-.42-.699-.543-.737c-.041-.028-.029-.065-.08-.089l.886.18-.052-.212-.901-1.656-.43-.843.38.08.236.117-.027-.22-.631-2.112c-.039-.158.08.875-.094-.38l.725.61v-.285L14 23.277l-.275-1.555c.01-.05-.04.337.025-.143l.514.355-.566-2.62.54.31.026-.206-.186-1.126-.263-1.7c.029-.038-.09-.068.052-.09l.33.27v-.18l-.353-1.337-.197-.905v-.052l.578.236.068-.352.051-3.453.121-2.652.117-1.662.303-.115.051.181.135 1.713.38 2.163.358 2.177.197 1.209.633-.703.142.517.303 1.672.108-.09.238-.49.593 2.527.37-.754.435 1.804.277.854.147-.13.312-.519.516 2.5.05.207.118-.115.24-.493c.043-.012-.143-.115.096-.026l.21 1.075.266.88.38-.463.86 2.965.09-.089.266-.493.035-.05.119.376.211 1.128.238 1.047.055.04.473-.698c0 .01-.104-.117.064 0l.439 2.654.02.224.096-.105.263-.555.133-.091.17.63.264 1.418.211.865.5-.79.185 1.75.17 1.078.215-.224.287-.465.16 1.62.17 1.139.393-.465.242 1.438.26 1.688c-.003-.02.007.002.026.049l.38-.571.75 3.358c.017.026-.011.034.029.052l.293-.417.272-.463.08.062.394 2.452.053.233c.009.022-.027-.17.03.065l.495-.596.184 1.877.382 1.661.186.428.855.946 1.33 1.865-.076-1.206-.274-.844-.437-.981-1.105-1.996-.645-.937.645.093-.953-1.728-.524-.84.553.143-.029-.143-.67-.995-.87-1.506h.161l.315.078h.095l-.975-1.71-.87-1.762.18.089.624.414.022-.062-.645-1.217-.52-1.287.709.35-.066-.271-.504-1.19-.298-.909-.12-.518.237.053.449.247-.029-.237-.354-1.092-.303-1.535.564.18s.005-.126.069.052l-.255-1.218-.315-1.65-.09-.282.187.048.639.441-.064-1.188.013-.767.196-1.167.066-.076.412.495c.008.014-.062.029-.062.029 0-.005.029-.013.128-.029l.024-.936.301-1.465.226-.61.25.276c0 .008.039-.16.053.074l.07-.207.05-.467.382-1.503.146-.35.037-.299c-.015-.034.04-.034.024-.066l.566.598.096-.18.576-2.047.332-.936.092-.166.275.348c.182-.414.434-.944.434-1.285l.594-1.228.09.09.302.502.269-.647.196-.646.42-1.334.301.258.836-2.642.38.346.092-.179.712-2.189L38.873.208l.063-.206c.189 0 .426-.026.504.115zm-2.186 57.245c.471.51.182 1.258.326 1.87h.053l.21-.844c.581.646.913 1.529 1.093 2.409.125-.296-.008-.592.03-.919.458.608 1.435.947 1.33 1.854-.015.064.014.116.063.157.106-.224.092-.494.092-.766l.98.725c.067.339.252.622.407.937v-.818c1.15.572 2.338 1.271 3.335 2.163-.445-.221-.88-.491-1.34-.67l-.056.58c-.525-.415-1.015-.868-1.607-1.165-.014.125-.067.244-.055.387l-1.49-1.232c-.103.185-.078.413-.119.634l-1.445-1.736c-.082.248-.133.495-.188.727-.42-.699-.793-1.414-1.185-2.125-.123.043-.196.233-.292.348l-.537-1.993-.27.245c.091-.79-.063-1.635-.05-2.347.21.547.54 1.026.715 1.58zm29.432-20.667c-.237.218-.594.363-.874.584.158.188.542.23.807.373-.684.322-1.385.738-2.073 1.1l.911.182c-.752.366-1.541.636-2.213 1.167l.025.051c.237-.012.421.092.657.092-.657.222-1.252.597-1.91.816.185.129.462.117.683.208-.605.246-1.34.505-1.976.868.197.103.433.169.673.21-.781.4-1.62.648-2.425.996.168.129.516.222.79.284-.635.234-1.399.456-2.04.792.246.169.59.127.864.233-.905.31-1.948.401-2.85.816l1.072.3c-.84.153-1.607.504-2.374.868.095.127.382.127.552.257-.762.22-1.529.402-2.28.646.282.171.646.213.954.352-.768.248-1.599.349-2.35.635l.331.35c-.793.145-1.648.272-2.469.417l1.096.374c-.885.027-1.727.22-2.61.289l-.05.034.64.427-2.255.211c.042.125.252.216.398.27-.605.015-1.242.065-1.846.146l.276.233-2.179-.042.427.415c-.631-.013-1.44-.257-2.183-.234l.456.584c-.768-.036-1.438-.258-2.137-.44 1.173-.325 2.382-.545 3.503-.986.44.131.83.324 1.285.38l.022-.404c-.342-.038-.723.089-1.065-.01.605-.123 1.199-.908 1.859-.405l1.065.17c.109-.778-.869-.184-1.289-.43.262-.18.644-.298.949-.47.61.162 1.293.199 1.9.234-.136-.942-1.043-.14-1.61-.324.368-.247.82-.439 1.21-.723.779.067 1.464.35 2.259.372.09-.098.08-.243.118-.372-.28-.119-.885.284-.86-.262a19.39 19.39 0 01-1.207.143c.301-.246.772-.425 1.142-.699.887.17 1.729.44 2.709.405-.058-.157-.306-.221-.416-.38-.198.056-.404.092-.617.145-.053-.146.053-.297-.01-.441l-1.364.13 1.097-.65c.939.107 1.818.336 2.732.52.076-.103-.056-.232-.078-.355-.123-.045-.203.162-.36.123l-.118-.401a3.898 3.898 0 01-.542.166l.028-.371c-.448.034-.947.205-1.396.152.408-.275.828-.61 1.277-.829.988.1 1.98.247 2.992.324.041-.066.014-.159.014-.232-.21-.042-.444.061-.686 0l-.036-.235c-.255-.026-.501.09-.768.119-.026-.119-.026-.25-.093-.355-.38.105-.79.312-1.185.236l.99-.725c.854.233 1.764.32 2.73.284a.32.32 0 00.078-.26c-.212.014-.464.155-.69.141-.075-.127.121-.232.187-.349-.354.015-.737.131-1.116.184.077-.143.145-.286.22-.417-.395.028-.78.298-1.185.298.276-.298.657-.548 1.013-.75 1.068.065 2.136.18 3.203.168a.86.86 0 00.146-.413l-.687.153c-.01-.145.056-.312 0-.415-.37.145-.694.365-1.091.441l.116-.52c-.491.08-.992.326-1.5.43.395-.35.949-.623 1.418-.933l3.142.181c.164-.066.148-.286.184-.443-.184-.01-.368.103-.565.17l.118-.492c-.366.143-.778.362-1.21.443l.022-.467c-.527.064-.99.415-1.54.491l1.423-1.05c1.043.142 2.16.013 3.203.023l.316-.427c-.197.09-.449.183-.697.211.023-.106.119-.197.148-.302-.386.069-.77.302-1.218.302l.148-.35c-.5.117-1.053.35-1.61.35.37-.302.925-.584 1.372-.934.937.117 1.974.117 2.99.143.203-.129.439-.338.54-.558l-.896.306-.05-.346-.948.346.053-.461c-.506.066-1.005.308-1.52.417.819-1.065 2.35-.689 3.536-.768l.54.065c.082-.107.122-.232.17-.35-.13-.053-.244.078-.408.064l-.066-.234c-.265 0-.54.107-.801.143l-.057-.208c-.392-.051-.722.182-1.132.172.343-.288.73-.505 1.109-.689.762-.105 1.646-.078 2.425-.014.067-.151.147-.298.215-.45-.23.051-.482.166-.743.219a.48.48 0 00-.067-.343c-.434.16-.883.308-1.369.24.408-.24.846-.544 1.31-.715.534.026 1.156.155 1.67-.024l-.115-.093-1.135-.077c.91-.338 1.737-.818 2.702-.957zM14.82 6.912c-.16 2.838.33 5.594.398 8.434.21 1.027.326 2.072.564 3.085-.554-.157-.408-.805-.632-1.194l-.055.03c.043.387 0 .8.212 1.114 1.059.532.712 1.75 1.12 2.59l.146.494c-.857-.298-.58-1.35-.976-1.982l-.053.05c.094.26.041.572.053.858l-.38-.767c-.052.377-.108.777.05 1.114.4.4.857.765 1.334 1.025l.09.171c.174.917.409 1.825.69 2.705-.438-.568-.57-1.271-.928-1.865-.088.312-.026.753-.048.999-.211-.353-.224-.791-.505-1.114-.184.169-.1.582-.251.723-.234-.375-.304-.83-.499-1.192a1.597 1.597 0 000 .998c.687.702 1.5 1.308 2.32 1.773l.566 1.752c-.432-.247-.605-.92-.918-1.375l-.189.767a4.153 4.153 0 01-.356-.934l-.055.026-.037.868c-.2-.26-.287-.69-.474-1.01l-.078.672a12.34 12.34 0 00-.688-.907l-.052.026.078.754c.843.749 1.912 1.01 2.89 1.438l.713 1.825c-.688-.127-.953-.97-1.254-1.51-.105.283-.093.655-.093.967-.235-.3-.463-.779-.684-1.167-.092.287.026.594.008.908-.233-.322-.498-.649-.627-1.023-.096.219-.123.503-.174.75l-.595-.66c.078.26.013.685.33.804 1.044.481 2.099.92 3.208 1.229.252.548.459 1.104.787 1.607-.512-.192-1-.646-1.159-1.166-.092.195-.036.445-.055.663-.207-.077-.364-.31-.526-.456-.145.036-.09.298-.21.429a1.619 1.619 0 01-.659-.729c-.082.147-.145.3-.211.445h-.08a7.276 7.276 0 00-.682-.585c-.013.25.196.454.26.703 1.094.476 2.309.674 3.472 1.008.247.532.526 1.066.828 1.583-.527-.07-.925-.556-1.175-.987l-.064.496c-.225-.226-.449-.504-.645-.739-.133.165-.12.423-.19.648l-.853-.872-.07.467-.759-.467c.024.207.12.442.21.639 1.158.529 2.439.745 3.675 1.075.307.377.479.818.745 1.204-.32-.068-.504-.452-.715-.7v.543l-.951-.908c-.051.286-.026.584-.065.83-.25-.09-.488-.441-.677-.646v.556c-.26-.013-.434-.234-.626-.39-.083.144.023.272.085.39 1.01.235 1.996.49 3.066.585.22.518.646.895.883 1.398-.288-.052-.489-.336-.713-.53-.148.01-.148.23-.17.377l-.635-.61-.172.463c-.253-.058-.486-.437-.712-.58l-.026.53c-.274-.145-.51-.365-.778-.501l.278.674c.96.218 1.961.333 3.017.349.346.491.714 1.02 1.071 1.538-.45.248-.676-.32-.948-.54-.138.153.037.325.026.486l-.831-.9c-.106.138-.04.293-.03.463l-.713-.544c0 .22.177.425.217.66l-.743-.324c.372.842 1.346.663 2.073.879.447.197 1.251-.242 1.394.47l.687 1.022c-.434-.115-.754-.66-1.132-.93.076.297.228.621.33.93l-.711-.62c-.028.197.024.415.093.596-.306-.192-.566-.467-.872-.675.089.3.144.725.498.892.662.095 1.332.2 2.034.184l1.05 1.517c-.407-.16-.813-.58-1.17-.931.04.241.175.517.342.736-.313-.075-.634-.38-.952-.57.185.364.582.84 1.018.998.42.09.95-.036 1.218.373.235.34.447.688.709 1.025-.367.014-.725-.256-1.029-.544-.029.107.051.207.117.288.405.88 1.518.479 1.828 1.452.398.67 1.08 1.23 1.397 1.93a30.367 30.367 0 00-1.893-1.166l.592-.093c-.517-.504-1.145-.87-1.777-1.283l-.567-.325h.623v-.074a29.312 29.312 0 00-2.64-1.517c.224-.08.537-.028.802-.04-.753-.635-1.736-1.076-2.517-1.776-.103-.063-.253-.13-.359-.234.224.05.488.05.705.05-.824-.763-1.822-1.176-2.695-1.865l.672-.14c-.672-.57-1.46-1.04-2.135-1.658h.777c-.695-.778-1.583-1.404-2.201-2.106.356.15.766.265 1.107.38l-2.108-2.075c.261-.023.499.04.736.016-.616-.685-1.162-1.388-1.621-2.165.172-.03.384.098.593.09-.367-.881-.92-1.764-1.425-2.634.248.107.463.262.715.33-.21-.831-.715-1.61-.846-2.506.187.115.342.26.543.34-.174-.988-.332-2.04-.504-3.02.12.054.28.22.436.282-.096-.788-.315-1.606-.356-2.395l.397.244c-.082-1.05-.305-2.097-.448-3.15.143.145.33.248.448.428-.108-.918-.33-1.854-.545-2.76l.455.314c-.028-2.993.023-5.435.05-8.398.049.035.077-.08.118 0zm24.765 49.005c-.793-.329-1.647-.587-2.257-1.26a13.97 13.97 0 00-.828-1.44c1.175.663 2.27 1.592 3.085 2.7z" fill="#000"/><path d="M3.29 77.407c-.112.372-.098.388.295.388h1.726c.406 0 .434-.065.308-.5l-.757-2.636c-.112-.388-.238-.824-.323-1.018h-.028c-.042.08-.182.468-.336.953l-.884 2.813zm2.778 1.439c-.098-.356-.154-.404-.575-.404H3.376c-.351 0-.436.048-.534.387l-.49 1.698c-.211.727-.31 1.164-.31 1.341 0 .195.07.291.408.324l.463.048c.098.082.098.34-.029.404-.364-.032-.8-.032-1.459-.048-.463 0-.967.032-1.346.048-.084-.064-.112-.322-.028-.404l.463-.048c.337-.033.645-.21.841-.792.253-.744.646-1.794 1.235-3.605l1.43-4.364c.197-.582.28-.89.239-1.148.336-.113.574-.404.729-.615.085 0 .182.033.21.146.183.71.407 1.455.618 2.166l1.921 6.499c.407 1.39.59 1.632 1.193 1.713l.378.048c.098.082.07.34 0 .404a28.324 28.324 0 00-1.697-.048c-.673 0-1.206.032-1.613.048-.112-.064-.126-.322-.028-.404l.407-.048c.294-.033.49-.13.49-.291 0-.178-.07-.469-.182-.857l-.617-2.198zM19.653 79.75c.099.21.449.939.505.987.056-.032.308-.549.574-1.132l.703-1.551c.672-1.487.743-1.763.967-2.522.309.032.589.048.813.048.337 0 .744-.016 1.15-.048.127.048.14.323.043.404l-.309.048c-.645.097-.673.404-.673 1.359 0 1.713 0 3.087.07 4.057.028.356.028.743.463.792l.407.049c.098.064.098.339-.014.403a24.176 24.176 0 00-1.403-.048c-.407 0-.842.016-1.234.048-.099-.08-.113-.339-.014-.404l.308-.048c.45-.065.45-.194.45-.841v-3.733c0-.194 0-.438-.043-.47-.042 0-.407.809-.603 1.23l-.856 1.859c-.112.241-.841 1.923-.996 2.44-.07.064-.182.064-.266 0-.154-.582-.59-1.616-.827-2.15l-.912-2.037c-.155-.355-.45-1.213-.562-1.261-.056.08-.07 1.164-.084 1.617a93.673 93.673 0 00-.028 2.117c0 .825.014 1.18.407 1.229l.463.049c.098.064.084.339-.014.403a13.463 13.463 0 00-1.15-.048c-.31 0-.73.016-1.164.048-.098-.064-.112-.323 0-.404l.294-.048c.463-.08.505-.242.575-.808.112-.874.196-3.476.196-4.575 0-.517-.153-.76-.63-.825l-.337-.048c-.084-.08-.098-.34.028-.404.379.032.701.048 1.08.048.28 0 .575 0 1.024-.048 0 .711.252 1.228.729 2.296l.87 1.923zM33.293 79.298c-.673-.404-1.249-1.034-1.249-1.94 0-1.18.786-2.004 2.203-2.004.49 0 .828.145 1.304.243.113.274.21.89.197 1.583-.042.13-.295.147-.365.033-.112-.566-.477-1.39-1.305-1.39-.827 0-1.136.55-1.136 1.1 0 .581.38.937.94 1.276l.87.517c.505.291 1.136.97 1.136 2.054 0 1.26-.898 2.052-2.286 2.052-.856 0-1.417-.34-1.614-.5-.125-.227-.294-.809-.294-1.665.056-.163.267-.179.365-.033.112.582.73 1.73 1.67 1.73.714 0 1.177-.42 1.177-1.164 0-.517-.182-1.05-.981-1.52l-.632-.372zM45.505 76.47c0-.42-.014-.42-.294-.42h-.435c-.856 0-1.222.097-1.558 1.212-.14.097-.294.048-.35-.081.154-.695.308-1.503.378-1.907.056-.066.197-.066.253 0 .014.323.21.307.772.307h3.899c.518 0 .617-.016.729-.307.099-.066.21-.033.252.048-.112.42-.168 1.277-.14 1.891-.056.13-.295.146-.35.016-.098-1.05-.464-1.18-1.305-1.18h-.477c-.266 0-.309 0-.309.42v4.43c0 1.115.057 1.212.66 1.293l.379.049c.098.08.084.356-.029.404a28.34 28.34 0 00-1.542-.048c-.45 0-.954.016-1.544.048-.111-.048-.126-.323-.028-.404l.38-.049c.603-.081.659-.178.659-1.293v-4.43zM57.07 77.278c0-1.115-.056-1.164-.589-1.293l-.196-.049c-.099-.064-.085-.339.028-.404.407.033.842.049 1.305.049h1.991c.617 0 1.178-.016 1.304-.049.014.194.085.954.155 1.649-.056.13-.28.145-.365.032-.084-.42-.168-.63-.253-.776-.224-.388-.855-.388-1.191-.388h-.618c-.49 0-.505.017-.505.518v1.794c0 .291 0 .324.267.324h.66c.743 0 .813-.13.924-.615l.071-.307c.07-.114.28-.097.351.032-.029.469-.029.76-.029 1.132 0 .404 0 .695.03 1.164-.072.129-.282.145-.352.032l-.07-.307c-.112-.485-.182-.614-.926-.614h-.66c-.266 0-.266.047-.266.371v1.164c0 .485.028.986.154 1.164.127.161.38.226 1.178.226.898 0 1.417-.048 1.824-1.341.098-.114.322-.081.365.064-.07.68-.267 1.488-.42 1.795a63.694 63.694 0 00-2.385-.048h-1.234c-.45 0-.884.016-1.558.048-.112-.048-.125-.323-.028-.404l.379-.049c.603-.081.66-.178.66-1.293v-3.621zM70.726 78.652c0 .404.014.404.702.404.91 0 1.389-.42 1.389-1.535 0-.81-.491-1.52-1.474-1.52-.519 0-.617.032-.617.452v2.199zm-1.066-1.18c0-1.051-.014-1.326-.336-1.374l-.393-.065c-.112-.016-.14-.356 0-.404a28.018 28.018 0 012.328-.097c1.305 0 2.722.242 2.722 1.94 0 1.034-.703 1.503-1.25 1.73-.055.064-.041.161 0 .242.702 1.357 1.32 2.15 1.782 2.586.253.243.52.324.744.34.056.064.056.21 0 .258-.127.049-.323.081-.59.081-.84 0-1.346-.307-1.963-1.212-.35-.518-.73-1.229-1.024-1.746-.113-.194-.337-.259-.56-.259-.366 0-.394.033-.394.259v1.147c0 1.116.056 1.197.66 1.294l.322.049c.098.08.084.355-.028.404a26.936 26.936 0 00-1.486-.049c-.45 0-.884.016-1.375.049-.14-.049-.155-.34-.028-.404l.21-.049c.603-.145.659-.178.659-1.294v-3.426zM83.653 80.657c0 1.034.14 1.551 1.206 1.551 1.683 0 2.511-1.212 2.511-3.184 0-1.988-1.207-3.023-2.791-3.023-.463 0-.73.065-.842.177-.084.066-.084.276-.084.631v3.848zm-1.066-3.185c0-1.05-.014-1.326-.337-1.374l-.42-.064c-.127-.049-.112-.357.013-.405a31.77 31.77 0 012.708-.096c.785 0 1.472.096 2.132.355 1.276.501 1.935 1.68 1.935 3.169 0 1.276-.575 2.456-1.697 3.119-.631.371-1.417.5-2.118.5-.631 0-1.263-.08-1.683-.08-.449 0-.884.016-1.431.048-.112-.048-.126-.322-.027-.404l.265-.048c.604-.113.66-.178.66-1.293v-3.427zM98.851 79.573c.364 0 .407-.032.253-.5l-.435-1.375c-.112-.372-.169-.501-.21-.582h-.029c-.042.065-.098.21-.224.55l-.505 1.439c-.154.436-.126.468.183.468h.967zm-1.108.518c-.322 0-.365.016-.477.387l-.322 1.035c-.155.518-.113.582.154.647l.379.08c.112.082.098.373-.043.405-.35-.032-.715-.049-1.108-.049-.392 0-.73.033-.981.049-.126-.065-.126-.323-.028-.404l.322-.081c.435-.113.59-.292.87-1.067l1.347-3.719c.238-.662.336-1.05.364-1.357.253-.113.519-.42.59-.614.111-.049.196-.016.224.08.056.162.28 1.003.602 1.989l1.263 3.863c.168.533.295.744.799.857l.225.049c.127.08.098.371-.042.404a12.194 12.194 0 00-1.164-.049c-.505 0-.912.016-1.263.049-.14-.049-.154-.34-.028-.404l.281-.049c.364-.064.35-.161.182-.663l-.337-1.05c-.112-.372-.154-.388-.476-.388h-1.333zM112.422 79.75c.099.21.449.939.505.987.057-.032.309-.549.575-1.132l.702-1.551c.673-1.487.743-1.763.968-2.522.308.032.589.048.813.048.337 0 .743-.016 1.15-.048.127.048.14.323.042.404l-.308.048c-.646.097-.674.404-.674 1.359 0 1.713 0 3.087.07 4.057.028.356.028.743.463.792l.407.049c.099.064.099.339-.014.403a24.163 24.163 0 00-1.402-.048c-.407 0-.842.016-1.235.048-.098-.08-.112-.339-.014-.404l.309-.048c.449-.065.449-.194.449-.841v-3.733c0-.194 0-.438-.042-.47-.042 0-.407.809-.604 1.23l-.856 1.859c-.111.241-.841 1.923-.995 2.44-.07.064-.183.064-.267 0-.153-.582-.588-1.616-.827-2.15l-.912-2.037c-.154-.355-.449-1.213-.561-1.261-.056.08-.07 1.164-.084 1.617a93.673 93.673 0 00-.028 2.117c0 .825.014 1.18.407 1.229l.463.049c.098.064.084.339-.014.403a13.462 13.462 0 00-1.15-.048c-.31 0-.73.016-1.165.048-.097-.064-.111-.323 0-.404l.295-.048c.463-.08.505-.242.574-.808.113-.874.197-3.476.197-4.575 0-.517-.154-.76-.631-.825l-.337-.048c-.084-.08-.098-.34.029-.404.378.032.7.048 1.08.048.28 0 .574 0 1.023-.048 0 .711.253 1.228.729 2.296l.87 1.923zM127.835 78.777c.142.128.175.328.152.536a.718.718 0 01-.156.39l-3.288.004a.724.724 0 01-.152-.537.71.71 0 01.156-.39l3.288-.003zM137.686 79.929c0 .582.028 1.406.294 1.762.267.372.687.453 1.108.453 1.249 0 2.203-.648 2.203-2.264 0-1.276-.561-2.763-2.791-2.763-.758 0-.814.096-.814.42v2.392zm0-3.75c0 .452.015.484.73.452 1.431-.064 2.201-.55 2.201-2.069 0-1.584-1.024-2.182-2.089-2.182-.309 0-.519.032-.646.097-.14.048-.196.13-.196.42v3.282zm-1.15-2.15c0-1.197-.056-1.504-.687-1.568l-.449-.049c-.113-.097-.098-.34.014-.404.757-.08 1.711-.13 3.015-.13.884 0 1.726.082 2.357.453.603.34 1.066.986 1.066 2.021 0 1.164-.589 1.762-1.431 2.215 0 .161.113.21.267.242.757.162 1.88.97 1.88 2.7 0 1.874-1.207 3.136-3.732 3.136-.407 0-1.094-.049-1.681-.049-.619 0-1.096.033-1.614.049-.085-.049-.113-.307-.029-.404l.252-.049c.744-.145.772-.324.772-2.02v-6.143zM152.435 79.573c.365 0 .407-.032.253-.5l-.436-1.375c-.111-.372-.168-.501-.211-.582h-.027c-.042.065-.098.21-.224.55l-.505 1.439c-.154.436-.126.468.182.468h.968zm-1.109.518c-.321 0-.364.016-.477.387l-.321 1.035c-.155.518-.113.582.154.647l.378.08c.113.082.099.373-.042.405-.35-.032-.715-.049-1.107-.049-.393 0-.73.033-.983.049-.126-.065-.126-.323-.028-.404l.323-.081c.435-.113.59-.292.869-1.067l1.347-3.719c.238-.662.336-1.05.364-1.357.253-.113.52-.42.59-.614.112-.049.196-.016.225.08.055.162.28 1.003.603 1.989l1.262 3.863c.168.533.295.744.8.857l.223.049c.127.08.097.371-.041.404a12.194 12.194 0 00-1.164-.049c-.506 0-.913.016-1.263.049-.14-.049-.154-.34-.028-.404l.281-.049c.364-.064.351-.161.182-.663l-.336-1.05c-.113-.372-.155-.388-.478-.388h-1.333zM164.296 78.652c0 .404.014.404.701.404.912 0 1.389-.42 1.389-1.535 0-.81-.492-1.52-1.474-1.52-.518 0-.616.032-.616.452v2.199zm-1.067-1.18c0-1.051-.013-1.326-.336-1.374l-.393-.065c-.112-.016-.14-.356 0-.404a28.03 28.03 0 012.329-.097c1.304 0 2.721.242 2.721 1.94 0 1.034-.702 1.503-1.249 1.73-.056.064-.042.161 0 .242.701 1.357 1.319 2.15 1.781 2.586.253.243.52.324.744.34.056.064.056.21 0 .258-.127.049-.323.081-.589.081-.842 0-1.346-.307-1.964-1.212-.35-.518-.728-1.229-1.023-1.746-.113-.194-.338-.259-.561-.259-.365 0-.393.033-.393.259v1.147c0 1.116.056 1.197.659 1.294l.322.049c.098.08.084.355-.027.404a26.934 26.934 0 00-1.487-.049c-.449 0-.884.016-1.375.049-.14-.049-.154-.34-.028-.404l.21-.049c.603-.145.659-.178.659-1.294v-3.426zM181.08 75.661c0 .34.041 1.131.125 1.779-.056.129-.266.161-.364.032-.21-.889-.687-1.65-1.949-1.65-1.207 0-2.399.938-2.399 3.137 0 2.166 1.206 3.395 2.524 3.395 1.319 0 1.866-1.213 2.02-1.633.07-.145.295-.145.366.016-.071.712-.296 1.455-.464 1.746-.406.08-.926.34-1.894.34-.883 0-1.753-.178-2.469-.744-.756-.598-1.332-1.585-1.332-2.878 0-1.309.477-2.278 1.179-2.91.687-.614 1.655-.937 2.735-.937.911 0 1.809.307 1.922.307zM189.517 77.278c0-1.115-.056-1.164-.589-1.293l-.197-.049c-.097-.064-.084-.339.028-.404.406.033.842.049 1.304.049h1.993c.617 0 1.178-.016 1.304-.049.013.194.083.954.154 1.649-.056.13-.28.145-.364.032-.085-.42-.169-.63-.253-.776-.224-.388-.855-.388-1.193-.388h-.616c-.492 0-.505.017-.505.518v1.794c0 .291 0 .324.266.324h.66c.743 0 .813-.13.926-.615l.069-.307c.07-.114.281-.097.352.032-.029.469-.029.76-.029 1.132 0 .404 0 .695.029 1.164-.071.129-.282.145-.352.032l-.069-.307c-.113-.485-.183-.614-.926-.614h-.66c-.266 0-.266.047-.266.371v1.164c0 .485.028.986.154 1.164.126.161.379.226 1.178.226.898 0 1.417-.048 1.824-1.341.098-.114.322-.081.365.064-.071.68-.267 1.488-.422 1.795a63.61 63.61 0 00-2.384-.048h-1.235c-.448 0-.883.016-1.557.048-.111-.048-.126-.323-.027-.404l.378-.049c.604-.081.66-.178.66-1.293v-3.621zM202.107 77.278c0-1.115-.056-1.18-.66-1.293l-.266-.049c-.098-.08-.085-.355.028-.404.546.033.982.049 1.429.049.45 0 .886-.016 1.348-.049.113.049.125.324.028.404l-.182.049c-.589.162-.659.178-.659 1.293v3.475c0 .501.028.954.154 1.115.126.146.351.259 1.08.259.856 0 1.375-.048 1.782-1.341.098-.114.321-.081.364.064-.071.68-.266 1.488-.421 1.795a63.342 63.342 0 00-2.342-.048h-1.152c-.447 0-.883.016-1.429.048-.113-.048-.126-.323-.028-.404l.266-.049c.604-.113.66-.178.66-1.293v-3.621zM214.557 78.894c0 1.666.659 3.46 2.286 3.46 1.066 0 2.09-.84 2.09-3.056 0-1.729-.716-3.475-2.259-3.475-1.009 0-2.117.793-2.117 3.071zm5.624.162c0 2.182-1.43 3.766-3.408 3.766-2.174 0-3.465-1.632-3.465-3.67 0-2.149 1.431-3.798 3.465-3.798 2.257 0 3.408 1.73 3.408 3.702zM233.317 78.07c0-1.616-.083-2.037-.602-2.086l-.449-.048c-.098-.097-.084-.324.028-.404a14.729 14.729 0 002.412 0c.113.08.113.323.014.404l-.421.048c-.364.049-.477.486-.477 2.086v2.715c0 .324 0 1.633.043 1.876a.263.263 0 01-.294.145c-.155-.226-.436-.566-1.305-1.648l-2.132-2.62c-.534-.646-.898-1.066-1.08-1.244-.056 0-.056.178-.056.679v2.134c0 1.616.084 2.036.602 2.085l.449.048c.113.097.085.324-.028.404a18.535 18.535 0 00-1.247-.048c-.407 0-.674.016-1.164.048-.113-.064-.113-.323-.015-.404l.421-.048c.364-.049.477-.485.477-2.085v-2.894c0-.534-.014-.76-.295-1.002-.111-.097-.379-.194-.518-.227l-.211-.048c-.098-.097-.098-.34.028-.404.533.048.911.048 1.206.048.197 0 .392-.016.561-.048.28.614.8 1.309 1.375 1.988l1.319 1.568c.308.356 1.122 1.374 1.276 1.504.083-.032.083-.26.083-.647V78.07zM244.84 79.573c.365 0 .407-.032.253-.5l-.435-1.375c-.111-.372-.168-.501-.212-.582h-.027c-.042.065-.098.21-.223.55l-.505 1.439c-.155.436-.127.468.181.468h.968zm-1.108.518c-.322 0-.364.016-.477.387l-.321 1.035c-.155.518-.113.582.153.647l.379.08c.112.082.098.373-.042.405a12.035 12.035 0 00-1.108-.049c-.393 0-.729.033-.982.049-.126-.065-.126-.323-.028-.404l.323-.081c.435-.113.589-.292.869-1.067l1.347-3.719c.238-.662.336-1.05.364-1.357.253-.113.519-.42.589-.614.113-.049.197-.016.226.08.055.162.279 1.003.602 1.989l1.262 3.863c.169.533.295.744.8.857l.224.049c.127.08.097.371-.041.404a12.224 12.224 0 00-1.164-.049c-.506 0-.913.016-1.263.049-.141-.049-.155-.34-.028-.404l.28-.049c.364-.064.351-.161.183-.663l-.337-1.05c-.112-.372-.154-.388-.478-.388h-1.332z" fill="#000"/></svg>