<svg width="27" height="27" viewBox="0 0 27 27" fill="none" xmlns="http://www.w3.org/2000/svg">
<g clip-path="url(#clip0)">
<path fill-rule="evenodd" clip-rule="evenodd" d="M23.2841 24.0671C23.2841 29.5194 19.337 24.494 14.3505 24.494C9.37066 24.494 5.23291 29.5211 5.23291 24.0671C5.23291 21.5206 7.31191 18.8409 8.75978 16.5526C10.4102 13.9421 11.6032 11.885 14.2593 11.885C16.9256 11.885 18.2486 14.0686 19.904 16.6978C21.3367 18.9776 23.2841 21.5324 23.2841 24.0671V24.0671Z" fill="black"/>
<path d="M9.97312 9.72338C11.7532 9.72338 13.1962 7.54672 13.1962 4.86169C13.1962 2.17665 11.7532 0 9.97312 0C8.19304 0 6.75 2.17665 6.75 4.86169C6.75 7.54672 8.19304 9.72338 9.97312 9.72338Z" fill="black"/>
<path d="M18.4545 9.87525C20.2588 9.87525 21.7215 7.6646 21.7215 4.93763C21.7215 2.21065 20.2588 0 18.4545 0C16.6502 0 15.1875 2.21065 15.1875 4.93763C15.1875 7.6646 16.6502 9.87525 18.4545 9.87525Z" fill="black"/>
<path d="M3.89041 16.5176C5.61772 16.1972 6.68228 14.1278 6.26816 11.8956C5.85404 9.6634 4.11806 8.11361 2.39075 8.43406C0.663445 8.75451 -0.401106 10.8239 0.0130136 13.0561C0.427133 15.2883 2.16311 16.8381 3.89041 16.5176Z" fill="black"/>
<path fill-rule="evenodd" clip-rule="evenodd" d="M20.4437 12.3272C19.8615 14.5648 20.7829 16.5527 22.4923 16.7602C24.2035 16.9728 26.0631 15.3275 26.6486 13.0899C27.2308 10.8489 26.3111 8.86103 24.6 8.65178C22.8855 8.43915 21.0259 10.0862 20.4437 12.3272V12.3272Z" fill="black"/>
</g>
<defs>
<clipPath id="clip0">
<rect width="27" height="27" fill="white"/>
</clipPath>
</defs>
</svg>
