<svg width="33" height="31" viewBox="0 0 33 31" fill="none" xmlns="http://www.w3.org/2000/svg">
<g clip-path="url(#clip0)">
<path fill-rule="evenodd" clip-rule="evenodd" d="M6.44625 26.3694C6.44625 26.3694 6.56661 28.8184 7.70608 29.9576C9.03384 31.2809 11.1633 31.3022 12.4658 30.0041C14.3177 28.1557 14.5701 25.6002 14.3488 23.4806L25.5416 12.3109C27.6517 12.5221 30.2082 12.2586 32.0931 10.3772C33.3781 9.09462 33.349 6.98275 32.0271 5.66137C30.8837 4.52212 28.5601 4.54344 28.5601 4.54344C28.5601 4.54344 28.4864 2.12931 27.3352 0.980375C26.0036 -0.352625 23.8625 -0.381688 22.5658 0.916437C20.6828 2.79581 20.4596 5.41531 20.7061 7.56012L9.58708 18.6601C7.46925 18.4489 4.89719 18.7104 2.99678 20.6053C1.70784 21.8899 1.73308 23.9959 3.04531 25.3076C4.18478 26.4391 6.44625 26.3694 6.44625 26.3694V26.3694Z" fill="black"/>
</g>
<defs>
<clipPath id="clip0">
<rect width="33" height="31" fill="white"/>
</clipPath>
</defs>
</svg>
