<svg width="40" height="40" viewBox="0 0 40 40" fill="none" xmlns="http://www.w3.org/2000/svg">
<path d="M26.2495 12.4998C27.5125 12.4998 28.7299 12.6625 29.9018 12.988C31.0737 13.3136 32.1674 13.7758 33.183 14.3747C34.1986 14.9737 35.1296 15.6898 35.9759 16.5231C36.8222 17.3565 37.5384 18.2809 38.1243 19.2965C38.7102 20.3121 39.1725 21.4124 39.511 22.5972C39.8495 23.7821 40.0123 24.9995 39.9993 26.2495C39.9993 27.5125 39.8365 28.7299 39.511 29.9018C39.1855 31.0737 38.7233 32.1674 38.1243 33.183C37.5254 34.1986 36.8092 35.1296 35.9759 35.9759C35.1426 36.8222 34.2181 37.5384 33.2025 38.1243C32.1869 38.7102 31.0867 39.1725 29.9018 39.511C28.7169 39.8495 27.4995 40.0123 26.2495 39.9993C24.9865 39.9993 23.7691 39.8365 22.5972 39.511C21.4254 39.1855 20.3317 38.7233 19.3161 38.1243C18.3004 37.5254 17.3695 36.8092 16.5231 35.9759C15.6768 35.1426 14.9607 34.2181 14.3747 33.2025C13.7888 32.1869 13.3266 31.0867 12.988 29.9018C12.6495 28.7169 12.4868 27.4995 12.4998 26.2495C12.4998 25.8329 12.5193 25.4162 12.5584 24.9995C10.8266 24.9995 9.19905 24.674 7.67564 24.023C6.15223 23.372 4.82413 22.4866 3.69134 21.3668C2.55855 20.247 1.66013 18.9254 0.996076 17.402C0.332025 15.8786 0 14.2445 0 12.4998C0 11.354 0.149737 10.2472 0.449211 9.17952C0.748684 8.11183 1.16534 7.11576 1.69919 6.19129C2.23303 5.26683 2.88406 4.427 3.65228 3.67181C4.42049 2.91661 5.26683 2.26558 6.19129 1.71872C7.11576 1.17185 8.11183 0.748684 9.17952 0.449211C10.2472 0.149737 11.354 0 12.4998 0C13.6586 0 14.7719 0.149737 15.8396 0.449211C16.9072 0.748684 17.9033 1.17185 18.8278 1.71872C19.7522 2.26558 20.5921 2.91661 21.3473 3.67181C22.1025 4.427 22.7535 5.27334 23.3004 6.21082C23.8472 7.14831 24.2639 8.15089 24.5503 9.21858C24.8368 10.2863 24.9865 11.3995 24.9995 12.5584C25.4032 12.5193 25.8198 12.4998 26.2495 12.4998ZM12.4998 22.4996C12.5909 22.4996 12.6821 22.4931 12.7732 22.4801C12.8643 22.467 12.9555 22.454 13.0466 22.441C13.281 21.6207 13.587 20.8395 13.9646 20.0973C14.3422 19.3551 14.7914 18.639 15.3122 17.9489C14.8565 17.8057 14.3943 17.695 13.9255 17.6169C13.4568 17.5387 12.9815 17.4997 12.4998 17.4997C11.7055 17.4997 10.9308 17.5973 10.1756 17.7926C9.4204 17.988 8.68474 18.2679 7.96861 18.6325L6.83581 16.406C7.72121 15.9633 8.63917 15.6182 9.58967 15.3708C10.5402 15.1234 11.5102 14.9997 12.4998 14.9997C13.3071 14.9997 14.0948 15.0844 14.863 15.2536C15.6312 15.4229 16.3929 15.6573 17.1481 15.9567C17.9163 15.2797 18.7432 14.6937 19.6286 14.199C20.514 13.7042 21.4514 13.3201 22.441 13.0466L22.4801 12.7732C22.4931 12.6821 22.4996 12.5909 22.4996 12.4998C22.4996 11.1196 22.2392 9.82404 21.7184 8.61312C21.1975 7.40221 20.4814 6.34754 19.57 5.44912C18.6585 4.5507 17.5973 3.83457 16.3864 3.30072C15.1755 2.76688 13.88 2.49995 12.4998 2.49995C11.1196 2.49995 9.82404 2.76037 8.61312 3.28119C7.40221 3.80201 6.34754 4.51815 5.44912 5.42959C4.5507 6.34103 3.83457 7.40221 3.30072 8.61312C2.76688 9.82404 2.49995 11.1196 2.49995 12.4998C2.49995 13.88 2.76037 15.1755 3.28119 16.3864C3.80201 17.5973 4.51815 18.652 5.42959 19.5504C6.34103 20.4488 7.40221 21.165 8.61312 21.6988C9.82404 22.2327 11.1196 22.4996 12.4998 22.4996ZM26.2495 37.4993C27.799 37.4993 29.2573 37.2064 30.6244 36.6204C31.9916 36.0345 33.183 35.2272 34.1986 34.1986C35.2142 33.17 36.015 31.9786 36.6009 30.6244C37.1868 29.2703 37.4863 27.812 37.4993 26.2495C37.4993 24.7001 37.2064 23.2418 36.6204 21.8746C36.0345 20.5074 35.2272 19.3161 34.1986 18.3004C33.17 17.2848 31.9786 16.4841 30.6244 15.8981C29.2703 15.3122 27.812 15.0127 26.2495 14.9997C24.7001 14.9997 23.2418 15.2927 21.8746 15.8786C20.5074 16.4645 19.3161 17.2718 18.3004 18.3004C17.2848 19.3291 16.4841 20.5205 15.8981 21.8746C15.3122 23.2287 15.0127 24.6871 14.9997 26.2495C14.9997 27.799 15.2927 29.2573 15.8786 30.6244C16.4645 31.9916 17.2718 33.183 18.3004 34.1986C19.3291 35.2142 20.5205 36.015 21.8746 36.6009C23.2287 37.1868 24.6871 37.4863 26.2495 37.4993ZM31.2494 25.6245C30.7286 25.6245 30.2859 25.4422 29.9213 25.0777C29.5568 24.7131 29.3745 24.2704 29.3745 23.7496C29.3745 23.2287 29.5568 22.786 29.9213 22.4215C30.2859 22.0569 30.7286 21.8746 31.2494 21.8746C31.7703 21.8746 32.213 22.0569 32.5775 22.4215C32.9421 22.786 33.1244 23.2287 33.1244 23.7496C33.1244 24.2704 32.9421 24.7131 32.5775 25.0777C32.213 25.4422 31.7703 25.6245 31.2494 25.6245ZM21.2496 25.6245C20.7288 25.6245 20.2861 25.4422 19.9215 25.0777C19.5569 24.7131 19.3746 24.2704 19.3746 23.7496C19.3746 23.2287 19.5569 22.786 19.9215 22.4215C20.2861 22.0569 20.7288 21.8746 21.2496 21.8746C21.7704 21.8746 22.2131 22.0569 22.5777 22.4215C22.9423 22.786 23.1246 23.2287 23.1246 23.7496C23.1246 24.2704 22.9423 24.7131 22.5777 25.0777C22.2131 25.4422 21.7704 25.6245 21.2496 25.6245ZM26.2495 32.4994C26.8094 32.4994 27.3563 32.4278 27.8901 32.2846C28.424 32.1413 28.9253 31.9265 29.394 31.6401C29.8627 31.3536 30.2924 31.0151 30.683 30.6244C31.0737 30.2338 31.4057 29.7911 31.6791 29.2963L33.847 30.5268C33.4564 31.2169 32.9877 31.8354 32.4408 32.3822C31.894 32.9291 31.295 33.3978 30.644 33.7885C29.9929 34.1791 29.2963 34.4785 28.5542 34.6869C27.812 34.8952 27.0438 34.9994 26.2495 34.9994C25.4553 34.9994 24.6871 34.8952 23.9449 34.6869C23.2027 34.4785 22.5061 34.1856 21.8551 33.808C21.204 33.4304 20.6051 32.9616 20.0582 32.4018C19.5114 31.8419 19.0426 31.2169 18.652 30.5268L20.8199 29.2963C21.0934 29.7911 21.4254 30.2338 21.816 30.6244C22.2066 31.0151 22.6363 31.3471 23.105 31.6205C23.5738 31.894 24.0686 32.1088 24.5894 32.265C25.1102 32.4213 25.6636 32.4994 26.2495 32.4994ZM8.74984 10.3123C8.32016 10.3123 7.95558 10.1626 7.65611 9.8631C7.35664 9.56363 7.20039 9.19254 7.18737 8.74984C7.18737 8.32016 7.33711 7.95558 7.63658 7.65611C7.93605 7.35664 8.30714 7.20039 8.74984 7.18737C9.17952 7.18737 9.5441 7.33711 9.84357 7.63658C10.143 7.93605 10.2993 8.30714 10.3123 8.74984C10.3123 9.17952 10.1626 9.5441 9.8631 9.84357C9.56363 10.143 9.19254 10.2993 8.74984 10.3123ZM16.2497 10.3123C15.82 10.3123 15.4554 10.1626 15.156 9.8631C14.8565 9.56363 14.7003 9.19254 14.6872 8.74984C14.6872 8.32016 14.837 7.95558 15.1364 7.65611C15.4359 7.35664 15.807 7.20039 16.2497 7.18737C16.6794 7.18737 17.044 7.33711 17.3434 7.63658C17.6429 7.93605 17.7992 8.30714 17.8122 8.74984C17.8122 9.17952 17.6624 9.5441 17.363 9.84357C17.0635 10.143 16.6924 10.2993 16.2497 10.3123Z" fill="black"/>
</svg>
