<svg width="33" height="33" viewBox="0 0 33 33" fill="none" xmlns="http://www.w3.org/2000/svg">
<circle cx="16.5" cy="16.5" r="15.5" stroke="black" stroke-width="2"/>
<path d="M17.461 13.129V24.7785H15.414V13.129H17.461ZM17.921 9.472C17.921 9.67133 17.8788 9.85917 17.7945 10.0355C17.7178 10.2042 17.6105 10.3575 17.4725 10.4955C17.3422 10.6258 17.1888 10.7293 17.0125 10.806C16.8362 10.8827 16.6483 10.921 16.449 10.921C16.2497 10.921 16.0618 10.8827 15.8855 10.806C15.7168 10.7293 15.5635 10.6258 15.4255 10.4955C15.2952 10.3575 15.1917 10.2042 15.115 10.0355C15.0383 9.85917 15 9.67133 15 9.472C15 9.27267 15.0383 9.08483 15.115 8.9085C15.1917 8.7245 15.2952 8.56733 15.4255 8.437C15.5635 8.299 15.7168 8.19167 15.8855 8.115C16.0618 8.03833 16.2497 8 16.449 8C16.6483 8 16.8362 8.03833 17.0125 8.115C17.1888 8.19167 17.3422 8.299 17.4725 8.437C17.6105 8.56733 17.7178 8.7245 17.7945 8.9085C17.8788 9.08483 17.921 9.27267 17.921 9.472Z" fill="black"/>
</svg>
