<svg width="29" height="31" viewBox="0 0 29 31" fill="none" xmlns="http://www.w3.org/2000/svg">
<path d="M24.3613 11.1665C25.0596 11.521 25.688 11.9614 26.2466 12.4878C26.8159 13.0034 27.2993 13.5835 27.6968 14.228C28.0942 14.8618 28.4004 15.5493 28.6152 16.2905C28.8301 17.021 28.9375 17.7783 28.9375 18.5625H26.875C26.875 17.7139 26.7085 16.9136 26.3755 16.1616C26.0532 15.4097 25.6128 14.7544 25.0542 14.1958C24.4956 13.6372 23.8403 13.1968 23.0884 12.8745C22.3364 12.5415 21.5361 12.375 20.6875 12.375C19.8389 12.375 19.0386 12.5415 18.2866 12.8745C17.5347 13.1968 16.8794 13.6372 16.3208 14.1958C15.7622 14.7544 15.3164 15.4097 14.9834 16.1616C14.6611 16.9136 14.5 17.7139 14.5 18.5625C14.5 19.54 14.2744 20.4692 13.8232 21.3501C13.3828 22.231 12.7705 22.9614 11.9863 23.5415C12.6846 23.896 13.313 24.3364 13.8716 24.8628C14.4409 25.3784 14.9243 25.9585 15.3218 26.603C15.7192 27.2368 16.0254 27.9243 16.2402 28.6655C16.4551 29.396 16.5625 30.1533 16.5625 30.9375H14.5C14.5 30.0889 14.3335 29.2886 14.0005 28.5366C13.6782 27.7847 13.2378 27.1294 12.6792 26.5708C12.1206 26.0122 11.4653 25.5718 10.7134 25.2495C9.96143 24.9165 9.16113 24.75 8.3125 24.75C7.46387 24.75 6.66357 24.9165 5.91162 25.2495C5.15967 25.5718 4.50439 26.0122 3.9458 26.5708C3.38721 27.1294 2.94141 27.7847 2.6084 28.5366C2.28613 29.2886 2.125 30.0889 2.125 30.9375H0.0625C0.0625 30.1533 0.169922 29.396 0.384766 28.6655C0.599609 27.9243 0.905762 27.2368 1.30322 26.603C1.70068 25.9585 2.17871 25.3784 2.7373 24.8628C3.30664 24.3364 3.94043 23.896 4.63867 23.5415C3.85449 22.9614 3.23682 22.231 2.78564 21.3501C2.34521 20.4692 2.125 19.54 2.125 18.5625C2.125 17.7139 2.28613 16.9136 2.6084 16.1616C2.94141 15.4097 3.38721 14.7544 3.9458 14.1958C4.50439 13.6372 5.15967 13.1968 5.91162 12.8745C6.66357 12.5415 7.46387 12.375 8.3125 12.375C9.29004 12.375 10.2192 12.6006 11.1001 13.0518C11.981 13.4922 12.7114 14.1045 13.2915 14.8887C13.6997 14.083 14.2207 13.3633 14.8545 12.7295C15.4883 12.0957 16.208 11.5747 17.0137 11.1665C16.2295 10.5864 15.6118 9.85596 15.1606 8.9751C14.7202 8.09424 14.5 7.16504 14.5 6.1875C14.5 5.33887 14.6611 4.53857 14.9834 3.78662C15.3164 3.03467 15.7622 2.37939 16.3208 1.8208C16.8794 1.26221 17.5347 0.821777 18.2866 0.499512C19.0386 0.166504 19.8389 0 20.6875 0C21.5361 0 22.3364 0.166504 23.0884 0.499512C23.8403 0.821777 24.4956 1.26221 25.0542 1.8208C25.6128 2.37939 26.0532 3.03467 26.3755 3.78662C26.7085 4.53857 26.875 5.33887 26.875 6.1875C26.875 7.16504 26.6494 8.09424 26.1982 8.9751C25.7578 9.85596 25.1455 10.5864 24.3613 11.1665ZM8.3125 22.6875C8.87109 22.6875 9.40283 22.5801 9.90771 22.3652C10.4126 22.1396 10.8477 21.8442 11.2129 21.479C11.5889 21.103 11.8843 20.668 12.0991 20.1738C12.3247 19.6689 12.4375 19.1318 12.4375 18.5625C12.4375 18.0039 12.3247 17.4722 12.0991 16.9673C11.8843 16.4624 11.5889 16.0273 11.2129 15.6621C10.8477 15.2861 10.4126 14.9907 9.90771 14.7759C9.40283 14.5503 8.87109 14.4375 8.3125 14.4375C7.74316 14.4375 7.20605 14.5503 6.70117 14.7759C6.20703 14.9907 5.77197 15.2861 5.396 15.6621C5.03076 16.0273 4.73535 16.4624 4.50977 16.9673C4.29492 17.4722 4.1875 18.0039 4.1875 18.5625C4.1875 19.1318 4.29492 19.6689 4.50977 20.1738C4.73535 20.668 5.03076 21.103 5.396 21.479C5.77197 21.8442 6.20703 22.1396 6.70117 22.3652C7.20605 22.5801 7.74316 22.6875 8.3125 22.6875ZM16.5625 6.1875C16.5625 6.75684 16.6699 7.29395 16.8848 7.79883C17.1104 8.29297 17.4058 8.72803 17.771 9.104C18.147 9.46924 18.582 9.76465 19.0762 9.99023C19.5811 10.2051 20.1182 10.3125 20.6875 10.3125C21.2461 10.3125 21.7778 10.2051 22.2827 9.99023C22.7876 9.76465 23.2227 9.46924 23.5879 9.104C23.9639 8.72803 24.2593 8.29297 24.4741 7.79883C24.6997 7.29395 24.8125 6.75684 24.8125 6.1875C24.8125 5.62891 24.6997 5.09717 24.4741 4.59229C24.2593 4.0874 23.9639 3.65234 23.5879 3.28711C23.2227 2.91113 22.7876 2.61572 22.2827 2.40088C21.7778 2.17529 21.2461 2.0625 20.6875 2.0625C20.1182 2.0625 19.5811 2.17529 19.0762 2.40088C18.582 2.61572 18.147 2.91113 17.771 3.28711C17.4058 3.65234 17.1104 4.0874 16.8848 4.59229C16.6699 5.09717 16.5625 5.62891 16.5625 6.1875Z" fill="black"/>
</svg>
