<svg width="31" height="33" viewBox="0 0 31 33" fill="none" xmlns="http://www.w3.org/2000/svg">
<path d="M7.10417 0C5.22034 0.00104922 3.41396 0.766277 2.0819 2.12756C0.749829 3.48885 0.0010267 5.33485 0 7.26C0 11.2662 3.18396 14.52 7.10417 14.52C8.15429 14.52 9.14242 14.252 10.0505 13.8191L16.7917 22.8941V30.36H11.625V33H24.5417V30.36H19.375V22.8941L30.7585 7.54908L31 7.17816V5.28H13.8854C13.104 2.2176 10.3127 0 7.10417 0ZM7.10417 2.64C8.89958 2.64 10.4496 3.7488 11.1406 5.28H5.16667V7.17816L5.4095 7.54776L8.43587 11.6332C8.00869 11.7913 7.55849 11.8748 7.10417 11.88C6.50856 11.8871 5.91758 11.7724 5.36596 11.5427C4.81434 11.3131 4.3132 10.973 3.89202 10.5426C3.47083 10.1122 3.13809 9.60006 2.91335 9.03634C2.68861 8.47262 2.57641 7.86867 2.58333 7.26C2.57641 6.65133 2.68861 6.04738 2.91335 5.48366C3.13809 4.91994 3.47083 4.40782 3.89202 3.97739C4.3132 3.54697 4.81434 3.20693 5.36596 2.97726C5.91758 2.74759 6.50856 2.63292 7.10417 2.64V2.64ZM8.96158 7.92H27.2051L25.2676 10.56H13.5625L15.5 13.2H23.29L18.0833 20.2541L8.96158 7.92Z" fill="black"/>
</svg>
