<svg width="33" height="33" viewBox="0 0 33 33" fill="none" xmlns="http://www.w3.org/2000/svg">
<path d="M16.5 8.25L16.5 17.0962L22.3813 22.9937L20.9312 24.4438L14.4375 17.9663V8.25H16.5ZM31.7109 10.0708C32.5703 12.1333 33 14.2764 33 16.5C33 18.7236 32.5703 20.8667 31.7109 22.9292C30.873 24.895 29.6914 26.6406 28.166 28.166C26.6406 29.6914 24.895 30.873 22.9292 31.7109C20.8667 32.5703 18.7236 33 16.5 33C14.6309 33 12.8262 32.6938 11.0859 32.0815C9.38867 31.4907 7.83643 30.6528 6.4292 29.5679C5.03271 28.4829 3.83496 27.2046 2.83594 25.7329C2.33105 24.9917 1.89063 24.2183 1.51465 23.4126C1.14941 22.6069 0.848633 21.769 0.612305 20.8989L2.59424 20.3511C3.02393 21.9087 3.68457 23.3374 4.57617 24.6372C5.47852 25.937 6.54199 27.0542 7.7666 27.9888C8.99121 28.9233 10.3501 29.6484 11.8433 30.1641C13.3364 30.6797 14.8887 30.9375 16.5 30.9375C17.8213 30.9375 19.0942 30.7656 20.3188 30.4219C21.5542 30.0781 22.7036 29.5947 23.7671 28.9717C24.8413 28.3379 25.8188 27.5806 26.6997 26.6997C27.5806 25.8188 28.3325 24.8467 28.9556 23.7832C29.5894 22.709 30.0781 21.5596 30.4219 20.335C30.7656 19.1104 30.9375 17.832 30.9375 16.5C30.9375 15.1787 30.7656 13.9058 30.4219 12.6812C30.0781 11.4458 29.5894 10.2964 28.9556 9.23291C28.3325 8.15869 27.5806 7.18115 26.6997 6.30029C25.8188 5.41943 24.8413 4.66748 23.7671 4.04443C22.7036 3.41064 21.5542 2.92187 20.3188 2.57812C19.0942 2.23437 17.8213 2.0625 16.5 2.0625C15.1035 2.0625 13.75 2.26123 12.4395 2.65869C11.1289 3.04541 9.9043 3.59863 8.76562 4.31836C7.6377 5.03809 6.61719 5.9082 5.7041 6.92871C4.80176 7.93848 4.05518 9.06641 3.46436 10.3125L8.25 10.3125V12.375L0 12.375L0 4.125H2.0625L2.0625 8.54004C2.24512 8.19629 2.44385 7.86328 2.65869 7.54102C2.87354 7.20801 3.09912 6.88574 3.33545 6.57422C4.34521 5.23145 5.52686 4.07129 6.88037 3.09375C8.29834 2.08398 9.81836 1.31592 11.4404 0.789551C13.0625 0.263184 14.749 0 16.5 0C18.7236 0 20.8667 0.429687 22.9292 1.28906C24.895 2.12695 26.6406 3.30859 28.166 4.83398C29.6914 6.35937 30.873 8.10498 31.7109 10.0708Z" fill="black"/>
</svg>
