<svg width="41" height="38" viewBox="0 0 41 38" fill="none" xmlns="http://www.w3.org/2000/svg">
<g clip-path="url(#clip0)">
<path fill-rule="evenodd" clip-rule="evenodd" d="M21.7009 31.521C17.7601 31.521 17.2681 30.5354 17.2078 30.3406C16.9618 29.5046 18.4475 27.721 19.6099 26.7496L19.5448 26.6523C24.7301 25.0681 28.7264 15.8864 28.7264 10.5664C28.7283 7.7663 27.6008 5.08012 25.5918 3.09861C23.5828 1.1171 20.8568 0.00251855 18.0134 0C15.1699 0.00251855 12.444 1.1171 10.4349 3.09861C8.42591 5.08012 7.29838 7.7663 7.3003 10.5664C7.3003 16.1476 11.6849 25.9706 17.2392 26.8328C16.2914 27.93 15.3411 29.4595 15.7656 30.875C16.2407 32.4758 18.1291 33.2215 21.7058 33.2215C22.0024 33.2215 22.1399 33.5706 21.8698 33.9459C21.0691 35.0313 18.9346 36.2995 15.5509 36.2995V38C20.7869 38 23.6882 35.2236 23.6882 33.3046C23.6945 33.0474 23.6426 32.7921 23.5362 32.5571C23.4298 32.3222 23.2717 32.1134 23.0732 31.9461C22.68 31.6514 22.1947 31.5011 21.7009 31.521V31.521ZM11.1977 11.039C11.1977 12.673 9.7603 11.9795 9.7603 9.6045C9.7603 5.5955 12.9728 2.34175 16.9425 2.34175C19.3012 2.34175 20.0031 3.79762 18.3775 3.79762C14.415 3.8 11.1977 7.02762 11.1977 11.039V11.039Z" fill="black"/>
</g>
<defs>
<clipPath id="clip0">
<rect width="41" height="38" fill="white"/>
</clipPath>
</defs>
</svg>
