<svg width="32" height="34" viewBox="0 0 32 34" fill="none" xmlns="http://www.w3.org/2000/svg">
<path d="M18.8065 26.8815C18.0528 28.3047 16.9907 29.4349 15.6189 30.2722C14.2475 31.1088 12.7503 31.5278 11.1275 31.5278C8.74476 31.5278 6.70672 30.6814 5.01309 28.9875C3.31959 27.2942 2.47278 25.2558 2.47278 22.8731C2.47278 21.1603 2.94271 19.5862 3.88297 18.1497C4.82309 16.7137 6.07886 15.6479 7.64995 14.9525L7.32158 12.4218C5.13211 13.2204 3.36466 14.579 2.01869 16.498C0.672851 18.417 0 20.5422 0 22.8731C0 24.8828 0.49909 26.7403 1.49713 28.4466C2.49518 30.153 3.84744 31.5053 5.55386 32.5033C7.26007 33.5012 9.11826 34.0001 11.1272 34.0001C13.5356 34.0001 15.7187 33.2854 17.6761 31.8559C19.6337 30.4267 20.986 28.5589 21.733 26.2536L19.7627 22.3127C19.8786 23.9357 19.56 25.4584 18.8065 26.8815Z" fill="black"/>
<path d="M30.3494 24.2445L26.5244 26.1571L22.1198 17.3673C21.9008 16.9167 21.5335 16.6912 21.0185 16.6912H12.2285L11.9194 14.2186H19.7823V11.7457H11.6106L10.8957 6.16256C11.7717 6.25263 12.5444 5.98542 13.2141 5.36088C13.8838 4.73628 14.2187 3.97966 14.2187 3.09096C14.2187 2.24096 13.9161 1.51324 13.3107 0.907848C12.7052 0.302526 11.9774 0 11.1276 0C10.4322 0 9.80738 0.202721 9.25368 0.608434C8.69979 1.01415 8.33278 1.54517 8.15252 2.20199C8.04933 2.53706 8.0107 2.80738 8.03661 3.01348L9.89101 18.0626C9.92972 18.3722 10.068 18.6325 10.3062 18.8455C10.5444 19.0576 10.8181 19.1641 11.1273 19.1641H20.2456L24.8633 28.3792C25.0823 28.8295 25.4491 29.0553 25.9648 29.0553C26.1708 29.0553 26.3572 29.0103 26.5249 28.9201L31.4695 26.447L30.3494 24.2445Z" fill="black"/>
</svg>
