<svg width="35" height="29" viewBox="0 0 35 29" fill="none" xmlns="http://www.w3.org/2000/svg">
<path d="M35 2.375V28.625H0V2.375H9.38232L11.5698 0.1875H23.4302L25.6177 2.375H35ZM32.8125 4.5625H24.6948L22.5073 2.375H12.4927L10.3052 4.5625H2.1875V26.4375H32.8125V4.5625ZM17.5 6.75C18.7077 6.75 19.8413 6.97786 20.9009 7.43359C21.9718 7.88932 22.9004 8.51595 23.6865 9.31348C24.484 10.0996 25.1107 11.0282 25.5664 12.0991C26.0221 13.1587 26.25 14.2923 26.25 15.5C26.25 16.7077 26.0221 17.847 25.5664 18.918C25.1107 19.9775 24.484 20.9061 23.6865 21.7036C22.9004 22.4897 21.9718 23.1107 20.9009 23.5664C19.8413 24.0221 18.7077 24.25 17.5 24.25C16.2923 24.25 15.153 24.0221 14.082 23.5664C13.0225 23.1107 12.0939 22.4897 11.2964 21.7036C10.5103 20.9061 9.88932 19.9775 9.43359 18.918C8.97786 17.847 8.75 16.7077 8.75 15.5C8.75 14.2923 8.97786 13.1587 9.43359 12.0991C9.88932 11.0282 10.5103 10.0996 11.2964 9.31348C12.0939 8.51595 13.0225 7.88932 14.082 7.43359C15.153 6.97786 16.2923 6.75 17.5 6.75ZM17.5 22.0625C18.4001 22.0625 19.2489 21.8916 20.0464 21.5498C20.8439 21.1966 21.5389 20.7238 22.1313 20.1313C22.7238 19.5389 23.1909 18.8439 23.5327 18.0464C23.8859 17.2489 24.0625 16.4001 24.0625 15.5C24.0625 14.5999 23.8859 13.7511 23.5327 12.9536C23.1909 12.1561 22.7238 11.4611 22.1313 10.8687C21.5389 10.2762 20.8439 9.80908 20.0464 9.46729C19.2489 9.1141 18.4001 8.9375 17.5 8.9375C16.5999 8.9375 15.7511 9.1141 14.9536 9.46729C14.1561 9.80908 13.4611 10.2762 12.8687 10.8687C12.2762 11.4611 11.8034 12.1561 11.4502 12.9536C11.1084 13.7511 10.9375 14.5999 10.9375 15.5C10.9375 16.4001 11.1084 17.2489 11.4502 18.0464C11.8034 18.8439 12.2762 19.5389 12.8687 20.1313C13.4611 20.7238 14.1561 21.1966 14.9536 21.5498C15.7511 21.8916 16.5999 22.0625 17.5 22.0625ZM5.46875 6.75C5.76497 6.75 6.02132 6.85824 6.23779 7.07471C6.45426 7.29118 6.5625 7.54753 6.5625 7.84375C6.5625 8.13997 6.45426 8.39632 6.23779 8.61279C6.02132 8.82926 5.76497 8.9375 5.46875 8.9375C5.17253 8.9375 4.91618 8.82926 4.69971 8.61279C4.48324 8.39632 4.375 8.13997 4.375 7.84375C4.375 7.54753 4.48324 7.29118 4.69971 7.07471C4.91618 6.85824 5.17253 6.75 5.46875 6.75Z" fill="black"/>
</svg>
