<svg width="31" height="28" viewBox="0 0 31 28" fill="none" xmlns="http://www.w3.org/2000/svg">
<path d="M15.083 6.44502L16.06 6.44136C16.4209 4.75503 17.3261 3.24927 18.6229 2.17047C19.9192 1.09209 21.5296 0.504102 23.1888 0.5C27.2106 0.500328 30.5 3.88769 30.5 8.11416C30.5 14.5697 26.7697 19.4149 22.9697 22.6755C21.0738 24.3022 19.1757 25.5208 17.7508 26.3326C17.0389 26.7382 16.4465 27.0415 16.0336 27.2427C15.8483 27.3331 15.6992 27.4028 15.5917 27.4519C15.4827 27.4015 15.3306 27.3297 15.1412 27.2367C14.723 27.0312 14.1233 26.7221 13.4026 26.3104C11.96 25.4863 10.0385 24.254 8.1193 22.6211C4.27039 19.3462 0.5 14.5219 0.5 8.19669C0.5 3.92952 3.82494 0.50023 7.88738 0.5C9.55496 0.502846 11.1746 1.08952 12.4818 2.16763C13.7894 3.24611 14.7077 4.75328 15.083 6.44502Z" fill="black" stroke="black"/>
</svg>
