<svg width="32" height="32" viewBox="0 0 32 32" fill="none" xmlns="http://www.w3.org/2000/svg">
<path d="M16.6365 0.363595L16.6369 0.363904L31.3973 11.3698C32.2597 12.0142 31.8047 13.3975 30.7644 13.3975H28.368H28.218V13.5475V28.3648V28.5148H28.368H31.1509C31.2346 28.5148 31.3101 28.5867 31.3101 28.6817V30.7419C31.3101 30.8369 31.2346 30.9088 31.1509 30.9088H0.848938C0.765195 30.9088 0.689735 30.8369 0.689735 30.7419V28.6817C0.689735 28.5867 0.765195 28.5148 0.848938 28.5148H3.63177H3.78177V28.3648V13.5475V13.3975H3.63177H1.23931C0.194088 13.3975 -0.258829 12.01 0.60216 11.37L0.602343 11.3699L15.3629 0.363905L15.3634 0.363595C15.5484 0.224611 15.7714 0.15 15.9999 0.15C16.2284 0.15 16.4514 0.224611 16.6365 0.363595ZM16.0896 2.9165L15.9999 2.84964L15.9102 2.9165L5.43211 10.7292L5.06966 10.9995H5.52177H26.478H26.9301L26.5677 10.7292L16.0896 2.9165ZM6.4146 13.3975H6.2646V13.5475V28.3648V28.5148H6.4146H10.9367H11.0867V28.3648V13.5475V13.3975H10.9367H6.4146ZM13.7195 13.3975H13.5695V13.5475V28.3648V28.5148H13.7195H18.2416H18.3916V28.3648V13.5475V13.3975H18.2416H13.7195ZM25.5852 28.5148H25.7352V28.3648V13.5475V13.3975H25.5852H21.0245H20.8745V13.5475V28.3648V28.5148H21.0245H25.5852Z" fill="black" stroke="#F6F6F6" stroke-width="0.3"/>
</svg>
