<svg width="34" height="35" viewBox="0 0 34 35" fill="none" xmlns="http://www.w3.org/2000/svg">
<path fill-rule="evenodd" clip-rule="evenodd" d="M14.3848 24.4764C14.4092 24.5372 14.4663 24.5952 14.4966 24.6559C13.7412 24.4242 13.2554 23.7003 12.7709 23.079C12.7776 23.0415 12.7256 23.0175 12.7079 22.9935C12.6323 23.0608 12.5941 23.1668 12.5803 23.2721C12.4056 23.0724 12.2792 22.7687 12.128 22.5207C12.9531 23.0415 13.7518 23.6934 14.3848 24.4764ZM24.6989 8.47252C24.7823 8.45511 24.8579 8.37309 24.9394 8.32318C24.7942 8.70775 24.6481 9.10121 24.5674 9.50898C24.643 9.48306 24.7501 9.44747 24.8375 9.39717C24.6698 9.75698 24.4977 10.1226 24.4418 10.5257C24.5363 10.5389 24.6237 10.4638 24.7119 10.4271C24.6292 10.7803 24.4706 11.1544 24.3399 11.5072C24.447 11.4802 24.5599 11.4078 24.6698 11.3386C24.5154 11.7425 24.3773 12.2149 24.2564 12.6373C24.3588 12.6045 24.4332 12.5062 24.541 12.481L24.0879 13.6297C24.1868 13.6231 24.3017 13.567 24.4017 13.5303C24.2832 13.8901 24.1368 14.2371 23.9297 14.5602L24.345 14.4484C24.1868 14.8581 23.8651 15.2036 23.6648 15.5951C23.7896 15.5835 23.9171 15.5022 24.0415 15.4531C23.8159 15.8709 23.5313 16.2547 23.2223 16.6385C23.3931 16.594 23.5813 16.5457 23.7463 16.4714C23.4246 16.8246 23.1152 17.1852 22.8369 17.5624C22.9684 17.5697 23.0889 17.5005 23.2097 17.4649C22.931 17.8054 22.6484 18.1091 22.3512 18.4263C22.5082 18.4321 22.6554 18.3269 22.8133 18.3017C22.4885 18.5737 22.2106 18.8774 21.9146 19.1571L22.2933 19.1138C21.9331 19.4187 21.5182 19.7475 21.1639 20.0752L21.5308 20.0636C21.2072 20.2807 20.9108 20.5488 20.5888 20.7588L21.0186 20.7465C20.6203 21.0695 20.216 21.3798 19.794 21.6402L20.1404 21.6839C19.7617 21.9489 19.3948 22.1795 19.0299 22.4793C19.1075 22.5091 19.2122 22.5091 19.3015 22.5207L18.2588 23.2488C18.2851 23.3212 18.3918 23.3096 18.4607 23.3278L17.4943 23.8179C17.9131 23.4264 18.1643 22.8496 18.6756 22.5459C18.9228 22.5652 18.9972 22.3153 19.1437 22.1725C18.9689 22.2159 18.8347 22.4271 18.6315 22.4406C18.8217 22.2545 18.9484 22.0321 19.1299 21.8495C19.3389 21.6595 19.8322 21.764 19.794 21.3724C19.7873 21.3539 19.8011 21.3365 19.7814 21.3249C19.6125 21.4715 19.4271 21.646 19.2122 21.7144C19.3527 21.4843 19.5539 21.2432 19.7373 21.0242C20.0286 20.8583 20.5498 20.9894 20.6203 20.5352L20.634 20.49C20.5329 20.5294 20.425 20.6308 20.3238 20.7097C20.3179 20.6904 20.3179 20.6037 20.3053 20.5418C20.1337 20.647 19.9755 20.8215 19.794 20.9008C19.9637 20.7465 19.9963 20.49 20.1975 20.3867C20.5262 20.3046 20.8411 20.194 21.1442 20.0636C21.2021 19.9642 21.2206 19.84 21.2324 19.7406L20.7911 20.1321C20.7663 20.0462 20.7911 19.9827 20.7663 19.8957C20.6203 20.0462 20.4447 20.2439 20.2502 20.2439L20.5939 19.7108C20.9864 19.5804 21.354 19.3935 21.7252 19.2132C21.7772 19.132 21.8575 19.0291 21.826 18.9343C21.6564 19.108 21.4473 19.2326 21.2324 19.3231L21.2139 19.1525C21.0698 19.2508 20.9108 19.4311 20.7352 19.5169C20.7911 19.356 20.8872 19.1699 21.006 19.0291C21.4217 18.8844 21.8201 18.6925 22.2236 18.5246C22.2756 18.4379 22.3138 18.3396 22.3 18.2449L22.0862 18.4445L22.0154 18.3133C21.8772 18.4263 21.7398 18.5563 21.5867 18.6492L21.6005 18.5122C21.4217 18.6 21.2572 18.7861 21.0757 18.8774C21.2139 18.7234 21.2277 18.4704 21.4032 18.3338C21.8457 18.1474 22.2362 17.8603 22.6787 17.6742C22.7358 17.5941 22.7535 17.5005 22.7456 17.3945L22.4637 17.6614C22.4374 17.6123 22.4972 17.5121 22.4267 17.4649C22.2874 17.6077 22.1744 17.7435 22.0291 17.8719C22.041 17.7609 22.1047 17.6556 22.0654 17.5392H22.0291C21.8772 17.7667 21.676 17.9787 21.4473 18.1474L21.7252 17.5392C22.1744 17.321 22.6228 17.1032 23.04 16.8053C23.1085 16.6934 23.1459 16.5573 23.1459 16.4338C22.9889 16.57 22.931 16.8668 22.6984 16.8803C22.6846 16.8053 22.7358 16.7387 22.6984 16.6691L22.3362 17.085C22.3138 16.9991 22.3767 16.8997 22.3972 16.8053L21.7878 17.3837C21.9673 17.1167 21.9732 16.6934 22.3138 16.5132C22.7535 16.2845 23.127 15.9065 23.5502 15.652C23.5502 15.5719 23.562 15.4852 23.5451 15.4109L23.1782 15.8013C23.1829 15.7204 23.1644 15.652 23.1526 15.5835C23.0204 15.7638 22.8562 15.9738 22.6925 16.1379C22.6984 16.0365 22.7232 15.9375 22.7113 15.8562L22.2106 16.4338C22.4196 16.1243 22.3638 15.652 22.8133 15.4852L23.6778 14.9084L23.7148 14.5238C23.6041 14.6221 23.5372 14.7946 23.4305 14.9258C23.4365 14.8832 23.4246 14.8012 23.3932 14.7463H23.3597C23.2526 14.8631 23.2097 15.0124 23.0979 15.1312C23.1085 15.0368 23.1322 14.9575 23.0979 14.8697C22.9448 15.0318 22.8495 15.2875 22.6346 15.3858L22.609 15.3541C22.7113 15.0124 22.8428 14.6538 23.2018 14.4484L23.8856 13.8649C23.9053 13.7976 23.873 13.7222 23.8474 13.6537C23.7022 13.7655 23.6384 13.9825 23.449 14.0715C23.4569 13.9644 23.4912 13.8649 23.4628 13.7655C23.3105 13.9895 23.1577 14.2499 22.9397 14.4367L23.1459 13.7783L24.0742 12.8478C23.9856 12.8362 23.9545 12.7608 23.9407 12.6741C23.9474 12.6308 23.9238 12.6045 23.9171 12.5681C23.7962 12.8478 23.599 13.1523 23.3058 13.3306C23.4766 13.0076 23.4569 12.6122 23.7148 12.3251L24.3143 11.7115C24.2517 11.6752 24.2005 11.7916 24.1309 11.7425C24.1249 11.681 24.0994 11.6307 24.0742 11.5757C23.9935 11.7494 23.9407 11.9847 23.7199 12.0589L23.9053 11.3645C24.0938 11.1668 24.2426 10.9497 24.3588 10.7184C24.2241 10.7753 24.0938 10.8921 23.9612 10.9865C24.1064 10.6317 24.0112 10.1361 24.397 9.85641L24.4285 9.77632C24.3517 9.80031 24.2623 9.85641 24.1868 9.91212C24.3352 9.07412 24.5599 8.21795 24.815 7.39814C24.8827 7.33082 24.9835 7.34823 25.0524 7.29871C24.8953 7.67128 24.815 8.08215 24.6989 8.47252ZM6.47756 26.8469C6.3323 26.9587 6.13784 26.9951 5.9477 27.0194L6.16264 27.1997L6.54802 26.8643C6.87396 26.8902 7.22904 26.8643 7.55774 26.8902C7.32312 27.0059 7.0641 27.1131 6.78657 27.1014C6.88971 27.1927 7.07118 27.1378 7.19755 27.1997V27.2365L6.82004 27.3491C7.19755 27.6415 7.36721 27.0318 7.63804 26.8767C7.98642 26.8643 8.41117 26.9076 8.7627 26.8469C8.50565 26.9885 8.19467 27.0628 7.87935 27.1014C8.02461 27.2133 8.23875 27.2055 8.434 27.2365C8.30253 27.3251 8.10806 27.3491 7.93643 27.3812C8.00611 27.4794 8.18876 27.5034 8.33284 27.5228C8.56234 27.3173 8.70681 27.0318 8.94811 26.8333C9.26776 26.8275 9.54568 26.8035 9.85548 26.7649C9.64291 26.9266 9.34452 26.9517 9.07959 27.0144C9.19336 27.1014 9.3642 27.1072 9.48978 27.1815C9.33665 27.2728 9.14927 27.2798 9.01464 27.3676C9.14218 27.4543 9.30712 27.4369 9.45829 27.4667C9.66141 27.2624 9.85548 27.0144 10.0019 26.7649L10.8231 26.6964C10.6259 26.8515 10.3609 26.8902 10.1283 26.9633C10.1952 27.0492 10.3912 27.0279 10.4924 27.0744C10.3735 27.1738 10.1952 27.1927 10.0834 27.2933H10.455C10.6621 27.0945 10.8408 26.9076 10.992 26.6848L11.0821 26.653C11.2899 26.653 11.5238 26.6608 11.7178 26.6105C11.5474 26.7649 11.3195 26.838 11.1183 26.9335C11.2459 26.9761 11.4029 26.9517 11.5474 26.9587C11.7454 26.838 11.7454 26.4987 12.0339 26.5536L13.4763 26.2739C13.124 26.4851 12.7386 26.6337 12.4311 26.9335L12.4244 26.7966C12.0839 26.9401 11.7454 27.1312 11.408 27.3251L11.4206 27.1262C11.0545 27.2856 10.7073 27.4976 10.355 27.6837C10.3668 27.6094 10.4239 27.5526 10.4373 27.4794H10.3668C9.97554 27.6713 9.57914 27.8524 9.14927 27.9518C9.22367 27.8652 9.2835 27.7708 9.33153 27.6713C9.12368 27.6907 8.92725 27.7936 8.73318 27.8582C8.51825 27.8814 8.29072 27.9452 8.06988 27.9808C8.1179 27.9019 8.1679 27.8141 8.22773 27.7398C7.76559 27.7081 7.32312 27.8323 6.86294 27.8025L7.03182 27.5901C6.61101 27.6222 6.18704 27.5363 5.77686 27.5363C5.82016 27.4667 5.90913 27.411 5.9477 27.3374L4.88484 27.269L5.09505 27.0686C4.00267 26.7649 2.90478 26.4813 1.862 26.0646C3.33386 26.4936 4.86831 26.8832 6.47756 26.8469V26.8469ZM17.8494 1.03194C17.7033 2.20343 17.5581 3.44533 17.6218 4.67485C17.7289 4.69342 17.7982 4.51971 17.9064 4.52474C17.8171 4.93716 17.8033 5.37008 17.6982 5.76857C17.7927 5.74846 17.8836 5.67418 17.9808 5.63626C17.9623 5.98368 17.8927 6.38179 17.869 6.70484L18.0379 6.64913C17.9572 7.06348 17.9375 7.50337 17.8368 7.91424L17.8494 8.01444L18.1446 7.80243C18.134 8.32318 18.0005 8.82652 17.9505 9.35384C18.0202 9.33566 18.1076 9.28652 18.1773 9.22849C18.1596 9.75698 18.0202 10.2595 17.9257 10.7753C18.0438 10.7501 18.1596 10.6375 18.2654 10.571C18.1891 11.0163 18.071 11.4802 17.9741 11.9336C18.071 11.9402 18.1387 11.7916 18.2351 11.7993C18.1773 12.2025 17.9808 12.5727 17.9623 12.9585L18.2654 12.7724C18.1525 13.2382 18.0879 13.7531 17.9623 14.2371C18.084 14.1996 18.1851 14.0328 18.3166 13.9895C18.1643 14.4975 18.0202 15.0318 17.8368 15.539C17.9257 15.539 18.0131 15.4581 18.0966 15.4156C17.9879 15.9065 17.7659 16.3886 17.608 16.8614C17.6982 16.8118 17.7856 16.7252 17.8809 16.7252C17.7659 17.1167 17.6147 17.5005 17.4813 17.8854C17.6041 17.8854 17.71 17.7996 17.823 17.7562C17.6147 18.2151 17.3675 18.6855 17.1294 19.1525C17.2116 19.132 17.3077 19.084 17.3805 19.0395C17.1853 19.493 16.8759 19.9344 16.7015 20.411C16.8192 20.4033 16.9467 20.3375 17.0656 20.3008C16.833 20.753 16.6133 21.2305 16.4023 21.7079L16.7015 21.6402C16.6495 21.7887 16.5161 21.9385 16.4413 22.0986C16.0862 22.7958 15.885 23.5487 15.7339 24.3337C15.7272 24.4679 15.741 24.5952 15.7642 24.7291C16.3464 24.2083 16.6885 23.5487 16.7889 22.812C16.8026 22.4898 16.9164 22.2046 16.8703 21.863C17.0282 22.0185 17.0597 22.2913 17.1853 22.4898C17.3498 22.005 17.3959 21.5775 17.3675 21.0436C17.4325 21.1256 17.514 21.2614 17.5647 21.3798C17.6541 20.9008 17.71 20.4849 17.7364 19.9777C17.8553 20.1572 17.9064 20.3499 17.9946 20.5352C18.0131 20.0338 18.0572 19.5498 18.0379 19.0395L18.3028 19.438C18.2351 18.9471 18.1958 18.3888 18.2469 17.868C18.3332 17.9787 18.3859 18.1698 18.506 18.3017C18.5756 17.8293 18.5619 17.3512 18.5619 16.8668C18.6705 16.9546 18.7276 17.1419 18.8158 17.2595C18.7882 16.7484 18.8158 16.271 18.8347 15.7328C18.9484 15.8083 18.9925 15.9738 19.0976 16.0857C19.1299 15.645 19.1878 15.2121 19.2122 14.7706C19.3015 14.8929 19.3948 15.0879 19.4862 15.2477L19.5106 15.2419C19.4862 14.7339 19.6165 14.2603 19.6999 13.7906H19.7243L19.9255 14.1814C19.9522 13.6297 20.0924 13.1329 20.2502 12.6373L20.425 12.9952C20.5459 12.5565 20.6096 12.0725 20.8037 11.6558L20.9352 11.9912C21.0757 11.5757 21.1568 11.1409 21.371 10.7617C21.4414 10.812 21.4611 10.9497 21.5308 11.0291C21.6926 10.6867 21.7878 10.3211 21.9732 9.99143C22.041 10.0858 22.0606 10.2054 22.1291 10.3036C22.3334 9.8359 22.4972 9.35384 22.781 8.92015C22.829 9.03079 22.8133 9.2045 22.881 9.27182C23.044 8.89384 23.1782 8.49844 23.3597 8.12355C23.4365 8.18119 23.4176 8.29997 23.4864 8.37309L23.5451 8.30577L23.9738 7.20624C24.023 7.27472 24.0801 7.41168 24.1309 7.51188C24.3773 7.12035 24.4214 6.62205 24.5981 6.19492C24.6292 6.2015 24.6698 6.28042 24.6989 6.32608C25.0524 5.53141 25.3949 4.73675 25.8176 3.96801C25.898 3.93744 25.9735 3.97884 26.0326 4.03572C25.6736 5.08495 25.2417 6.10207 24.9532 7.17645C25.0729 7.15053 25.2102 7.09443 25.3409 7.05187L24.9835 8.16881C25.0729 8.17539 25.1543 8.11194 25.2358 8.08215C25.1799 8.36071 25.0347 8.63346 24.965 8.92015L24.8512 9.25557C24.9189 9.26022 24.9835 9.19096 25.0662 9.18709C24.9835 9.5527 24.7757 9.89471 24.6816 10.2727C24.7823 10.2595 24.9032 10.2092 25.0091 10.1667C24.9071 10.5025 24.7942 10.8573 24.6816 11.1966C24.7686 11.1966 24.8697 11.1544 24.9532 11.1099C24.7686 11.457 24.7686 11.9162 24.5851 12.2826C24.6922 12.2768 24.7823 12.1708 24.8827 12.134V12.2025C24.706 12.5797 24.5981 12.9836 24.4285 13.3628C24.541 13.3492 24.6481 13.2575 24.7686 13.2324C24.6292 13.5864 24.4655 13.9644 24.2891 14.3261C24.397 14.3048 24.4977 14.2131 24.6237 14.1996C24.5292 14.5969 24.3293 14.9749 24.0994 15.3308C24.2005 15.3103 24.3214 15.2612 24.4285 15.2179C24.3143 15.6017 24.0513 15.9549 23.8159 16.3085L24.232 16.211V16.247C23.91 16.594 23.6179 16.9596 23.3235 17.3279C23.4246 17.3345 23.5372 17.2718 23.6451 17.2982L22.9633 18.1512L23.29 18.0909C23.0645 18.4379 22.6846 18.6751 22.4137 19.0136C22.5149 19.0329 22.6228 19.0221 22.7232 19.0291C22.4137 19.4117 21.9536 19.6411 21.6111 20.0079L21.9961 20.0211C21.7398 20.2056 21.4355 20.4486 21.1442 20.647C21.2277 20.654 21.3033 20.678 21.3914 20.6664C21.0501 20.9945 20.6262 21.3287 20.2345 21.6154L20.4376 21.6839L19.4988 22.4406C19.6039 22.484 19.7373 22.4522 19.8381 22.5091C19.3948 22.6944 18.9972 22.9741 18.6008 23.2488C18.7012 23.2914 18.8217 23.296 18.9287 23.3278C17.9808 23.8737 16.9074 24.2826 16.1756 25.2459L16.1874 25.2711C17.1794 25.3752 17.9741 24.7244 18.506 23.9472V24.3395C18.7453 24.1476 19.0169 23.9 19.2582 23.6694C19.2693 23.7618 19.2311 23.8601 19.2445 23.9607L19.2878 23.9472L20.2231 22.7753C20.2298 22.9076 20.2113 23.0724 20.2345 23.192C20.4868 22.8747 20.7663 22.5401 21.0186 22.2104L21.0312 22.4658C21.2206 22.2584 21.3855 21.9818 21.5611 21.7388L21.8457 21.3608L21.8575 21.7822C22.1488 21.4359 22.4815 21.0436 22.7535 20.654L22.7928 20.9144C23.0841 20.5669 23.3794 20.1456 23.7199 19.7967L23.7325 20.1011L24.4844 19.2132L24.5095 19.2268C24.4977 19.3452 24.5292 19.4434 24.5154 19.5603C24.9032 19.2005 25.3319 18.7977 25.8047 18.5807L25.748 18.8244C26.0893 18.5873 26.4487 18.3203 26.8163 18.1091L26.7833 18.4263C27.0931 18.2518 27.4139 18.0356 27.7702 17.9288C27.78 18.0166 27.7056 18.0963 27.6985 18.1911C28.1402 17.9903 28.5945 17.7744 29.0751 17.644C29.0672 17.7435 29.0046 17.8487 28.9495 17.9412C29.4274 17.8796 29.8758 17.6703 30.3683 17.6077C30.3557 17.6819 30.288 17.7609 30.2242 17.8293C30.6096 17.786 30.9867 17.6556 31.3858 17.5941C31.374 17.7059 31.2268 17.781 31.2032 17.8986C32.1121 17.8119 33.0715 17.8796 33.93 18.1474V18.2209C32.8577 18.0665 31.746 18.2952 30.8481 18.7791L30.8178 18.8159C30.9501 18.8979 31.1268 18.9277 31.2906 18.9587C31.006 19.132 30.647 19.2759 30.336 19.4736C30.4753 19.5498 30.6403 19.5545 30.7922 19.5978C30.6666 19.6732 30.4568 19.7042 30.3057 19.7967C30.0781 19.9034 29.8758 20.0501 29.6412 20.1321C29.7687 20.1998 29.9337 20.1804 30.0663 20.2323C29.7876 20.3936 29.4097 20.4725 29.1125 20.654C29.2125 20.7291 29.3861 20.6962 29.4971 20.7646C29.1684 20.9144 28.8094 20.9693 28.4933 21.1496C28.5827 21.2111 28.6885 21.2111 28.7767 21.2614C28.411 21.4475 28.0528 21.6518 27.6418 21.7388C27.7418 21.8197 27.9319 21.8495 28.0634 21.9315C27.7418 22 27.4336 22.0936 27.1293 22.2104C27.2002 22.3095 27.3769 22.3095 27.4828 22.3973C27.0864 22.484 26.7136 22.619 26.3357 22.7571C26.379 22.8391 26.5113 22.8623 26.6014 22.9122C26.2207 23.0724 25.8243 23.2287 25.4193 23.3336C25.5508 23.3827 25.6968 23.4214 25.8354 23.4589C25.4704 23.5746 25.0788 23.674 24.7119 23.8179C24.8441 23.8601 24.965 23.9421 25.0855 24.0029C24.6816 24.0857 24.3017 24.2083 23.9053 24.3085C23.9612 24.4079 24.1202 24.4319 24.1438 24.5198C23.8081 24.5631 23.4864 24.618 23.1644 24.6877C23.2991 24.7859 23.4805 24.7975 23.6179 24.8931C23.1408 24.897 22.6708 24.9461 22.2236 25.0212C22.3433 25.1272 22.5082 25.1775 22.6417 25.2815L21.5182 25.381C21.5611 25.4436 21.676 25.4939 21.7595 25.538C21.3855 25.5613 21.0265 25.538 20.6655 25.5613L21.0757 25.8034C20.6262 25.7918 20.1865 25.68 19.7243 25.704C19.8011 25.81 19.9255 25.8592 20.0286 25.9412C19.6468 25.9412 19.2771 25.8545 18.8827 25.839C18.8965 25.9276 18.9795 26.0205 19.0405 26.1079C18.2281 26.0259 17.4443 25.6673 16.5877 25.8034C16.505 25.7965 16.409 25.8228 16.3267 25.8286C17.0597 25.9594 17.6915 26.4128 18.4764 26.3625C19.0063 26.3625 19.4704 26.2074 19.9637 26.1079C19.8322 26.2499 19.635 26.3992 19.4594 26.5111C19.9885 26.5111 20.4494 26.3172 20.9352 26.2634L20.5762 26.5969L20.6203 26.6287C21.2072 26.5478 21.7634 26.3753 22.3244 26.219C22.2756 26.3126 22.1665 26.4128 22.1098 26.518C22.5082 26.4495 22.9397 26.3501 23.3235 26.2634C23.2656 26.3501 23.192 26.4232 23.1526 26.518C23.5372 26.4232 23.9738 26.3992 24.3702 26.3172C24.3588 26.429 24.2379 26.5285 24.1868 26.6422C24.5733 26.653 24.965 26.6287 25.3409 26.5865L25.2358 26.8101C25.6468 26.8709 26.0893 26.7351 26.4995 26.8469L26.3916 27.0318C27.149 27.0628 27.8241 27.1997 28.5756 27.2133C28.8602 27.2133 29.2282 27.1699 29.5404 27.1699C29.5845 27.2133 29.6857 27.2554 29.668 27.3374C28.3803 27.6346 27.1061 27.975 25.8609 28.3731C25.7913 28.3905 25.7165 28.3859 25.6507 28.4169C25.7803 28.5043 25.9255 28.5708 26.0503 28.6637C25.6736 28.7136 25.2358 28.6509 24.8579 28.7194L25.1209 28.9132L23.9474 28.9867L24.0879 29.1976C23.7533 29.1717 23.3979 29.1612 23.0645 29.167L23.1782 29.3783C22.8239 29.328 22.4374 29.2595 22.0988 29.1806L22.1236 29.3783C21.8311 29.2788 21.5485 29.1179 21.2434 29.025L21.2903 29.3222C20.9352 29.1976 20.6163 28.9372 20.2561 28.7755C20.2672 28.8931 20.2928 29.0483 20.2809 29.1806C19.9637 28.9604 19.6546 28.7387 19.3456 28.4977L19.4133 28.8745C19.024 28.5836 18.6245 28.1619 18.2891 27.7591L18.2588 27.8141C18.2851 27.9247 18.2588 28.0365 18.2351 28.1371L18.0879 27.9634C17.9946 27.9874 17.9005 27.9963 17.812 28.0365C18.2214 28.2865 18.6815 28.4455 19.1102 28.6761C18.9846 28.7283 18.8158 28.6714 18.6894 28.7194L19.9637 29.3345C19.8491 29.3914 19.6468 29.4088 19.4988 29.4467C19.8011 29.6626 20.1601 29.8928 20.4821 30.1408C20.3927 30.1783 20.3053 30.1099 20.2113 30.1466C20.5498 30.407 20.9352 30.648 21.2777 30.9277C21.1021 30.9413 20.8919 30.9103 20.7077 30.9239C21.5729 31.5564 22.0225 32.4815 22.3138 33.4108L22.4523 33.9006C22.4078 33.9385 22.3638 33.9567 22.3244 34C21.991 32.9941 21.1021 32.0327 20.1089 31.5564L20.064 31.5998L20.0845 31.9588C19.8011 31.7801 19.5106 31.5189 19.2311 31.3011C19.2445 31.438 19.2181 31.6172 19.2582 31.7619C19.024 31.5305 18.7827 31.2403 18.4942 31.0523C18.443 31.1649 18.4363 31.2933 18.4363 31.4322C18.1643 31.1777 17.9257 30.8361 17.6915 30.5316L17.5974 30.8852C17.3234 30.5691 17.1294 30.19 16.9282 29.8487C16.8585 29.8688 16.8026 29.9613 16.7574 30.029C16.6621 29.7129 16.5279 29.4146 16.4846 29.0811L16.2901 29.2227C16.2775 28.3905 16.4216 27.5785 15.9508 26.8902C15.9929 28.3503 15.7272 29.788 15.0647 30.997C14.9265 31.2334 14.7568 31.464 14.5557 31.6547C14.9265 30.737 15.4426 29.8305 15.563 28.8072C15.7103 27.9576 15.6575 27.1378 15.7339 26.2739C16.0756 26.542 16.2637 26.9517 16.4472 27.3251C17.0349 28.9809 18.6953 30.3474 20.2231 31.1777C21.2277 31.8168 21.8949 32.815 22.3244 33.8158H22.3512C22.0606 32.7167 21.3965 31.6752 20.4494 30.8968C20.4014 30.9916 20.4955 31.0485 20.4955 31.134C20.3416 30.9838 20.1227 30.8852 19.9255 30.7861C20.1975 30.8055 20.5132 30.8419 20.7911 30.7985L19.9637 30.1834C19.9326 30.1718 19.8924 30.1718 19.8558 30.1718C19.844 30.2217 19.8617 30.3153 19.9058 30.3702C19.7814 30.3153 19.6283 30.2286 19.4862 30.2151C19.4594 30.2847 19.5204 30.3474 19.5401 30.407C19.372 30.2286 19.1496 30.1648 18.9425 30.0735L20.0971 30.036C19.8275 29.8371 19.5401 29.576 19.2252 29.4901L19.3389 29.8062C19.1437 29.7195 18.9484 29.5632 18.7355 29.4773L18.7217 29.6924C18.6315 29.6065 18.5312 29.5334 18.4304 29.4715C18.4166 29.5257 18.506 29.6019 18.4363 29.6692C18.33 29.5392 18.1958 29.4773 18.0769 29.3783C18.5363 29.3914 18.9925 29.3655 19.4535 29.3098C19.1346 29.0483 18.6953 28.9372 18.3166 28.7504C18.2792 28.7504 18.2977 28.789 18.2891 28.8072L18.4607 29.0811C18.2891 28.9732 18.071 28.8803 17.8927 28.789L18.0202 28.9732C17.8494 28.9067 17.6592 28.8072 17.5088 28.6637C17.862 28.6896 18.2517 28.6761 18.6087 28.6335C18.5264 28.5527 18.3536 28.5209 18.2351 28.4397C18.0438 28.3163 17.8368 28.242 17.6403 28.1302C17.6344 28.2114 17.6777 28.2981 17.71 28.3731C17.514 28.3105 17.2939 28.1747 17.1664 27.9808C17.3675 27.9681 17.5844 27.975 17.7561 27.8961C17.4002 27.7522 17.0105 27.6222 16.7259 27.3115C16.4472 26.8832 16.2334 26.3559 15.8803 26.0387C16.5279 26.3172 17.1616 26.6287 17.823 26.8643C19.2878 27.5487 20.7411 28.242 22.4815 28.2489C24.0742 28.3163 25.596 27.8884 27.0667 27.5034L27.4269 27.4609C26.3581 27.7591 25.2984 28.1677 24.2143 28.3163C24.182 28.3731 24.2426 28.4169 24.2564 28.466C24.1438 28.4784 24.0368 28.3963 23.9297 28.3596C23.7199 28.4091 23.4805 28.4052 23.29 28.4532L23.4305 28.5778C23.2526 28.5778 23.0841 28.4397 22.9066 28.4726C22.7424 28.4977 22.5661 28.459 22.3972 28.4842L22.609 28.7194C22.4196 28.6954 22.263 28.5275 22.0862 28.4292C21.8949 28.4339 21.7504 28.4223 21.5729 28.3963C21.6249 28.4908 21.6886 28.6029 21.7878 28.6896C21.6386 28.6076 21.4788 28.4726 21.3347 28.3538C21.1509 28.3298 20.9864 28.2613 20.8037 28.242C20.8037 28.3596 20.9352 28.459 20.9864 28.5778C20.8242 28.4842 20.6388 28.3298 20.5085 28.1747C20.312 28.1236 20.1089 28.0926 19.9129 28.0242C19.9129 28.1236 19.9589 28.218 20.0081 28.3047C19.9019 28.2114 19.7617 28.0571 19.6794 27.9124C19.4342 27.8698 19.2311 27.7475 19.0169 27.6346C19.0169 27.7205 19.063 27.8091 19.1102 27.8814C18.9366 27.8025 18.7961 27.5785 18.6453 27.4609C18.2517 27.2728 17.862 27.0628 17.4687 26.92C17.7364 27.1738 17.9131 27.4841 18.1446 27.7591L18.1525 27.5034C18.5619 27.7657 18.8768 28.1553 19.2311 28.4977C19.2311 28.3859 19.1937 28.2683 19.1752 28.1487C19.4535 28.3905 19.8011 28.5527 20.0778 28.8014L20.0522 28.4842C20.1278 28.4908 20.1975 28.5778 20.2809 28.6076C20.5498 28.7627 20.8352 28.8873 21.1021 29.0688C21.1021 28.9732 21.0501 28.8803 21.006 28.8014C21.2903 28.8622 21.58 28.9809 21.8575 29.085C21.8949 29.1121 21.9284 29.1407 21.9732 29.1407C21.9732 29.085 21.9477 28.9991 21.8949 28.943C22.2303 28.9693 22.5582 29.1121 22.9066 29.1233L22.7113 28.9171C23.0282 28.9809 23.4305 28.9566 23.7581 28.943L23.562 28.7627C23.91 28.7581 24.2753 28.7283 24.6119 28.7504L24.3588 28.4842H25.5303L25.5665 28.466L25.1984 28.2741C26.057 28.2799 26.69 27.7591 27.4974 27.647C28.102 27.5228 28.709 27.404 29.3156 27.2798C28.2658 27.3676 27.1667 27.3173 26.1326 27.2365C26.1003 27.2856 26.0137 27.269 26.0062 27.3374L26.1003 27.4245C25.9657 27.4543 25.8176 27.4543 25.7027 27.515C25.7342 27.5363 25.7716 27.5526 25.8047 27.5901C25.5508 27.6655 25.3055 27.7522 25.0662 27.8524C25.3949 27.5487 25.8047 27.2933 26.1641 26.9885L24.9394 27.002C24.9965 27.1014 25.1477 27.1378 25.2543 27.1869C25.0611 27.2295 24.8512 27.2365 24.6698 27.3115C24.7119 27.3846 24.8012 27.3916 24.8579 27.4477C24.706 27.4841 24.5292 27.4609 24.3852 27.515C24.4418 27.5785 24.5363 27.6094 24.6119 27.6605L24.0545 27.7398L24.1868 27.8961C23.9356 27.9317 23.7081 28.0365 23.449 28.0636C23.9545 27.6945 24.5036 27.2798 24.9965 26.8217L24.9697 26.7966C24.6292 26.8275 24.2517 26.785 23.9053 26.8643L24.1576 27.0144C24.0171 27.0879 23.8474 27.0809 23.7148 27.1564L23.8356 27.2554C23.6648 27.3115 23.4805 27.3491 23.3176 27.411L23.5049 27.5363C23.342 27.6094 23.1408 27.6346 22.9771 27.7135C23.033 27.7657 23.1007 27.8091 23.1526 27.8698L22.3826 28.0242C22.9125 27.5487 23.5569 27.1564 24.0742 26.5865C23.6317 26.6608 23.1782 26.6848 22.7672 26.7966C22.9192 26.8767 23.0841 26.92 23.2451 26.9633C22.9948 27.0388 22.7113 27.0446 22.4637 27.1312L22.6661 27.2933C22.4885 27.3425 22.2874 27.3251 22.1236 27.3916C22.2106 27.4725 22.3334 27.491 22.4267 27.5595C22.2165 27.5835 22.0154 27.6346 21.826 27.6907L21.9607 27.8141L21.3347 27.9247C21.7831 27.5104 22.2685 27.0446 22.7672 26.6778C22.7995 26.6422 22.8239 26.6058 22.8495 26.5672C22.4523 26.6105 22.0095 26.6724 21.6446 26.8515C21.7064 26.9633 21.8772 26.92 21.9843 26.9761C21.7772 27.0446 21.5552 27.0744 21.3347 27.1262C21.3965 27.1927 21.4914 27.2171 21.5611 27.2798C21.3914 27.3115 21.2139 27.3425 21.0627 27.4369L21.2139 27.5228C21.0698 27.5526 20.9175 27.5595 20.7801 27.6028C20.8411 27.6771 20.9431 27.6945 21.0186 27.7475C20.8175 27.7657 20.5821 27.7766 20.4053 27.6907C20.8647 27.3173 21.3914 26.9335 21.8713 26.5285C21.4099 26.6337 20.9049 26.7157 20.425 26.8217C20.5565 26.92 20.7604 26.896 20.9049 26.9761L20.2345 27.0446C20.2672 27.1448 20.4309 27.1177 20.5085 27.1997C20.2739 27.2171 20.0924 27.1699 19.8558 27.2133C19.9589 27.3251 20.1089 27.3587 20.2345 27.4369C19.9393 27.4794 19.6409 27.4667 19.3818 27.3549C19.7676 27.1177 20.1904 26.8767 20.5203 26.518C20.103 26.6422 19.6283 26.6848 19.1878 26.7649C19.3082 26.8709 19.4862 26.8767 19.6283 26.9335L19.5987 26.9633L19.0299 27.002C19.0405 27.0492 19.1346 27.0809 19.1878 27.1262C19.0102 27.1448 18.8394 27.0879 18.6756 27.0446C18.865 26.8643 19.1437 26.7223 19.3389 26.4987C19.1807 26.5111 19.0102 26.5614 18.8347 26.573C17.6592 26.6724 16.7889 26.0205 15.7917 25.6936C18.2214 25.6239 20.3416 24.8343 22.2441 23.5274L24.7942 21.8197C26.8026 20.5786 28.6149 18.8728 30.9367 18.376C31.6508 18.1783 32.4389 18.135 33.1903 18.0665C32.4152 17.9481 31.7008 17.9412 30.9501 18.1091C30.9698 18.0243 31.0446 17.9288 31.0768 17.8293C30.7351 17.8796 30.3624 17.9172 30.0514 18.0793C30.1533 18.1149 30.288 18.135 30.4194 18.135C30.2183 18.2584 29.9396 18.3694 29.7258 18.537C29.7825 18.2816 29.9632 18.053 30.0974 17.817C29.6491 17.868 29.233 18.0599 28.8023 18.2027L28.7582 18.2449C28.9035 18.2383 29.0881 18.2151 29.246 18.2209C29.083 18.3203 28.8397 18.4205 28.6622 18.5807L29.1448 18.5563C29.0046 18.6492 28.7964 18.7358 28.622 18.8244C28.6826 18.8411 28.7397 18.8728 28.7905 18.9277L28.45 19.1138C28.4248 18.6608 28.6779 18.2952 28.8299 17.8986C28.3748 17.9856 27.9587 18.2274 27.5544 18.4704L27.9508 18.4263C27.8064 18.5931 27.6052 18.759 27.4974 18.9703L27.8623 18.8774C27.7603 18.9915 27.5722 19.132 27.4828 19.2825H27.7497L27.5229 19.5073L27.5855 19.5603C27.5454 19.6299 27.4974 19.7406 27.4269 19.7541C27.3442 19.2268 27.4269 18.6855 27.5277 18.2027C27.212 18.2952 26.9203 18.5188 26.6427 18.7482C26.7703 18.759 26.9203 18.7234 27.0549 18.7358C26.8589 18.9231 26.7006 19.1273 26.5888 19.3502C26.6731 19.356 26.7762 19.3452 26.8589 19.3192C26.7467 19.455 26.6172 19.6164 26.5317 19.7839L26.8163 19.7282C26.7644 19.8276 26.6014 19.9344 26.5762 20.0501C26.636 20.0501 26.7006 20.0462 26.7309 20.1069L26.5054 20.3867C26.3278 19.7475 26.5054 19.0531 26.5762 18.4321C26.2534 18.6557 25.8861 18.8728 25.6507 19.2074C25.7716 19.2005 25.898 19.139 26.0188 19.1525C25.8117 19.3753 25.6039 19.5978 25.4634 19.8524C25.5704 19.8466 25.6736 19.7649 25.7803 19.7406C25.8243 19.7406 25.8539 19.7166 25.8932 19.7108C25.7854 19.9208 25.6204 20.1391 25.4634 20.3433C25.5665 20.3433 25.6842 20.3124 25.8047 20.3124C25.7283 20.4551 25.5468 20.5979 25.5067 20.7588C25.5763 20.7724 25.6271 20.7341 25.7027 20.7465C25.6094 20.895 25.4704 21.0502 25.3488 21.2065C25.224 20.5054 25.3681 19.809 25.5303 19.1699C25.5665 19.0581 25.6039 18.9529 25.6507 18.8476C25.2417 19.0724 24.8756 19.4252 24.554 19.7839C24.6745 19.7599 24.815 19.6597 24.9394 19.6547L24.5095 20.2872C24.6166 20.2807 24.7119 20.1998 24.8375 20.1998C24.6883 20.411 24.5363 20.654 24.4418 20.9008C24.5292 20.9248 24.6048 20.8331 24.6989 20.8331C24.6698 20.9945 24.541 21.1496 24.4607 21.3059H24.6237L24.4017 21.764L24.3702 21.7272C24.2517 21.0018 24.3879 20.269 24.4285 19.5498C24.1438 19.8276 23.8651 20.1754 23.6451 20.5101L23.6648 20.5352C23.8081 20.4985 23.9356 20.4242 24.0612 20.3569C23.9474 20.6308 23.7711 20.9074 23.6041 21.1813C23.7022 21.1612 23.7962 21.0877 23.8915 21.0436C23.7671 21.2614 23.6179 21.492 23.5187 21.7272L23.8356 21.6402C23.7581 21.8023 23.5679 21.9489 23.5451 22.1304C23.6179 22.1176 23.6687 22.1563 23.7463 22.1427L23.4628 22.4522C23.3471 21.6955 23.4628 20.9144 23.5884 20.1998C23.2223 20.5546 22.9495 20.9693 22.6984 21.3798L23.1526 21.2065C23.04 21.4293 22.8054 21.6355 22.6787 21.8766L22.9948 21.7822C22.9066 21.9586 22.7298 22.1253 22.6554 22.323C22.7672 22.3095 22.8857 22.2545 23.0074 22.2159C22.9192 22.3664 22.7424 22.4967 22.6787 22.6635L22.9192 22.6027C22.8495 22.7068 22.7456 22.8322 22.6417 22.9374C22.4696 22.354 22.5838 21.7145 22.6346 21.1128C22.3433 21.461 22.0154 21.8572 21.7595 22.2545L21.7831 22.275L22.1988 22.0986L22.1665 22.1725C22.0225 22.3153 21.8949 22.4708 21.8016 22.6325L22.0291 22.6027L21.7693 22.9819C21.8311 22.9935 21.9036 22.9614 21.9732 22.9556C21.9536 23.0415 21.8457 23.1235 21.8016 23.2152L21.9398 23.2721C21.891 23.3599 21.8201 23.44 21.7595 23.5274C21.676 22.9935 21.6249 22.3915 21.7134 21.8379C21.4355 22.1613 21.2277 22.571 20.949 22.925C20.9812 22.9683 21.0501 22.9297 21.0883 22.9122C21.1509 22.8747 21.2206 22.8561 21.2903 22.8322C21.2021 22.9683 21.0186 23.1053 20.9864 23.2585L21.2434 23.2218C21.1698 23.3394 21.0265 23.4512 20.949 23.5816C21.0588 23.5583 21.1954 23.5382 21.3139 23.5139C21.1568 23.6508 20.8978 23.8485 20.8352 24.0714C20.7604 23.5816 20.8301 23.0724 20.9049 22.6027C20.6525 22.9076 20.4053 23.2786 20.1227 23.6075C20.2231 23.5939 20.3416 23.5448 20.4494 23.5139C20.3876 23.6377 20.2298 23.7425 20.1778 23.8872C20.2928 23.8679 20.425 23.8245 20.5498 23.8052C20.4447 23.9112 20.2613 24.0106 20.1337 24.1541L20.3238 24.1708C20.1727 24.2536 20.1278 24.413 20.0286 24.5314C19.9463 24.1224 20.0333 23.6566 20.0845 23.2585C19.8011 23.5881 19.5539 23.9731 19.2004 24.2652C19.3897 24.24 19.5861 24.141 19.7578 24.0857C19.5861 24.24 19.3818 24.3518 19.2252 24.5062C19.372 24.5132 19.5291 24.4629 19.6684 24.4184C19.5586 24.618 19.3082 24.7291 19.1299 24.8931C19.0543 24.6296 19.0807 24.3259 19.1102 24.059C18.8768 24.2536 18.6638 24.4764 18.4481 24.6981L18.4764 24.7244C18.5567 24.6741 18.6638 24.6807 18.7453 24.6296C18.6953 24.7414 18.541 24.8409 18.4607 24.9527L18.6453 24.9461C18.506 25.0405 18.3733 25.1639 18.2076 25.2026C18.228 24.9527 18.3028 24.6981 18.3595 24.4513C17.7171 25.1639 16.8377 25.5419 15.835 25.4138C15.8988 25.2382 16.0421 25.0649 16.1874 24.9217C17.4502 23.5622 18.7071 22.1176 19.7373 20.6219C21.2139 18.2766 22.3433 15.7703 23.0889 13.138C23.7148 11.4012 24.0879 9.56508 24.5674 7.76568C24.9697 6.52455 25.4126 5.29038 25.9353 4.09065L25.8932 4.06086C25.3681 4.83038 25.1417 5.76857 24.7383 6.60541C24.6883 6.60541 24.6922 6.51101 24.643 6.47426C24.5036 6.92652 24.3588 7.37995 24.2143 7.83299C24.2623 7.8593 24.297 7.78502 24.345 7.77728L24.2891 8.15605C24.1438 8.02412 24.0801 7.78966 24.0309 7.57959C23.8797 7.95757 23.6778 8.31041 23.562 8.70774C23.6778 8.70774 23.7671 8.57195 23.8592 8.50424C23.8533 8.72128 23.6955 8.92556 23.6904 9.14183C23.7581 9.11784 23.8159 9.06174 23.8856 9.0424C23.8856 9.21688 23.8407 9.4022 23.7896 9.57862C23.6246 9.21688 23.4766 8.84664 23.3932 8.44853L23.3353 8.50424C23.2018 8.90622 23.0645 9.30355 22.9066 9.70204C23.0645 9.68076 23.0979 9.52252 23.2223 9.46681C23.1782 9.68076 23.1723 9.94307 23.1526 10.1918C23.192 10.2158 23.2451 10.1601 23.29 10.1493L23.4038 10.1361C23.4109 10.2843 23.3597 10.4464 23.3176 10.5938L23.5049 10.5389C23.4864 10.67 23.449 10.8256 23.4176 10.9594L23.29 10.805C23.0751 10.3404 22.8692 9.87459 22.7113 9.38479C22.5149 9.70784 22.4078 10.0789 22.2803 10.4387L22.5952 10.1667C22.5511 10.4089 22.4972 10.6758 22.4972 10.9497C22.5787 10.9555 22.6484 10.8747 22.7232 10.8372C22.6924 11.0291 22.6484 11.2469 22.6346 11.4446C22.7161 11.3761 22.8054 11.3142 22.8936 11.2527L22.9066 11.7993L23.1322 11.6682L23.0979 12.2334C22.5787 11.6926 22.3571 10.9594 22.0095 10.3145C21.8851 10.6015 21.7595 10.9122 21.6327 11.2082C21.6249 11.2767 21.58 11.3521 21.6005 11.4194C21.7398 11.32 21.826 11.1707 21.9607 11.0732C21.8851 11.3386 21.8201 11.6558 21.8457 11.9661C21.9205 11.9336 21.9772 11.8407 22.0539 11.8407L22.0291 12.4694C22.1291 12.4543 22.2165 12.3213 22.3138 12.3027C22.3 12.5313 22.3 12.7801 22.3138 13.0076C22.4031 12.9952 22.459 12.8911 22.5511 12.859L22.5287 13.2188C22.5838 13.2258 22.6602 13.2014 22.7232 13.1948L22.6417 13.567C22.1047 12.859 21.6808 12.0396 21.3855 11.2082C21.1903 11.5688 21.1639 11.9982 21.0501 12.3944L21.4151 12.0454C21.3914 12.3143 21.3296 12.6172 21.3855 12.9027L21.4151 13.0269C21.4914 13.0339 21.5682 12.9403 21.6446 12.9519C21.6386 13.1755 21.6005 13.4483 21.676 13.6537L21.9284 13.4436C21.9146 13.702 21.8713 13.976 21.8713 14.2565C21.9673 14.2499 22.0291 14.1071 22.1421 14.1137L22.1795 14.5238C22.1988 14.5671 22.2441 14.54 22.2803 14.5486C22.2933 14.6461 22.309 14.7772 22.2685 14.8697C21.5729 14.0754 21.2072 13.107 20.8242 12.1708C20.7411 12.5062 20.6262 12.8234 20.5762 13.1755C20.6793 13.1024 20.7545 12.9468 20.8805 12.859C20.8242 13.2014 20.7604 13.5864 20.8037 13.9644L21.1186 13.6788C21.1304 13.976 21.045 14.2921 21.1068 14.6035C21.2072 14.5834 21.2836 14.4975 21.3855 14.5161C21.3914 14.7706 21.354 15.05 21.4151 15.2875C21.4914 15.2914 21.58 15.2651 21.6701 15.2612C21.7398 15.3734 21.5485 15.7154 21.826 15.652C21.8311 15.7947 21.8067 15.9181 21.8016 16.0539C21.2324 15.274 20.8647 14.3857 20.4821 13.5179L20.3053 13.0134C20.2435 13.1136 20.2809 13.2053 20.2502 13.3202C20.1168 13.673 20.1278 14.0754 20.064 14.46C20.1975 14.3617 20.2502 14.1686 20.362 14.0328C20.3691 14.33 20.3317 14.6279 20.3927 14.913C20.4447 14.8766 20.5132 14.7772 20.5888 14.7145L20.5939 15.5216C20.6722 15.4407 20.7352 15.2477 20.8608 15.2036C20.8608 15.4782 20.8537 15.7638 20.8478 16.0253L21.1568 15.652L21.1304 16.5805C21.2139 16.5573 21.3099 16.5081 21.4032 16.4772C21.4032 16.6521 21.3788 16.8494 21.2903 17.0049C20.9049 16.4907 20.6833 15.9007 20.3809 15.3541L19.8381 14.1996C19.6928 14.5969 19.6468 15.0743 19.6546 15.5293C19.7617 15.4341 19.8188 15.2612 19.9393 15.1358C19.9058 15.3788 19.8617 15.6566 19.8491 15.9112C19.9326 15.8388 19.9963 15.7386 20.0971 15.6964C20.103 15.968 20.0392 16.247 20.064 16.5275C20.1463 16.4524 20.2298 16.3828 20.3238 16.348C20.3317 16.5805 20.3053 16.8668 20.3506 17.1032C20.4124 17.0474 20.475 16.9546 20.5498 16.9596C20.5565 17.1774 20.5329 17.4011 20.5762 17.6077L20.8608 17.3945L20.8175 18.1091C20.5821 17.868 20.4309 17.5198 20.2561 17.2169C19.9326 16.6257 19.7176 15.9808 19.3818 15.3974C19.2878 15.7436 19.2838 16.1611 19.2582 16.5132L19.5291 16.2238C19.5106 16.4524 19.4704 16.7387 19.5153 16.9797L19.6842 16.8494C19.6605 17.0289 19.6409 17.2401 19.6235 17.4398C19.6928 17.4138 19.7814 17.3647 19.8826 17.3837C19.8491 17.5697 19.8011 17.7926 19.8381 18.0108C19.9058 17.9651 19.9826 17.9373 20.064 17.9237C20.064 18.053 20.0707 18.2081 20.02 18.3338C20.0778 18.376 20.1727 18.3934 20.2561 18.4023C20.2502 18.5052 20.2345 18.6356 20.2231 18.759L20.475 18.7791C20.4053 18.8902 20.425 19.0329 20.3691 19.1525C20.1727 18.9471 20.0707 18.6608 19.9393 18.4128C19.635 17.7059 19.3015 17.0184 19.0866 16.2795L19.0063 16.1418C18.9689 16.6327 18.9846 17.1852 18.9972 17.651L19.0169 17.6877C19.1075 17.5697 19.1496 17.4444 19.2004 17.3152C19.2445 17.5697 19.2075 17.8553 19.2311 18.1091C19.2956 18.0599 19.3574 18.027 19.4133 17.9787C19.4342 18.195 19.3897 18.4128 19.372 18.6356C19.4704 18.6 19.5665 18.4929 19.6794 18.458C19.5928 18.6356 19.5586 18.867 19.4988 19.0724C19.5861 19.0136 19.6794 18.9142 19.794 18.8902C19.7676 19.0395 19.6999 19.19 19.6794 19.3502C19.7578 19.4311 19.8755 19.4995 19.9826 19.5603L19.8826 20.0211C19.3759 19.3088 19.1752 18.4704 18.8717 17.6742C18.8347 17.545 18.7717 17.4204 18.7138 17.2982L18.6894 17.3945V18.6557C18.7882 18.5698 18.8599 18.4321 18.9484 18.3338C18.9532 18.6 18.852 18.867 18.8717 19.139C18.9689 19.0956 18.9846 18.9703 19.0866 18.9277C19.0728 19.1138 19.024 19.3192 18.9972 19.5169L19.2445 19.2953C19.2004 19.4813 19.1496 19.7108 19.1563 19.9208C19.237 19.84 19.3015 19.7367 19.3818 19.6411C19.3948 19.8524 19.2641 20.0501 19.3279 20.2872C19.4086 20.2362 19.4271 20.1321 19.5153 20.0895C19.5153 20.2613 19.4133 20.4164 19.4535 20.6219C19.2311 20.4621 19.1937 20.1321 19.0405 19.8957C18.8217 19.4117 18.7138 18.8774 18.4481 18.4128L18.4166 18.4704C18.4107 18.9343 18.5205 19.356 18.4942 19.8276L18.6756 19.6411C18.6815 19.835 18.6178 20.0462 18.6453 20.2439L18.8717 20.1069C18.852 20.276 18.8091 20.4551 18.8288 20.647C18.9032 20.6347 18.9795 20.5546 19.0543 20.5101L18.9484 21.0018C18.9972 21.0068 19.0492 20.9577 19.0976 20.9314C19.0976 21.0502 19.0728 21.1937 18.9736 21.2672C18.5871 20.7147 18.506 20.0272 18.1773 19.462C18.1643 19.8601 18.2214 20.3743 18.1194 20.7782L18.3918 20.4551L18.3221 21.1256C18.3792 21.131 18.4363 21.0753 18.4942 21.0436C18.4804 21.1813 18.4233 21.3249 18.4304 21.4843C18.506 21.4966 18.5686 21.3984 18.6453 21.3724C18.6087 21.5226 18.5264 21.6839 18.5481 21.8766C18.2418 21.4715 18.1017 20.9314 17.862 20.4687C17.812 20.8834 17.8171 21.3365 17.723 21.764C17.8171 21.7144 17.8553 21.5845 17.9505 21.5044C17.9572 21.6355 17.9005 21.7582 17.869 21.8816C17.9434 21.87 18.0202 21.7705 18.0966 21.7272C18.0379 21.8816 17.9702 22.0619 17.9505 22.2422V22.2681L18.134 22.1977C18.0131 22.3269 17.9946 22.5025 17.9257 22.6569C17.7561 22.3153 17.6679 21.945 17.5218 21.5961C17.4884 21.9884 17.4128 22.3605 17.2939 22.7138C17.3766 22.6836 17.4581 22.5962 17.5277 22.5207C17.5333 22.6894 17.4502 22.8496 17.3675 23.0001C17.4648 22.9741 17.5581 22.8747 17.6541 22.812C17.5844 23.0047 17.4128 23.192 17.3805 23.4156C17.1735 23.1533 17.1487 22.8004 17.0105 22.4967C16.9841 22.6395 16.9585 22.7958 16.9396 22.925C16.8448 23.7878 16.3208 24.4764 15.7221 25.1334C15.6713 25.1639 15.6327 25.22 15.5898 25.2583C15.5689 24.7743 15.5689 24.2826 15.5524 23.8052C15.5898 23.5208 15.526 23.2353 15.6095 22.9683C15.6662 23.0983 15.6327 23.2721 15.6898 23.4032C15.8535 22.8623 16.0685 22.3474 16.3334 21.8495C16.039 21.9133 15.8047 22.1861 15.5189 22.323C15.5123 22.2159 15.4749 22.1176 15.5083 22.0185C15.5556 22.0445 15.5898 22.1052 15.6524 22.0986C15.8075 21.9056 15.8075 21.6518 15.9173 21.4359C15.985 21.5477 15.9555 21.7214 16.0421 21.8379C16.2637 21.4293 16.409 20.9623 16.6692 20.5546H16.6133C16.2401 20.808 15.8909 21.1186 15.5319 21.3926L15.419 21.4359C15.3914 21.3423 15.4111 21.2382 15.4044 21.138L15.5367 21.2614C15.7221 21.1496 15.7103 20.9198 15.7595 20.7341C15.8165 20.813 15.8469 20.9074 15.8909 20.9894C16.0252 20.7832 16.0929 20.5546 16.1874 20.3309C16.2531 20.3936 16.2775 20.4985 16.3011 20.5913C16.5483 20.189 16.7956 19.7649 16.9723 19.3502C16.7015 19.5073 16.5483 19.809 16.2775 19.9893C15.985 20.2362 15.6898 20.5294 15.3473 20.6904L15.3249 20.2574L15.5768 20.4551C15.6465 20.3124 15.6662 20.1263 15.7024 19.9642C15.7642 20.0272 15.7642 20.2129 15.8724 20.269C16.0047 20.0895 16.0252 19.8659 16.1 19.6597C16.1645 19.7042 16.1834 19.8276 16.257 19.8957C16.409 19.6299 16.5109 19.3192 16.616 19.0291C16.6759 19.108 16.6495 19.2508 16.6885 19.3502C16.9514 18.9587 17.1979 18.5014 17.4372 18.0665C16.6759 18.6112 16.0815 19.356 15.2658 19.7715L15.2796 19.3753L15.4808 19.462C15.6662 19.2883 15.741 19.084 15.8724 18.8902L15.985 19.139C16.1756 18.9857 16.2126 18.7424 16.3011 18.537C16.3405 18.6047 16.3578 18.6925 16.4141 18.759C16.5483 18.5737 16.616 18.3462 16.6885 18.135C16.7389 18.2027 16.7621 18.2816 16.8141 18.3567C16.8759 18.1648 16.9723 17.9651 17.0282 17.7609L17.1294 18.0793C17.2801 17.7013 17.4766 17.3454 17.608 16.9732C16.8026 17.5697 16.0862 18.4263 15.1961 18.8341L15.2099 18.4704C15.2847 18.4704 15.304 18.6112 15.4044 18.5931L15.676 18.1091L15.9047 18.2209C16.0929 18.0472 16.1645 17.8255 16.3267 17.644C16.4141 17.6703 16.5483 17.7493 16.5877 17.5941L16.7889 17.1477L16.9585 17.2169C17.0782 17.0552 17.1085 16.8614 17.1546 16.6691C17.2116 16.7321 17.2294 16.8737 17.2675 16.9797C17.4128 16.5573 17.6541 16.1553 17.8033 15.7204C17.6285 15.8257 17.5277 15.9932 17.3128 16.1418L16.472 16.919C16.0756 17.2169 15.6713 17.5005 15.2532 17.7744V17.4514C15.3178 17.4514 15.3788 17.5063 15.4512 17.5198C15.5898 17.4011 15.6327 17.2285 15.7221 17.085C15.8047 17.1101 15.8724 17.2355 15.937 17.2169C16.0756 16.948 16.207 16.6818 16.3578 16.4215C16.4413 16.4648 16.5161 16.5081 16.5609 16.5894L16.8703 16.0001C16.9321 16.0365 16.9514 16.1611 16.9967 16.247C17.1038 15.9317 17.2628 15.6384 17.4069 15.3413C17.4687 15.5022 17.4581 15.6964 17.5088 15.862C17.7289 15.3974 17.823 14.8581 18.0202 14.3694C17.2569 15.0937 16.4141 15.8562 15.5524 16.459L15.2914 16.5894C15.2737 16.4714 15.2847 16.3155 15.2796 16.1978L15.5083 16.3596C15.676 16.192 15.7154 15.9499 15.835 15.7502L16.0618 15.9433C16.2401 15.7328 16.3169 15.4852 16.4472 15.2612L16.6759 15.4407C16.8329 15.2419 16.9282 15.0078 17.0282 14.7811L17.1294 14.9942C17.2675 14.7579 17.2998 14.46 17.4266 14.2131L17.5647 14.5718L17.5974 14.5602L17.9375 13.2931C17.0987 13.9825 16.3267 14.8902 15.3355 15.3413C15.3308 15.1861 15.3414 15.0124 15.3678 14.8581C15.4426 14.9258 15.4512 15.0693 15.5768 15.0937C15.8047 14.9645 15.9232 14.708 15.985 14.4677L16.1874 14.6279C16.3578 14.4418 16.4472 14.1996 16.5747 13.9895C16.6318 14.051 16.6759 14.1253 16.7436 14.1686C16.9282 13.9141 17.0597 13.6231 17.1979 13.3442L17.3372 13.5303C17.6856 13.4301 17.6777 13.0656 17.7927 12.8041L17.9623 12.0648C17.2164 12.8285 16.3984 13.6297 15.4512 14.0715L15.4249 14.058C15.4249 13.8282 15.4682 13.6231 15.5189 13.4165C15.5367 13.5794 15.5827 13.702 15.6327 13.834C15.778 13.6231 15.8075 13.3686 15.9173 13.138L16.2126 13.4165C16.4216 13.2123 16.5279 12.9403 16.6885 12.7039C16.731 12.7724 16.7436 12.9027 16.8585 12.8958C17.0711 12.5797 17.1794 12.2265 17.3372 11.8918C17.4207 12.004 17.3884 12.2025 17.5384 12.2586C17.7364 11.9336 17.812 11.563 17.9182 11.2082L17.9741 10.9412C17.7423 11.0964 17.5384 11.3711 17.2939 11.544C16.7495 11.9537 16.207 12.4002 15.5768 12.6172C15.526 12.4493 15.5689 12.2632 15.6201 12.1166C15.676 12.2083 15.676 12.382 15.835 12.382C15.9988 12.3317 16.1118 12.1398 16.2011 12.004L16.3334 11.7552L16.555 11.922C16.7574 11.6926 16.8448 11.3711 16.9585 11.0848L17.1546 11.3896C17.2998 11.1273 17.3557 10.8611 17.4372 10.571C17.5451 10.6867 17.5451 10.9122 17.6541 11.0616C17.7659 10.564 17.8415 10.0309 17.9257 9.53413C17.7033 9.71365 17.514 9.96822 17.2801 10.1918C16.8026 10.5756 16.3208 11.0105 15.7595 11.2217C15.7272 11.0848 15.7516 10.9122 15.8047 10.7803C15.8469 10.8051 15.8988 10.9161 15.9744 10.9412C16.2204 10.8979 16.2834 10.6317 16.3905 10.4592C16.4787 10.4592 16.5877 10.646 16.6318 10.482C16.6759 10.3338 16.731 10.1976 16.7574 10.0483C16.833 10.0789 16.9282 10.1918 16.9723 10.2777C17.1294 10.005 17.2116 9.68076 17.3128 9.37899L17.5384 9.72022L17.5844 9.70204C17.71 9.2045 17.8033 8.73947 17.862 8.21214C17.2998 8.75108 16.6621 9.27956 15.9929 9.65871C15.9555 9.50898 16.0173 9.37125 16.0311 9.22849C16.0815 9.24861 16.1 9.36738 16.1874 9.38479C16.3267 9.27956 16.3267 9.07413 16.4472 8.93717C16.5109 8.99984 16.5806 9.08109 16.6692 9.10121C16.7818 8.89383 16.8633 8.6826 16.9396 8.47252L17.142 8.61605C17.2734 8.38005 17.3439 8.11852 17.3959 7.84654C17.4687 7.92082 17.5277 8.06861 17.5647 8.19203C17.5844 7.76568 17.773 7.39814 17.7364 6.995C17.2734 7.32501 16.8585 7.77032 16.3578 8.01444C16.3767 7.90147 16.3669 7.74633 16.4141 7.63452L16.4846 7.77728C16.5924 7.63452 16.6227 7.45694 16.731 7.31225C16.7889 7.39349 16.8026 7.4995 16.8703 7.57959C17.0388 7.34823 17.0711 7.06348 17.2116 6.82748C17.2569 6.92188 17.3498 7.00197 17.4128 7.08786C17.4502 7.07509 17.4943 7.05768 17.5088 7.02015L17.6982 5.95737L17.6777 5.93455C17.3439 6.20808 17.0388 6.59961 16.6554 6.77138C16.6365 6.60541 16.6759 6.42435 16.7133 6.25644C16.7692 6.33652 16.7389 6.47425 16.7818 6.57368C16.7956 6.58645 16.8074 6.60541 16.8239 6.59187C16.8759 6.36244 17.0282 6.17635 17.1294 5.97092L17.236 6.18138C17.2998 6.02701 17.3439 5.85833 17.3675 5.6912C17.4069 5.68075 17.4266 5.75503 17.4648 5.71248C17.4884 5.43198 17.5844 5.16967 17.6344 4.89885C17.4325 5.04819 17.2294 5.26524 16.9967 5.37589V5.29038C17.0479 5.15923 17.0711 5.02111 17.1085 4.88609C17.1853 4.89886 17.2294 5.15227 17.3557 4.9979C17.3498 3.68288 17.514 2.39145 17.7494 1.13214C17.7289 1.11202 17.71 1.10815 17.6915 1.11202C17.4943 1.65869 17.3884 2.24211 17.2116 2.79536C17.0526 3.59002 16.7054 4.29609 16.4141 5.02807C16.3531 5.01647 16.3464 4.91588 16.2901 4.8621C16.2126 5.34609 15.9614 5.75968 15.8469 6.22742L15.7103 6.05796C15.5083 6.4994 15.4564 7.00196 15.2347 7.43025C15.1473 7.3548 15.1402 7.23139 15.0521 7.1455C14.8962 7.53625 14.7938 7.95177 14.5978 8.32318C14.5604 8.29107 14.4899 8.17539 14.4427 8.14869C14.2073 8.61605 14.1132 9.1368 13.9561 9.6324L13.7274 9.38479C13.5597 9.83203 13.5066 10.328 13.3763 10.7803C13.3125 10.6867 13.2692 10.5826 13.1948 10.4948C13.124 10.6317 13.1436 10.8314 13.0937 10.9865C13.0405 11.3521 12.9964 11.7011 12.9964 12.1031C12.9102 12.0222 12.8031 11.8918 12.715 11.78C12.6382 12.2942 12.6882 12.8234 12.7386 13.3442C12.6453 13.3008 12.5429 13.2188 12.443 13.1651C12.537 13.6038 12.6185 14.0889 12.6823 14.5602C12.5882 14.5536 12.4863 14.46 12.3981 14.4484C12.4607 14.913 12.5882 15.3471 12.6823 15.8013C12.5744 15.7761 12.4863 15.6713 12.3733 15.6338C12.5107 16.1042 12.7709 16.5507 12.924 17.0347C12.8268 17.0347 12.7217 16.9596 12.6256 16.948L12.6512 17.0587L13.1948 18.1648C13.0937 18.1648 12.9964 18.0963 12.8964 18.0793C13.1543 18.5613 13.4578 19.0581 13.7341 19.5498L13.4204 19.462C13.5841 19.8903 13.9432 20.2574 14.1266 20.6904C14.0384 20.6904 13.9432 20.6103 13.8491 20.6219C14.1132 21.0242 14.3317 21.4475 14.5281 21.8766L14.3407 21.8495C14.636 22.4147 14.9824 22.9614 15.1776 23.5711C15.1473 23.1533 15.217 22.7378 15.0973 22.354C14.8706 22.1304 14.6498 21.8816 14.6813 21.54C14.8009 21.7079 14.8312 21.9385 15.0088 22.0986C15.0599 21.8379 14.9265 21.6289 14.9147 21.3798L14.3278 20.7782C14.523 20.7646 14.4151 20.5352 14.5096 20.437C14.6163 20.7147 14.7049 21.0068 14.8962 21.2614C14.8773 20.9384 14.845 20.5979 14.7938 20.276C14.4966 19.9893 14.1305 19.809 13.8491 19.493C13.9825 19.462 13.9247 19.2953 13.9865 19.2074C14.0876 19.356 14.1443 19.5672 14.2463 19.6848C14.2955 19.5672 14.3014 19.4434 14.3163 19.3192C14.4427 19.5429 14.5604 19.835 14.7372 20.0752C14.8076 19.8168 14.7431 19.5255 14.7431 19.2508C14.3085 18.9018 13.8412 18.6112 13.3881 18.3133L13.4633 18.0963C13.5467 18.159 13.6215 18.2816 13.705 18.376C13.7412 18.3075 13.7676 18.2081 13.7715 18.1091C13.914 18.2333 13.9943 18.4445 14.1305 18.6C14.2002 18.5122 14.1817 18.3694 14.2388 18.2654L14.6557 19.0724C14.6813 19.0956 14.7183 19.132 14.7431 19.1138C14.732 18.7908 14.7431 18.4929 14.6879 18.1911C14.175 17.8487 13.64 17.5121 13.1614 17.0714L13.124 16.8668C13.1484 16.9855 13.2889 17.1167 13.4204 17.1736C13.4704 17.085 13.4633 16.9596 13.5066 16.8668C13.6026 17.0676 13.6656 17.3086 13.8412 17.4765C13.9247 17.3512 13.9943 17.2026 14.0435 17.0587C14.1817 17.2912 14.1699 17.5755 14.3278 17.7996L14.4584 17.5198C14.5466 17.6877 14.5927 17.8796 14.6879 18.0406C14.7372 17.7435 14.6498 17.4312 14.6813 17.1302C14.1002 16.7434 13.4901 16.4033 12.9531 15.9433C12.9393 15.8446 12.9338 15.7436 12.924 15.6384C13.0169 15.7591 13.0208 16.0733 13.283 16.0539C13.3633 15.968 13.3763 15.8562 13.4204 15.7502L13.4633 15.8013C13.5401 16.0253 13.6656 16.2276 13.7912 16.4338C13.8735 16.3155 13.8688 16.1611 13.9187 16.0299C14.064 16.271 14.1199 16.57 14.3278 16.7937C14.4025 16.8002 14.3711 16.7012 14.3966 16.6586L14.3848 16.247C14.4722 16.4389 14.5427 16.6385 14.6557 16.8246L14.6813 16.0857C14.0943 15.6713 13.4704 15.3618 12.9338 14.8391L12.9531 14.5033C13.0169 14.6279 13.0208 14.8082 13.1614 14.9084C13.2291 14.9645 13.2995 15.0368 13.3928 15.0368C13.494 14.9509 13.4763 14.8082 13.5467 14.7041C13.6105 14.9258 13.7274 15.1235 13.8491 15.3173C13.9187 15.1919 13.8991 15.0124 13.9561 14.8697C14.0502 15.0801 14.0746 15.3413 14.1904 15.5525C14.3014 15.4341 14.3014 15.2477 14.3711 15.1041C14.4466 15.3618 14.584 15.5901 14.6813 15.8446C14.7049 15.5459 14.7135 15.2546 14.7568 14.9509C14.1904 14.5834 13.6282 14.1814 13.0937 13.7396C13.0338 13.6665 12.9472 13.6104 12.9338 13.5179L13.0476 13.5419C13.074 13.4552 13.0846 13.3569 13.1114 13.2633C13.174 13.4235 13.2141 13.6104 13.3184 13.7655C13.4204 13.6858 13.5271 13.591 13.5893 13.4746C13.7078 13.6858 13.8038 13.969 13.9432 14.2131C14.0266 14.0944 14.1266 13.9036 14.2463 13.7783C14.3848 14.1311 14.5025 14.5103 14.7702 14.7946L14.8824 13.8456C14.2758 13.3628 13.6479 12.9712 13.1614 12.3387C13.2291 12.3251 13.3125 12.2826 13.3318 12.2025L13.5007 11.7552C13.5271 12.052 13.5204 12.3685 13.6215 12.6373L13.8865 12.4002C13.9062 12.6045 13.9247 12.8099 13.9983 12.9952C14.1081 12.8524 14.2002 12.6845 14.3014 12.536C14.3218 12.784 14.3514 13.0567 14.4092 13.3067C14.5163 13.1948 14.5604 13.0397 14.6694 12.9151C14.7372 13.1651 14.6938 13.4676 14.8824 13.6537C14.9824 13.567 14.8824 13.4676 14.9265 13.3492L15.0198 12.7472C14.6439 12.3452 14.1955 12.0106 13.8491 11.5575C13.7412 11.3711 13.5704 11.2082 13.4901 11.0163C13.5066 11.0105 13.5704 11.1223 13.6479 11.0964C13.7853 10.8573 13.8227 10.5756 13.9621 10.3338C13.9432 10.6758 13.914 11.055 13.9062 11.3954C14.0805 11.2662 14.0699 11.0414 14.2278 10.8921C14.2337 11.1707 14.2388 11.4802 14.3278 11.7425C14.4466 11.643 14.4722 11.4898 14.5675 11.3645C14.5675 11.5873 14.5557 11.8465 14.6242 12.0589L14.6879 11.9912L14.8706 11.643L14.9056 11.6752L14.9147 12.1444L14.9659 12.4261L15.0198 12.481L15.0521 12.4493L15.1206 11.8671L15.1532 11.643L15.1099 11.544L14.5557 10.8871L14.2278 10.3481L14.0435 9.96822L14.1305 9.99143L14.4151 9.45405L14.4427 9.43393L14.4092 9.70204L14.4151 10.2158L14.4427 10.4271L14.6879 10.0115L14.7568 9.94307L14.7135 10.5516L14.7242 10.8372V10.8747L14.8824 10.7184L15.0521 10.482H15.0836L15.0973 11.0732L15.1402 11.2082C15.1402 11.214 15.0973 11.2345 15.1776 11.2527L15.2473 11.0291L15.3111 10.5582L15.3619 10.3915L15.2796 10.2487L15.0521 9.93649L14.7938 9.41072L14.5675 8.82652L14.7431 8.96232L14.8147 8.87643L14.9659 8.5468L14.9056 9.44051L15.0403 9.3287L15.2658 9.00565L15.2914 10.0375L15.3473 10.1795L15.3914 10.1601L15.5524 9.28653L15.6465 8.63926L15.2796 7.93436L15.1902 7.75872L15.4749 7.46661L15.563 7.31805L15.4249 7.94403V7.96995L15.5926 7.80243C15.5926 7.77729 15.5457 7.93939 15.6465 7.74633L15.6662 8.51507L15.7339 8.32318L15.8606 7.703L16.0421 6.97682L15.9303 6.41854L15.9744 6.4611L16.0756 6.74159L16.1 6.72882L16.2728 6.1129L16.472 5.4993V5.2517C16.4846 5.2517 16.3905 5.35113 16.5405 5.26524L16.5609 5.29038L16.6885 4.9979L16.8448 4.51971L17.0987 3.86974L17.236 3.402V3.36331L17.2254 3.65657L17.0711 4.32781L16.2452 7.12035L16.0311 8.13863L15.7339 9.5527L15.6095 10.2054L15.3111 12.1708L15.2347 12.7356L15.1099 14.0193L15.0088 15.2419L14.9824 16.1418L14.9521 17.9973L14.9659 19.7839L15.1206 21.4843L15.2099 22.1427L15.2796 23.0666L15.2914 23.5583L15.304 24.2826L15.2658 24.979L15.2796 25.0475L15.2473 25.0088L14.9521 24.4764L14.5163 23.8942L13.9294 23.1668L13.8156 22.9935L13.224 22.1563C13.2192 22.1362 13.2562 22.2066 13.2562 22.2066L13.1799 22.0743L13.7479 22.7002L13.7341 22.5335L13.6341 21.9624L13.5893 21.5605L13.4086 21.8197L13.1799 21.1496L13.1043 20.7031C13.0976 20.6838 13.1377 20.671 13.0937 20.654L13.0208 20.8014L12.8268 21.4359L12.7953 21.5148L12.6717 21.3171L12.5803 21.1128L12.6953 21.1554L12.7256 21.1937L12.7512 21.1813L12.7079 20.9144L12.5244 20.4428L12.6579 20.5546L12.763 20.6904L12.809 20.7341V20.647L12.6823 20.2574L12.5 19.462L12.1859 20.5101L12.1024 20.7097L12.0721 20.678L11.9328 20.276C11.9399 20.2509 11.9769 20.2129 11.9202 20.189L12.128 20.276L12.1457 20.2323L12.0839 19.8524L11.9466 19.438L12.1154 19.5978L12.2418 19.7649L12.2859 19.809V19.6411L12.0721 18.3133L12.0339 18.1783L11.9906 18.2209L11.8296 18.8043L11.6356 19.84C11.5982 19.8787 11.7934 19.5429 11.5923 19.9777L11.5588 19.9394L11.4588 19.6411L11.5797 19.6732V19.5429L11.4777 19.1699H11.6619L11.6179 18.7358L11.5147 18.2027L11.5588 18.2449L11.6923 18.6112C11.7249 18.6356 11.623 18.6434 11.7454 18.6693L11.7328 18.0356L11.6619 17.4398V17.0714L11.5797 17.1852L11.3785 17.9102L11.1254 19.0956L11.0821 19.1842L11.0242 19.0956L10.9349 18.7908C10.9349 18.7861 10.929 18.8411 10.9223 18.7675H11.0616L11.0939 18.759L10.992 18.0356L11.1951 18.0963L11.1821 17.7609L11.1183 17.2026L11.3332 17.5496L11.351 17.5755L11.4029 17.4831L11.3647 16.9596L11.2628 16.3232L11.2321 16.1108L11.0486 16.459L10.777 17.3512L10.6259 18.0356L10.5495 18.4023L10.5247 18.4263L10.3983 18.1648L10.5495 18.1091L10.4688 17.6614L10.4239 17.4204L10.6259 17.5392H10.6514L10.6054 17.1302L10.5495 16.8931L10.6514 16.9364L10.8231 17.0714V16.919L10.7073 16.0984L10.8337 16.192L10.9349 16.348L10.9683 16.3789L11.0057 16.3356L10.9349 15.8446L10.777 15.1177L10.7506 15.0078L10.3109 16.3596L10.1724 16.7569L9.98814 17.4831L9.88697 16.9732C9.88107 16.9596 9.86257 17.0231 9.87516 16.948H10.0263L9.93106 16.3665L9.94602 16.3356L10.0834 16.4215L10.159 16.4338C10.1657 16.4389 10.1098 16.459 10.1842 16.4474L10.209 16.4215L10.0586 15.6636L10.0381 15.5092L10.1283 15.5951L10.3208 15.9317C10.3314 15.9394 10.2944 15.9471 10.2944 15.946C10.2944 15.9441 10.3078 15.9402 10.355 15.9317L10.3208 15.5765L10.1724 14.9691L10.2401 15.0368L10.455 15.3858L10.4995 15.3413V15.1919L10.2539 14L10.1145 14.2371L9.76061 15.298L9.55945 15.9549L9.44569 16.459L9.41302 16.4215L9.30712 16.0686L9.3209 16.0435H9.4327L9.47088 16.0106L9.3642 15.539L9.59173 15.5216L9.47088 14.8391L9.476 14.8012L9.53583 14.8581L9.64763 15.0078L9.68582 15.0368L9.72991 14.9942L9.71613 14.5602L9.68582 14.46L9.62716 14L9.8173 14.1872L9.90075 14.3126L9.93106 14.3489L9.98302 14.2921V14.0889L9.74368 13.083L9.53583 13.6104L9.26382 14.3915L9.03354 15.1312L8.93237 15.5525L8.83514 15.3734L8.75168 15.0627L8.90206 15.0801L8.88828 14.5923L8.87844 14.5602V14.5238L9.07959 14.5161L9.01464 13.9597L8.97842 13.7349L9.26382 13.9462L9.25123 13.6297L9.11699 12.9519L9.23076 13.0656L9.3768 13.2382L9.50159 13.3442C9.52678 13.3364 9.51537 13.2873 9.54568 13.3202L9.26382 12.382L9.18667 12.0648L8.93237 12.8842L8.53675 14.1253L8.41117 14.381L8.33284 14.1686V14.1311L8.39779 14.1002L8.37889 13.7396L8.35331 13.6537L8.36512 13.6297L8.50565 13.6413H8.53675L8.56234 13.598L8.54777 13.0134L8.52297 12.9027L8.53675 12.859L8.73318 12.9519L8.7753 12.9585L8.70681 12.4493L8.68122 12.3251V12.2884L8.87844 12.5797L8.90206 12.6045L8.95874 12.536V12.3387L8.75168 11.3645C8.74381 11.3711 8.79577 11.3954 8.7379 11.3386L8.64973 11.5312L8.29544 12.5062L7.98052 13.2749L7.95493 13.2931L7.92265 12.729H8.10806L8.0502 12.1773H8.11318L8.25135 12.2431L8.27694 12.2334L8.25135 11.433H8.32221L8.49187 11.5003L8.32221 10.6248L8.28481 10.3338L8.05728 11.0616L7.63804 12.2586C7.61442 12.2942 7.58136 12.1708 7.59513 12.3251L7.52625 11.9661L7.62623 11.9336L7.59513 11.3521H7.63804L7.74118 11.433L7.76558 11.4512L7.80967 11.3954L7.79629 10.7254L7.77267 10.6143L7.82266 10.5938L8.0002 10.7501L8.0376 10.7803V10.6809L7.77267 9.64517L7.72858 9.4908C7.72858 9.48306 7.69118 9.53413 7.7148 9.45405L7.68213 9.52253L7.31131 10.6809L7.18495 10.9865L7.09047 10.3036L7.27313 10.4464L7.29871 10.4271L7.22904 9.56508L7.41248 9.70204L7.52625 9.77632V9.6324L7.27313 8.58433V8.50424L7.22904 8.5468L6.9464 9.37899L6.84326 9.60184L6.80114 9.14183L6.71887 8.71471L6.97002 9.01919L7.0141 8.93252V8.71471L6.85625 8.10033L6.77476 7.74633L6.57164 8.02412L6.43308 7.24609L6.16264 5.23429C6.15476 5.22771 6.14492 5.23893 6.13784 5.22074L6.11737 5.26524L6.21932 6.58645L6.34608 7.4995L6.40788 8.057L6.67281 9.4966L7.03182 11.055L7.39988 12.2698L7.65891 13.0703L8.23875 14.6712L8.59068 15.4156L9.02251 16.1804L9.53583 17.1167L10.2983 18.4263L10.766 19.1022L11.1183 19.5727L11.9202 20.7588L12.1859 21.1496L12.7953 21.9884L13.9187 23.5382L14.3014 24.0532L14.7242 24.6432L15.0521 25.1891L14.9147 25.1593L14.1132 24.7291L13.2621 24.2826L12.3981 23.8485L11.9202 23.6508L11.2628 23.3715L10.3983 23.0504L8.32221 22.2159L7.05819 21.6723L6.13784 21.1689L5.2411 20.5786L4.12943 19.7282L3.2756 18.8902L3.05594 18.6248L2.5564 18.053L2.1592 17.4765L1.64785 16.5894L1.62856 16.5132L1.69115 16.5805L2.11511 17.1736L2.61348 17.8553C2.68315 17.9044 2.48003 17.8255 2.67134 17.9288L2.69496 17.9237L2.63788 17.6193L2.59379 17.4959C2.58317 17.4831 2.5564 17.5264 2.56939 17.4649L2.62725 17.5198L2.79692 17.9856L2.82841 18.1474L3.59288 18.8774L3.56926 18.7791L3.42086 18.5246L3.2071 18.2333C3.20789 18.2383 3.20632 18.2286 3.19451 18.2081L3.29528 18.2333L3.45235 18.3203L3.63579 18.6356L3.73696 19.0291L3.94599 19.2689L4.30027 19.5727V19.4736L4.11683 18.9915L4.05975 18.8774H4.09203L4.34436 19.1842L4.46994 19.4736L4.56992 19.7715L4.98129 20.0895L5.1726 20.2129L5.15961 20.1456L4.81123 19.7166C4.79745 19.7212 4.79155 19.7108 4.78486 19.7108L4.79745 19.6848L4.98129 19.6732H5.01239L5.03916 19.6547L4.86831 19.4311L4.84076 19.4071H4.94389L5.02617 19.438L5.15292 19.6164L5.39817 20.3569L6.08115 20.8331L6.09296 20.7646C5.90243 20.6308 5.73867 20.4242 5.5942 20.276L5.90913 20.3309L5.50012 19.8276L5.7064 19.8206L5.77686 19.84L6.03667 20.276L6.3634 20.9248L6.4008 21.0242L6.90034 21.3492L7.09047 21.4359V21.3724L7.02788 21.2065L6.6921 20.9449C6.67281 20.9314 6.82555 21.0242 6.63541 20.9144L6.87396 20.8447L6.52165 20.4985L6.63541 20.4791C6.6421 20.4687 6.6051 20.483 6.6051 20.483C6.60786 20.4849 6.62439 20.4791 6.68541 20.4551L6.3882 20.2129C6.35198 20.1998 6.41457 20.2923 6.4008 20.1619L6.43308 20.1456H6.47756L6.84326 20.5418L7.12787 21.0695L7.31918 21.492C7.46759 21.5477 7.60104 21.764 7.74118 21.6955L7.52625 21.3798L7.62623 21.2498L7.42311 20.9894L7.39988 20.9693L7.44594 20.8776L7.33021 20.6904L7.18495 20.5228L7.14558 20.49L7.21723 20.4428H7.25463L7.63804 20.9577L7.84117 21.4715L7.93643 21.7945L8.05728 21.863L8.45369 22.0185L8.47809 22.0445L8.46628 21.9884L8.22104 21.6289L8.33953 21.5044L8.11318 21.2111L8.13759 21.1256L8.08051 21.0126L7.94312 20.8447L8.0002 20.813L8.06988 20.8014L8.35331 21.2672L8.50565 21.6038L8.62414 22.0483L8.90206 22.1977L9.10321 22.2863C9.12368 22.2882 9.05007 22.2422 9.04928 22.2429C9.04928 22.246 9.07644 22.2681 9.18667 22.3416C9.19336 22.3346 9.13628 22.3269 9.20517 22.3269L9.04928 22.0866L8.87844 21.9056V21.8766L8.99023 21.7512L8.73318 21.4042L8.84498 21.2931L9.10321 21.7822L9.33153 22.3849L9.81336 22.5524L9.79958 22.4522L9.57205 22.1977L9.70353 22.0619L9.66141 21.8197C9.65354 21.8061 9.67204 21.8932 9.64763 21.7822L9.90075 22.1977L10.096 22.6453L10.4924 22.8237L10.5129 22.8004L10.4432 22.677L10.1283 22.3973L10.3983 22.3849V22.1725L10.7211 22.8438L10.7396 22.9122L11.2766 23.1622L11.2628 22.9935L10.9683 22.7002L11.2628 22.6894C11.2628 22.6836 11.2628 22.6511 11.297 22.677L11.4206 23.192L11.6867 23.3336L11.8572 23.3904L12.028 23.4833V23.3715L11.7757 23.1784L11.7485 23.1622L11.9466 23.2152L12.1024 23.2721L12.1977 23.5487L12.8964 23.9046L13.2621 24.0957L13.2192 23.9971L12.8197 23.5026L12.7512 23.3827L12.7256 23.3599C12.715 23.4512 12.6512 23.5448 12.715 23.6377L12.5941 23.5487L12.0839 22.8561L12.0465 22.7753C11.9769 22.8496 11.9631 22.9683 11.9328 23.0376L11.3647 22.275L11.2628 22.1176L11.2195 22.0743L11.136 22.3664L10.4239 21.5845L10.3853 21.5477L10.355 21.6154L10.3294 21.8932H10.2834L9.62716 21.056L9.60236 21.4715L9.45829 21.3492L8.92174 20.6664L8.90796 20.9449V20.9836L8.80758 20.9314L8.0002 20.2574L7.99351 20.5669H7.94312L7.14558 19.9518V20.0462L7.18495 20.3008C7.17117 20.3046 7.20936 20.3124 7.17117 20.324L6.67281 19.8787L6.42166 19.6048C6.4008 19.6164 6.47756 19.6357 6.3882 19.6299L6.42166 19.9777L5.6131 19.1699L5.60523 19.5498L5.55602 19.5429L5.09505 18.9915L4.93011 18.759L4.83013 19.139L4.43175 18.7482L4.07943 18.3462L4.03534 18.6557L3.73696 18.3694L3.36614 17.868C3.34527 17.8255 3.59288 18.1474 3.30906 17.7435L3.22088 17.9651L2.95398 17.6077L2.76543 17.3152L2.48711 16.8668L2.39854 17.0916L2.37492 17.1167L2.1407 16.6691C2.08362 16.5081 2.02576 16.3394 1.97064 16.192L1.91868 16.2361L1.85688 16.459L1.71753 16.3232L1.23885 15.5649L0.908179 14.8128L0.852281 14.6279C0.852281 14.6221 0.838502 14.5602 0.80701 14.6279L0.776699 14.6712L0.934554 15.1861L1.36363 16.3232L1.54708 16.8118L1.8061 17.3395L2.1592 17.9288L2.08953 17.868L1.72934 17.3512L1.55888 17.2169V17.2827L2.05803 18.1474L2.34264 18.3694L2.71464 18.537L2.84101 18.7908L2.65875 18.7118L2.54498 18.6112V18.7041L2.61348 18.9277L2.37492 18.6557L2.19739 18.4878L1.97064 18.376V18.4321L2.22888 18.8159L2.65875 19.3502L3.66256 19.5429L3.82041 19.8206L3.76136 19.8276C3.66728 19.7541 3.56021 19.7715 3.45235 19.6411L3.46494 19.7649L3.57989 20.0462L3.62398 20.1321L3.08035 19.6547L3.09334 19.7282L3.19451 20.0462C3.19529 20.0462 3.12286 19.9739 3.2071 20.0895L3.09334 19.9777L2.71464 19.5293L2.5564 19.493H2.51349L2.82251 19.9208L3.16774 20.3008L3.34055 20.3801L3.86371 20.4428H4.77305L4.86831 20.6103L4.89862 20.7097L4.70337 20.6347L4.54552 20.5418L4.51521 20.5786V20.7031L4.48844 20.7205L4.03534 20.5352L4.07943 20.7031L4.20383 20.9248L3.8771 20.7341L3.68106 20.5669L3.73696 20.9144L3.33386 20.5352H3.12562L3.13743 20.5786L3.84482 21.1937L4.59039 21.1813L5.52453 21.0819L5.54933 21.0695H5.58043L5.80914 21.3249L5.36785 21.2498L5.34109 21.2672L5.35408 21.4293V21.461L5.21551 21.4293L4.875 21.2815L4.89862 21.5605L4.33058 21.3608L4.41404 21.5044L4.68684 21.8379L4.56992 21.7945L3.96567 21.4715L3.84482 21.4158H3.66256L3.75074 21.5264L4.46994 22.0321L4.6396 22.0743L5.13914 21.9884L6.49015 21.6402H6.53542L6.78657 21.8061H6.49015L6.2516 21.7822L6.4008 21.9884L5.93471 21.9315H5.8918L5.89771 21.9884L6.03667 22.1613C6.03667 22.1667 6.05438 22.1253 6.04848 22.1861L5.8918 22.1563L5.58043 22.0483L5.45406 22.0321L5.46784 22.0986L5.72175 22.3416L5.6131 22.3269L5.19583 22.2104C5.16552 22.193 5.15292 22.2422 5.12615 22.2104L5.26354 22.3416L5.43556 22.4522L4.93011 22.323L4.68684 22.2545L4.53449 22.275L4.71636 22.4081L5.35408 22.677L5.51193 22.7002L6.10556 22.5459L7.31918 22.1052H7.43216L7.62623 22.2286L7.65379 22.2545C7.53136 22.2545 7.41248 22.248 7.27313 22.2979C7.25463 22.354 7.39988 22.4043 7.31918 22.4658L6.85625 22.4348L6.88971 22.4967L7.05819 22.6635L6.6921 22.6569L6.53542 22.6453H6.49015L6.67281 22.8004L6.47756 22.7888L6.2516 22.7443C6.23782 22.7312 6.20673 22.7184 6.18193 22.7571L6.4008 22.9819L6.06147 22.9006L5.93471 22.8438L5.55602 22.9374L5.60523 22.9819L6.02407 23.1119L6.60195 23.2353L6.92002 23.192L7.51247 22.9935L8.29544 22.619L8.50565 22.5652L8.6202 22.6325L8.64973 22.6635L8.37889 22.677L8.39267 22.8561L8.09428 22.8438L8.0502 22.8561V22.9006L8.1679 23.0666L7.59513 23.1053L7.85298 23.3278L7.11527 23.3336L6.95703 23.4264L6.92002 23.4589L7.62623 23.5487L7.86793 23.5583L8.39779 23.3904L8.97842 23.1119L9.4327 22.8561C9.51537 22.8794 9.57914 22.9374 9.66141 22.9819L9.41302 23.0105C9.41105 23.0504 9.45356 23.0144 9.44844 23.0047C9.44569 23.0001 9.41892 23.0039 9.34452 23.0504L9.41302 23.192L9.4327 23.2152L9.02251 23.2786L9.24453 23.4833L8.69381 23.44L8.95874 23.6377L8.22773 23.681L8.01083 23.7928L8.10806 23.8381C8.47298 23.9046 8.99614 23.8562 9.26382 23.8381L10.1842 23.4589L10.5955 23.3173L10.7829 23.44L10.8093 23.4589L10.5357 23.4833C10.4877 23.4763 10.8802 23.5026 10.3853 23.4589L10.568 23.6624L10.0263 23.681L10.1393 23.7928L10.2834 23.8601L9.47088 23.917L9.40121 23.9421L9.26382 24.059L9.3768 24.0957L10.5247 24.028L10.8231 23.9472L11.5147 23.6694L11.6041 23.6934L11.7619 23.8052L11.5147 23.8179L11.6041 23.9607L11.5923 23.9855L11.1498 23.9472L11.297 24.0957C11.3195 24.1089 11.136 24.0656 11.3647 24.1282L10.8337 24.1147H10.7211L10.4924 24.2207L10.9349 24.24L11.6619 24.2826L11.9702 24.295L12.5567 24.141L12.7512 24.24L12.7709 24.2652L12.4311 24.2536C12.2351 24.3135 12.0517 24.3259 11.8761 24.5437L12.9964 24.5565L13.8294 24.866L14.4289 25.215L14.7431 25.4494L15.0285 25.6239L14.5557 25.6479L12.1977 26.0077L12.2292 25.971L13.5204 25.704L12.6118 25.3933L12.2528 25.2324V25.2815L12.6382 25.7485L12.3095 25.6936L11.8454 25.5477C11.8367 25.5419 11.8237 25.5554 11.817 25.538L12.2528 25.4688L11.9906 25.3442L11.2321 25.114H11.1754V25.1465L11.9013 25.9141L11.3332 25.7829L11.4777 25.68L11.5588 25.6479L11.5797 25.6239L11.5147 25.5922L10.7396 25.4494V25.4255L11.1636 25.3009L11.1254 25.2711L10.9349 25.2583L10.1145 25.1334L10.6259 25.6046L11.136 26.0387L11.2321 26.1516L10.6829 26.1079H10.6514L10.7073 26.0522L10.9486 25.9528L10.2401 25.8475L10.2169 25.8286L10.5495 25.7164L10.4806 25.6479L10.0019 25.5613L9.67204 25.5477L9.74368 25.4804L10.0834 25.3705L9.92437 25.3268H9.30712L8.95874 25.3384L9.76061 25.9412L10.1283 26.2371L10.1531 26.2634L9.92437 26.2739L9.64291 26.1756L9.68582 26.1265L9.8173 26.0696L9.7547 26.0147L9.07959 25.9837L9.45829 25.8855C9.46498 25.865 9.4819 25.8785 9.48978 25.8592L9.14927 25.7829L8.63713 25.7485L8.53675 25.7601L8.56745 25.7292L8.94811 25.6046C8.95677 25.5814 8.87844 25.6174 8.87922 25.6174C8.87922 25.6174 8.91465 25.6038 9.03354 25.5477L9.02251 25.5257L7.90887 25.538L8.83514 26.3857L8.39779 26.4426L8.45369 26.3308L8.52297 26.2634V26.219C8.32221 26.2143 8.13759 26.2371 7.96871 26.195L8.25135 26.0646L8.30922 26.0077V25.9837H7.48137L7.99351 25.8158L8.01083 25.7829L7.95493 25.7292L6.74249 25.7829L7.39988 26.2371L7.63804 26.429L7.25463 26.4619H7.20463L7.3554 26.3435C7.3495 26.3308 7.32312 26.3695 7.33021 26.3068L6.49015 26.2634L6.53542 26.219L6.85625 26.1195C6.89325 26.0832 6.96411 26.0522 6.97002 26.0147L6.92002 25.9961H5.83945L6.06816 26.2371L6.35198 26.4747L6.2516 26.5111L5.96739 26.4851L5.54933 26.4062L5.90913 26.2634L5.9477 26.2306L5.90913 26.2074H5.297L4.71636 26.1516L4.74077 26.2371L4.81123 26.3435L4.41876 26.3172L3.54643 26.1195L3.56926 26.195L3.64957 26.3068L3.66256 26.3435L4.36208 26.4987L5.43556 26.6287L6.21932 26.6666L7.88526 26.6287L9.07251 26.573L11.7328 26.3992L13.8156 26.0522L14.4584 25.9412L15.1532 25.9141L14.9714 26.2634L14.7702 26.5285L14.3848 26.9335L14.012 27.1997L13.3881 27.4667L13.0102 27.6028L13.1948 27.7135L13.6912 27.8265L13.7148 27.8524L13.2751 28.1062L13.4086 27.9124L13.3389 27.8698L12.9964 27.9963L12.8405 28.0822L13.0543 27.8141L12.8405 27.8524L11.9013 28.242L11.8761 28.2613L12.1859 28.3859L12.7709 28.5209C12.7913 28.5325 12.7248 28.5306 12.7248 28.5306L12.8405 28.541L12.2733 28.7755L12.2048 28.8188L12.3733 28.62C12.3863 28.6029 12.4311 28.6637 12.4107 28.5643H12.3095C12.1154 28.6335 11.9399 28.7504 11.7619 28.8324L11.8052 28.7322L12.0143 28.466L11.9131 28.4842L11.3443 28.8188L11.0057 29.0811C10.9979 29.085 10.9605 29.0483 10.992 29.1121L11.5344 29.1937L12.0839 29.2471L12.0339 29.2924L11.5474 29.6135L11.6867 29.3589V29.3222H11.5718L11.2069 29.4467L11.1077 29.4901L11.1183 29.2104L10.4995 29.6576L9.98814 29.9501L11.0675 30.036L11.0616 30.0839L10.7967 30.2519L10.8802 30.0909L10.766 30.0839L10.6955 30.106L10.096 30.5316C10.0834 30.5393 10.1724 30.5149 10.0586 30.5498L10.3853 30.1273V30.106L10.355 30.0839L10.2169 30.1273L9.38743 30.754C9.38389 30.7629 9.46498 30.73 9.3642 30.7861H10.0145L9.81336 30.997C9.79289 30.9479 9.84879 30.8968 9.76061 30.8554L9.30712 31.3204L8.99023 31.71L7.7089 32.9771L7.42311 33.3001L7.44594 33.3249L7.80967 33.0463L8.39779 32.5294L9.24453 31.9162L10.1531 31.3317L10.3432 31.2334L10.3668 31.2075L10.355 31.488L11.1951 30.9413V31.1777L11.8454 30.7196L12.1024 30.5064L12.128 30.648V30.6743H12.1859L12.8268 30.029L12.8523 30.1176V30.272L13.5664 29.2471L13.6215 29.5334C13.6282 29.5458 13.6479 29.5199 13.6341 29.5593L13.7341 29.3914L14.1699 28.3859L14.2388 28.6335L14.2955 28.5209L14.5675 27.628L14.6557 27.4245H14.6242L14.2955 27.7398L14.1904 28.0501L14.1699 28.1863C14.1443 28.2114 14.3163 27.9874 14.0746 28.2613L14.1002 28.0203L14.0746 27.9963L13.6026 28.4726L13.533 29.1121L13.2192 29.3098L13.4507 29.0301V28.9732L13.1614 29.0688L13.4633 28.6954V28.596H13.4204L12.8834 29.0811L12.809 29.8062L12.4567 29.9806L12.7256 29.6692L12.715 29.6441L12.3556 29.7253L12.6012 29.4467L12.6579 29.3345V29.2924H12.6118L12.1154 29.6924L12.0465 30.272L11.706 30.4948L11.9328 30.1718V30.1466L11.8296 30.1718L11.5797 30.272L11.9202 29.9354L11.9702 29.8688C11.9631 29.8553 11.9505 29.9806 11.9572 29.8247L11.3088 30.3087L11.2766 30.6635L10.9223 30.7985L11.1254 30.5621V30.4503L11.0675 30.4399L10.6955 30.7196L10.4432 30.8852L10.4109 31.0655L10.355 30.978L9.85548 31.2574L9.45829 31.5429L9.79958 31.2075L10.7258 30.4766L11.706 29.7938L12.4567 29.1806L13.5597 28.218L14.8253 26.9335L15.2532 26.4553L15.304 26.4062L15.1902 28.3298L14.995 29.4146L14.6998 30.3281L14.2573 31.2574L13.9432 31.8044L13.8865 31.8218H13.8412L13.8156 31.8044L14.1266 31.2024L14.584 30.036L14.7568 29.4216L14.9383 28.3596L15.0088 27.2554V27.1869L14.9147 27.2933L14.5978 28.2056L14.2171 29.2471L14.1573 28.9171L13.9983 29.1937L13.7853 29.7129L13.6215 30.0607L13.533 29.6019L13.4507 29.682L13.0338 30.3521L12.6953 30.7726L12.6823 30.407L11.9769 31.0655L11.9572 30.8295H11.9202L11.706 31.0357L11.1254 31.4446L11.0939 31.4814L11.0616 31.221L11.0057 31.2334L10.3208 31.7619C10.2983 31.7619 10.2834 31.787 10.2649 31.7917V31.5247V31.4814L10.209 31.488L9.09219 32.196L7.42311 33.4359L7.27313 33.3802L7.25463 33.3558L8.27694 32.2265L8.90796 31.5123L9.41302 30.9413H8.93237L9.34452 30.5621L9.86847 30.0909L9.68582 30.0839H9.57205L10.1019 29.6576L10.777 29.1937L10.455 29.1543L10.5357 29.0811L11.706 28.3406L11.408 28.2296L12.1721 27.8698L12.763 27.628L12.7256 27.5785L12.5429 27.5034L13.1043 27.2991L13.9432 27.0194L14.3592 26.7088L14.6998 26.3172L14.9056 26.0522L14.8962 26.0259L14.5163 26.0696L13.9187 26.2371L13.5204 26.3857L12.6012 27.0879L12.3174 27.3549L12.3095 27.0744H12.2615L11.9906 27.2365L11.1951 27.647L11.1754 27.4609L10.1531 28.0203V27.8141L9.61614 28.0242L9.09219 28.1747L8.90206 28.1928C8.90796 28.1186 8.91583 28.0636 8.97842 27.9808L8.86466 27.9963L8.19466 28.1371L7.63804 28.218H7.61442L7.69591 28.0636L7.76558 27.9681H7.0141H6.55983L6.59211 27.8961L6.70509 27.7708L6.6921 27.7475L5.72568 27.7135L5.42375 27.6605L5.54933 27.4794L5.15292 27.411L4.47584 27.3676L4.69747 27.1262L4.64669 27.0879L3.73184 26.8643L2.63788 26.4987L1.90018 26.1822L1.53408 26.0077L1.51558 25.9412V25.8978L3.50352 26.3172L3.26497 25.9141C3.26497 25.8855 3.28859 25.9211 3.28465 25.9238C3.28465 25.9269 3.27206 25.9153 3.24056 25.8719L4.14714 26.1195L4.47584 26.164L4.37585 25.9412L4.50222 25.9276L5.50012 25.9961L5.6501 25.971C5.67687 25.971 5.5883 26.0464 5.69537 25.9594L5.49225 25.7829H6.16264L6.50393 25.7601L6.42166 25.6174L7.65379 25.5055L7.67072 25.4804L7.58136 25.3442V25.3144L8.73318 25.2583V25.215L8.58005 25.0896L8.54777 25.0598H9.7547L9.92437 25.078L9.77321 24.897L10.4995 24.9461L11.0675 25.0212V24.9527C11.0616 24.9094 11.0486 24.8726 11.0116 24.8343L11.1636 24.8409L12.0017 25.0896L12.0887 25.1334V25.0038L12.0721 24.9527L12.1583 24.9662L13.0476 25.3268L13.1043 25.3442L13.3881 25.4255L13.9561 25.4939L14.4966 25.4494L14.0876 25.1775L13.5066 24.9094L12.9338 24.7117H12.0721L11.6493 24.7414L11.5923 24.7678H11.5588L11.6923 24.5062L10.8967 24.4184L10.3853 24.4455H9.98302L10.1724 24.2296L9.57205 24.2768L8.99023 24.3201L8.78908 24.3646L8.94811 24.1089L8.53675 24.0957L7.51247 24.0156L7.48806 23.9971L7.67072 23.8381L7.7089 23.8052L7.48137 23.7618L6.85625 23.7359L6.40788 23.7061L6.57164 23.5487L6.68541 23.4697L6.70509 23.4465L6.63541 23.4156L6.3075 23.3827L5.87803 23.2721L5.04388 22.9819L5.27259 22.8561L5.2411 22.812L4.70337 22.6074L4.09203 22.2863L4.02157 22.2159L4.24831 22.1563C4.255 22.1478 4.2306 22.1977 4.2735 22.1427L3.26497 21.3492L3.2071 21.2931L3.22088 21.2672L3.6043 21.2498L3.44841 21.0927L2.78432 20.4985L2.61348 20.3433H2.99335L2.27218 19.5169L2.12889 19.2689L2.35563 19.2825L2.39854 19.3088H2.43004L2.01513 18.7675L1.64785 18.2027C1.62856 18.1698 1.65375 18.14 1.57739 18.1091L1.74311 18.135L1.90018 18.1911L1.23885 17.0289L1.34474 17.0347L1.55888 17.1477L1.54708 17.0916L1.24947 16.4907L0.919988 15.4291L0.776699 14.8832L0.682617 14.5795L0.852281 14.4108L0.979823 14.6712L1.23885 15.2875L1.62856 15.8883L1.80019 16.1108L1.862 16.0106L1.94348 15.8083L1.97064 15.7878L2.12889 16.1108L2.24069 16.4215L2.36823 16.6586L2.48711 16.4772L2.76543 16.9797L3.15002 17.5392L3.22679 17.644L3.32087 17.408L3.9578 18.3338L4.00267 18.1783C4.01842 18.1439 3.99204 18.3075 3.98929 18.3075C3.98929 18.3075 3.99598 18.2344 4.03534 17.9856L4.40026 18.4445L4.59039 18.6797L4.74077 18.8159L4.8565 18.3888L5.07144 18.6492L5.49225 19.139L5.52453 18.7791L6.20673 19.462C6.21932 19.4813 6.17602 19.4995 6.23782 19.5169L6.2516 19.1571L6.289 19.139L6.95703 19.8957V19.5169L6.97592 19.493L7.80967 20.2574L7.82266 19.9394V19.9085L7.87935 19.9208L8.39267 20.324L8.7627 20.5913H8.78908L8.85088 20.269L9.28744 20.8014L9.41892 21.0242L9.47088 20.9314L9.50159 20.6219L9.52678 20.5979L9.88697 21.0927L10.1952 21.5728L10.2983 21.1937L10.7829 21.6955L11.1183 22.0445L11.1754 21.9934L11.2392 21.7388L11.2628 21.7144L11.4344 21.9884L11.5923 22.1977L11.8643 22.5892L11.9466 22.6569L12.0143 22.4967V22.4522L11.7619 22.323L11.8643 22.2545L12.1457 22.2104L11.7485 21.9489L10.9349 21.4843L11.3088 21.4359L11.2069 21.3724L10.355 20.9144L10.0019 20.6664C10.0019 20.6579 10.0078 20.6405 9.98302 20.654L10.3294 20.6219L10.2735 20.5669L9.57205 20.1011L9.00401 19.6848L9.14927 19.6597L9.25123 19.6732L9.24453 19.6411L7.99351 18.8341L8.42298 18.7908H8.50565L8.41117 18.7041L7.74118 18.2584L7.39988 17.9973L7.31918 17.9412C7.31131 17.9237 7.33493 18.0723 7.29871 17.8854H7.65891L7.19755 17.3713L6.73146 16.8931L7.00033 16.924L6.86294 16.7569L6.3323 16.1677L6.17602 15.9866L6.13784 15.968L6.52165 16.0253L6.40788 15.8446L6.23782 15.6384L6.03667 15.3038L5.77686 14.9509C5.75718 14.9374 5.76308 14.92 5.73867 14.9084L6.16264 14.9942L6.13784 14.8929L5.7064 14.1002L5.50012 13.6962L5.68278 13.7349L5.79536 13.7906L5.78276 13.6858L5.48044 12.6741C5.46194 12.5987 5.51862 13.0935 5.43556 12.4926L5.78276 12.784V12.6482L5.669 12.1205L5.53752 11.3761C5.54224 11.3521 5.51862 11.537 5.54933 11.3076L5.79536 11.4775L5.52453 10.2228L5.78276 10.3714L5.79536 10.2727L5.7064 9.73376L5.58043 8.92015C5.5942 8.90157 5.53752 8.88726 5.60523 8.87643L5.76308 9.00565V8.92015L5.5942 8.27946L5.50012 7.84654V7.82139L5.77686 7.93436L5.80914 7.76568L5.83394 6.1129L5.8918 4.84276L5.9477 4.04732L6.09296 3.99238L6.11737 4.07905L6.18193 4.89885L6.3634 5.93455L6.53542 6.97682L6.62951 7.5556L6.93262 7.21901L7.00033 7.46661L7.14558 8.26708L7.19755 8.22375L7.31131 7.9893L7.59513 9.19948L7.77267 8.83812L7.98052 9.70204L8.11318 10.111L8.18364 10.0483L8.33284 9.80031L8.58005 10.9969L8.60367 11.0964L8.66035 11.0414L8.7753 10.805C8.79577 10.7992 8.70681 10.7501 8.82136 10.7927L8.92174 11.3076L9.04928 11.7289L9.23076 11.5072L9.64291 12.9267L9.68582 12.8842L9.81336 12.6482L9.83029 12.6238L9.88697 12.8041L9.98814 13.3442L10.1019 13.8456L10.1283 13.8649L10.355 13.5303C10.355 13.5353 10.305 13.4746 10.3853 13.5303L10.5955 14.8012L10.6054 14.9084L10.6514 14.8581L10.777 14.5923L10.8408 14.5486L10.9223 14.8507L11.0486 15.5293L11.1498 15.9433L11.3891 15.5649L11.4777 16.4033L11.5588 16.919L11.6619 16.8118L11.7993 16.5894L11.8761 17.3647L11.9572 17.9102L12.1457 17.6877L12.2615 18.376L12.3863 19.1842C12.3843 19.1745 12.389 19.185 12.3981 19.2074L12.5803 18.9343L12.9393 20.5418C12.9472 20.5546 12.9338 20.5584 12.9531 20.5669L13.0937 20.3673L13.224 20.1456L13.2621 20.1754L13.4507 21.3492L13.4763 21.461C13.4802 21.4715 13.4633 21.3798 13.4901 21.492L13.7274 21.2065L13.8156 22.1052L13.9983 22.9006L14.0876 23.1053L14.4966 23.5583L15.1336 24.4513L15.0973 23.8737L14.9659 23.4697L14.7568 23.0001L14.2278 22.0445L13.9187 21.5961L14.2278 21.6402L13.7715 20.813L13.5204 20.411L13.7853 20.4791L13.7715 20.411L13.4507 19.9344L13.0338 19.2132H13.1114L13.2621 19.2508H13.3074L12.8405 18.4321L12.4244 17.5883L12.5107 17.6309L12.809 17.8293L12.8197 17.7996L12.5107 17.2169L12.2615 16.6006L12.6012 16.7685L12.5697 16.6385L12.3284 16.0686L12.1859 15.6338L12.128 15.3858L12.2418 15.4109L12.4567 15.5293L12.443 15.4156L12.2733 14.8929L12.128 14.1582L12.3981 14.2441C12.3981 14.2441 12.4008 14.1841 12.4311 14.2692L12.3095 13.6858L12.1583 12.8958L12.1154 12.7608L12.2048 12.784L12.5107 12.9952L12.4803 12.4261L12.4863 12.0589L12.5803 11.5003L12.6118 11.4639L12.809 11.7011C12.813 11.7077 12.7795 11.7146 12.7795 11.7146C12.7795 11.7127 12.7933 11.7088 12.8405 11.7011L12.8523 11.2527L12.9964 10.5516L13.1043 10.2595L13.224 10.3915C13.224 10.3953 13.2428 10.3145 13.2495 10.4271L13.283 10.328L13.3074 10.104L13.4901 9.38479L13.5597 9.21689L13.5775 9.07412C13.5704 9.05787 13.5967 9.05787 13.5893 9.0424L13.8601 9.3287L13.9062 9.24281L14.1817 8.26244L14.3407 7.81404L14.3848 7.73473L14.5163 7.90147C14.6037 7.703 14.7242 7.44921 14.7242 7.28633L15.0088 6.69826L15.0521 6.74159L15.1961 6.98146L15.3249 6.67195L15.419 6.36244L15.6201 5.72408L15.7642 5.8475L16.1645 4.58238L16.3464 4.74836L16.3905 4.66247L16.731 3.61439L17.5777 1.07527L17.608 0.976996C17.6982 0.976996 17.812 0.964231 17.8494 1.03194ZM16.8026 28.4397C17.0282 28.6838 16.8896 29.0417 16.9585 29.3345H16.9841L17.0849 28.9306C17.3628 29.2401 17.5218 29.6626 17.608 30.0839C17.6679 29.9423 17.6041 29.8004 17.6218 29.6441C17.8415 29.9354 18.3095 30.0975 18.2588 30.5316C18.2517 30.5621 18.2654 30.5873 18.2891 30.6066C18.3398 30.4995 18.3332 30.3702 18.3332 30.2402L18.802 30.5873C18.8347 30.7494 18.9228 30.8852 18.9972 31.0357V30.6442C19.548 30.9181 20.1168 31.2527 20.5939 31.6798C20.3809 31.5738 20.1727 31.4446 19.9522 31.3587L19.9255 31.6365C19.6743 31.438 19.4397 31.221 19.1563 31.079C19.1496 31.139 19.124 31.1959 19.1299 31.2643L18.4166 30.6743C18.3674 30.7629 18.3792 30.872 18.3595 30.978L17.6679 30.1466C17.6285 30.2654 17.6041 30.3838 17.5777 30.4948C17.3766 30.1602 17.1979 29.8178 17.0105 29.4773C16.9514 29.4978 16.9164 29.5891 16.8703 29.6441L16.6133 28.6896L16.4846 28.8072C16.5279 28.4292 16.4543 28.0242 16.4602 27.6837C16.5609 27.9452 16.7192 28.1747 16.8026 28.4397V28.4397ZM30.8942 18.5447C30.7804 18.6492 30.6096 18.7184 30.4753 18.8244C30.5509 18.9142 30.7351 18.9343 30.8619 19.0028C30.5344 19.1571 30.1986 19.356 29.8691 19.5293L30.3057 19.6164C29.9455 19.7916 29.5676 19.9208 29.246 20.1754L29.2578 20.1998C29.3715 20.194 29.4597 20.2439 29.5727 20.2439C29.2578 20.3499 28.9732 20.5294 28.6582 20.6347C28.7464 20.6962 28.8791 20.6904 28.985 20.7341C28.6956 20.8517 28.3433 20.9759 28.039 21.1496C28.1331 21.1987 28.2461 21.2305 28.361 21.2498C27.9871 21.4417 27.5855 21.5605 27.2002 21.7272C27.2805 21.7887 27.4474 21.8332 27.5788 21.863C27.2746 21.9748 26.9088 22.0812 26.6014 22.2422C26.7195 22.323 26.884 22.3029 27.0155 22.354C26.5821 22.5025 26.0826 22.5459 25.6507 22.7443L26.1641 22.8883C25.7618 22.9614 25.3949 23.1293 25.0276 23.3038C25.0729 23.3645 25.2102 23.3645 25.2917 23.4264C24.9268 23.5324 24.5599 23.6191 24.2005 23.7359C24.3352 23.8179 24.5095 23.8381 24.6568 23.9046C24.2891 24.0234 23.8915 24.0714 23.5313 24.2083L23.6904 24.3762C23.3105 24.4455 22.9015 24.5062 22.5082 24.5759L23.033 24.755C22.609 24.7678 22.2059 24.8602 21.7831 24.8931L21.7595 24.9094L22.0654 25.114L20.9864 25.215C21.006 25.275 21.1068 25.3183 21.1765 25.3442C20.8872 25.3512 20.5821 25.3752 20.2928 25.4138L20.425 25.5257L19.3818 25.5055L19.5861 25.704C19.2838 25.6982 18.8965 25.5814 18.541 25.5922L18.7591 25.8719C18.3918 25.8545 18.071 25.7485 17.7364 25.6615C18.2977 25.5055 18.8768 25.4003 19.4133 25.1891C19.6235 25.2517 19.8109 25.3442 20.0286 25.3705L20.0392 25.1775C19.8755 25.1593 19.6928 25.22 19.5291 25.1728C19.8188 25.114 20.103 24.738 20.4191 24.979L20.9293 25.0598C20.9812 24.6877 20.5132 24.972 20.312 24.8544C20.4376 24.7678 20.6203 24.7117 20.7663 24.6296C21.0588 24.707 21.3855 24.7244 21.676 24.7414C21.6111 24.2903 21.1765 24.6741 20.9049 24.5863C21.0812 24.4679 21.2973 24.3762 21.4847 24.24C21.8575 24.2721 22.1854 24.4079 22.5661 24.4184C22.609 24.3712 22.6043 24.3019 22.6228 24.24C22.4885 24.1832 22.1988 24.3762 22.2106 24.1147C22.0362 24.141 21.826 24.1669 21.6327 24.1832C21.7772 24.0656 22.0028 23.9797 22.1795 23.8485C22.6043 23.9298 23.0074 24.059 23.4766 24.0423C23.449 23.9673 23.3302 23.9363 23.2774 23.8601C23.1829 23.8872 23.0841 23.9046 22.9822 23.9298C22.9566 23.8601 23.0074 23.7878 22.9771 23.7185L22.3244 23.7812L22.8495 23.4697C23.2991 23.5208 23.7199 23.6307 24.1576 23.7185C24.1938 23.6694 24.1309 23.6075 24.1202 23.5487C24.0612 23.5274 24.023 23.6261 23.9474 23.6075L23.8915 23.4156C23.8081 23.4465 23.7199 23.4763 23.6317 23.4949L23.6451 23.3173C23.4305 23.3336 23.192 23.4156 22.9771 23.3904C23.1723 23.2585 23.3735 23.0983 23.5884 22.9935C24.0612 23.0415 24.5363 23.1119 25.0209 23.1486C25.0406 23.1169 25.0276 23.0724 25.0276 23.0376C24.9268 23.0175 24.815 23.0666 24.6989 23.0376L24.6816 22.925C24.5599 22.9122 24.4418 22.9683 24.3143 22.9819C24.3017 22.925 24.3017 22.8623 24.2694 22.812C24.0879 22.8623 23.8915 22.9614 23.7022 22.925L24.1761 22.5776C24.5851 22.6894 25.0209 22.7312 25.483 22.7138C25.5134 22.677 25.5263 22.6395 25.5204 22.5892C25.4193 22.5962 25.2984 22.6635 25.1906 22.6569C25.1543 22.5962 25.2484 22.5459 25.2799 22.4898C25.1103 22.4967 24.9268 22.5524 24.7453 22.5776C24.7823 22.5091 24.815 22.4406 24.8512 22.378C24.6619 22.3915 24.4773 22.5207 24.2832 22.5207C24.4155 22.378 24.5981 22.2584 24.7686 22.1613C25.2799 22.193 25.7913 22.248 26.3022 22.2422C26.3416 22.1795 26.3672 22.1176 26.3719 22.0445L26.0432 22.1176C26.0385 22.0483 26.07 21.9682 26.0432 21.9191C25.8657 21.9884 25.7106 22.0936 25.5204 22.1304L25.5763 21.8816C25.3409 21.9191 25.1012 22.0375 24.8579 22.0866C25.0473 21.9191 25.3122 21.7887 25.537 21.6402L27.0411 21.7272C27.1198 21.6955 27.112 21.5903 27.1293 21.5148C27.0411 21.5102 26.9529 21.5643 26.8589 21.5961L26.9155 21.3608C26.74 21.4293 26.5428 21.5342 26.3357 21.5728L26.3463 21.3492C26.0944 21.3798 25.8724 21.5477 25.6094 21.5845L26.2904 21.0819C26.79 21.1496 27.3245 21.0877 27.8241 21.0927L27.9753 20.8881C27.8812 20.9314 27.7603 20.9759 27.6418 20.9894C27.6525 20.9384 27.6985 20.895 27.7123 20.8447C27.5277 20.8776 27.3442 20.9894 27.1293 20.9894L27.2002 20.8215C26.9608 20.8776 26.6959 20.9894 26.429 20.9894C26.6065 20.8447 26.8722 20.7097 27.0864 20.5418C27.5348 20.5979 28.0311 20.5979 28.5177 20.6103C28.6149 20.5488 28.7279 20.4486 28.7767 20.3433L28.3473 20.49L28.3236 20.324L27.8694 20.49L27.8949 20.269C27.6525 20.3008 27.4139 20.4164 27.1667 20.4687C27.5592 19.9588 28.2921 20.1391 28.8602 20.1011L29.1184 20.1321C29.1578 20.081 29.1771 20.0211 29.1999 19.9642C29.1381 19.9394 29.083 20.0021 29.0046 19.9951L28.9732 19.8833C28.8464 19.8833 28.7149 19.9344 28.5893 19.9518L28.5622 19.8524C28.3748 19.8276 28.2166 19.9394 28.0205 19.9344C28.1843 19.7967 28.3697 19.6926 28.5512 19.6048C28.9161 19.5545 29.3393 19.5672 29.712 19.5978C29.7443 19.5255 29.7825 19.455 29.8152 19.3827C29.705 19.4071 29.5845 19.462 29.4597 19.4871C29.4668 19.4252 29.4597 19.3684 29.4274 19.3231C29.2196 19.4001 29.0047 19.4705 28.772 19.438C28.9673 19.3231 29.1771 19.1773 29.3991 19.0956C29.655 19.108 29.9526 19.1699 30.1986 19.084L30.1435 19.0395L29.6002 19.0028C30.0356 18.8411 30.432 18.6112 30.8942 18.5447V18.5447ZM6.06147 4.28525C5.98471 5.644 6.21932 6.96328 6.2516 8.32318C6.35198 8.81491 6.40788 9.31516 6.52165 9.80031C6.25672 9.72525 6.3264 9.41458 6.21932 9.22849L6.19295 9.24281C6.21342 9.42813 6.19295 9.62582 6.29412 9.77632C6.80114 10.0309 6.63541 10.6143 6.83066 11.0163L6.90034 11.2527C6.49015 11.1099 6.62282 10.6066 6.43308 10.3036L6.40788 10.328C6.45276 10.4522 6.42756 10.6015 6.43308 10.7385L6.2516 10.3714C6.22641 10.5516 6.19964 10.7435 6.27522 10.9045C6.46654 11.0964 6.68541 11.2709 6.91412 11.3954L6.95703 11.4775C7.04048 11.9162 7.15267 12.351 7.28691 12.7724C7.07788 12.5004 7.0141 12.1638 6.84326 11.8794C6.80114 12.0288 6.83066 12.24 6.82004 12.3576C6.71887 12.1889 6.71296 11.9789 6.57833 11.8245C6.49016 11.9054 6.53031 12.1031 6.45788 12.1708C6.34608 11.9912 6.31262 11.7734 6.21932 11.5997C6.16815 11.7359 6.16815 11.9402 6.21932 12.0779C6.54802 12.4137 6.93774 12.7039 7.33021 12.9267L7.60104 13.7655C7.39398 13.6471 7.31131 13.3248 7.16133 13.107L7.07118 13.4746C6.99639 13.3306 6.93774 13.1813 6.90034 13.0269L6.87396 13.0397L6.85625 13.4552C6.76099 13.3306 6.71887 13.1252 6.62951 12.9712L6.59211 13.2931C6.49016 13.1457 6.37718 12.9952 6.26262 12.859L6.23782 12.8718L6.27522 13.2324C6.67871 13.591 7.19085 13.7164 7.65891 13.921L8.0002 14.7946C7.67072 14.7339 7.54396 14.33 7.39988 14.0715C7.3495 14.2073 7.3554 14.3857 7.3554 14.535C7.24282 14.3915 7.13378 14.1621 7.02788 13.976C6.98379 14.1137 7.04048 14.2603 7.03182 14.4108C6.92002 14.2565 6.79327 14.1002 6.73146 13.921C6.68541 14.0259 6.67281 14.1621 6.64801 14.2804L6.3634 13.9644C6.4008 14.0889 6.3693 14.2921 6.52165 14.3489C7.02119 14.5795 7.52625 14.79 8.05728 14.9374C8.17774 15.1997 8.27694 15.4659 8.434 15.7069C8.18876 15.6152 7.95493 15.3974 7.87935 15.1486C7.83526 15.2419 7.86203 15.3618 7.85298 15.4659C7.75378 15.4291 7.67859 15.3173 7.60104 15.2477C7.53136 15.2651 7.55774 15.3904 7.50066 15.4531C7.36721 15.3788 7.24951 15.2477 7.18495 15.1041C7.14558 15.1745 7.11527 15.2477 7.08378 15.3173H7.0456C6.93774 15.2121 6.82555 15.1177 6.71887 15.0368C6.71296 15.1564 6.81295 15.2546 6.84326 15.3734C7.36721 15.6017 7.94903 15.6964 8.50565 15.8562C8.62414 16.1108 8.75759 16.3665 8.90206 16.6141C8.64973 16.5805 8.45959 16.348 8.33953 16.1418L8.30922 16.3789C8.20136 16.271 8.09428 16.1379 8.0002 16.0253C7.93643 16.1042 7.94312 16.2276 7.90887 16.3356L7.50066 15.9181L7.46759 16.1418L7.10425 15.9181C7.11527 16.0172 7.16133 16.1294 7.20463 16.2238C7.75889 16.4772 8.3722 16.5805 8.96386 16.7387C9.11109 16.919 9.19336 17.1302 9.3209 17.3152C9.16777 17.2827 9.07959 17.0985 8.97842 16.9797V17.2401L8.52297 16.8053C8.49856 16.9422 8.51037 17.085 8.49187 17.2026C8.3722 17.1593 8.25844 16.9914 8.1679 16.8931V17.1593C8.0435 17.1535 7.96005 17.0474 7.86793 16.9732C7.82857 17.0416 7.87935 17.1032 7.90887 17.1593C8.39267 17.2718 8.86466 17.3945 9.3768 17.4398C9.4819 17.6877 9.68582 17.868 9.79958 18.1091C9.66141 18.0839 9.56536 17.9481 9.45829 17.8553C9.38743 17.8603 9.38743 17.9651 9.3768 18.0356L9.07251 17.7435L8.99023 17.9651C8.86938 17.9373 8.75759 17.7562 8.64973 17.6877L8.63713 17.9412C8.50565 17.8719 8.39267 17.7667 8.26434 17.7013L8.39779 18.0243C8.85757 18.1284 9.33665 18.1833 9.8421 18.1911C10.0078 18.4263 10.1842 18.6797 10.355 18.9277C10.1393 19.0465 10.0314 18.7745 9.90075 18.6693C9.83501 18.7424 9.91846 18.8244 9.91335 18.9018L9.51537 18.4704C9.46498 18.537 9.49647 18.6112 9.50159 18.6925L9.1599 18.4321C9.1599 18.537 9.24453 18.6356 9.26382 18.7482L8.90796 18.5931C9.08629 18.9962 9.55237 18.9103 9.90075 19.0136C10.1145 19.108 10.4995 18.8979 10.568 19.2392L10.8967 19.7282C10.6888 19.6732 10.5357 19.4117 10.355 19.2825C10.3912 19.4252 10.4641 19.5804 10.5129 19.7282L10.1724 19.4311C10.159 19.5255 10.1842 19.6299 10.2169 19.7166C10.0704 19.6249 9.94602 19.493 9.79958 19.3935C9.8421 19.5371 9.86847 19.7406 10.0381 19.8206C10.355 19.8659 10.6758 19.9162 11.0116 19.9085L11.5147 20.6347C11.3195 20.5584 11.1254 20.3569 10.9546 20.189C10.9731 20.3046 11.038 20.437 11.1183 20.5418C10.9683 20.5054 10.8144 20.3596 10.6621 20.269C10.7506 20.4428 10.9408 20.671 11.1498 20.7465C11.351 20.7898 11.6041 20.7291 11.7328 20.9248C11.8454 21.0877 11.9466 21.2544 12.0721 21.4158C11.8966 21.4224 11.7249 21.2931 11.5797 21.1554C11.5659 21.2065 11.6041 21.2544 11.6356 21.2931C11.8296 21.7145 12.3626 21.5226 12.5107 21.9884C12.7012 22.3095 13.0279 22.5776 13.1799 22.9122C12.8834 22.7138 12.5803 22.5285 12.2733 22.354L12.5567 22.3095C12.3095 22.0684 12.0084 21.8932 11.706 21.6955L11.4344 21.54H11.7328V21.5044C11.3195 21.2382 10.8967 20.9945 10.4688 20.7782C10.5759 20.7395 10.7258 20.7646 10.8526 20.7588C10.4924 20.4551 10.0216 20.2439 9.64763 19.9085C9.59843 19.8787 9.52678 19.8466 9.476 19.7967C9.58307 19.8206 9.70944 19.8206 9.81336 19.8206C9.41892 19.455 8.94103 19.2573 8.52297 18.9277L8.84498 18.8604C8.52297 18.5873 8.14546 18.3625 7.82266 18.0665H8.19466C7.86203 17.6943 7.43689 17.3945 7.14086 17.0587C7.31131 17.1302 7.50774 17.1852 7.67072 17.2401L6.66179 16.247C6.78657 16.2361 6.90034 16.2663 7.0141 16.2547C6.71887 15.9266 6.45788 15.5901 6.23782 15.2179C6.32049 15.2036 6.42166 15.2651 6.52165 15.2612C6.34608 14.8391 6.08115 14.4166 5.83945 14C5.95833 14.051 6.06147 14.1253 6.18193 14.1582C6.08115 13.7601 5.83945 13.3867 5.77686 12.9585C5.86622 13.0134 5.94062 13.083 6.03667 13.1206C5.95361 12.6482 5.87803 12.1444 5.79536 11.6752C5.85323 11.7011 5.92999 11.78 6.00439 11.8102C5.95833 11.433 5.85323 11.0414 5.83394 10.6635L6.02407 10.7803C5.98471 10.2777 5.87803 9.77632 5.80914 9.27182C5.87803 9.34146 5.96739 9.3906 6.02407 9.47726C5.97211 9.03776 5.86622 8.58936 5.76308 8.15605L5.98077 8.30577C5.96739 6.87274 5.99179 5.70396 6.00439 4.28525C6.02801 4.30189 6.04179 4.24695 6.06147 4.28525V4.28525ZM17.9182 27.7475C17.5384 27.5901 17.1294 27.4667 16.8377 27.1448C16.7192 26.9076 16.5877 26.6778 16.4413 26.4553C17.0038 26.7726 17.5277 27.2171 17.9182 27.7475Z" fill="white" stroke="white" stroke-width="0.1"/>
</svg>
