<svg width="68" height="66" viewBox="0 0 68 66" fill="none" xmlns="http://www.w3.org/2000/svg">
<path fill-rule="evenodd" clip-rule="evenodd" d="M28.1807 46.9667C28.2293 47.0881 28.343 47.204 28.4034 47.3254C26.8986 46.8623 25.9309 45.4156 24.9655 44.1738C24.9789 44.0988 24.8754 44.0509 24.8401 44.003C24.6895 44.1375 24.6134 44.3494 24.586 44.5597C24.2378 44.1607 23.9861 43.5537 23.685 43.0581C25.3286 44.0988 26.9197 45.4017 28.1807 46.9667ZM48.7272 14.9821C48.8934 14.9473 49.044 14.7834 49.2063 14.6836C48.9169 15.4522 48.626 16.2385 48.4653 17.0535C48.6158 17.0017 48.8291 16.9306 49.0032 16.83C48.6691 17.5491 48.3265 18.2798 48.2151 19.0855C48.4033 19.1118 48.5774 18.9618 48.753 18.8883C48.5884 19.5943 48.2723 20.342 48.012 21.0471C48.2253 20.993 48.4504 20.8484 48.6691 20.71C48.3617 21.5173 48.0865 22.4613 47.8457 23.3057C48.0496 23.24 48.1978 23.0436 48.4127 22.9933L47.5101 25.289C47.7069 25.2758 47.9359 25.1637 48.1351 25.0903C47.8991 25.8093 47.6074 26.5029 47.1949 27.1485L48.0222 26.9251C47.7069 27.7439 47.0663 28.4344 46.6671 29.2169C46.9157 29.1937 47.1698 29.0313 47.4176 28.9331C46.9682 29.7682 46.4013 30.5352 45.7857 31.3022C46.126 31.2133 46.5009 31.1166 46.8294 30.9682C46.1888 31.6741 45.5724 32.3948 45.018 33.1486C45.2799 33.1633 45.5198 33.0249 45.7606 32.9538C45.2054 33.6342 44.6423 34.2412 44.0503 34.8752C44.3632 34.8868 44.6565 34.6765 44.9709 34.6262C44.324 35.1698 43.7703 35.7768 43.1806 36.3358L43.935 36.2492C43.2175 36.8585 42.3909 37.5157 41.6852 38.1706L42.416 38.1474C41.7714 38.5812 41.181 39.117 40.5395 39.5369L41.3958 39.5122C40.6022 40.1578 39.7969 40.7779 38.9562 41.2983L39.6463 41.3856C38.8919 41.9153 38.161 42.3761 37.4341 42.9754C37.5886 43.0349 37.7972 43.0349 37.9752 43.0581L35.8979 44.5133C35.9504 44.6579 36.1629 44.6347 36.3002 44.671L34.375 45.6507C35.2094 44.8682 35.7097 43.7153 36.7283 43.1084C37.2208 43.147 37.369 42.6475 37.6607 42.3622C37.3126 42.4488 37.0452 42.871 36.6405 42.898C37.0193 42.5261 37.2718 42.0815 37.6333 41.7166C38.0497 41.3369 39.0323 41.5457 38.9562 40.7632C38.9429 40.7261 38.9703 40.6913 38.9311 40.6681C38.5947 40.9611 38.2253 41.3099 37.7972 41.4467C38.0771 40.9867 38.4779 40.505 38.8433 40.0673C39.4236 39.7356 40.4618 39.9977 40.6022 39.09L40.6297 38.9995C40.4281 39.0784 40.2133 39.281 40.0117 39.4387C40 39.4 40 39.2268 39.9749 39.1031C39.633 39.3134 39.3177 39.6622 38.9562 39.8207C39.2942 39.5122 39.3593 38.9995 39.76 38.7931C40.4148 38.6292 41.0421 38.408 41.646 38.1474C41.7612 37.9487 41.7981 37.7005 41.8216 37.5018L40.9426 38.2843C40.8932 38.1126 40.9426 37.9858 40.8932 37.8119C40.6022 38.1126 40.2525 38.5078 39.8651 38.5078L40.5497 37.4423C41.3315 37.1817 42.0639 36.8082 42.8034 36.4479C42.9069 36.2856 43.0669 36.0799 43.0042 35.8904C42.6662 36.2376 42.2498 36.4866 41.8216 36.6675L41.7848 36.3265C41.4978 36.5229 41.1809 36.8832 40.8312 37.0549C40.9426 36.7332 41.1339 36.3613 41.3707 36.0799C42.1988 35.7907 42.9924 35.4072 43.7962 35.0716C43.8997 34.8984 43.9758 34.702 43.9483 34.5126L43.5225 34.9116L43.3814 34.6494C43.1061 34.8752 42.8324 35.135 42.5274 35.3206L42.5548 35.0469C42.1988 35.2224 41.871 35.5943 41.5095 35.7768C41.7848 35.469 41.8122 34.9634 42.162 34.6904C43.0434 34.3177 43.8213 33.744 44.7027 33.3721C44.8164 33.212 44.8517 33.0249 44.836 32.8131L44.2746 33.3466C44.222 33.2484 44.3412 33.0481 44.2008 32.9538C43.9232 33.2391 43.6982 33.5105 43.4088 33.7672C43.4323 33.5453 43.5594 33.335 43.481 33.1022H43.4088C43.1061 33.5569 42.7054 33.9806 42.2498 34.3177L42.8034 33.1022C43.6982 32.6662 44.5914 32.2308 45.4226 31.6355C45.5591 31.412 45.6336 31.1398 45.6336 30.8932C45.3207 31.1654 45.2054 31.7584 44.7419 31.7855C44.7145 31.6355 44.8164 31.5025 44.7419 31.3633L44.0205 32.1945C43.9758 32.0228 44.1013 31.8241 44.142 31.6355L42.9281 32.7914C43.2857 32.2579 43.2975 31.412 43.9758 31.0517C44.8517 30.5947 45.5959 29.8393 46.4389 29.3305C46.4389 29.1705 46.4624 28.9973 46.4287 28.8488L45.6979 29.629C45.7073 29.4674 45.6704 29.3305 45.6469 29.1937C45.3834 29.554 45.0564 29.9738 44.7302 30.3017C44.7419 30.0991 44.7913 29.9012 44.7678 29.7388L43.7703 30.8932C44.1867 30.2746 44.0754 29.3305 44.9709 28.9973L46.693 27.8444L46.7667 27.0759C46.5463 27.2722 46.413 27.6171 46.2005 27.8792C46.2123 27.7942 46.1888 27.6302 46.126 27.5204H46.0594C45.8461 27.754 45.7606 28.0524 45.5379 28.2898C45.5591 28.1011 45.6061 27.9426 45.5379 27.7671C45.2328 28.0911 45.0431 28.6022 44.6149 28.7986L44.5639 28.7352C44.7678 28.0524 45.0297 27.3357 45.7449 26.9251L47.107 25.7591C47.1463 25.6245 47.0819 25.4738 47.031 25.3369C46.7416 25.5604 46.6146 25.9941 46.2374 26.172C46.2531 25.9578 46.3213 25.7591 46.2648 25.5604C45.9613 26.008 45.6571 26.5284 45.2226 26.9019L45.6336 25.5859L47.4827 23.7263C47.3062 23.7031 47.2443 23.5523 47.2168 23.3791C47.2302 23.2925 47.1831 23.24 47.1698 23.1673C46.929 23.7263 46.5362 24.3348 45.9519 24.6913C46.2923 24.0456 46.2531 23.2554 46.7667 22.6817L47.961 21.4554C47.8363 21.3827 47.7344 21.6154 47.5956 21.5172C47.5838 21.3943 47.5329 21.2938 47.4827 21.184C47.3219 21.5312 47.2168 22.0013 46.7769 22.1497L47.1462 20.7618C47.5219 20.3667 47.8183 19.9329 48.0496 19.4706C47.7814 19.5842 47.5219 19.8177 47.2576 20.0064C47.547 19.2974 47.3572 18.3069 48.1257 17.7478L48.1884 17.5878C48.0355 17.6357 47.8575 17.7478 47.7069 17.8592C48.0026 16.1844 48.4504 14.4733 48.9585 12.8349C49.0934 12.7003 49.2941 12.7351 49.4314 12.6362C49.1185 13.3808 48.9585 14.2019 48.7272 14.9821ZM12.4288 51.7041C12.1394 51.9276 11.752 52.0003 11.3733 52.049L11.8014 52.4093L12.5691 51.7389C13.2184 51.7907 13.9258 51.7389 14.5806 51.7907C14.1132 52.0219 13.5972 52.2361 13.0444 52.2129C13.2498 52.3954 13.6113 52.2856 13.863 52.4093V52.4827L13.111 52.7078C13.863 53.2923 14.201 52.0737 14.7405 51.7637C15.4346 51.7389 16.2807 51.8255 16.981 51.7041C16.4689 51.9871 15.8494 52.1356 15.2213 52.2129C15.5106 52.4364 15.9372 52.4209 16.3262 52.4827C16.0643 52.6598 15.6769 52.7078 15.335 52.7719C15.4738 52.9683 15.8376 53.0163 16.1246 53.0549C16.5818 52.6444 16.8696 52.0737 17.3503 51.6771C17.9871 51.6655 18.5407 51.6175 19.1579 51.5402C18.7344 51.8634 18.14 51.9137 17.6122 52.0389C17.8389 52.2129 18.1792 52.2245 18.4294 52.373C18.1243 52.5554 17.751 52.5693 17.4828 52.7449C17.7369 52.9181 18.0655 52.8833 18.3666 52.9428C18.7713 52.5346 19.1579 52.0389 19.4496 51.5402L21.0854 51.4033C20.6925 51.7134 20.1648 51.7907 19.7013 51.9369C19.8346 52.1085 20.2251 52.066 20.4267 52.1588C20.1899 52.3575 19.8346 52.3954 19.6119 52.5964H20.3522C20.7647 52.199 21.1207 51.8255 21.4218 51.3802L21.6014 51.3167C22.0154 51.3167 22.4812 51.3322 22.8679 51.2317C22.5283 51.5402 22.0743 51.6863 21.6735 51.8773C21.9276 51.9624 22.2405 51.9137 22.5283 51.9276C22.9227 51.6863 22.9227 51.0082 23.4976 51.118L26.3708 50.559C25.669 50.9812 24.9012 51.2781 24.2888 51.8773L24.2755 51.6036C23.5971 51.8905 22.9227 52.2724 22.2507 52.6598L22.2758 52.2624C21.5465 52.5809 20.8548 53.0047 20.153 53.3766C20.1765 53.2281 20.2902 53.1145 20.3169 52.9683H20.1765C19.397 53.3518 18.6074 53.7137 17.751 53.9124C17.8992 53.7392 18.0184 53.5506 18.1141 53.3518C17.7001 53.3905 17.3088 53.5962 16.9222 53.7253C16.494 53.7717 16.0407 53.8993 15.6008 53.9704C15.6965 53.8127 15.7961 53.6372 15.9153 53.4887C14.9946 53.4253 14.1132 53.6735 13.1965 53.614L13.5329 53.1895C12.6946 53.2536 11.85 53.082 11.0329 53.082C11.1192 52.9428 11.2964 52.8315 11.3733 52.6846L9.25595 52.5477L9.6747 52.1472C7.49859 51.5402 5.31149 50.9734 3.23419 50.1407C6.16626 50.9982 9.22301 51.7768 12.4288 51.7041ZM35.0823 0.11171C34.7914 2.45299 34.502 4.93499 34.6291 7.39225C34.8424 7.42937 34.9804 7.0822 35.196 7.09225C35.018 7.91649 34.9906 8.78171 34.7812 9.57811C34.9694 9.53791 35.1506 9.38945 35.3443 9.31368C35.3074 10.008 35.1686 10.8036 35.1215 11.4493L35.458 11.3379C35.2972 12.166 35.258 13.0452 35.0572 13.8663L35.0823 14.0666L35.6705 13.6429C35.6493 14.6836 35.3835 15.6896 35.2839 16.7434C35.4227 16.7071 35.5968 16.6089 35.7356 16.4929C35.7003 17.5491 35.4227 18.5535 35.2345 19.5842C35.4697 19.534 35.7003 19.309 35.9112 19.176C35.7591 20.0659 35.5238 20.993 35.3309 21.8992C35.5238 21.9124 35.6587 21.6154 35.8508 21.6309C35.7356 22.4366 35.3442 23.1766 35.3074 23.9474L35.9112 23.5755C35.6862 24.5065 35.5575 25.5356 35.3074 26.5029C35.5497 26.4279 35.7512 26.0946 36.0132 26.008C35.7097 27.0233 35.4227 28.0911 35.0572 29.1048C35.2345 29.1048 35.4086 28.9432 35.5748 28.8581C35.3584 29.8393 34.9161 30.8027 34.6016 31.7476C34.7812 31.6486 34.9553 31.4754 35.1451 31.4754C34.9161 32.2579 34.615 33.0249 34.3491 33.7943C34.5938 33.7943 34.8047 33.6226 35.0298 33.536C34.615 34.453 34.1225 35.3933 33.6481 36.3265C33.812 36.2856 34.0033 36.1897 34.1484 36.1008C33.7594 37.007 33.143 37.8892 32.7956 38.8418C33.0301 38.8263 33.2842 38.6949 33.521 38.6214C33.0576 39.5253 32.62 40.4794 32.1997 41.4336L32.7956 41.2983C32.6921 41.5952 32.4263 41.8944 32.2773 42.2145C31.57 43.6078 31.1692 45.1125 30.8681 46.6814C30.8548 46.9497 30.8822 47.204 30.9285 47.4716C32.0883 46.4308 32.7698 45.1125 32.9697 43.6403C32.9972 42.9962 33.2238 42.4264 33.1321 41.7436C33.4465 42.0545 33.5093 42.5996 33.7594 42.9962C34.0872 42.0274 34.179 41.173 34.1225 40.106C34.2519 40.2699 34.4142 40.5413 34.5154 40.7779C34.6934 39.8207 34.8047 38.9895 34.8573 37.9758C35.0941 38.3346 35.196 38.7196 35.3717 39.09C35.4086 38.0879 35.4964 37.1206 35.458 36.1008L35.9857 36.8972C35.8508 35.916 35.7724 34.8002 35.8744 33.7595C36.0461 33.9806 36.1512 34.3626 36.3904 34.6262C36.5292 33.6822 36.5017 32.7265 36.5017 31.7584C36.7181 31.9339 36.8319 32.3082 37.0075 32.5432C36.9526 31.5218 37.0075 30.5677 37.0452 29.4921C37.2718 29.6429 37.3596 29.9738 37.569 30.1973C37.6333 29.3166 37.7486 28.4514 37.7972 27.5692C37.9752 27.8135 38.161 28.2032 38.343 28.5225L38.3916 28.5109C38.343 27.4957 38.6025 26.5493 38.7688 25.6106H38.8174L39.2181 26.3916C39.2715 25.289 39.5506 24.2962 39.8651 23.3057L40.2133 24.0209C40.454 23.1441 40.581 22.1768 40.9676 21.344L41.2296 22.0144C41.5095 21.184 41.6711 20.3149 42.0977 19.5572C42.238 19.6577 42.2772 19.9329 42.416 20.0914C42.7383 19.4072 42.9281 18.6765 43.2975 18.0177C43.4323 18.2064 43.4716 18.4453 43.608 18.6417C44.015 17.7069 44.3412 16.7435 44.9066 15.8767C45.0023 16.0978 44.9709 16.445 45.1058 16.5795C45.4305 15.8241 45.6979 15.0339 46.0594 14.2846C46.2123 14.3998 46.1746 14.6372 46.3119 14.7834L46.4287 14.6488L47.2827 12.4514C47.3807 12.5882 47.4944 12.8619 47.5956 13.0622C48.0865 12.2797 48.1743 11.2838 48.5264 10.4302C48.5884 10.4433 48.6691 10.6011 48.7272 10.6923C49.4314 9.10414 50.1136 7.51596 50.9558 5.9796C51.1158 5.91851 51.2664 6.00125 51.384 6.11491C50.6688 8.21186 49.8086 10.2446 49.2338 12.3918C49.4721 12.34 49.7458 12.2279 50.0062 12.1429L49.2941 14.3751C49.4721 14.3883 49.6345 14.2614 49.7968 14.2019C49.6854 14.7586 49.3961 15.3037 49.2573 15.8767L49.0306 16.5471C49.1655 16.5563 49.2941 16.4179 49.4588 16.4102C49.2941 17.1409 48.8801 17.8244 48.6927 18.5798C48.8934 18.5535 49.1342 18.453 49.3451 18.368C49.142 19.0391 48.9169 19.7481 48.6927 20.4262C48.866 20.4262 49.0675 20.342 49.2338 20.253C48.866 20.9466 48.866 21.8644 48.5005 22.5966C48.7138 22.585 48.8934 22.3732 49.0934 22.2997V22.4366C48.7413 23.1905 48.5264 23.9977 48.1884 24.7555C48.4127 24.7284 48.626 24.5451 48.866 24.4949C48.5884 25.2024 48.2621 25.9578 47.9108 26.6807C48.1257 26.6382 48.3265 26.455 48.5774 26.4279C48.3892 27.222 47.9908 27.9774 47.5329 28.6888C47.7344 28.6478 47.9751 28.5496 48.1884 28.463C47.961 29.23 47.4372 29.936 46.9682 30.6427L47.7971 30.4478V30.5197C47.1557 31.2133 46.5738 31.944 45.9872 32.6801C46.1888 32.6932 46.413 32.568 46.6279 32.6205L45.2697 34.3255L45.9206 34.2048C45.4712 34.8984 44.7145 35.3724 44.175 36.049C44.3765 36.0876 44.5914 36.066 44.7913 36.0799C44.175 36.8446 43.2583 37.3031 42.576 38.0361L43.3429 38.0624C42.8324 38.4312 42.2263 38.9168 41.646 39.3134C41.8122 39.3274 41.9628 39.3753 42.1384 39.3521C41.4585 40.0078 40.614 40.6758 39.8337 41.2488L40.2384 41.3856L38.3681 42.898C38.5774 42.9846 38.8433 42.9212 39.044 43.0349C38.161 43.4053 37.369 43.9643 36.5793 44.5133C36.7793 44.5983 37.0193 44.6076 37.2326 44.671C35.3442 45.762 33.2058 46.5793 31.748 48.5046L31.7715 48.5548C33.7476 48.7628 35.3309 47.4623 36.3904 45.9089V46.693C36.8671 46.3094 37.4082 45.8146 37.8889 45.3538C37.9109 45.5386 37.8348 45.7349 37.8615 45.936L37.9478 45.9089L39.811 43.5669C39.8243 43.8313 39.7874 44.1607 39.8337 44.3996C40.3364 43.7656 40.8931 43.0968 41.3958 42.438L41.4209 42.9483C41.7981 42.5339 42.1267 41.981 42.4764 41.4954L43.0434 40.74L43.0669 41.582C43.6472 40.89 44.3099 40.106 44.8517 39.3274L44.9301 39.8477C45.5104 39.1534 46.0986 38.3114 46.7769 37.6139L46.802 38.2224L48.2998 36.4479L48.35 36.475C48.3265 36.7116 48.3892 36.908 48.3617 37.1415C49.1342 36.4224 49.9881 35.6175 50.9299 35.1837L50.817 35.6709C51.4969 35.1969 52.2129 34.6634 52.9453 34.2412L52.8794 34.8752C53.4966 34.5265 54.1357 34.0943 54.8454 33.8809C54.865 34.0564 54.7168 34.2157 54.7027 34.4051C55.5825 34.0038 56.4875 33.5724 57.445 33.3118C57.4293 33.5105 57.3046 33.7208 57.1948 33.9056C58.1468 33.7827 59.04 33.3644 60.021 33.2391C59.9959 33.3876 59.861 33.5453 59.734 33.6822C60.5017 33.5956 61.253 33.335 62.0481 33.212C62.0246 33.4355 61.7313 33.5855 61.6843 33.8206C63.495 33.6474 65.406 33.7827 67.1163 34.3177V34.4646C64.9802 34.1561 62.7657 34.6131 60.9769 35.5804L60.9166 35.6538C61.18 35.8178 61.5321 35.8773 61.8584 35.9392C61.2914 36.2856 60.5762 36.5732 59.9567 36.9683C60.2343 37.1206 60.5629 37.1299 60.8656 37.2165C60.6154 37.3673 60.1975 37.4291 59.8963 37.6139C59.4431 37.8273 59.04 38.1204 58.5726 38.2843C58.8267 38.4196 59.1553 38.381 59.4195 38.4846C58.8643 38.807 58.1115 38.9647 57.5195 39.3274C57.7186 39.4774 58.0645 39.4116 58.2856 39.5485C57.6308 39.8477 56.9156 39.9575 56.2859 40.3178C56.4639 40.4408 56.6749 40.4408 56.8505 40.5413C56.122 40.9132 55.4084 41.3215 54.5897 41.4954C54.7889 41.657 55.1677 41.7166 55.4296 41.8805C54.7889 42.0174 54.1749 42.2045 53.5687 42.438C53.7099 42.6359 54.062 42.6359 54.2729 42.8114C53.4833 42.9846 52.7406 43.2545 51.9878 43.5305C52.0741 43.6944 52.3376 43.7408 52.5171 43.8406C51.7588 44.1607 50.9692 44.4731 50.1622 44.6826C50.4241 44.7808 50.7151 44.8581 50.9911 44.9331C50.2642 45.1643 49.4839 45.363 48.753 45.6507C49.0165 45.7349 49.2573 45.8989 49.4972 46.0203C48.6927 46.1857 47.9359 46.4308 47.1462 46.6311C47.2576 46.8298 47.5744 46.8778 47.6215 47.0533C46.9526 47.1399 46.3119 47.2497 45.6704 47.3888C45.9386 47.5852 46.3001 47.6084 46.5738 47.7994C45.6234 47.8071 44.687 47.9053 43.7962 48.0553C44.0346 48.2672 44.3632 48.3677 44.629 48.5757L42.3909 48.7744C42.4764 48.8997 42.7054 49.0002 42.8717 49.0884C42.1267 49.1348 41.4115 49.0884 40.6924 49.1348L41.5095 49.6188C40.614 49.5956 39.738 49.3721 38.8174 49.4201C38.9703 49.6319 39.2181 49.7301 39.4236 49.894C38.6629 49.894 37.9266 49.7208 37.1408 49.6899C37.1683 49.867 37.3337 50.0526 37.4553 50.2273C35.8367 50.0634 34.2754 49.3466 32.569 49.6188C32.4043 49.6049 32.213 49.6574 32.0491 49.669C33.5093 49.9304 34.7679 50.8366 36.3315 50.7361C37.3871 50.7361 38.3116 50.426 39.2942 50.2273C39.0323 50.5111 38.6394 50.8095 38.2897 51.033C39.3436 51.033 40.2619 50.6456 41.2296 50.5381L40.5144 51.2046L40.6022 51.268C41.7714 51.1064 42.8795 50.7616 43.997 50.4492C43.8997 50.6363 43.6825 50.8366 43.5696 51.0469C44.3632 50.91 45.2226 50.7113 45.9872 50.5381C45.8719 50.7113 45.7253 50.8575 45.6469 51.0469C46.413 50.8575 47.2827 50.8095 48.0724 50.6456C48.0496 50.8691 47.8089 51.0678 47.7069 51.2951C48.477 51.3167 49.2573 51.268 50.0062 51.1838L49.7968 51.6307C50.6155 51.7521 51.4969 51.4807 52.314 51.7041L52.0992 52.0737C53.6079 52.1356 54.9528 52.4093 56.4498 52.4364C57.0168 52.4364 57.75 52.3498 58.3719 52.3498C58.4597 52.4364 58.6612 52.5206 58.626 52.6846C56.0609 53.2784 53.5225 53.9588 51.0421 54.7544C50.9033 54.7892 50.7543 54.78 50.6233 54.8418C50.8813 55.0166 51.1707 55.1495 51.4193 55.3351C50.6688 55.4349 49.7968 55.3096 49.044 55.4465L49.5678 55.8338L47.2302 55.9807L47.5101 56.4021C46.8436 56.3503 46.1354 56.3295 45.4712 56.3411L45.6979 56.7632C44.9921 56.6627 44.222 56.5259 43.5476 56.3681L43.597 56.7632C43.0144 56.5645 42.4513 56.2429 41.8436 56.0573L41.9369 56.6511C41.2296 56.4021 40.5944 55.8818 39.8768 55.5586C39.8988 55.7936 39.9498 56.1037 39.9263 56.3681C39.2942 55.9282 38.6786 55.4851 38.063 55.0034L38.1979 55.7565C37.4223 55.1751 36.6264 54.3323 35.9583 53.5274L35.8979 53.6372C35.9504 53.8583 35.8979 54.0817 35.8508 54.2828L35.5575 53.9356C35.3717 53.9835 35.1843 54.0013 35.0078 54.0817C35.8234 54.5812 36.7401 54.899 37.5941 55.3599C37.3439 55.4642 37.0075 55.3506 36.7558 55.4465L39.2942 56.6759C39.066 56.7895 38.6629 56.8243 38.3681 56.9001C38.9703 57.3315 39.6855 57.7916 40.327 58.2872C40.149 58.3622 39.9749 58.2254 39.7874 58.2988C40.4618 58.8192 41.2296 59.3009 41.9118 59.8599C41.5621 59.887 41.1433 59.8251 40.7763 59.8522C42.4999 61.1164 43.3955 62.9652 43.9758 64.8224L44.2518 65.8013C44.1632 65.8771 44.0754 65.9134 43.997 66C43.3328 63.9897 41.5621 62.0682 39.5836 61.1164L39.4942 61.203L39.5349 61.9205C38.9703 61.5633 38.3916 61.0414 37.8348 60.6061C37.8615 60.8798 37.8089 61.2378 37.8889 61.527C37.4223 61.0646 36.9416 60.4847 36.3668 60.1089C36.2649 60.3339 36.2516 60.5906 36.2516 60.8682C35.7097 60.3594 35.2345 59.6767 34.7679 59.0682L34.5805 59.7749C34.0347 59.1432 33.6481 58.3854 33.2473 57.7035C33.1085 57.7437 32.9972 57.9285 32.907 58.0638C32.7172 57.4321 32.4498 56.8359 32.3636 56.1694L31.9762 56.4524C31.9511 54.7892 32.2381 53.1663 31.3002 51.7907C31.3841 54.7088 30.8548 57.5821 29.535 59.9983C29.2598 60.4708 28.9218 60.9316 28.521 61.3128C29.2598 59.4788 30.2878 57.6671 30.5278 55.622C30.8211 53.924 30.716 52.2856 30.8681 50.559C31.5488 51.0948 31.9236 51.9137 32.2891 52.6598C33.4599 55.9692 36.7675 58.7001 39.811 60.3594C41.8122 61.6368 43.1414 63.6317 43.997 65.632H44.0503C43.4716 63.4353 42.1486 61.3538 40.2619 59.7981C40.1662 59.9875 40.3536 60.1012 40.3536 60.2721C40.047 59.9721 39.611 59.7749 39.2181 59.5769C39.76 59.6156 40.3889 59.6883 40.9426 59.6017L39.2942 58.3723C39.2322 58.3491 39.1523 58.3491 39.0793 58.3491C39.0558 58.4488 39.0911 58.636 39.1789 58.7457C38.9311 58.636 38.6261 58.4628 38.343 58.4357C38.2897 58.5749 38.4112 58.7001 38.4504 58.8192C38.1156 58.4628 37.6725 58.3352 37.26 58.1527L39.56 58.0777C39.0229 57.6803 38.4504 57.1583 37.8231 56.9867L38.0497 57.6184C37.6607 57.4452 37.2718 57.1328 36.8475 56.9612L36.8201 57.3911C36.6405 57.2194 36.4405 57.0733 36.2398 56.9496C36.2123 57.0578 36.3904 57.2102 36.2516 57.3447C36.0398 57.0849 35.7724 56.9612 35.5356 56.7632C36.4507 56.7895 37.3596 56.7377 38.2779 56.6264C37.6427 56.1037 36.7675 55.8818 36.0132 55.5083C35.9387 55.5083 35.9755 55.5856 35.9583 55.622L36.3002 56.1694C35.9583 55.9537 35.5238 55.7681 35.1686 55.5856L35.4227 55.9537C35.0823 55.8207 34.7036 55.622 34.404 55.3351C35.1074 55.3869 35.8838 55.3599 36.595 55.2748C36.4311 55.1132 36.0869 55.0498 35.8508 54.8874C35.4697 54.6408 35.0572 54.4923 34.6659 54.2689C34.6542 54.4312 34.7404 54.6044 34.8047 54.7544C34.4142 54.6292 33.9758 54.3578 33.7218 53.9704C34.1225 53.9449 34.5546 53.9588 34.8965 53.8011C34.1876 53.5134 33.4112 53.2536 32.8443 52.6328C32.2891 51.7768 31.8632 50.7229 31.1598 50.0889C32.4498 50.6456 33.7124 51.268 35.0298 51.7389C37.9478 53.1067 40.843 54.4923 44.3098 54.5062C47.4827 54.6408 50.5143 53.7856 53.444 53.0163L54.1616 52.9312C52.0325 53.5274 49.9215 54.3439 47.7618 54.6408C47.6975 54.7544 47.8183 54.8418 47.8457 54.94C47.6215 54.9648 47.4082 54.8008 47.1949 54.7274C46.7769 54.8263 46.3001 54.8186 45.9206 54.9145L46.2005 55.1635C45.8461 55.1635 45.5104 54.8874 45.1568 54.9532C44.8298 55.0034 44.4785 54.9261 44.142 54.9763L44.5639 55.4465C44.1867 55.3985 43.8746 55.0629 43.5225 54.8666C43.1414 54.8758 42.8536 54.8526 42.5 54.8008C42.6035 54.9895 42.7305 55.2137 42.9281 55.3869C42.6309 55.223 42.3125 54.9532 42.0255 54.7158C41.6593 54.6678 41.3315 54.531 40.9676 54.4923C40.9676 54.7274 41.2296 54.9261 41.3315 55.1635C41.0084 54.9763 40.6391 54.6678 40.3795 54.3578C39.9882 54.2557 39.5836 54.1939 39.193 54.057C39.193 54.2557 39.2848 54.4444 39.3828 54.6176C39.1711 54.4312 38.8919 54.1227 38.728 53.8335C38.2395 53.7485 37.8348 53.5042 37.4082 53.2784C37.4082 53.45 37.5 53.6271 37.5941 53.7717C37.2483 53.614 36.9683 53.1663 36.668 52.9312C35.8838 52.5554 35.1074 52.1356 34.324 51.8503C34.8573 52.3575 35.2094 52.9776 35.6705 53.5274L35.6862 53.0163C36.5017 53.5405 37.1291 54.3191 37.8348 55.0034C37.8348 54.78 37.7603 54.5449 37.7235 54.306C38.2779 54.7892 38.9703 55.1132 39.5216 55.6104L39.4706 54.9763C39.6212 54.9895 39.76 55.1635 39.9263 55.223C40.4618 55.5331 41.0304 55.782 41.5621 56.1447C41.5621 55.9537 41.4585 55.7681 41.3707 55.6104C41.9369 55.7318 42.5141 55.9692 43.0669 56.1771C43.1414 56.2313 43.2081 56.2885 43.2975 56.2885C43.2975 56.1771 43.2465 56.0055 43.1414 55.8934C43.8095 55.946 44.4628 56.2313 45.1568 56.2537L44.7678 55.8416C45.3991 55.9692 46.2005 55.9204 46.853 55.8934L46.4624 55.5331C47.1557 55.5238 47.8834 55.4642 48.5539 55.5083L48.0496 54.9763H50.3834L50.4555 54.94L49.7223 54.5565C51.4326 54.5681 52.6936 53.5274 54.3019 53.3031C55.5065 53.0549 56.7157 52.8175 57.9241 52.5693C55.8327 52.7449 53.6432 52.6444 51.5832 52.4827C51.5189 52.5809 51.3464 52.5477 51.3315 52.6846L51.5189 52.8585C51.2507 52.9181 50.9558 52.9181 50.7268 53.0395C50.7896 53.082 50.8641 53.1145 50.9299 53.1895C50.4241 53.3402 49.9356 53.5134 49.4588 53.7137C50.1136 53.1067 50.93 52.5964 51.6459 51.9871L49.2063 52.0142C49.32 52.2129 49.6211 52.2856 49.8337 52.3838C49.4486 52.4688 49.0306 52.4827 48.6691 52.6328C48.753 52.7789 48.9311 52.7928 49.044 52.9049C48.7413 52.9776 48.3892 52.9312 48.1022 53.0395C48.2151 53.1663 48.4033 53.2281 48.5539 53.3302L47.4435 53.4887L47.7069 53.8011C47.2066 53.8722 46.7534 54.0817 46.2374 54.1359C47.2443 53.3982 48.3382 52.5693 49.32 51.6539L49.2667 51.6036C48.5884 51.6655 47.8363 51.5804 47.1462 51.7389L47.6489 52.0389C47.369 52.1858 47.031 52.1719 46.7667 52.3227L47.0075 52.5206C46.6671 52.6328 46.3001 52.7078 45.9755 52.8315L46.3487 53.082C46.0241 53.2281 45.6234 53.2784 45.2971 53.4361C45.4085 53.5405 45.5434 53.6271 45.6469 53.7485L44.113 54.057C45.1685 53.1067 46.4522 52.3227 47.4827 51.1838C46.6012 51.3322 45.6979 51.3802 44.8792 51.6036C45.1819 51.7637 45.5104 51.8503 45.8312 51.9369C45.3324 52.0876 44.7678 52.0992 44.2746 52.2724L44.6776 52.5964C44.324 52.6946 43.9232 52.6598 43.597 52.7928C43.7703 52.9544 44.015 52.9915 44.2008 53.1284C43.7821 53.1763 43.3814 53.2784 43.0042 53.3905L43.2724 53.6372L42.0255 53.8583C42.9187 53.0302 43.8856 52.0992 44.8792 51.3662C44.9435 51.2951 44.9921 51.2224 45.0431 51.1451C44.2518 51.2317 43.3696 51.3554 42.6427 51.7134C42.7658 51.9369 43.1061 51.8503 43.3194 51.9624C42.9069 52.0992 42.4647 52.1588 42.0255 52.2624C42.1486 52.3954 42.3376 52.4441 42.4764 52.5693C42.1384 52.6328 41.7848 52.6946 41.4836 52.8833L41.7848 53.0549C41.4978 53.1145 41.1943 53.1284 40.9206 53.215C41.0421 53.3634 41.2452 53.3982 41.3958 53.5042C40.9951 53.5405 40.5261 53.5622 40.174 53.3905C41.0892 52.6444 42.1384 51.8773 43.0944 51.0678C42.1753 51.2781 41.1692 51.442 40.2133 51.6539C40.4752 51.8503 40.8814 51.8023 41.1692 51.9624L39.8337 52.0992C39.8988 52.2995 40.225 52.2454 40.3795 52.4093C39.9121 52.4441 39.5506 52.3498 39.0793 52.4364C39.2848 52.6598 39.5836 52.7271 39.8337 52.8833C39.2456 52.9683 38.6512 52.9428 38.1352 52.7194C38.9037 52.2454 39.7459 51.7637 40.403 51.0469C39.5718 51.2951 38.6261 51.3802 37.7486 51.5402C37.9885 51.7521 38.343 51.7637 38.6261 51.8773L38.5673 51.9369L37.4341 52.0142C37.4553 52.1085 37.6427 52.1719 37.7486 52.2624C37.3949 52.2995 37.0546 52.1858 36.7283 52.0992C37.1055 51.7389 37.6607 51.4552 38.0497 51.0082C37.7344 51.033 37.3949 51.1335 37.0452 51.1567C34.7036 51.3554 32.9697 50.0526 30.9834 49.3992C35.8234 49.26 40.047 47.6819 43.837 45.07L48.9169 41.657C52.9179 39.1766 56.5282 35.7675 61.1534 34.7747C62.5759 34.3796 64.1458 34.293 65.6428 34.1561C64.0988 33.9195 62.6755 33.9056 61.18 34.2412C61.2193 34.0719 61.3682 33.8809 61.4325 33.6822C60.7519 33.7827 60.0093 33.8577 59.3897 34.1816C59.5929 34.2528 59.861 34.293 60.123 34.293C59.7222 34.5396 59.167 34.7616 58.7412 35.0964C58.8541 34.586 59.2141 34.1291 59.4815 33.6574C58.5883 33.7595 57.7594 34.143 56.9015 34.4283L56.8137 34.5126C57.1031 34.4994 57.4708 34.453 57.7853 34.4646C57.4606 34.6634 56.976 34.8636 56.6224 35.1837L57.5838 35.135C57.3046 35.3206 56.8898 35.4938 56.5424 35.6709C56.6631 35.7041 56.7768 35.7675 56.878 35.8773L56.1997 36.2492C56.1495 35.3438 56.6537 34.6131 56.9564 33.8206C56.0499 33.9945 55.221 34.4778 54.4157 34.9634L55.2053 34.8752C54.9175 35.2085 54.5168 35.5402 54.3019 35.9624L55.0289 35.7768C54.8258 36.0049 54.4509 36.2856 54.2729 36.5863H54.8046L54.3529 37.0356L54.4776 37.1415C54.3976 37.2807 54.3019 37.5018 54.1616 37.5289C53.9969 36.475 54.1616 35.3933 54.3623 34.4283C53.7334 34.6131 53.1523 35.06 52.5995 35.5185C52.8536 35.5402 53.1523 35.469 53.4205 35.4938C53.03 35.868 52.7148 36.2763 52.492 36.7216C52.6599 36.7332 52.8653 36.7116 53.03 36.6598C52.8065 36.9312 52.5485 37.2536 52.3783 37.5884L52.9453 37.4771C52.8418 37.6758 52.5171 37.8892 52.467 38.1204C52.5861 38.1204 52.7148 38.1126 52.7751 38.234L52.3258 38.7931C51.9721 37.5157 52.3258 36.1278 52.467 34.8868C51.8239 35.3337 51.0923 35.7675 50.6233 36.4363C50.8641 36.4224 51.1158 36.2995 51.3565 36.3265C50.9441 36.7719 50.53 37.2165 50.2501 37.7253C50.4634 37.7137 50.6688 37.5505 50.8813 37.5018C50.9692 37.5018 51.028 37.4539 51.1064 37.4423C50.8915 37.8621 50.5629 38.2982 50.2501 38.7065C50.4555 38.7065 50.69 38.6446 50.9299 38.6446C50.7778 38.9299 50.4163 39.2152 50.3363 39.5369C50.4751 39.564 50.5763 39.4874 50.7268 39.5122C50.541 39.8091 50.2642 40.1191 50.0219 40.4315C49.7733 39.0304 50.0603 37.6387 50.3834 36.3613C50.4555 36.1379 50.53 35.9276 50.6233 35.7172C49.8086 36.1665 49.0793 36.8716 48.4386 37.5884C48.6786 37.5405 48.9585 37.3402 49.2063 37.3302L48.35 38.5944C48.5633 38.5812 48.753 38.4196 49.0032 38.4196C48.706 38.8418 48.4033 39.3274 48.2151 39.8207C48.3892 39.8686 48.5397 39.6854 48.7272 39.6854C48.6691 40.0078 48.4127 40.3178 48.2527 40.6302H48.5774L48.1351 41.5457L48.0724 41.4722C47.8363 40.0225 48.1077 38.558 48.1884 37.1206C47.6215 37.6758 47.0663 38.3709 46.6279 39.0397L46.6671 39.09C46.9526 39.0165 47.2066 38.8681 47.4568 38.7335C47.2302 39.281 46.8788 39.8338 46.5463 40.3812C46.7416 40.341 46.929 40.1941 47.1188 40.106C46.871 40.5413 46.5738 41.0021 46.3762 41.4722L47.0075 41.2983C46.853 41.6222 46.4742 41.9153 46.4287 42.2779C46.5738 42.2524 46.675 42.3297 46.8294 42.3027L46.2648 42.9212C46.0343 41.4088 46.2648 39.8477 46.515 38.4196C45.7857 39.1286 45.2422 39.9575 44.7419 40.7779L45.6469 40.4315C45.4226 40.8769 44.9552 41.289 44.7027 41.7707L45.3324 41.582C45.1568 41.9346 44.8047 42.2679 44.6565 42.663C44.8792 42.6359 45.1152 42.5261 45.3575 42.4488C45.1819 42.7496 44.8298 43.0102 44.7027 43.3434L45.1819 43.222C45.0431 43.43 44.836 43.6805 44.629 43.8908C44.2863 42.7248 44.5137 41.4467 44.6149 40.2444C44.0346 40.9403 43.3814 41.732 42.8717 42.5261L42.9187 42.5671L43.7468 42.2145L43.6825 42.3622C43.3955 42.6475 43.1414 42.9584 42.9556 43.2816L43.4088 43.222L42.8913 43.9798C43.0144 44.003 43.1587 43.9388 43.2975 43.9272C43.2583 44.0988 43.0434 44.2628 42.9556 44.446L43.2308 44.5597C43.1336 44.7352 42.9924 44.8952 42.8717 45.07C42.7054 44.003 42.6035 42.7998 42.7799 41.6934C42.2263 42.3398 41.8122 43.1586 41.257 43.8661C41.3213 43.9527 41.4585 43.8754 41.5346 43.8406C41.6593 43.7656 41.7981 43.7285 41.9369 43.6805C41.7612 43.9527 41.3958 44.2264 41.3315 44.5326L41.8436 44.4592C41.6969 44.6942 41.4115 44.9177 41.257 45.1782C41.4758 45.1318 41.7479 45.0916 41.984 45.0429C41.6711 45.3166 41.1551 45.7118 41.0304 46.1571C40.8814 45.1782 41.0202 44.1607 41.1692 43.222C40.6665 43.8313 40.1741 44.5728 39.611 45.23C39.811 45.203 40.047 45.1048 40.2619 45.0429C40.1388 45.2904 39.8243 45.4999 39.7208 45.7891C39.9498 45.7504 40.2133 45.6638 40.4618 45.6252C40.2525 45.837 39.887 46.0357 39.633 46.3226L40.0117 46.3558C39.7106 46.5213 39.6212 46.8399 39.4236 47.0765C39.2597 46.2592 39.433 45.3282 39.5349 44.5326C38.9703 45.1914 38.4779 45.9607 37.7737 46.5445C38.1509 46.4942 38.5422 46.2963 38.8841 46.1857C38.5422 46.4942 38.1352 46.7177 37.8231 47.0262C38.1156 47.0401 38.4285 46.9396 38.7061 46.8507C38.4873 47.2497 37.9885 47.4716 37.6333 47.7994C37.4827 47.2729 37.5353 46.6659 37.5941 46.1324C37.1291 46.5213 36.7048 46.9667 36.2751 47.4097L36.3315 47.4623C36.4915 47.3618 36.7048 47.3749 36.8671 47.2729C36.7675 47.4963 36.4601 47.695 36.3002 47.9185L36.668 47.9053C36.3904 48.094 36.1261 48.3407 35.7959 48.418C35.8367 47.9185 35.9857 47.4097 36.0986 46.9164C34.8188 48.3407 33.067 49.0961 31.0697 48.8402C31.1967 48.4891 31.4821 48.1427 31.7715 47.8566C34.2872 45.1396 36.7911 42.2524 38.8433 39.2632C41.7848 34.576 44.0346 29.5671 45.5198 24.3062C46.7667 20.8353 47.5101 17.1656 48.4653 13.5694C49.2667 11.089 50.1489 8.62243 51.1903 6.2247L51.1064 6.16516C50.0603 7.70308 49.6094 9.57812 48.8056 11.2506C48.706 11.2506 48.7138 11.0619 48.6158 10.9885C48.3382 11.8923 48.0496 12.7985 47.7618 13.704C47.8575 13.7565 47.9265 13.6081 48.0222 13.5926L47.9108 14.3496C47.6215 14.0859 47.4944 13.6174 47.3964 13.1975C47.0953 13.9529 46.693 14.6581 46.4624 15.4522C46.693 15.4522 46.871 15.1808 47.0545 15.0455C47.0427 15.4793 46.7283 15.8875 46.7181 16.3197C46.853 16.2718 46.9682 16.1597 47.107 16.121C47.107 16.4697 47.0176 16.8401 46.9157 17.1927C46.5871 16.4697 46.2923 15.7298 46.126 14.9341L46.0107 15.0455C45.7449 15.8488 45.4712 16.6429 45.1568 17.4393C45.4712 17.3968 45.5379 17.0806 45.7857 16.9692C45.6979 17.3968 45.6861 17.921 45.6469 18.4182C45.7253 18.4662 45.8312 18.3548 45.9206 18.3332L46.1472 18.3069C46.1613 18.603 46.0594 18.927 45.9755 19.2216L46.3487 19.1118C46.3119 19.3739 46.2374 19.6847 46.1746 19.9523L45.9206 19.6438C45.4924 18.7151 45.0823 17.7842 44.7678 16.8053C44.3765 17.4509 44.1632 18.1924 43.9091 18.9115L44.5365 18.368C44.4487 18.852 44.3412 19.3855 44.3412 19.9329C44.5035 19.9445 44.6423 19.7829 44.7913 19.7079C44.7302 20.0914 44.6423 20.5268 44.6149 20.9219C44.7772 20.785 44.9552 20.6613 45.1309 20.5384L45.1568 21.6309L45.6061 21.3688L45.5379 22.4984C44.5035 21.4175 44.062 19.9523 43.3696 18.6633C43.1218 19.237 42.8717 19.8579 42.6191 20.4494C42.6035 20.5863 42.5141 20.7371 42.5548 20.8716C42.8324 20.6729 43.0042 20.3744 43.2724 20.1796C43.1218 20.71 42.9924 21.3441 43.0434 21.9642C43.1924 21.8992 43.3053 21.7136 43.4582 21.7136L43.4088 22.9701C43.608 22.94 43.7821 22.674 43.9758 22.6369C43.9483 23.0938 43.9483 23.591 43.9758 24.0456C44.1538 24.0209 44.2652 23.8129 44.4487 23.7487L44.4039 24.4678C44.5137 24.4817 44.6659 24.433 44.7913 24.4199L44.629 25.1637C43.5594 23.7487 42.7148 22.1111 42.1267 20.4494C41.7377 21.1701 41.6852 22.0283 41.4585 22.8201L42.1855 22.1227C42.1384 22.66 42.0153 23.2655 42.1267 23.8361L42.1855 24.0843C42.3376 24.0982 42.4905 23.9111 42.6427 23.9343C42.6309 24.3812 42.5548 24.9263 42.7054 25.3369L43.2081 24.917C43.1806 25.4336 43.0944 25.981 43.0944 26.5416C43.2857 26.5284 43.4088 26.2431 43.6339 26.2562L43.7084 27.0759C43.7468 27.1624 43.837 27.1083 43.9091 27.1253C43.935 27.3202 43.9664 27.5823 43.8856 27.7671C42.4999 26.1797 41.7714 24.2444 41.0084 22.3732C40.843 23.0436 40.614 23.6776 40.5144 24.3812C40.7198 24.2351 40.8696 23.9243 41.1206 23.7487C41.0084 24.433 40.8814 25.2024 40.9676 25.9578L41.595 25.3872C41.6185 25.981 41.4484 26.6127 41.5715 27.2351C41.7714 27.1949 41.9236 27.0233 42.1267 27.0604C42.1384 27.5692 42.0639 28.1274 42.1855 28.6022C42.3376 28.6099 42.5141 28.5573 42.6936 28.5496C42.8324 28.7738 42.4513 29.4573 43.0042 29.3305C43.0144 29.6158 42.9658 29.8625 42.9556 30.1339C41.8216 28.5751 41.0892 26.7998 40.327 25.0655L39.9749 24.0572C39.8518 24.2575 39.9263 24.4408 39.8651 24.6704C39.5992 25.3756 39.6212 26.1797 39.4942 26.9483C39.76 26.7519 39.8651 26.366 40.0878 26.0946C40.1019 26.6885 40.0274 27.2838 40.149 27.8537C40.2525 27.781 40.3889 27.5823 40.5395 27.457L40.5497 29.07C40.7057 28.9084 40.8312 28.5225 41.0814 28.4344C41.0814 28.9834 41.0672 29.554 41.0555 30.0767L41.6711 29.3305L41.6185 31.1862C41.7848 31.1398 41.9761 31.0416 42.162 30.9798C42.162 31.3293 42.1133 31.7236 41.9369 32.0344C41.1692 31.0068 40.7277 29.8277 40.1254 28.7352L39.044 26.4279C38.7547 27.222 38.6629 28.1761 38.6786 29.0854C38.8919 28.8952 39.0056 28.5496 39.2456 28.2991C39.1789 28.7846 39.0911 29.3398 39.066 29.8486C39.2322 29.704 39.3593 29.5037 39.56 29.4195C39.5718 29.9622 39.4448 30.5197 39.4942 31.0803C39.6581 30.9303 39.8243 30.7911 40.0117 30.7215C40.0274 31.1862 39.9749 31.7584 40.065 32.2308C40.1882 32.1195 40.3129 31.9339 40.4618 31.944C40.4752 32.3793 40.4281 32.8262 40.5144 33.2391L41.0814 32.8131L40.9951 34.2412C40.5261 33.7595 40.225 33.0636 39.8768 32.4582C39.2322 31.2767 38.8041 29.9878 38.1352 28.8218C37.9477 29.5138 37.9399 30.3481 37.8889 31.0517L38.4285 30.4733C38.3916 30.9303 38.3116 31.5025 38.401 31.9842L38.7374 31.7236C38.6904 32.0824 38.6512 32.5046 38.6167 32.9035C38.7547 32.8517 38.9311 32.7535 39.1327 32.7914C39.066 33.1633 38.9703 33.6087 39.044 34.0448C39.1789 33.9536 39.3318 33.8979 39.4942 33.8708C39.4942 34.1291 39.5075 34.4391 39.4063 34.6904C39.5216 34.7747 39.7106 34.8095 39.8768 34.8273C39.8651 35.033 39.8337 35.2935 39.811 35.5402L40.3129 35.5804C40.1741 35.8023 40.2133 36.0876 40.1019 36.3265C39.7106 35.916 39.5075 35.3438 39.2456 34.8482C38.6394 33.4355 37.9752 32.0615 37.547 30.5847L37.3871 30.3094C37.3126 31.2906 37.3439 32.3948 37.369 33.3257L37.4082 33.3992C37.5886 33.1633 37.6725 32.9128 37.7737 32.6546C37.8615 33.1633 37.7878 33.734 37.8348 34.2412C37.9634 34.143 38.0866 34.0773 38.1979 33.9806C38.2395 34.4128 38.1509 34.8482 38.1156 35.2935C38.3116 35.2224 38.503 35.0082 38.728 34.9386C38.5555 35.2935 38.4873 35.7559 38.3681 36.1665C38.5422 36.049 38.728 35.8502 38.9562 35.8023C38.9037 36.1008 38.7688 36.4015 38.728 36.7216C38.8841 36.8832 39.1185 37.0201 39.3318 37.1415L39.1327 38.0624C38.1234 36.6389 37.7235 34.9634 37.1189 33.3721C37.0451 33.1138 36.9197 32.8649 36.8044 32.6205L36.7558 32.8131V35.3337C36.9526 35.1621 37.0953 34.8868 37.2718 34.6904C37.2812 35.2224 37.0797 35.7559 37.1189 36.2995C37.3126 36.2129 37.3439 35.9623 37.547 35.8773C37.5196 36.2492 37.4223 36.6598 37.369 37.0549L37.8615 36.6118C37.7737 36.9838 37.6725 37.4423 37.6858 37.8621C37.8466 37.7005 37.9752 37.4941 38.1352 37.3031C38.161 37.7253 37.9007 38.1204 38.0277 38.5944C38.1885 38.4923 38.2253 38.2843 38.401 38.1992C38.401 38.5426 38.1979 38.8526 38.2779 39.2632C37.8348 38.9438 37.7603 38.2843 37.4553 37.8119C37.0193 36.8446 36.8044 35.7768 36.2751 34.8482L36.2123 34.9634C36.2006 35.8904 36.4194 36.7332 36.3668 37.6758L36.7283 37.3031C36.7401 37.6905 36.6131 38.1126 36.668 38.5078L37.1189 38.234C37.0797 38.5719 36.9942 38.9299 37.0334 39.3134C37.1816 39.2887 37.3337 39.1286 37.4827 39.0397L37.2718 40.0225C37.369 40.0325 37.4725 39.9343 37.569 39.8818C37.569 40.1191 37.5196 40.406 37.322 40.5529C36.5519 39.4488 36.3904 38.0748 35.7356 36.9451C35.7097 37.7407 35.8234 38.7683 35.6203 39.5756L36.1629 38.9299L36.0241 40.2699C36.1378 40.2807 36.2516 40.1694 36.3668 40.106C36.3394 40.3812 36.2257 40.6681 36.2398 40.9867C36.3904 41.0114 36.515 40.815 36.668 40.7632C36.595 41.0632 36.4311 41.3856 36.4743 41.7707C35.8642 40.9612 35.585 39.8818 35.1074 38.957C35.0078 39.7859 35.018 40.6913 34.8306 41.5457C35.018 41.4467 35.0941 41.1869 35.2839 41.0269C35.2972 41.289 35.1843 41.5341 35.1215 41.7808C35.2698 41.7576 35.4227 41.5588 35.5748 41.4722C35.458 41.7808 35.3231 42.1411 35.2839 42.5014V42.5532L35.6493 42.4125C35.4086 42.6707 35.3717 43.0218 35.2345 43.3303C34.8965 42.6475 34.7208 41.9076 34.4299 41.2101C34.3632 41.9942 34.2127 42.738 33.9758 43.4439C34.1405 43.3836 34.3029 43.2089 34.4417 43.0581C34.4526 43.3952 34.2872 43.7153 34.1225 44.0161C34.3162 43.9643 34.502 43.7656 34.6934 43.6403C34.5546 44.0254 34.2127 44.3996 34.1484 44.8465C33.7359 44.3223 33.6865 43.6171 33.4112 43.0102C33.3587 43.2955 33.3077 43.6078 33.2701 43.8661C33.0811 45.5904 32.0373 46.9667 30.8446 48.2796C30.7434 48.3407 30.6666 48.4528 30.5811 48.5293C30.5395 47.562 30.5395 46.5793 30.5066 45.6252C30.5811 45.0568 30.4541 44.4862 30.6203 43.9527C30.7332 44.2125 30.6666 44.5597 30.7803 44.8218C31.1065 43.7408 31.5347 42.7117 32.0624 41.7166C31.4759 41.8442 31.0093 42.3893 30.44 42.663C30.4266 42.4488 30.3521 42.2524 30.4188 42.0545C30.5129 42.1063 30.5811 42.2277 30.7058 42.2145C31.0148 41.8287 31.0148 41.3215 31.2335 40.89C31.3684 41.1135 31.3096 41.4606 31.4821 41.6934C31.9236 40.8769 32.213 39.9436 32.7313 39.1286H32.62C31.8766 39.6351 31.181 40.256 30.4658 40.8034L30.2408 40.89C30.1859 40.7029 30.2251 40.4949 30.2118 40.2946L30.4752 40.5413C30.8446 40.3178 30.8211 39.8586 30.9191 39.4874C31.0328 39.6451 31.0932 39.8338 31.181 39.9977C31.4484 39.5856 31.5833 39.1286 31.7715 38.6817C31.9025 38.807 31.9511 39.0165 31.9981 39.2021C32.4906 38.398 32.9831 37.5505 33.3352 36.7216C32.7956 37.0356 32.4906 37.6387 31.9511 37.999C31.3684 38.4923 30.7803 39.0784 30.098 39.4L30.0533 38.5348L30.5552 38.9299C30.694 38.6446 30.7332 38.2727 30.8054 37.9487C30.9285 38.0748 30.9285 38.4459 31.1441 38.558C31.4076 38.1992 31.4484 37.7523 31.5974 37.3402C31.726 37.4291 31.7637 37.6758 31.9103 37.8119C32.213 37.2807 32.4161 36.6598 32.6255 36.0799C32.7447 36.2376 32.6921 36.5229 32.7698 36.7216C33.2936 35.9392 33.7845 35.0252 34.2613 34.1561C32.7447 35.2448 31.5606 36.7332 29.9357 37.5637L29.9632 36.7719L30.3639 36.9451C30.7332 36.5979 30.8822 36.1897 31.1441 35.8023L31.3684 36.2995C31.748 35.9933 31.8217 35.5069 31.9981 35.0964C32.0765 35.2317 32.111 35.4072 32.2232 35.5402C32.4906 35.1698 32.6255 34.7152 32.7698 34.293C32.8701 34.4283 32.9164 34.586 33.0199 34.736C33.143 34.3525 33.3352 33.9536 33.4465 33.5453L33.6481 34.1816C33.9484 33.4262 34.3397 32.7149 34.6016 31.971C32.9972 33.1633 31.57 34.8752 29.7969 35.6902L29.8244 34.9634C29.9734 34.9634 30.0118 35.2448 30.2118 35.2085L30.7528 34.2412L31.2085 34.4646C31.5833 34.1175 31.726 33.6744 32.0491 33.3118C32.2232 33.3644 32.4906 33.5221 32.569 33.212L32.9697 32.3198L33.3077 32.4582C33.5461 32.135 33.6065 31.7476 33.6982 31.3633C33.812 31.4893 33.8472 31.7723 33.9233 31.9842C34.2127 31.1398 34.6934 30.3365 34.9906 29.4674C34.6424 29.6777 34.4417 30.0125 34.0135 30.3094L32.3385 31.8628C31.5488 32.4582 30.7434 33.0249 29.9106 33.5724V32.9267C30.0392 32.9267 30.1608 33.0365 30.3051 33.0636C30.5811 32.8262 30.6666 32.4814 30.8446 32.1945C31.0093 32.2448 31.1441 32.4953 31.2728 32.4582C31.5488 31.9208 31.8107 31.3888 32.1111 30.8684C32.2773 30.955 32.4263 31.0416 32.5157 31.204L33.1321 30.0264C33.2552 30.0991 33.2936 30.3481 33.3838 30.5197C33.5971 29.8896 33.9139 29.3035 34.2009 28.7096C34.324 29.0313 34.3029 29.4194 34.404 29.7504C34.8424 28.8218 35.0298 27.7439 35.4227 26.7673C33.9021 28.2148 32.2232 29.7388 30.5066 30.9434L29.9867 31.204C29.9514 30.9682 29.9734 30.6566 29.9632 30.4215L30.4188 30.7447C30.7528 30.4099 30.8313 29.9259 31.0697 29.5269L31.5213 29.9128C31.8766 29.4921 32.0295 28.9973 32.2891 28.5496L32.7447 28.9084C33.0576 28.5109 33.2473 28.0431 33.4465 27.59L33.6481 28.0161C33.9233 27.5436 33.9876 26.9483 34.2401 26.455L34.5154 27.1717L34.5805 27.1485L35.258 24.6163C33.5869 25.9941 32.0491 27.8081 30.0745 28.7096C30.0651 28.3996 30.0863 28.0524 30.1388 27.7439C30.2878 27.8792 30.3051 28.1661 30.5552 28.2148C31.0093 27.9565 31.2453 27.4439 31.3684 26.9637L31.7715 27.2838C32.111 26.9119 32.2891 26.4279 32.5431 26.008C32.6568 26.131 32.7447 26.2794 32.8796 26.366C33.2473 25.8573 33.5093 25.2758 33.7845 24.7183L34.0621 25.0903C34.7561 24.89 34.7404 24.1616 34.9694 23.6389L35.3074 22.1613C33.8214 23.6876 32.1918 25.289 30.3051 26.172L30.2525 26.1449C30.2525 25.6856 30.3388 25.2758 30.44 24.8629C30.4752 25.1884 30.567 25.4336 30.6666 25.6972C30.9559 25.2758 31.0148 24.767 31.2335 24.3062L31.8217 24.8629C32.2381 24.4547 32.4498 23.9111 32.7698 23.4387C32.8545 23.5755 32.8796 23.8361 33.1085 23.8222C33.532 23.1905 33.7476 22.4845 34.0621 21.8157C34.2284 22.0399 34.1641 22.4366 34.4628 22.5487C34.8573 21.8992 35.0078 21.1585 35.2196 20.4494L35.3309 19.9159C34.869 20.226 34.4628 20.775 33.9758 21.1206C32.8913 21.9394 31.8107 22.8317 30.5552 23.2655C30.4541 22.9299 30.5395 22.558 30.6415 22.2649C30.7528 22.4482 30.7528 22.7954 31.0697 22.7954C31.3959 22.6948 31.6209 22.3113 31.7989 22.0399L32.0624 21.5428L32.5039 21.876C32.907 21.4175 33.0811 20.775 33.3077 20.2028L33.6982 20.8121C33.9876 20.2878 34.099 19.7559 34.2613 19.176C34.4762 19.4072 34.4762 19.8579 34.6934 20.1564C34.9161 19.162 35.0666 18.0966 35.2345 17.1038C34.7914 17.4625 34.4142 17.9713 33.9484 18.4182C32.9972 19.1852 32.0373 20.0543 30.9191 20.4765C30.8548 20.2028 30.9034 19.8579 31.0093 19.5943C31.0932 19.6438 31.1967 19.8657 31.3473 19.9159C31.8374 19.8293 31.9628 19.2974 32.1761 18.9525C32.3518 18.9525 32.569 19.326 32.6568 18.9981C32.7447 18.702 32.8545 18.4298 32.907 18.1314C33.0576 18.1924 33.2473 18.4182 33.3352 18.5899C33.6481 18.0448 33.812 17.3968 34.0135 16.7937L34.4628 17.4757L34.5546 17.4393C34.8047 16.445 34.9906 15.5156 35.1074 14.4617C33.9876 15.5388 32.7172 16.595 31.3841 17.3527C31.3096 17.0535 31.4327 16.7782 31.4602 16.4929C31.5606 16.5331 31.5974 16.7705 31.7715 16.8053C32.0491 16.595 32.0491 16.1844 32.2891 15.9107C32.4161 16.036 32.5549 16.1983 32.7313 16.2385C32.9556 15.8241 33.1179 15.4019 33.2701 14.9821L33.6732 15.2689C33.9351 14.7973 34.0754 14.2746 34.179 13.731C34.324 13.8795 34.4417 14.1748 34.5154 14.4215C34.5546 13.5694 34.9302 12.8349 34.8573 12.0292C33.9351 12.6887 33.1085 13.5787 32.1111 14.0666C32.1487 13.8408 32.1291 13.5308 32.2232 13.3073L32.3636 13.5926C32.5784 13.3073 32.6388 12.9524 32.8545 12.6632C32.9697 12.8256 32.9972 13.0375 33.1321 13.1975C33.4677 12.7351 33.532 12.166 33.812 11.6944C33.9021 11.8831 34.0872 12.0431 34.2127 12.2148C34.2872 12.1892 34.375 12.1544 34.404 12.0794L34.7812 9.95544L34.7404 9.90982C34.0754 10.4565 33.4677 11.239 32.7039 11.5823C32.6663 11.2506 32.7447 10.8887 32.8192 10.5531C32.9305 10.7132 32.8701 10.9884 32.9556 11.1872C32.9831 11.2127 33.0066 11.2506 33.0395 11.2235C33.143 10.765 33.4465 10.3931 33.6481 9.98251L33.8606 10.4031C33.9876 10.0946 34.0754 9.7575 34.1225 9.42348C34.2009 9.4026 34.2401 9.55106 34.3162 9.466C34.3632 8.90543 34.5546 8.38119 34.6542 7.83994C34.2519 8.1384 33.8472 8.57217 33.3838 8.79331V8.62243C33.4857 8.36031 33.532 8.08427 33.6065 7.81443C33.7594 7.83994 33.8472 8.34639 34.099 8.03788C34.0872 5.40974 34.4142 2.82877 34.8831 0.311966C34.8424 0.271759 34.8047 0.264038 34.7679 0.271767C34.375 1.36431 34.1641 2.53031 33.812 3.636C33.4951 5.22417 32.8035 6.63528 32.2232 8.09819C32.1016 8.07499 32.0883 7.87396 31.9762 7.76648C31.8217 8.73377 31.3214 9.56033 31.0932 10.4951L30.8211 10.1565C30.4188 11.0387 30.3153 12.0431 29.8738 12.899C29.6997 12.7483 29.6856 12.5016 29.5099 12.33C29.1994 13.1109 28.9955 13.9413 28.605 14.6836C28.5305 14.6194 28.3901 14.3883 28.296 14.3349C27.827 15.2689 27.6396 16.3097 27.3267 17.3002L26.8711 16.8053C26.5371 17.6991 26.4312 18.6904 26.1716 19.5943C26.0446 19.4072 25.9583 19.1992 25.8101 19.0236C25.669 19.2974 25.7082 19.6963 25.6086 20.0064C25.5027 20.7371 25.4149 21.4345 25.4149 22.2379C25.2432 22.0763 25.0299 21.8157 24.8542 21.5922C24.7013 22.6198 24.8009 23.6776 24.9012 24.7183C24.7154 24.6317 24.5115 24.4678 24.3123 24.3603C24.4997 25.2372 24.6621 26.2068 24.7891 27.1485C24.6017 27.1354 24.3986 26.9483 24.2229 26.9251C24.3476 27.8537 24.6017 28.7212 24.7891 29.629C24.5742 29.5787 24.3986 29.3692 24.1735 29.2942C24.4472 30.2344 24.9655 31.1267 25.2706 32.094C25.0769 32.094 24.8675 31.944 24.6762 31.9208L24.7272 32.1419L25.8101 34.3525C25.6086 34.3525 25.4149 34.2157 25.2157 34.1816C25.7293 35.1451 26.334 36.1379 26.8845 37.1206L26.2595 36.9451C26.5857 37.801 27.3009 38.5348 27.6663 39.4C27.4906 39.4 27.3009 39.24 27.1134 39.2632C27.6396 40.0673 28.0748 40.9132 28.4662 41.7707L28.0929 41.7166C28.681 42.8462 29.3711 43.9388 29.7601 45.1574C29.6997 44.3223 29.8385 43.4919 29.6001 42.7248C29.1484 42.2779 28.7085 41.7808 28.7712 41.098C29.0096 41.4336 29.07 41.8944 29.4236 42.2145C29.5256 41.6934 29.2598 41.2758 29.2362 40.7779L28.067 39.5756C28.456 39.5485 28.2411 39.09 28.4293 38.8936C28.6418 39.4488 28.8183 40.0325 29.1994 40.5413C29.1617 39.8957 29.0974 39.2152 28.9955 38.5719C28.4034 37.999 27.6741 37.6387 27.1134 37.007C27.3793 36.9451 27.264 36.6118 27.3871 36.4363C27.5886 36.7332 27.7016 37.1554 27.9047 37.3905C28.0027 37.1554 28.0145 36.908 28.0443 36.6598C28.296 37.1067 28.5305 37.6905 28.8826 38.1706C29.0229 37.6541 28.8943 37.0719 28.8943 36.5229C28.0286 35.8255 27.0977 35.2448 26.1952 34.6494L26.3449 34.2157C26.5112 34.3409 26.6602 34.586 26.8264 34.7747C26.8986 34.6378 26.9511 34.4391 26.959 34.2412C27.2428 34.4894 27.4028 34.9116 27.6741 35.2224C27.8129 35.0469 27.7761 34.7616 27.8898 34.5536L28.7202 36.1665C28.7712 36.2129 28.8449 36.2856 28.8943 36.2492C28.8724 35.6036 28.8943 35.0082 28.7845 34.4051C27.7627 33.7208 26.697 33.0481 25.7435 32.1674L25.669 31.7584C25.7176 31.9958 25.9975 32.2579 26.2595 32.3716C26.359 32.1945 26.3449 31.944 26.4312 31.7584C26.6225 32.1597 26.748 32.6414 27.0977 32.977C27.264 32.7265 27.4028 32.4296 27.5008 32.1419C27.7761 32.6066 27.7525 33.1749 28.067 33.6226L28.3274 33.0636C28.503 33.3992 28.5948 33.7827 28.7845 34.1043C28.8826 33.5105 28.7085 32.8865 28.7712 32.285C27.6137 31.5118 26.3983 30.8321 25.3286 29.9128C25.3012 29.7156 25.2902 29.5138 25.2706 29.3035C25.4557 29.5447 25.4635 30.1726 25.9858 30.1339C26.1457 29.9622 26.1716 29.7388 26.2595 29.5269L26.3449 29.629C26.4978 30.0767 26.748 30.4811 26.9982 30.8932C27.1621 30.6566 27.1526 30.3481 27.2522 30.086C27.5416 30.5677 27.653 31.1654 28.067 31.6123C28.216 31.6254 28.1533 31.4275 28.2042 31.3424L28.1807 30.5197C28.3548 30.9032 28.4952 31.3022 28.7202 31.6741L28.7712 30.1973C27.602 29.3692 26.359 28.7506 25.2902 27.706L25.3286 27.0349C25.4557 27.2838 25.4635 27.6442 25.7435 27.8444C25.8783 27.9565 26.0187 28.1011 26.2046 28.1011C26.4061 27.9295 26.3708 27.6442 26.5112 27.4362C26.6382 27.8792 26.8711 28.2743 27.1134 28.6617C27.2522 28.4112 27.213 28.0524 27.3267 27.7671C27.5142 28.1877 27.5628 28.7096 27.7933 29.1318C28.0145 28.8952 28.0145 28.5225 28.1533 28.2357C28.3038 28.7506 28.5775 29.2068 28.7712 29.7156C28.8183 29.1187 28.8355 28.5364 28.9218 27.9295C27.7933 27.1949 26.6735 26.3916 25.6086 25.5086C25.4894 25.3624 25.3169 25.2503 25.2902 25.0655L25.5168 25.1134C25.5694 24.9402 25.5905 24.7439 25.6439 24.5567C25.7686 24.8768 25.8485 25.2503 26.0564 25.5604C26.2595 25.4011 26.472 25.2116 26.5959 24.9789C26.8319 25.4011 27.0233 25.9671 27.3009 26.455C27.4671 26.2176 27.6663 25.8364 27.9047 25.5859C28.1807 26.291 28.4152 27.0488 28.9484 27.6171L29.1719 25.7204C27.9635 24.7554 26.7127 23.973 25.7435 22.7088C25.8783 22.6817 26.0446 22.5966 26.083 22.4366L26.4194 21.5428C26.472 22.1358 26.4586 22.7683 26.6602 23.3057L27.1879 22.8317C27.2271 23.24 27.264 23.6505 27.4106 24.0209C27.6294 23.7356 27.8129 23.4 28.0145 23.1031C28.0552 23.5987 28.1141 24.1438 28.2293 24.6433C28.4426 24.4199 28.5305 24.1098 28.7477 23.8608C28.8826 24.3603 28.7963 24.965 29.1719 25.3369C29.3711 25.1637 29.1719 24.965 29.2598 24.7284L29.4456 23.5253C28.6967 22.7219 27.8035 22.0531 27.1134 21.1477C26.8986 20.775 26.5582 20.4494 26.3983 20.0659C26.4312 20.0543 26.5582 20.2778 26.7127 20.226C26.9864 19.7481 27.0609 19.1852 27.3385 18.702C27.3009 19.3855 27.2428 20.1432 27.2271 20.8237C27.5745 20.5654 27.5534 20.1162 27.8678 19.8177C27.8796 20.3744 27.8898 20.993 28.067 21.5172C28.3038 21.3185 28.3548 21.0123 28.5446 20.7618C28.5446 21.2072 28.521 21.7252 28.6575 22.1497L28.7845 22.0144L29.1484 21.3185L29.2182 21.3827L29.2362 22.3206L29.3382 22.8835L29.4456 22.9933L29.5099 22.9299L29.6464 21.7662L29.7114 21.3185L29.6252 21.1206L28.521 19.8077L27.8678 18.7306L27.5008 17.9713L27.6741 18.0177L28.2411 16.9437L28.296 16.9035L28.2293 17.4393L28.2411 18.4662L28.296 18.8883L28.7845 18.0579L28.9218 17.921L28.8355 19.1373L28.8567 19.7079V19.7829L29.1719 19.4706L29.5099 18.9981H29.5726L29.6001 20.1796L29.6856 20.4494C29.6856 20.461 29.6001 20.502 29.7601 20.5384L29.8989 20.0914L30.0259 19.1505L30.1271 18.8172L29.9632 18.5319L29.5099 17.9079L28.9955 16.8571L28.5446 15.6896L28.8943 15.961L29.037 15.7893L29.3382 15.1305L29.2182 16.9167L29.4864 16.6932L29.9357 16.0476L29.9867 18.1097L30.098 18.3935L30.1859 18.3548L30.5066 16.6089L30.694 15.3153L29.9632 13.9065L29.7852 13.5555L30.3521 12.9717L30.5278 12.6748L30.2525 13.9259V13.9777L30.5866 13.6429C30.5866 13.5926 30.4933 13.9166 30.694 13.5308L30.7332 15.0671L30.8681 14.6836L31.1206 13.4442L31.4821 11.9929L31.2594 10.8771L31.3473 10.9622L31.5488 11.5227L31.5974 11.4972L31.9417 10.2663L32.3385 9.03996V8.54511C32.3636 8.54511 32.1761 8.74382 32.4749 8.57217L32.5157 8.62243L32.7698 8.03788L33.0811 7.0822L33.5869 5.7832L33.8606 4.84839V4.77107L33.8394 5.35716L33.532 6.69868L31.8868 12.2797L31.4602 14.3148L30.8681 17.1409L30.6203 18.4453L30.0259 22.3732L29.8738 23.5021L29.6252 26.0676L29.4236 28.5109L29.3711 30.3094L29.3107 34.0177L29.3382 37.5884L29.6464 40.9867L29.8244 42.3027L29.9632 44.1491L29.9867 45.1318L30.0118 46.5793L29.9357 47.9711L29.9632 48.1079L29.8989 48.0306L29.3107 46.9667L28.4426 45.803L27.2734 44.3494L27.0468 44.003L25.8681 42.3297C25.8587 42.2895 25.9324 42.4302 25.9324 42.4302L25.7803 42.1658L26.9119 43.4169L26.8845 43.0836L26.6853 41.9424L26.5959 41.139L26.2359 41.657L25.7803 40.3178L25.6298 39.4256C25.6164 39.3869 25.6964 39.3614 25.6086 39.3274L25.4635 39.622L25.0769 40.89L25.0142 41.0478L24.7679 40.6526L24.586 40.2444L24.815 40.3294L24.8754 40.406L24.9263 40.3812L24.8401 39.8477L24.4746 38.9052L24.7405 39.1286L24.9499 39.4L25.0416 39.4874V39.3134L24.7891 38.5348L24.426 36.9451L23.8002 39.0397L23.634 39.4387L23.5736 39.3753L23.296 38.5719C23.3101 38.5217 23.3838 38.4459 23.2709 38.398L23.685 38.5719L23.7203 38.4846L23.5971 37.7253L23.3235 36.8972L23.6599 37.2165L23.9116 37.5505L23.9994 37.6387V37.3031L23.5736 34.6494L23.4976 34.3796L23.4113 34.4646L23.0906 35.6306L22.704 37.7005C22.6295 37.7778 23.0184 37.1067 22.6177 37.9758L22.551 37.8992L22.3519 37.3031L22.5926 37.3673V37.1067L22.3895 36.3613H22.7565L22.6687 35.4938L22.4632 34.4283L22.551 34.5126L22.8169 35.2448C22.882 35.2935 22.6789 35.309 22.9227 35.3608L22.8976 34.0943L22.7565 32.9035V32.1674L22.5926 32.3948L22.1919 33.8438L21.6877 36.2129L21.6014 36.3899L21.4861 36.2129L21.3081 35.6036C21.3081 35.5943 21.2963 35.7041 21.283 35.5572H21.5606L21.6249 35.5402L21.4218 34.0943L21.8265 34.2157L21.8006 33.5453L21.6735 32.4296L22.1017 33.1231L22.137 33.1749L22.2405 32.9901L22.1644 31.944L21.9613 30.6721L21.9002 30.2476L21.5347 30.9434L20.9936 32.7265L20.6925 34.0943L20.5404 34.8273L20.491 34.8752L20.2393 34.3525L20.5404 34.2412L20.3796 33.3466L20.2902 32.8649L20.6925 33.1022H20.7435L20.6517 32.285L20.5404 31.811L20.7435 31.8976L21.0854 32.1674V31.8628L20.8548 30.2228L21.1066 30.4099L21.3081 30.7215L21.3748 30.7834L21.4493 30.6968L21.3081 29.7156L20.9936 28.2627L20.9411 28.0431L20.0652 30.7447L19.7891 31.5388L19.4221 32.9901L19.2206 31.971C19.2088 31.944 19.172 32.0708 19.1971 31.9208H19.4982L19.3084 30.7586L19.3382 30.6968L19.6119 30.8684L19.7625 30.8932C19.7758 30.9032 19.6645 30.9434 19.8127 30.9202L19.8621 30.8684L19.5625 29.3537L19.5217 29.0452L19.7013 29.2169L20.0848 29.8896C20.1059 29.905 20.0322 29.9205 20.0322 29.9182C20.0322 29.9143 20.0589 29.9066 20.153 29.8896L20.0848 29.1798L19.7891 27.9658L19.924 28.1011L20.3522 28.7986L20.4408 28.7096V28.4112L19.9515 26.0289L19.6739 26.5029L18.9689 28.623L18.5682 29.936L18.3415 30.9434L18.2764 30.8684L18.0655 30.1633L18.0929 30.113H18.3157L18.3917 30.0473L18.1792 29.1048L18.6325 29.07L18.3917 27.706L18.4019 27.6302L18.5211 27.7439L18.7438 28.0431L18.8199 28.1011L18.9077 28.0161L18.8803 27.1485L18.8199 26.9483L18.703 26.0289L19.0818 26.4032L19.248 26.6537L19.3084 26.7264L19.4119 26.6127V26.2068L18.9352 24.1964L18.5211 25.2503L17.9792 26.8114L17.5205 28.2898L17.319 29.1318L17.1253 28.7738L16.959 28.1529L17.2586 28.1877L17.2311 27.2127L17.2115 27.1485V27.0759L17.6122 27.0604L17.4828 25.9485L17.4107 25.4993L17.9792 25.9214L17.9541 25.289L17.6867 23.9343L17.9134 24.1616L18.2043 24.5065L18.4529 24.7183C18.5031 24.7029 18.4803 24.6047 18.5407 24.6704L17.9792 22.7954L17.8255 22.1613L17.319 23.799L16.5308 26.2794L16.2807 26.7905L16.1246 26.366V26.291L16.254 26.2292L16.2164 25.5086L16.1654 25.3369L16.1889 25.289L16.4689 25.3122H16.5308L16.5818 25.2256L16.5528 24.0572L16.5034 23.8361L16.5308 23.7487L16.9222 23.9343L17.0061 23.9474L16.8696 22.9299L16.8186 22.6817V22.6082L17.2115 23.1905L17.2586 23.24L17.3715 23.1031V22.7088L16.959 20.7618C16.9433 20.775 17.0468 20.8237 16.9316 20.71L16.7559 21.0951L16.0501 23.0436L15.4228 24.5799L15.3718 24.6163L15.3075 23.4889H15.6769L15.5616 22.3863H15.6871L15.9623 22.5178L16.0133 22.4984L15.9623 20.8987H16.1035L16.4414 21.0332L16.1035 19.2834L16.029 18.702L15.5757 20.1564L14.7405 22.5487C14.6935 22.6198 14.6276 22.3732 14.6551 22.6817L14.5178 21.9642L14.717 21.8992L14.6551 20.7371H14.7405L14.946 20.8987L14.9946 20.935L15.0825 20.8237L15.0558 19.4845L15.0087 19.2626L15.1083 19.2216L15.462 19.534L15.5365 19.5943V19.3956L15.0087 17.3257L14.9209 17.0172C14.9209 17.0017 14.8464 17.1038 14.8935 16.9437L14.8284 17.0806L14.0897 19.3956L13.8379 20.0064L13.6497 18.6417L14.0136 18.927L14.0646 18.8883L13.9258 17.1656L14.2912 17.4393L14.5178 17.5878V17.3002L14.0136 15.2055V15.0455L13.9258 15.1305L13.3627 16.7937L13.1573 17.2391L13.0734 16.3197L12.9095 15.4661L13.4098 16.0746L13.4976 15.9014V15.4661L13.1832 14.2383L13.0208 13.5308L12.6162 14.0859L12.3402 12.531L11.8014 8.51031C11.7857 8.49717 11.7661 8.51959 11.752 8.48325L11.7112 8.57217L11.9143 11.2127L12.1668 13.0375L12.29 14.1516L12.8177 17.0288L13.5329 20.1433L14.2661 22.5711L14.7821 24.1709L15.9372 27.3704L16.6383 28.8581L17.4985 30.3867L18.5211 32.2579L20.0401 34.8752L20.9717 36.226L21.6735 37.1662L23.2709 39.5369L23.8002 40.3178L25.0142 41.9942L27.2522 45.0916L28.0145 46.1208L28.8567 47.2999L29.5099 48.3909L29.2362 48.3314L27.6396 47.4716L25.9442 46.5793L24.2229 45.7118L23.2709 45.3166L21.9613 44.7584L20.2393 44.1166L16.1035 42.4488L13.5854 41.3624L11.752 40.3565L9.96564 39.1766L7.7511 37.4771L6.0502 35.8023L5.61262 35.2719L4.61749 34.1291L3.82625 32.977L2.80759 31.204L2.76916 31.0517L2.89385 31.1862L3.73842 32.3716L4.7312 33.734C4.87 33.8322 4.46536 33.6744 4.84647 33.8809L4.89352 33.8708L4.77982 33.2623L4.69199 33.0157C4.67082 32.9901 4.61749 33.0767 4.64337 32.9538L4.75864 33.0636L5.09663 33.9945L5.15936 34.3177L6.68225 35.7768L6.6352 35.5804L6.33956 35.0716L5.91375 34.4894C5.91532 34.4994 5.91218 34.4801 5.88866 34.4391L6.08941 34.4894L6.4023 34.6634L6.76773 35.2935L6.96926 36.0799L7.38567 36.5593L8.09143 37.1662V36.9683L7.726 36.0049L7.6123 35.7768H7.6766L8.17926 36.3899L8.42942 36.9683L8.6286 37.5637L9.44808 38.1992L9.82919 38.4459L9.80331 38.3114L9.10931 37.4539C9.08186 37.4632 9.0701 37.4423 9.05677 37.4423L9.08186 37.3905L9.44808 37.3673H9.51003L9.56335 37.3302L9.22301 36.8832L9.16812 36.8353H9.37358L9.53747 36.8972L9.78998 37.2536L10.2785 38.7335L11.6391 39.6854L11.6626 39.5485C11.2831 39.281 10.9569 38.8681 10.6691 38.5719L11.2964 38.6817L10.4816 37.6758L10.8925 37.6619L11.0329 37.7005L11.5505 38.5719L12.2014 39.8686L12.2759 40.0673L13.271 40.7168L13.6497 40.89V40.7632L13.5251 40.4315L12.8561 39.9088C12.8177 39.8818 13.122 40.0673 12.7432 39.8477L13.2184 39.7086L12.5166 39.0165L12.7432 38.9779C12.7566 38.957 12.6828 38.9856 12.6828 38.9856C12.6883 38.9895 12.7213 38.9779 12.8428 38.9299L12.2508 38.4459C12.1786 38.4196 12.3033 38.6044 12.2759 38.3438L12.3402 38.3114H12.4288L13.1573 39.1031L13.7242 40.1578L14.1054 41.0021C14.401 41.1135 14.6668 41.5457 14.946 41.4088L14.5178 40.7779L14.717 40.5181L14.3124 39.9977L14.2661 39.9575L14.3579 39.7743L14.1273 39.4L13.8379 39.0652L13.7595 38.9995L13.9023 38.9052H13.9767L14.7405 39.9343L15.1452 40.9612L15.335 41.6068L15.5757 41.7436L16.3654 42.0545L16.414 42.1063L16.3905 41.9942L15.9019 41.2758L16.138 41.0269L15.6871 40.4408L15.7357 40.2699L15.622 40.0441L15.3483 39.7086L15.462 39.6451L15.6008 39.622L16.1654 40.5529L16.4689 41.2256L16.7049 42.114L17.2586 42.4125L17.6593 42.5895C17.7001 42.5934 17.5534 42.5014 17.5519 42.5029C17.5519 42.5091 17.606 42.5532 17.8255 42.7001C17.8389 42.6862 17.7252 42.6707 17.8624 42.6707L17.5519 42.1906L17.2115 41.8287V41.7707L17.4342 41.5202L16.9222 40.8266L17.1449 40.6047L17.6593 41.582L18.1141 42.7867L19.074 43.1215L19.0465 42.9212L18.5933 42.4125L18.8552 42.1411L18.7713 41.657C18.7556 41.63 18.7924 41.8039 18.7438 41.582L19.248 42.4125L19.637 43.3071L20.4267 43.6635L20.4675 43.6171L20.3287 43.3705L19.7013 42.8114L20.2393 42.7867V42.3622L20.8823 43.7037L20.9191 43.8406L21.9888 44.3401L21.9613 44.003L21.3748 43.4169L21.9613 43.3952C21.9613 43.3836 21.9613 43.3187 22.0296 43.3705L22.2758 44.3996L22.8059 44.6826L23.1455 44.7963L23.4858 44.9818V44.7584L22.9831 44.3726L22.929 44.3401L23.3235 44.446L23.634 44.5597L23.8238 45.1125L25.2157 45.8239L25.9442 46.2058L25.8587 46.0087L25.0628 45.0205L24.9263 44.7808L24.8754 44.7352C24.8542 44.9177 24.7272 45.1048 24.8542 45.2904L24.6134 45.1125L23.5971 43.7285L23.5226 43.5669C23.3838 43.7153 23.3564 43.9527 23.296 44.0911L22.1644 42.5671L21.9613 42.2524L21.8751 42.1658L21.7088 42.7496L20.2902 41.1869L20.2134 41.1135L20.153 41.2488L20.102 41.8039H20.0103L18.703 40.1307L18.6536 40.9612L18.3666 40.7168L17.2978 39.3521L17.2703 39.9088V39.9861L17.0704 39.8818L15.462 38.5348L15.4487 39.1534H15.3483L13.7595 37.924V38.1126L13.8379 38.6214C13.8105 38.6292 13.8866 38.6446 13.8105 38.6678L12.8177 37.7778L12.3174 37.2304C12.2759 37.2536 12.4288 37.2923 12.2508 37.2807L12.3174 37.9758L10.7067 36.3613L10.691 37.1206L10.593 37.1067L9.6747 36.0049L9.34613 35.5402L9.14695 36.2995L8.35335 35.5185L7.6515 34.7152L7.56368 35.3337L6.96926 34.7616L6.23056 33.7595C6.189 33.6744 6.68225 34.3177 6.11685 33.5105L5.9412 33.9536L5.40952 33.2391L5.03389 32.6546L4.47947 31.7584L4.30303 32.2076L4.25598 32.2579L3.78939 31.3633C3.67568 31.0416 3.56041 30.7045 3.45062 30.4099L3.34711 30.4981L3.22399 30.9434L2.94639 30.6721L1.99282 29.1566L1.3341 27.6534L1.22275 27.2838C1.22275 27.2722 1.1953 27.1485 1.13257 27.2838L1.07218 27.3704L1.38664 28.3996L2.24141 30.6721L2.60684 31.6486L3.12283 32.7033L3.82625 33.8809L3.68745 33.7595L2.96992 32.7265L2.63036 32.4582V32.5896L3.62471 34.3177L4.19168 34.7616L4.93273 35.0964L5.18446 35.6036L4.82138 35.4458L4.59475 35.2448V35.4304L4.7312 35.8773L4.25598 35.3337L3.90231 34.9982L3.45062 34.7747V34.8868L3.96505 35.6538L4.82138 36.7216L6.82105 37.1067L7.13551 37.6619L7.01788 37.6758C6.83046 37.5289 6.61716 37.5637 6.4023 37.3031L6.42739 37.5505L6.65637 38.1126L6.7442 38.2843L5.66124 37.3302L5.68712 37.4771L5.88866 38.1126C5.89022 38.1126 5.74593 37.9681 5.91375 38.1992L5.68712 37.9758L4.93273 37.0796L4.61749 37.007H4.53201L5.1476 37.8621L5.83533 38.6214L6.17959 38.7799L7.22177 38.9052H9.03324L9.22301 39.24L9.2834 39.4387L8.89444 39.2887L8.57998 39.1031L8.5196 39.1766V39.4256L8.46628 39.4604L7.56368 39.09L7.6515 39.4256L7.89931 39.8686L7.24843 39.4874L6.85791 39.1534L6.96926 39.8477L6.16626 39.09H5.75142L5.77495 39.1766L7.18413 40.406L8.66938 40.3812L10.5303 40.1825L10.5797 40.1578H10.6416L11.0972 40.6681L10.2181 40.5181L10.1648 40.5529L10.1907 40.8769V40.9403L9.91467 40.8769L9.23634 40.5815L9.2834 41.139L8.15182 40.74L8.31806 41.0269L8.86151 41.6934L8.6286 41.6068L7.42488 40.9612L7.18413 40.8498H6.82105L6.99671 41.0709L8.42942 42.0815L8.7674 42.1658L9.76254 41.9942L12.4539 41.2983H12.544L13.0444 41.63H12.4539L11.9786 41.582L12.2759 41.9942L11.3474 41.8805H11.2619L11.2737 41.9942L11.5505 42.3398C11.5505 42.3506 11.5858 42.2679 11.574 42.3893L11.2619 42.3297L10.6416 42.114L10.3899 42.0815L10.4173 42.2145L10.9231 42.7001L10.7067 42.6707L9.87546 42.438C9.81507 42.4032 9.78998 42.5014 9.73666 42.438L10.0103 42.7001L10.353 42.9212L9.34613 42.663L8.86151 42.5261L8.55802 42.5671L8.92032 42.8331L10.1907 43.3705L10.5052 43.4169L11.6877 43.1084L14.1054 42.2277H14.3304L14.717 42.4743L14.7719 42.5261C14.528 42.5261 14.2912 42.513 14.0136 42.6127C13.9768 42.7248 14.2661 42.8254 14.1054 42.9483L13.1832 42.8864L13.2498 43.0102L13.5854 43.3434L12.8561 43.3303L12.544 43.3071H12.4539L12.8177 43.6171L12.4288 43.5939L11.9786 43.505C11.9512 43.4787 11.8892 43.4532 11.8398 43.5305L12.2759 43.9798L11.5999 43.8174L11.3474 43.7037L10.593 43.8908L10.691 43.9798L11.5254 44.2396L12.6766 44.4862L13.3102 44.3996L14.4904 44.003L16.0501 43.2545L16.4689 43.147L16.6971 43.2816L16.7559 43.3434L16.2164 43.3705L16.2438 43.7285L15.6494 43.7037L15.5616 43.7285V43.8174L15.7961 44.1491L14.6551 44.2264L15.1687 44.671L13.6991 44.6826L13.3839 44.8682L13.3102 44.9331L14.717 45.1125L15.1985 45.1318L16.254 44.7963L17.4107 44.2396L18.3157 43.7285C18.4803 43.7749 18.6074 43.8908 18.7713 43.9798L18.2764 44.037C18.2725 44.1166 18.3572 44.0447 18.347 44.0254C18.3415 44.0161 18.2882 44.0238 18.14 44.1166L18.2764 44.3996L18.3157 44.446L17.4985 44.5728L17.9408 44.9818L16.8437 44.8952L17.3715 45.2904L15.9153 45.377L15.4832 45.6004L15.6769 45.6909C16.4038 45.8239 17.446 45.7272 17.9792 45.6909L19.8127 44.9331L20.6321 44.6501L21.0054 44.8952L21.0579 44.9331L20.5129 44.9818C20.4173 44.9679 21.1991 45.0205 20.2134 44.9331L20.5772 45.3398L19.4982 45.377L19.7233 45.6004L20.0103 45.7349L18.3917 45.8486L18.2529 45.8989L17.9792 46.1324L18.2043 46.2058L20.491 46.0705L21.0854 45.9089L22.4632 45.3538L22.6412 45.4017L22.9557 45.6252L22.4632 45.6507L22.6412 45.936L22.6177 45.9855L21.7363 45.9089L22.0296 46.2058C22.0743 46.2321 21.7088 46.1455 22.1644 46.2708L21.1066 46.2437H20.8823L20.4267 46.4556L21.3081 46.4942L22.7565 46.5793L23.3705 46.604L24.5389 46.2963L24.9263 46.4942L24.9655 46.5445L24.2888 46.5213C23.8983 46.6411 23.5328 46.6659 23.1831 47.1012L25.4149 47.1267L27.0742 47.7453L28.2685 48.4427L28.8943 48.9113L29.4629 49.26L28.521 49.3079L23.8238 50.027L23.8865 49.9536L26.4586 49.4201L24.6487 48.7992L23.9336 48.4775V48.5757L24.7013 49.509L24.0465 49.3992L23.1219 49.1077C23.1047 49.0961 23.0788 49.1232 23.0655 49.0884L23.9336 48.95L23.4113 48.701L21.9002 48.2409H21.7872V48.3059L23.2333 49.8399L22.1017 49.5778L22.3895 49.3721L22.551 49.3079L22.5926 49.26L22.4632 49.1966L20.9191 48.9113V48.8634L21.7637 48.6144L21.6877 48.5548L21.3081 48.5293L19.6739 48.2796L20.6925 49.2213L21.7088 50.0889L21.9002 50.3147L20.8062 50.2273H20.7435L20.8548 50.116L21.3356 49.9172L19.924 49.7069L19.8777 49.669L20.5404 49.4448L20.4032 49.3079L19.4496 49.1348L18.7924 49.1077L18.9352 48.9732L19.6119 48.7536L19.2951 48.6662H18.0655L17.3715 48.6894L18.9689 49.894L19.7013 50.4855L19.7507 50.5381L19.2951 50.559L18.7344 50.3626L18.8199 50.2644L19.0818 50.1507L18.9571 50.041L17.6122 49.9791L18.3666 49.7827C18.38 49.7417 18.4137 49.7688 18.4294 49.7301L17.751 49.5778L16.7308 49.509L16.5308 49.5322L16.592 49.4703L17.3503 49.2213C17.3676 49.175 17.2115 49.2469 17.2131 49.2469C17.2131 49.2469 17.2837 49.2198 17.5205 49.1077L17.4985 49.0636L15.2801 49.0884L17.1253 50.7825L16.254 50.8961L16.3654 50.6727L16.5034 50.5381V50.4492C16.1035 50.4399 15.7357 50.4855 15.3993 50.4013L15.9623 50.1407L16.0776 50.027V49.9791H14.4284L15.4487 49.6435L15.4832 49.5778L15.3718 49.4703L12.9565 49.5778L14.2661 50.4855L14.7405 50.8691L13.9767 50.9348H13.8772L14.1775 50.6982C14.1657 50.6727 14.1132 50.75 14.1273 50.6247L12.4539 50.5381L12.544 50.4492L13.1832 50.2505C13.2569 50.1778 13.398 50.116 13.4098 50.041L13.3102 50.0038H11.1576L11.6132 50.4855L12.1786 50.9603L11.9786 51.033L11.4125 50.9812L10.5797 50.8234L11.2964 50.5381L11.3733 50.4724L11.2964 50.426H10.077L8.92032 50.3147L8.96894 50.4855L9.10931 50.6982L8.32747 50.6456L6.58972 50.2505L6.6352 50.4013L6.79517 50.6247L6.82105 50.6982L8.21455 51.0082L10.353 51.268L11.9143 51.3438L15.233 51.268L17.5981 51.1567L22.8976 50.8095L27.0468 50.116L28.3274 49.894L29.7114 49.8399L29.3491 50.5381L28.9484 51.0678L28.1807 51.8773L27.4381 52.4093L26.1952 52.9428L25.4423 53.215L25.8101 53.4361L26.799 53.6619L26.846 53.7137L25.9701 54.2209L26.2359 53.8335L26.0971 53.7485L25.4149 54.0013L25.1043 54.173L25.5302 53.6372L25.1043 53.7137L23.2333 54.4923L23.1831 54.531L23.8002 54.78L24.9655 55.0498C25.0063 55.073 24.8738 55.0691 24.8738 55.0691L25.1043 55.09L23.9743 55.5586L23.8379 55.6452L24.1735 55.2477C24.1994 55.2137 24.2888 55.3351 24.248 55.1364H24.0465C23.6599 55.2748 23.3101 55.5083 22.9557 55.6722L23.0419 55.472L23.4583 54.94L23.2568 54.9763L22.1237 55.6452L21.4493 56.1694C21.4336 56.1771 21.3591 56.1037 21.4218 56.2313L22.5024 56.3944L23.5971 56.5011L23.4976 56.5916L22.5283 57.2333L22.8059 56.7246V56.6511H22.5769L21.85 56.9001L21.6524 56.9867L21.6735 56.4277L20.4408 57.3215L19.4221 57.906L21.5724 58.0777L21.5606 58.1736L21.0329 58.5091L21.1991 58.1875L20.9717 58.1736L20.8313 58.2176L19.637 59.0682C19.6119 59.0836 19.7891 59.0349 19.5625 59.1045L20.2134 58.2602V58.2176L20.153 58.1736L19.8777 58.2602L18.2255 59.5128C18.2184 59.5306 18.38 59.4648 18.1792 59.5769H19.4747L19.074 59.9983C19.0332 59.9001 19.1445 59.7981 18.9689 59.7154L18.0655 60.6448L17.4342 61.4234L14.8817 63.9556L14.3124 64.6013L14.3579 64.6507L15.0825 64.094L16.254 63.061L17.9408 61.8355L19.7507 60.6672L20.1295 60.4708L20.1765 60.419L20.153 60.9795L21.8265 59.887V60.3594L23.1219 59.444L23.634 59.0179L23.685 59.3009V59.3535H23.8002L25.0769 58.0638L25.1279 58.2408V58.5494L26.5504 56.5011L26.6602 57.0733C26.6735 57.098 26.7127 57.0462 26.6853 57.1251L26.8845 56.7895L27.7525 54.78L27.8898 55.2748L28.0027 55.0498L28.5446 53.2652L28.7202 52.8585H28.6575L28.0027 53.4887L27.7933 54.1088L27.7525 54.381C27.7016 54.4312 28.0443 53.9835 27.5628 54.531L27.6137 54.0493L27.5628 54.0013L26.6225 54.9532L26.4837 56.2313L25.8587 56.6264L26.3198 56.0673V55.9537L25.7435 56.1447L26.3449 55.3985V55.1998H26.2595L25.1898 56.1694L25.0416 57.6184L24.3398 57.9671L24.8754 57.3447L24.8542 57.2944L24.1382 57.4568L24.6276 56.9001L24.7405 56.6759V56.5916H24.6487L23.6599 57.3911L23.5226 58.5494L22.8443 58.9947L23.296 58.3491V58.2988L23.0906 58.3491L22.5926 58.5494L23.2709 57.8767L23.3705 57.7437C23.3564 57.7166 23.3313 57.9671 23.3446 57.6555L22.0531 58.6228L21.9888 59.3318L21.283 59.6017L21.6877 59.1293V58.9058L21.5724 58.8849L20.8313 59.444L20.3287 59.7749L20.2644 60.1352L20.153 59.9605L19.1579 60.5187L18.3666 61.0893L19.0465 60.419L20.8917 58.9584L22.8443 57.5937L24.3398 56.3681L26.5371 54.4444L29.0582 51.8773L29.9106 50.9216L30.0118 50.8234L29.7852 54.6678L29.3962 56.8359L28.8081 58.6615L27.9266 60.5187L27.3009 61.612L27.1879 61.6468H27.0977L27.0468 61.612L27.6663 60.4089L28.5775 58.0777L28.9218 56.8498L29.2833 54.7274L29.4236 52.5206V52.3838L29.2362 52.5964L28.605 54.4196L27.8466 56.5011L27.7275 55.8416L27.4106 56.3944L26.9864 57.4321L26.6602 58.1272L26.4837 57.2102L26.3198 57.3702L25.4894 58.7094L24.815 59.5499L24.7891 58.8192L23.3838 60.1352L23.3446 59.6635H23.2709L22.8443 60.0757L21.6877 60.893L21.6249 60.9664L21.5606 60.446L21.4493 60.4708L20.0848 61.527C20.0401 61.527 20.0103 61.5772 19.9734 61.5865V61.053V60.9664L19.8621 60.9795L17.6373 62.3945L14.3124 64.8727L14.0136 64.7613L13.9767 64.7126L16.0133 62.4556L17.2703 61.0283L18.2764 59.887H17.319L18.14 59.1293L19.1837 58.1875L18.8199 58.1736H18.5933L19.6488 57.3215L20.9936 56.3944L20.3522 56.3155L20.5129 56.1694L22.8443 54.6895L22.2507 54.4676L23.7728 53.7485L24.9499 53.2652L24.8754 53.1663L24.5115 53.0163L25.6298 52.608L27.3009 52.049L28.1297 51.4281L28.8081 50.6456L29.2182 50.116L29.1994 50.0634L28.4426 50.1507L27.2522 50.4855L26.4586 50.7825L24.6276 52.1858L24.0622 52.7194L24.0465 52.1588H23.9508L23.4113 52.4827L21.8265 53.3031L21.7872 52.9312L19.7507 54.0493V53.6372L18.6811 54.057L17.6373 54.3578L17.2586 54.3941C17.2703 54.2457 17.286 54.1359 17.4107 53.9704L17.1841 54.0013L15.8494 54.2828L14.7405 54.4444H14.6935L14.8558 54.1359L14.9946 53.9449H13.4976H12.5927L12.657 53.8011L12.882 53.5506L12.8561 53.5042L10.931 53.4361L10.3295 53.3302L10.5797 52.9683L9.78998 52.8315L8.44118 52.7449L8.88268 52.2624L8.78152 52.1858L6.95907 51.7389L4.77982 51.0082L3.31025 50.3758L2.58096 50.027L2.5441 49.894V49.8074L6.50424 50.6456L6.02903 49.8399C6.02903 49.7827 6.07608 49.8538 6.06823 49.8592C6.06823 49.8654 6.04314 49.8422 5.98041 49.7556L7.78639 50.2505L8.44118 50.3394L8.242 49.894L8.49372 49.867L10.4816 50.0038L10.7804 49.9536C10.8337 49.9536 10.6573 50.1044 10.8706 49.9304L10.4659 49.5778H11.8014L12.4813 49.5322L12.3174 49.2469L14.7719 49.0234L14.8056 48.9732L14.6276 48.701V48.6414L16.9222 48.5293V48.4427L16.6171 48.1922L16.5528 48.1327H18.9571L19.2951 48.169L18.994 47.8071L20.4408 47.9053L21.5724 48.0553V47.9185C21.5606 47.8319 21.5347 47.7584 21.461 47.6819L21.7637 47.695L23.4332 48.1922L23.6066 48.2796V48.0206L23.5736 47.9185L23.7454 47.9456L25.5168 48.6662L25.6298 48.701L26.1952 48.8634L27.3267 49.0002L28.4034 48.9113L27.5886 48.3677L26.4312 47.8319L25.2902 47.4368H23.5736L22.7314 47.4963L22.6177 47.5489H22.551L22.8169 47.0262L21.232 46.8507L20.2134 46.9048H19.4119L19.7891 46.4734L18.5933 46.5677L17.4342 46.6543L17.0335 46.7432L17.3503 46.2321L16.5308 46.2058L14.4904 46.0458L14.4418 46.0087L14.8056 45.6909L14.8817 45.6252L14.4284 45.5386L13.1832 45.4867L12.29 45.4272L12.6162 45.1125L12.8428 44.9548L12.882 44.9084L12.7432 44.8465L12.09 44.7808L11.2345 44.5597L9.57276 43.9798L10.0284 43.7285L9.96564 43.6403L8.89444 43.2313L7.6766 42.5895L7.53623 42.4488L7.98792 42.3297C8.00125 42.3127 7.95263 42.4125 8.03811 42.3027L6.02903 40.7168L5.91375 40.6047L5.9412 40.5529L6.70499 40.5181L6.39446 40.2042L5.07153 39.0165L4.7312 38.7065H5.48794L4.05131 37.0549L3.76586 36.5593L4.21755 36.5863L4.30303 36.6389H4.36577L3.53923 35.5572L2.80759 34.4283C2.76916 34.3626 2.81935 34.303 2.66722 34.2412L2.99736 34.293L3.31025 34.4051L1.99282 32.0824L2.20377 32.094L2.63036 32.3198L2.60684 32.2076L2.01399 31.0068L1.35763 28.8852L1.07218 27.7942L0.884766 27.1872L1.22275 26.8501L1.47682 27.3704L1.99282 28.6022L2.76916 29.803L3.11107 30.2476L3.23419 30.0473L3.39651 29.6429L3.45062 29.6019L3.76586 30.2476L3.98857 30.8684L4.24265 31.3424L4.47947 30.9798L5.03389 31.9842L5.80004 33.1022L5.95296 33.3118L6.14038 32.8401L7.40919 34.6904L7.49859 34.3796C7.52996 34.3108 7.47742 34.6378 7.47193 34.6378C7.47193 34.6378 7.48526 34.4917 7.56368 33.9945L8.29062 34.9116L8.66938 35.3817L8.96894 35.6538L9.19949 34.8002L9.62765 35.3206L10.4659 36.2995L10.5303 35.5804L11.8892 36.9451C11.9143 36.9838 11.8281 37.0201 11.9512 37.0549L11.9786 36.3358L12.0531 36.2995L13.3839 37.8119V37.0549L13.4215 37.007L15.0825 38.5348L15.1083 37.8992V37.8374L15.2213 37.8621L16.2438 38.6678L16.981 39.2021H17.0335L17.1566 38.558L18.0263 39.622L18.2882 40.0673L18.3917 39.8818L18.4529 39.2632L18.5031 39.2152L19.2206 40.2042L19.8346 41.1637L20.0401 40.406L21.0054 41.4088L21.6735 42.1063L21.7872 42.0042L21.9143 41.4954L21.9613 41.4467L22.3032 41.9942L22.6177 42.4125L23.1596 43.195L23.3235 43.3303L23.4583 43.0102V42.9212L22.9557 42.663L23.1596 42.5261L23.7203 42.438L22.929 41.9153L21.3081 40.9867L22.0531 40.89L21.85 40.7632L20.153 39.8477L19.4496 39.3521C19.4496 39.3351 19.4613 39.3003 19.4119 39.3274L20.102 39.2632L19.9907 39.1534L18.5933 38.2224L17.4617 37.3905L17.751 37.3402L17.9541 37.3673L17.9408 37.3031L15.4487 35.6902L16.3042 35.6036H16.4689L16.2807 35.4304L14.946 34.5396L14.2661 34.0177L14.1054 33.9056C14.0897 33.8708 14.1367 34.1677 14.0646 33.7943H14.7821L13.863 32.7667L12.9346 31.811L13.4702 31.8728L13.1965 31.5388L12.1394 30.3612L11.8281 29.9994L11.752 29.9622L12.5166 30.0767L12.29 29.7156L11.9512 29.3035L11.5505 28.6346L11.0329 27.9295C10.9937 27.9024 11.0055 27.8676 10.9568 27.8444L11.8014 28.0161L11.752 27.8135L10.8925 26.2292L10.4816 25.422L10.8455 25.4993L11.0698 25.6106L11.0447 25.4011L10.4424 23.3791C10.4056 23.2284 10.5185 24.2173 10.353 23.0165L11.0447 23.5987V23.3273L10.818 22.2727L10.5561 20.785C10.5655 20.7371 10.5185 21.1067 10.5797 20.6482L11.0698 20.9876L10.5303 18.4801L11.0447 18.777L11.0698 18.5798L10.8925 17.5027L10.6416 15.8767C10.6691 15.8396 10.5561 15.811 10.691 15.7893L11.0055 16.0476V15.8767L10.6691 14.5962L10.4816 13.731V13.6808L11.0329 13.9065L11.0972 13.5694L11.1466 10.2663L11.2619 7.72783L11.3733 6.13811L11.6626 6.02831L11.7112 6.20151L11.8398 7.83994L12.2014 9.90982L12.544 11.9929L12.7315 13.1496L13.3353 12.4769L13.4702 12.9717L13.7595 14.5715L13.863 14.4849L14.0897 14.0163L14.6551 16.4349L15.0087 15.7128L15.4228 17.4393L15.6871 18.2566L15.8274 18.1314L16.1246 17.6357L16.6171 20.0273L16.6642 20.226L16.7771 20.1162L17.0061 19.6438C17.0468 19.6322 16.8696 19.534 17.0978 19.619L17.2978 20.6482L17.5519 21.4902L17.9134 21.0471L18.7344 23.884L18.8199 23.799L19.074 23.3273L19.1077 23.2786L19.2206 23.6389L19.4221 24.7183L19.6488 25.7204L19.7013 25.7591L20.153 25.0903C20.153 25.1003 20.0534 24.9789 20.2134 25.0903L20.6321 27.6302L20.6517 27.8444L20.7435 27.7439L20.9936 27.2127L21.1207 27.1253L21.283 27.7292L21.5347 29.0854L21.7363 29.9128L22.2131 29.1566L22.3895 30.8321L22.551 31.8628L22.7565 31.6486L23.0302 31.204L23.1831 32.7535L23.3446 33.8438L23.7203 33.3992L23.9508 34.7747L24.1994 36.3899C24.1955 36.3706 24.2049 36.3915 24.2229 36.4363L24.586 35.8904L25.3012 39.1031C25.3169 39.1286 25.2902 39.1364 25.3286 39.1534L25.6086 38.7544L25.8681 38.3114L25.9442 38.3709L26.3198 40.7168L26.3708 40.9403C26.3787 40.9612 26.3449 40.7779 26.3983 41.0021L26.8711 40.4315L27.0468 42.2277L27.4106 43.8174L27.5886 44.2264L28.4034 45.1318L29.6722 46.9164L29.6001 45.762L29.3382 44.9548L28.9218 44.0161L27.8678 42.1063L27.2522 41.2101L27.8678 41.2983L26.959 39.6451L26.4586 38.8418L26.9864 38.9779L26.959 38.8418L26.3198 37.8892L25.4894 36.4479H25.6439L25.9442 36.5229H26.0344L25.1043 34.8868L24.2755 33.2004L24.4472 33.2855L25.0416 33.6822L25.0628 33.6226L24.4472 32.4582L23.9508 31.2264L24.6276 31.562L24.5648 31.3022L24.0841 30.1633L23.8002 29.2942L23.685 28.7986L23.9116 28.8488L24.3398 29.0854L24.3123 28.8581L23.9743 27.8135L23.685 26.3452L24.2229 26.5168C24.2229 26.5168 24.2284 26.397 24.2888 26.5671L24.0465 25.4011L23.7454 23.8222L23.6599 23.5523L23.8379 23.5987L24.4472 24.0209L24.3868 22.8835L24.3986 22.1497L24.586 21.0332L24.6487 20.9605L25.0416 21.4345C25.0495 21.4477 24.9828 21.4616 24.9828 21.4616C24.9828 21.4577 25.0102 21.45 25.1043 21.4345L25.1279 20.5384L25.4149 19.1373L25.6298 18.5535L25.8681 18.8172C25.8681 18.8249 25.9058 18.6633 25.9191 18.8883L25.9858 18.6904L26.0344 18.2427L26.3983 16.8053L26.5371 16.4697L26.5723 16.1844C26.5582 16.1519 26.6108 16.1519 26.5959 16.121L27.1354 16.6932L27.2271 16.5215L27.7761 14.5622L28.0929 13.6661L28.1807 13.5076L28.4426 13.8408C28.6167 13.4442 28.8567 12.9369 28.8567 12.6114L29.4236 11.4361L29.5099 11.5227L29.7969 12.0021L30.0533 11.3836L30.2408 10.765L30.6415 9.4892L30.9285 9.73585L31.726 7.20745L32.0883 7.53916L32.1761 7.36751L32.8545 5.27288L34.5412 0.198311L34.6016 0.00191498C34.7812 0.00191498 35.0078 -0.0235977 35.0823 0.11171ZM32.9972 54.8874C33.4465 55.3753 33.1705 56.0905 33.3077 56.6759H33.3587L33.5594 55.8686C34.1131 56.4872 34.4299 57.3315 34.6016 58.1736C34.7208 57.8906 34.5938 57.6068 34.6291 57.2944C35.0666 57.8767 35.999 58.2006 35.8979 59.0682C35.8838 59.1293 35.9112 59.1795 35.9583 59.2182C36.0594 59.004 36.0461 58.7457 36.0461 58.4859L36.9801 59.1795C37.0452 59.5035 37.2208 59.7749 37.369 60.0757V59.2932C38.4661 59.8406 39.5992 60.5094 40.5497 61.3631C40.1254 61.1512 39.7106 60.893 39.2715 60.7213L39.2181 61.2765C38.7178 60.8798 38.2504 60.446 37.6858 60.1623C37.6725 60.2821 37.6215 60.3958 37.6333 60.5326L36.2123 59.3535C36.1143 59.5306 36.1378 59.7486 36.0986 59.9605L34.7208 58.2988C34.6424 58.5362 34.5938 58.7728 34.5412 58.9947C34.1405 58.3259 33.7845 57.6416 33.4112 56.9612C33.2936 57.0022 33.2238 57.1846 33.1321 57.2944L32.62 55.3869L32.3636 55.622C32.4498 54.8666 32.3032 54.057 32.3149 53.3766C32.5157 53.8993 32.8309 54.3578 32.9972 54.8874ZM61.0687 35.1118C60.8421 35.3206 60.5017 35.459 60.2343 35.6709C60.3849 35.8502 60.7519 35.8904 61.0044 36.0273C60.3519 36.3358 59.683 36.7332 59.0267 37.0796L59.8963 37.2536C59.1788 37.6039 58.426 37.8621 57.7853 38.3709L57.8088 38.4196C58.0355 38.408 58.2111 38.5078 58.4362 38.5078C57.8088 38.7196 57.2419 39.0784 56.6145 39.2887C56.7902 39.4116 57.0544 39.4 57.2654 39.4874C56.689 39.7225 55.9872 39.9707 55.381 40.3178C55.5684 40.416 55.7935 40.4794 56.0224 40.5181C55.2775 40.9016 54.4776 41.139 53.7099 41.4722C53.8699 41.5952 54.2024 41.6841 54.4643 41.7436C53.8581 41.9671 53.1296 42.1797 52.5171 42.5014C52.7524 42.663 53.0802 42.6228 53.3421 42.7248C52.4787 43.0218 51.4836 43.1084 50.6233 43.505L51.6459 43.7926C50.8445 43.9388 50.1136 44.2744 49.382 44.6231C49.4721 44.7445 49.7458 44.7445 49.9082 44.8682C49.1812 45.08 48.4503 45.2532 47.7344 45.4867C48.0026 45.6507 48.35 45.6909 48.6433 45.8239C47.9108 46.0612 47.1188 46.1571 46.4013 46.4308L46.7181 46.7664C45.9613 46.9048 45.1466 47.0262 44.3632 47.1654L45.4085 47.5234C44.5639 47.5489 43.7609 47.7337 42.9187 47.7994L42.8717 47.8319L43.481 48.2409L41.3315 48.4427C41.3707 48.5626 41.5715 48.6492 41.7103 48.701C41.1339 48.7149 40.5261 48.7628 39.9498 48.8402L40.2133 49.0636L38.1352 49.0234L38.5422 49.4201C37.9399 49.4085 37.1683 49.175 36.4601 49.1966L36.8946 49.7556C36.1629 49.7208 35.5238 49.509 34.8573 49.335C35.9755 49.0234 37.1291 48.8131 38.1979 48.3909C38.6167 48.5162 38.9899 48.701 39.4236 48.7536L39.4448 48.3677C39.1185 48.3314 38.7547 48.4528 38.4285 48.3584C39.0056 48.2409 39.5718 47.4894 40.2015 47.9711L41.2178 48.1327C41.3213 47.3888 40.3889 47.9572 39.9882 47.7221C40.2384 47.5489 40.6022 47.4368 40.8932 47.2729C41.4758 47.4275 42.1267 47.4623 42.7054 47.4963C42.576 46.5948 41.7103 47.3618 41.1692 47.1863C41.5205 46.9497 41.951 46.7664 42.3243 46.4942C43.0669 46.5584 43.7201 46.8298 44.4785 46.8507C44.5639 46.7564 44.5545 46.618 44.5914 46.4942C44.324 46.3806 43.7468 46.7664 43.7703 46.2437C43.4229 46.2963 43.0042 46.3481 42.6191 46.3806C42.9069 46.1455 43.3563 45.9739 43.7084 45.7118C44.5545 45.8741 45.3575 46.1324 46.2923 46.0991C46.2374 45.9491 46.0006 45.8873 45.8955 45.7349C45.7073 45.7891 45.5104 45.8239 45.3073 45.8741C45.2564 45.7349 45.3575 45.5904 45.2971 45.452L43.997 45.5772L45.0431 44.9548C45.9386 45.0568 46.7769 45.2764 47.6489 45.452C47.7211 45.3538 47.5956 45.23 47.5744 45.1125C47.4568 45.07 47.3807 45.2672 47.2302 45.23L47.1188 44.8465C46.9526 44.9084 46.7769 44.9679 46.6012 45.005L46.6279 44.6501C46.2005 44.6826 45.7253 44.8465 45.2971 44.7963C45.6861 44.5326 46.0868 44.2125 46.515 44.003C47.4568 44.0988 48.4033 44.2396 49.3686 44.313C49.4078 44.2496 49.382 44.1607 49.382 44.0911C49.1812 44.0509 48.9585 44.1491 48.7272 44.0911L48.6927 43.8661C48.4503 43.8406 48.2151 43.9527 47.961 43.9798C47.9359 43.8661 47.9359 43.7408 47.8716 43.6403C47.5101 43.7408 47.1188 43.9388 46.7416 43.8661L47.6858 43.1718C48.5005 43.3952 49.3686 43.4787 50.2893 43.4439C50.3497 43.3705 50.3755 43.2955 50.3638 43.195C50.1622 43.2089 49.9215 43.3434 49.7066 43.3303C49.6345 43.2089 49.8219 43.1084 49.8846 42.9962C49.5466 43.0102 49.1812 43.1215 48.8197 43.1718C48.8934 43.0349 48.9585 42.898 49.0306 42.7728C48.6535 42.7998 48.2857 43.0581 47.8991 43.0581C48.1626 42.7728 48.5264 42.5339 48.866 42.3398C49.8846 42.4032 50.9033 42.513 51.9212 42.5014C51.9996 42.3761 52.0506 42.2524 52.06 42.1063L51.4052 42.2524C51.3958 42.114 51.4585 41.954 51.4052 41.8558C51.0515 41.9942 50.7425 42.2045 50.3638 42.2779L50.4751 41.7808C50.0062 41.8558 49.5286 42.0924 49.044 42.1906C49.4212 41.8558 49.9489 41.5952 50.3967 41.2983L53.3931 41.4722C53.5499 41.4088 53.5342 41.1985 53.5687 41.0478C53.3931 41.0385 53.2174 41.1467 53.03 41.2101L53.1429 40.74C52.7932 40.8769 52.4003 41.0864 51.9878 41.1637L52.009 40.7168C51.5071 40.7779 51.0648 41.1135 50.541 41.1869L51.8976 40.1825C52.8928 40.3178 53.9577 40.1941 54.9528 40.2042L55.254 39.7952C55.0665 39.8818 54.8258 39.9707 54.5897 39.9977C54.6109 39.8957 54.7027 39.8091 54.7301 39.7086C54.3623 39.7743 53.9969 39.9977 53.5687 39.9977L53.7099 39.6622C53.2331 39.7743 52.7053 39.9977 52.1737 39.9977C52.5273 39.7086 53.0567 39.4387 53.4833 39.1031C54.3764 39.2152 55.3653 39.2152 56.3346 39.24C56.5283 39.117 56.7533 38.9168 56.8505 38.7065L55.995 38.9995L55.948 38.6678L55.043 38.9995L55.094 38.558C54.6109 38.6214 54.1357 38.8526 53.6432 38.957C54.4251 37.9379 55.8852 38.2982 57.0168 38.2224L57.5312 38.2843C57.6096 38.1822 57.6481 38.0624 57.6935 37.9487C57.5704 37.8992 57.4606 38.0245 57.3046 38.0106L57.2419 37.7871C56.9893 37.7871 56.7274 37.8892 56.4773 37.924L56.4232 37.7253C56.0499 37.6758 55.7347 37.8992 55.3441 37.8892C55.6704 37.6139 56.0397 37.4059 56.4012 37.2304C57.1282 37.1299 57.9712 37.1554 58.7138 37.2165C58.7781 37.0719 58.8541 36.9312 58.9192 36.7866C58.6997 36.8353 58.4597 36.9451 58.2111 36.9954C58.2252 36.8716 58.2111 36.758 58.1468 36.6675C57.7328 36.8214 57.3046 36.9621 56.8411 36.8972C57.2301 36.6675 57.6481 36.376 58.0903 36.2129C58.6001 36.2376 59.1929 36.3613 59.683 36.1897L59.5732 36.1008L58.4911 36.0273C59.3584 35.7041 60.148 35.2448 61.0687 35.1118ZM11.5999 6.61363C11.447 9.32914 11.9143 11.9658 11.9786 14.6836C12.1786 15.6664 12.29 16.6661 12.5166 17.6357C11.9888 17.4857 12.1276 16.8648 11.9143 16.4929L11.8618 16.5215C11.9026 16.8919 11.8618 17.287 12.0633 17.5878C13.0734 18.0966 12.7432 19.2626 13.1322 20.0659L13.271 20.5384C12.4539 20.2531 12.7181 19.2471 12.3402 18.6417L12.29 18.6904C12.3794 18.9386 12.3292 19.2371 12.3402 19.5108L11.9786 18.777C11.9285 19.1373 11.8751 19.5208 12.0257 19.8425C12.4068 20.226 12.8428 20.5747 13.2984 20.8237L13.3839 20.9876C13.5502 21.8644 13.7736 22.7335 14.0411 23.5755C13.6247 23.032 13.4976 22.3593 13.1573 21.791C13.0734 22.0894 13.1322 22.5116 13.111 22.7467C12.9095 22.4095 12.8977 21.9897 12.6295 21.6812C12.4539 21.8428 12.5338 22.2379 12.3896 22.3732C12.1668 22.0144 12.1002 21.5791 11.9143 21.2319C11.8124 21.5041 11.8124 21.9124 11.9143 22.1876C12.5691 22.8588 13.3455 23.4387 14.1273 23.884L14.6668 25.5604C14.2544 25.3238 14.0897 24.6797 13.7909 24.2444L13.6113 24.9789C13.4623 24.6913 13.3455 24.3928 13.271 24.0843L13.2184 24.1098L13.1832 24.9402C12.9934 24.6913 12.9095 24.2807 12.7315 23.973L12.657 24.6163C12.4539 24.3217 12.2288 24.0209 12.0006 23.7487L11.9512 23.7742L12.0257 24.4949C12.8295 25.2116 13.8497 25.4622 14.7821 25.8712L15.462 27.6171C14.8056 27.4957 14.5531 26.6885 14.2661 26.172C14.1657 26.4434 14.1775 26.7998 14.1775 27.0983C13.9532 26.8114 13.736 26.3529 13.5251 25.981C13.4372 26.2562 13.5502 26.5493 13.5329 26.8501C13.3102 26.5416 13.0577 26.2292 12.9346 25.8712C12.8428 26.0807 12.8177 26.3529 12.7683 26.5895L12.2014 25.9578C12.2759 26.2068 12.2131 26.6127 12.5166 26.7264C13.5117 27.1872 14.5178 27.6078 15.5757 27.9024C15.8157 28.4266 16.0133 28.9586 16.3262 29.4403C15.8376 29.2571 15.3718 28.8218 15.2213 28.3246C15.1334 28.5109 15.1867 28.7506 15.1687 28.9586C14.9711 28.8852 14.8213 28.6617 14.6668 28.5225C14.528 28.5573 14.5806 28.8078 14.4669 28.9331C14.201 28.7846 13.9666 28.5225 13.8379 28.2357C13.7595 28.3764 13.6991 28.5225 13.6364 28.6617H13.5603C13.3455 28.4514 13.122 28.2627 12.9095 28.1011C12.8977 28.34 13.0969 28.5364 13.1573 28.7738C14.201 29.23 15.3601 29.4194 16.4689 29.7388C16.7049 30.2476 16.9708 30.7586 17.2586 31.2535C16.7559 31.1862 16.3771 30.7215 16.138 30.3094L16.0776 30.7834C15.8627 30.5677 15.6494 30.3017 15.462 30.0767C15.335 30.2344 15.3483 30.4811 15.2801 30.6968L14.4669 29.8625L14.401 30.3094L13.6772 29.8625C13.6991 30.0604 13.7909 30.2847 13.8772 30.4733C14.9813 30.9798 16.2031 31.1862 17.3817 31.5025C17.675 31.8628 17.8389 32.285 18.0929 32.6546C17.7879 32.5896 17.6122 32.2216 17.4107 31.9842V32.5046L16.5034 31.6355C16.4548 31.9092 16.4783 32.1945 16.4414 32.4296C16.2031 32.343 15.9764 32.0074 15.7961 31.811V32.343C15.5483 32.3314 15.382 32.1195 15.1985 31.971C15.1201 32.1079 15.2213 32.2308 15.2801 32.343C16.2438 32.568 17.1841 32.8131 18.2043 32.9035C18.4137 33.3992 18.8199 33.7595 19.0465 34.2412C18.7713 34.1909 18.5799 33.9195 18.3666 33.734C18.2255 33.744 18.2255 33.9536 18.2043 34.0943L17.5981 33.5105L17.4342 33.9536C17.1935 33.8979 16.9708 33.536 16.7559 33.3992L16.7308 33.9056C16.4689 33.7672 16.2438 33.5569 15.9882 33.4262L16.254 34.0719C17.17 34.2798 18.1243 34.3896 19.1312 34.4051C19.4613 34.8752 19.8127 35.3817 20.153 35.8773C19.7233 36.1147 19.5084 35.5711 19.248 35.3608C19.1171 35.5069 19.2833 35.6708 19.2731 35.8255L18.4803 34.9634C18.38 35.0964 18.4427 35.2448 18.4529 35.4072L17.7722 34.8868C17.7722 35.0964 17.9408 35.2935 17.9792 35.5185L17.2703 35.2085C17.6256 36.0142 18.554 35.8425 19.248 36.049C19.6739 36.2376 20.4408 35.8178 20.5772 36.4997L21.232 37.4771C20.818 37.3673 20.5129 36.8446 20.153 36.5863C20.2251 36.8716 20.3702 37.1817 20.4675 37.4771L19.7891 36.8832C19.7625 37.0719 19.8127 37.2807 19.8777 37.4539C19.586 37.2706 19.3382 37.007 19.0465 36.8082C19.1312 37.0951 19.1837 37.5018 19.5217 37.6619C20.153 37.7523 20.7921 37.8528 21.461 37.8374L22.4632 39.2887C22.0743 39.1364 21.6877 38.7335 21.3473 38.398C21.3842 38.6292 21.5136 38.8936 21.6735 39.1031C21.3748 39.0304 21.0681 38.7389 20.7647 38.558C20.9411 38.9052 21.3199 39.3614 21.7363 39.5122C22.137 39.5988 22.6412 39.4774 22.8976 39.8686C23.1219 40.1941 23.3235 40.5274 23.5736 40.8498C23.2239 40.863 22.882 40.6047 22.5926 40.3294C22.5652 40.4315 22.6412 40.5274 22.704 40.6047C23.0906 41.4467 24.1523 41.0632 24.4472 41.9942C24.8267 42.6359 25.4776 43.1718 25.7803 43.8406C25.1898 43.4439 24.586 43.0736 23.9743 42.7248L24.5389 42.6359C24.0465 42.1542 23.4466 41.8039 22.8443 41.4088L22.3032 41.098H22.8976V41.0269C22.0743 40.4949 21.232 40.0078 20.3796 39.5756C20.5929 39.4982 20.8917 39.5485 21.1442 39.5369C20.4267 38.9299 19.4888 38.5078 18.7438 37.8374C18.6458 37.7778 18.5031 37.7137 18.4019 37.6139C18.6152 37.6619 18.8669 37.6619 19.074 37.6619C18.2882 36.9312 17.3362 36.5361 16.5034 35.8773L17.1449 35.7428C16.5034 35.1969 15.7514 34.7476 15.1083 34.1561H15.8494C15.1867 33.4123 14.3398 32.8131 13.7501 32.1419C14.0897 32.285 14.481 32.3948 14.8056 32.5046L12.7958 30.5197C13.0444 30.4981 13.271 30.5584 13.4976 30.5352C12.9095 29.8795 12.3896 29.2068 11.9512 28.463C12.1159 28.4344 12.3174 28.5573 12.5166 28.5496C12.1668 27.706 11.6391 26.8617 11.1576 26.0289C11.3944 26.131 11.5999 26.2794 11.8398 26.3452C11.6391 25.5495 11.1576 24.8034 11.0329 23.9474C11.2109 24.0572 11.3591 24.1964 11.5505 24.2714C11.385 23.3273 11.2345 22.3206 11.0698 21.3827C11.185 21.4345 11.338 21.5923 11.4862 21.6526C11.3944 20.8987 11.185 20.1162 11.1466 19.3608L11.5254 19.5943C11.447 18.5899 11.2345 17.5878 11.0972 16.5795C11.2345 16.7187 11.4125 16.8169 11.5254 16.9901C11.4219 16.1117 11.2109 15.2156 11.0055 14.3496L11.4391 14.6488C11.4125 11.7849 11.4611 9.44899 11.4862 6.61363C11.5332 6.64688 11.5607 6.53708 11.5999 6.61363ZM35.2196 53.5042C34.4628 53.1895 33.6481 52.9428 33.067 52.2995C32.8309 51.8255 32.569 51.3662 32.2773 50.9216C33.3979 51.5557 34.4417 52.4441 35.2196 53.5042Z" fill="black"/>
</svg>
