<svg width="35" height="35" viewBox="0 0 35 35" fill="none" xmlns="http://www.w3.org/2000/svg">
<path fill-rule="evenodd" clip-rule="evenodd" d="M14.3846 24.4764C14.409 24.5372 14.4661 24.5952 14.4964 24.6559C13.741 24.4242 13.2552 23.7003 12.7706 23.079C12.7773 23.0415 12.7253 23.0175 12.7076 22.9935C12.6321 23.0608 12.5939 23.1668 12.5801 23.2721C12.4053 23.0724 12.2789 22.7687 12.1278 22.5207C12.9529 23.0415 13.7516 23.6934 14.3846 24.4764ZM24.6986 8.47252C24.7821 8.45511 24.8577 8.37309 24.9392 8.32318C24.7939 8.70774 24.6479 9.10121 24.5672 9.50898C24.6427 9.48306 24.7498 9.44747 24.8372 9.39717C24.6695 9.75698 24.4975 10.1226 24.4416 10.5257C24.5361 10.5389 24.6235 10.4638 24.7116 10.4271C24.629 10.7803 24.4703 11.1544 24.3396 11.5072C24.4467 11.4802 24.5597 11.4078 24.6695 11.3386C24.5152 11.7425 24.377 12.2149 24.2562 12.6373C24.3585 12.6045 24.4329 12.5062 24.5408 12.481L24.0877 13.6297C24.1865 13.6231 24.3015 13.567 24.4014 13.5303C24.283 13.8901 24.1365 14.2371 23.9295 14.5602L24.3448 14.4484C24.1865 14.8581 23.8649 15.2036 23.6645 15.5951C23.7893 15.5835 23.9169 15.5022 24.0412 15.4531C23.8157 15.8709 23.5311 16.2547 23.2221 16.6385C23.3929 16.594 23.5811 16.5457 23.746 16.4714C23.4244 16.8246 23.115 17.1852 22.8367 17.5624C22.9682 17.5697 23.0886 17.5005 23.2095 17.4649C22.9308 17.8054 22.6481 18.1091 22.3509 18.4263C22.508 18.4321 22.6552 18.3269 22.8131 18.3017C22.4883 18.5737 22.2104 18.8774 21.9144 19.1571L22.293 19.1138C21.9329 19.4187 21.5179 19.7475 21.1637 20.0752L21.5305 20.0636C21.207 20.2807 20.9105 20.5488 20.5885 20.7588L21.0184 20.7465C20.62 21.0695 20.2157 21.3798 19.7938 21.6402L20.1402 21.6839C19.7615 21.9489 19.3946 22.1795 19.0297 22.4793C19.1072 22.5091 19.2119 22.5091 19.3013 22.5207L18.2585 23.2488C18.2849 23.3212 18.3916 23.3096 18.4605 23.3278L17.494 23.8179C17.9129 23.4264 18.164 22.8496 18.6754 22.5459C18.9226 22.5652 18.997 22.3153 19.1434 22.1725C18.9687 22.2159 18.8344 22.4271 18.6313 22.4406C18.8214 22.2545 18.9482 22.0321 19.1297 21.8495C19.3387 21.6595 19.8319 21.764 19.7938 21.3724C19.7871 21.3539 19.8008 21.3365 19.7812 21.3249C19.6123 21.4715 19.4269 21.646 19.2119 21.7144C19.3525 21.4843 19.5536 21.2432 19.7371 21.0242C20.0284 20.8583 20.5496 20.9894 20.62 20.5352L20.6338 20.49C20.5326 20.5294 20.4248 20.6308 20.3236 20.7097C20.3177 20.6904 20.3177 20.6037 20.3051 20.5418C20.1335 20.647 19.9752 20.8215 19.7938 20.9008C19.9634 20.7465 19.9961 20.49 20.1972 20.3867C20.5259 20.3046 20.8409 20.194 21.144 20.0636C21.2018 19.9642 21.2203 19.84 21.2322 19.7406L20.7909 20.1321C20.7661 20.0462 20.7909 19.9827 20.7661 19.8957C20.62 20.0462 20.4445 20.2439 20.25 20.2439L20.5937 19.7108C20.9861 19.5804 21.3538 19.3935 21.725 19.2132C21.777 19.132 21.8573 19.0291 21.8258 18.9343C21.6561 19.108 21.4471 19.2326 21.2322 19.3231L21.2137 19.1525C21.0696 19.2508 20.9105 19.4311 20.735 19.5169C20.7909 19.356 20.8869 19.1699 21.0058 19.0291C21.4215 18.8844 21.8199 18.6925 22.2234 18.5246C22.2753 18.4379 22.3135 18.3396 22.2997 18.2449L22.086 18.4445L22.0151 18.3133C21.877 18.4263 21.7396 18.5563 21.5864 18.6492L21.6002 18.5122C21.4215 18.6 21.257 18.7861 21.0755 18.8774C21.2137 18.7234 21.2274 18.4704 21.403 18.3338C21.8455 18.1474 22.236 17.8603 22.6784 17.6742C22.7355 17.5941 22.7532 17.5005 22.7453 17.3945L22.4635 17.6614C22.4371 17.6123 22.497 17.5121 22.4265 17.4649C22.2871 17.6077 22.1742 17.7435 22.0289 17.8719C22.0407 17.7609 22.1045 17.6556 22.0651 17.5392H22.0289C21.877 17.7667 21.6758 17.9787 21.4471 18.1474L21.725 17.5392C22.1742 17.321 22.6225 17.1032 23.0398 16.8053C23.1083 16.6934 23.1457 16.5573 23.1457 16.4338C22.9886 16.57 22.9308 16.8668 22.6981 16.8803C22.6843 16.8053 22.7355 16.7387 22.6981 16.6691L22.336 17.085C22.3135 16.9991 22.3765 16.8997 22.397 16.8053L21.7876 17.3837C21.9671 17.1167 21.973 16.6934 22.3135 16.5132C22.7532 16.2845 23.1268 15.9065 23.55 15.652C23.55 15.5719 23.5618 15.4852 23.5449 15.4109L23.178 15.8013C23.1827 15.7204 23.1642 15.652 23.1524 15.5835C23.0201 15.7638 22.856 15.9738 22.6922 16.1379C22.6981 16.0365 22.7229 15.9375 22.7111 15.8562L22.2104 16.4338C22.4194 16.1243 22.3635 15.652 22.8131 15.4852L23.6775 14.9084L23.7145 14.5238C23.6039 14.6221 23.537 14.7946 23.4303 14.9258C23.4362 14.8832 23.4244 14.8012 23.3929 14.7463H23.3594C23.2524 14.8631 23.2095 15.0124 23.0977 15.1312C23.1083 15.0368 23.1319 14.9575 23.0977 14.8697C22.9445 15.0318 22.8493 15.2875 22.6343 15.3858L22.6088 15.3541C22.7111 15.0124 22.8426 14.6538 23.2016 14.4484L23.8854 13.8649C23.905 13.7976 23.8728 13.7222 23.8472 13.6537C23.7019 13.7655 23.6382 13.9825 23.4488 14.0715C23.4567 13.9644 23.4909 13.8649 23.4626 13.7655C23.3102 13.9895 23.1575 14.2499 22.9394 14.4367L23.1457 13.7783L24.0739 12.8478C23.9853 12.8362 23.9543 12.7608 23.9405 12.6741C23.9472 12.6308 23.9235 12.6045 23.9169 12.5681C23.796 12.8478 23.5988 13.1523 23.3055 13.3306C23.4764 13.0076 23.4567 12.6122 23.7145 12.3251L24.314 11.7115C24.2515 11.6752 24.2003 11.7916 24.1306 11.7425C24.1247 11.681 24.0991 11.6307 24.0739 11.5757C23.9932 11.7494 23.9405 11.9847 23.7196 12.0589L23.905 11.3645C24.0936 11.1668 24.2424 10.9497 24.3585 10.7184C24.2239 10.7753 24.0936 10.8921 23.9609 10.9865C24.1062 10.6317 24.0109 10.1361 24.3967 9.85641L24.4282 9.77632C24.3514 9.80031 24.2621 9.85641 24.1865 9.91212C24.3349 9.07412 24.5597 8.21795 24.8148 7.39813C24.8825 7.33082 24.9833 7.34823 25.0521 7.29871C24.8951 7.67128 24.8148 8.08215 24.6986 8.47252ZM6.47731 26.8469C6.33206 26.9587 6.13759 26.9951 5.94746 27.0194L6.16239 27.1997L6.54778 26.8643C6.87372 26.8902 7.22879 26.8643 7.55749 26.8902C7.32288 27.0059 7.06385 27.1131 6.78633 27.1014C6.88947 27.1927 7.07094 27.1378 7.1973 27.1997V27.2365L6.81979 27.3491C7.1973 27.6415 7.36697 27.0318 7.6378 26.8767C7.98618 26.8643 8.41093 26.9076 8.76246 26.8469C8.50541 26.9885 8.19442 27.0628 7.87911 27.1014C8.02436 27.2133 8.23851 27.2055 8.43376 27.2365C8.30228 27.3251 8.10782 27.3491 7.93619 27.3812C8.00586 27.4794 8.18852 27.5034 8.33259 27.5228C8.56209 27.3173 8.70656 27.0318 8.94787 26.8333C9.26751 26.8275 9.54543 26.8035 9.85524 26.7649C9.64266 26.9266 9.34428 26.9517 9.07935 27.0144C9.19311 27.1014 9.36396 27.1072 9.48953 27.1815C9.3364 27.2728 9.14902 27.2798 9.0144 27.3676C9.14194 27.4543 9.30688 27.4369 9.45804 27.4667C9.66117 27.2624 9.85524 27.0144 10.0017 26.7649L10.8228 26.6964C10.6256 26.8515 10.3607 26.8902 10.128 26.9633C10.195 27.0492 10.391 27.0279 10.4922 27.0744C10.3733 27.1738 10.195 27.1927 10.0832 27.2933H10.4548C10.6618 27.0945 10.8405 26.9076 10.9917 26.6848L11.0819 26.653C11.2897 26.653 11.5235 26.6608 11.7176 26.6105C11.5471 26.7649 11.3192 26.838 11.1181 26.9335C11.2456 26.9761 11.4027 26.9517 11.5471 26.9587C11.7452 26.838 11.7452 26.4987 12.0337 26.5536L13.476 26.2739C13.1237 26.4851 12.7383 26.6337 12.4309 26.9335L12.4242 26.7966C12.0837 26.9401 11.7452 27.1312 11.4078 27.3251L11.4204 27.1262C11.0543 27.2856 10.7071 27.4976 10.3548 27.6837C10.3666 27.6094 10.4237 27.5526 10.4371 27.4794H10.3666C9.9753 27.6713 9.57889 27.8524 9.14903 27.9518C9.22343 27.8652 9.28326 27.7708 9.33129 27.6713C9.12344 27.6907 8.92701 27.7936 8.73294 27.8582C8.518 27.8814 8.29047 27.9452 8.06963 27.9808C8.11766 27.9019 8.16765 27.8141 8.22749 27.7398C7.76534 27.7081 7.32288 27.8323 6.8627 27.8025L7.03157 27.5901C6.61076 27.6222 6.1868 27.5363 5.77661 27.5363C5.81992 27.4667 5.90888 27.411 5.94746 27.3374L4.8846 27.269L5.09481 27.0686C4.00243 26.7649 2.90453 26.4813 1.86175 26.0646C3.33361 26.4936 4.86807 26.8832 6.47731 26.8469ZM17.8491 1.03194C17.7031 2.20342 17.5578 3.44533 17.6216 4.67485C17.7287 4.69342 17.7979 4.51971 17.9062 4.52474C17.8168 4.93716 17.8031 5.37008 17.698 5.76857C17.7924 5.74846 17.8834 5.67418 17.9806 5.63626C17.9621 5.98368 17.8924 6.38179 17.8688 6.70484L18.0377 6.64913C17.957 7.06348 17.9373 7.50337 17.8365 7.91424L17.8491 8.01444L18.1444 7.80243C18.1337 8.32318 18.0003 8.82652 17.9503 9.35384C18.02 9.33566 18.1073 9.28652 18.177 9.22849C18.1593 9.75698 18.02 10.2595 17.9255 10.7753C18.0436 10.7501 18.1593 10.6375 18.2652 10.571C18.1888 11.0163 18.0707 11.4802 17.9739 11.9336C18.0707 11.9402 18.1384 11.7916 18.2349 11.7993C18.177 12.2025 17.9806 12.5727 17.9621 12.9585L18.2652 12.7724C18.1522 13.2382 18.0877 13.7531 17.9621 14.2371C18.0837 14.1996 18.1849 14.0328 18.3164 13.9895C18.164 14.4975 18.02 15.0318 17.8365 15.539C17.9255 15.539 18.0129 15.4581 18.0963 15.4156C17.9877 15.9065 17.7657 16.3886 17.6078 16.8614C17.698 16.8118 17.7853 16.7252 17.8806 16.7252C17.7657 17.1167 17.6145 17.5005 17.4811 17.8854C17.6039 17.8854 17.7098 17.7996 17.8227 17.7562C17.6145 18.2151 17.3673 18.6855 17.1291 19.1525C17.2114 19.132 17.3074 19.084 17.3803 19.0395C17.185 19.493 16.8756 19.9344 16.7012 20.411C16.8189 20.4033 16.9465 20.3375 17.0654 20.3008C16.8327 20.753 16.613 21.2305 16.4021 21.7079L16.7012 21.6402C16.6493 21.7887 16.5158 21.9385 16.441 22.0986C16.0859 22.7958 15.8848 23.5487 15.7336 24.3337C15.7269 24.4679 15.7407 24.5952 15.7639 24.7291C16.3462 24.2083 16.6882 23.5487 16.7886 22.812C16.8024 22.4898 16.9162 22.2046 16.8701 21.863C17.028 22.0185 17.0594 22.2913 17.185 22.4898C17.3496 22.005 17.3956 21.5775 17.3673 21.0436C17.4322 21.1256 17.5137 21.2614 17.5645 21.3798C17.6539 20.9008 17.7098 20.4849 17.7361 19.9777C17.855 20.1572 17.9062 20.3499 17.9944 20.5352C18.0129 20.0338 18.057 19.5498 18.0377 19.0395L18.3026 19.438C18.2349 18.9471 18.1955 18.3888 18.2467 17.868C18.3329 17.9787 18.3857 18.1698 18.5057 18.3017C18.5754 17.8293 18.5616 17.3512 18.5616 16.8668C18.6703 16.9546 18.7274 17.1418 18.8155 17.2595C18.788 16.7484 18.8155 16.271 18.8344 15.7328C18.9482 15.8083 18.9923 15.9738 19.0974 16.0857C19.1297 15.645 19.1875 15.2121 19.2119 14.7706C19.3013 14.8929 19.3946 15.0879 19.4859 15.2477L19.5103 15.2419C19.4859 14.7339 19.6162 14.2603 19.6997 13.7906H19.7241L19.9252 14.1814C19.952 13.6297 20.0921 13.1329 20.25 12.6373L20.4248 12.9952C20.5456 12.5565 20.6094 12.0725 20.8035 11.6558L20.9349 11.9912C21.0755 11.5757 21.1566 11.1409 21.3707 10.7617C21.4412 10.812 21.4609 10.9497 21.5305 11.0291C21.6923 10.6867 21.7876 10.3211 21.973 9.99143C22.0407 10.0858 22.0604 10.2054 22.1289 10.3036C22.3332 9.8359 22.497 9.35384 22.7808 8.92015C22.8288 9.03079 22.8131 9.2045 22.8808 9.27182C23.0437 8.89384 23.178 8.49844 23.3594 8.12354C23.4362 8.18119 23.4173 8.29997 23.4862 8.37309L23.5449 8.30577L23.9735 7.20624C24.0227 7.27472 24.0798 7.41168 24.1306 7.51188C24.377 7.12035 24.4211 6.62205 24.5979 6.19492C24.629 6.2015 24.6695 6.28042 24.6986 6.32608C25.0521 5.53141 25.3946 4.73675 25.8174 3.96801C25.8977 3.93744 25.9733 3.97884 26.0323 4.03572C25.6733 5.08495 25.2415 6.10207 24.9529 7.17645C25.0726 7.15053 25.21 7.09443 25.3407 7.05187L24.9833 8.16881C25.0726 8.17539 25.1541 8.11194 25.2356 8.08215C25.1797 8.36071 25.0344 8.63346 24.9648 8.92015L24.851 9.25557C24.9187 9.26022 24.9833 9.19096 25.0659 9.18709C24.9833 9.5527 24.7754 9.89471 24.6813 10.2727C24.7821 10.2595 24.903 10.2092 25.0088 10.1667C24.9069 10.5025 24.7939 10.8573 24.6813 11.1966C24.7683 11.1966 24.8695 11.1544 24.9529 11.1099C24.7683 11.457 24.7683 11.9162 24.5849 12.2826C24.692 12.2768 24.7821 12.1708 24.8825 12.134V12.2025C24.7057 12.5797 24.5979 12.9836 24.4282 13.3628C24.5408 13.3492 24.6479 13.2575 24.7683 13.2324C24.629 13.5864 24.4652 13.9644 24.2889 14.3261C24.3967 14.3048 24.4975 14.2131 24.6235 14.1996C24.529 14.5969 24.329 14.9749 24.0991 15.3308C24.2003 15.3103 24.3211 15.2612 24.4282 15.2179C24.314 15.6017 24.0511 15.9549 23.8157 16.3085L24.2318 16.211V16.247C23.9098 16.594 23.6177 16.9596 23.3232 17.3279C23.4244 17.3345 23.537 17.2718 23.6448 17.2982L22.963 18.1512L23.2898 18.0909C23.0642 18.4379 22.6843 18.6751 22.4135 19.0136C22.5147 19.0329 22.6225 19.0221 22.7229 19.0291C22.4135 19.4117 21.9533 19.6411 21.6108 20.0079L21.9958 20.0211C21.7396 20.2056 21.4353 20.4486 21.144 20.647C21.2274 20.654 21.303 20.678 21.3912 20.6664C21.0499 20.9945 20.6259 21.3287 20.2342 21.6154L20.4374 21.6839L19.4985 22.4406C19.6036 22.484 19.7371 22.4522 19.8378 22.5091C19.3946 22.6944 18.997 22.9741 18.6006 23.2488C18.701 23.2914 18.8214 23.296 18.9285 23.3278C17.9806 23.8737 16.9071 24.2826 16.1753 25.2459L16.1871 25.2711C17.1791 25.3752 17.9739 24.7244 18.5057 23.9472V24.3395C18.7451 24.1476 19.0167 23.9 19.258 23.6694C19.269 23.7618 19.2308 23.8601 19.2442 23.9607L19.2875 23.9472L20.2228 22.7753C20.2295 22.9076 20.211 23.0724 20.2342 23.192C20.4866 22.8747 20.7661 22.5401 21.0184 22.2104L21.031 22.4658C21.2203 22.2584 21.3853 21.9818 21.5609 21.7388L21.8455 21.3608L21.8573 21.7822C22.1486 21.4359 22.4812 21.0436 22.7532 20.654L22.7926 20.9144C23.0839 20.5669 23.3791 20.1456 23.7196 19.7967L23.7322 20.1011L24.4841 19.2132L24.5093 19.2268C24.4975 19.3452 24.529 19.4434 24.5152 19.5603C24.903 19.2005 25.3316 18.7977 25.8044 18.5807L25.7477 18.8244C26.089 18.5873 26.4484 18.3203 26.8161 18.1091L26.783 18.4263C27.0928 18.2518 27.4137 18.0356 27.7699 17.9288C27.7798 18.0166 27.7054 18.0963 27.6983 18.1911C28.1399 17.9903 28.5942 17.7744 29.0749 17.644C29.067 17.7435 29.0044 17.8487 28.9493 17.9412C29.4272 17.8796 29.8756 17.6703 30.368 17.6077C30.3554 17.6819 30.2877 17.7609 30.2239 17.8293C30.6093 17.786 30.9864 17.6556 31.3856 17.5941C31.3738 17.7059 31.2266 17.781 31.2029 17.8986C32.1119 17.8119 33.0712 17.8796 33.9298 18.1474V18.2209C32.8575 18.0665 31.7458 18.2952 30.8479 18.7791L30.8176 18.8159C30.9498 18.8979 31.1266 18.9277 31.2903 18.9587C31.0057 19.132 30.6467 19.2759 30.3357 19.4736C30.4751 19.5498 30.64 19.5545 30.792 19.5978C30.6664 19.6732 30.4566 19.7042 30.3054 19.7967C30.0779 19.9034 29.8756 20.0501 29.6409 20.1321C29.7685 20.1998 29.9334 20.1804 30.0661 20.2323C29.7874 20.3936 29.4095 20.4725 29.1123 20.654C29.2123 20.7291 29.3859 20.6962 29.4969 20.7646C29.1682 20.9144 28.8092 20.9693 28.4931 21.1496C28.5824 21.2111 28.6883 21.2111 28.7765 21.2614C28.4108 21.4475 28.0526 21.6518 27.6416 21.7388C27.7416 21.8197 27.9317 21.8495 28.0632 21.9315C27.7416 22 27.4333 22.0936 27.129 22.2104C27.1999 22.3095 27.3767 22.3095 27.4825 22.3973C27.0861 22.484 26.7134 22.619 26.3354 22.7571C26.3788 22.8391 26.511 22.8623 26.6012 22.9122C26.2205 23.0724 25.8241 23.2287 25.419 23.3336C25.5505 23.3827 25.6966 23.4214 25.8351 23.4589C25.4702 23.5746 25.0785 23.674 24.7116 23.8179C24.8439 23.8601 24.9648 23.9421 25.0852 24.0029C24.6813 24.0857 24.3015 24.2083 23.905 24.3085C23.9609 24.4079 24.12 24.4319 24.1436 24.5198C23.8078 24.5631 23.4862 24.618 23.1642 24.6877C23.2988 24.7859 23.4803 24.7975 23.6177 24.8931C23.1406 24.897 22.6706 24.9461 22.2234 25.0212C22.343 25.1272 22.508 25.1775 22.6414 25.2815L21.5179 25.381C21.5609 25.4436 21.6758 25.4939 21.7593 25.538C21.3853 25.5613 21.0263 25.538 20.6653 25.5613L21.0755 25.8034C20.6259 25.7918 20.1862 25.68 19.7241 25.704C19.8008 25.81 19.9252 25.8592 20.0284 25.9412C19.6465 25.9412 19.2769 25.8545 18.8824 25.839C18.8962 25.9276 18.9793 26.0205 19.0403 26.1079C18.2278 26.0259 17.444 25.6673 16.5875 25.8034C16.5048 25.7965 16.4087 25.8228 16.3265 25.8286C17.0594 25.9594 17.6913 26.4128 18.4762 26.3625C19.0061 26.3625 19.4702 26.2074 19.9634 26.1079C19.8319 26.2499 19.6347 26.3992 19.4591 26.5111C19.9882 26.5111 20.4492 26.3172 20.9349 26.2634L20.5759 26.5969L20.62 26.6287C21.207 26.5478 21.7632 26.3753 22.3241 26.219C22.2753 26.3126 22.1663 26.4128 22.1096 26.518C22.508 26.4495 22.9394 26.3501 23.3232 26.2634C23.2654 26.3501 23.1918 26.4232 23.1524 26.518C23.537 26.4232 23.9735 26.3992 24.3699 26.3172C24.3585 26.429 24.2377 26.5285 24.1865 26.6422C24.5731 26.653 24.9648 26.6287 25.3407 26.5865L25.2356 26.8101C25.6466 26.8709 26.089 26.7351 26.4992 26.8469L26.3913 27.0318C27.1487 27.0628 27.8238 27.1997 28.5753 27.2133C28.8599 27.2133 29.228 27.1699 29.5402 27.1699C29.5843 27.2133 29.6854 27.2554 29.6677 27.3374C28.3801 27.6346 27.1058 27.975 25.8607 28.3731C25.791 28.3905 25.7162 28.3859 25.6505 28.4169C25.78 28.5043 25.9253 28.5708 26.0501 28.6637C25.6733 28.7136 25.2356 28.6509 24.8577 28.7194L25.1206 28.9132L23.9472 28.9867L24.0877 29.1976C23.7531 29.1717 23.3976 29.1612 23.0642 29.167L23.178 29.3783C22.8237 29.328 22.4371 29.2595 22.0986 29.1806L22.1234 29.3783C21.8309 29.2788 21.5483 29.1179 21.2432 29.025L21.29 29.3222C20.9349 29.1976 20.6161 28.9372 20.2559 28.7755C20.2669 28.8931 20.2925 29.0483 20.2807 29.1806C19.9634 28.9604 19.6544 28.7387 19.3454 28.4977L19.4131 28.8745C19.0238 28.5836 18.6242 28.1619 18.2888 27.7591L18.2585 27.8141C18.2849 27.9247 18.2585 28.0365 18.2349 28.1371L18.0877 27.9634C17.9944 27.9874 17.9003 27.9963 17.8117 28.0365C18.2211 28.2865 18.6813 28.4455 19.11 28.6761C18.9844 28.7283 18.8155 28.6714 18.6892 28.7194L19.9634 29.3345C19.8489 29.3914 19.6465 29.4088 19.4985 29.4467C19.8008 29.6626 20.1598 29.8928 20.4819 30.1408C20.3925 30.1783 20.3051 30.1099 20.211 30.1466C20.5496 30.407 20.9349 30.648 21.2774 30.9277C21.1019 30.9413 20.8916 30.9103 20.7074 30.9239C21.5727 31.5564 22.0222 32.4815 22.3135 33.4108L22.4521 33.9006C22.4076 33.9385 22.3635 33.9567 22.3241 34C21.9907 32.9941 21.1019 32.0327 20.1087 31.5564L20.0638 31.5998L20.0843 31.9588C19.8008 31.7801 19.5103 31.5189 19.2308 31.3011C19.2442 31.438 19.2178 31.6172 19.258 31.7619C19.0238 31.5305 18.7825 31.2403 18.4939 31.0523C18.4427 31.1649 18.436 31.2933 18.436 31.4322C18.164 31.1777 17.9255 30.8361 17.6913 30.5316L17.5972 30.8852C17.3232 30.5691 17.1291 30.19 16.928 29.8487C16.8583 29.8688 16.8024 29.9613 16.7571 30.029C16.6619 29.7129 16.5276 29.4146 16.4843 29.0811L16.2899 29.2227C16.2773 28.3905 16.4213 27.5785 15.9505 26.8902C15.9927 28.3503 15.7269 29.788 15.0644 30.997C14.9263 31.2334 14.7566 31.464 14.5554 31.6547C14.9263 30.737 15.4423 29.8305 15.5628 28.8072C15.71 27.9576 15.6573 27.1378 15.7336 26.2739C16.0753 26.542 16.2635 26.9517 16.4469 27.3251C17.0346 28.9809 18.6951 30.3474 20.2228 31.1777C21.2274 31.8168 21.8947 32.815 22.3241 33.8158H22.3509C22.0604 32.7167 21.3963 31.6752 20.4492 30.8968C20.4012 30.9916 20.4952 31.0485 20.4952 31.134C20.3413 30.9838 20.1224 30.8852 19.9252 30.7861C20.1972 30.8055 20.513 30.8419 20.7909 30.7985L19.9634 30.1834C19.9323 30.1718 19.8922 30.1718 19.8556 30.1718C19.8437 30.2217 19.8615 30.3153 19.9055 30.3702C19.7812 30.3153 19.628 30.2286 19.4859 30.2151C19.4591 30.2847 19.5202 30.3474 19.5398 30.407C19.3718 30.2286 19.1493 30.1648 18.9423 30.0735L20.0969 30.036C19.8272 29.8371 19.5398 29.576 19.2249 29.4901L19.3387 29.8062C19.1434 29.7195 18.9482 29.5632 18.7352 29.4773L18.7214 29.6924C18.6313 29.6065 18.5309 29.5334 18.4301 29.4715C18.4164 29.5257 18.5057 29.6019 18.436 29.6692C18.3298 29.5392 18.1955 29.4773 18.0766 29.3783C18.536 29.3914 18.9923 29.3655 19.4532 29.3098C19.1344 29.0483 18.6951 28.9372 18.3164 28.7503C18.279 28.7503 18.2975 28.789 18.2888 28.8072L18.4605 29.0811C18.2888 28.9732 18.0707 28.8803 17.8924 28.789L18.02 28.9732C17.8491 28.9067 17.659 28.8072 17.5086 28.6637C17.8617 28.6896 18.2514 28.6761 18.6085 28.6335C18.5262 28.5527 18.3534 28.5209 18.2349 28.4397C18.0436 28.3163 17.8365 28.242 17.6401 28.1302C17.6342 28.2114 17.6775 28.2981 17.7098 28.3731C17.5137 28.3105 17.2937 28.1747 17.1661 27.9808C17.3673 27.9681 17.5842 27.975 17.7558 27.8961C17.4 27.7522 17.0102 27.6222 16.7256 27.3115C16.4469 26.8832 16.2332 26.3559 15.8801 26.0387C16.5276 26.3172 17.1614 26.6287 17.8227 26.8643C19.2875 27.5487 20.7409 28.242 22.4812 28.2489C24.0739 28.3163 25.5958 27.8884 27.0665 27.5034L27.4266 27.4609C26.3579 27.7591 25.2982 28.1677 24.2141 28.3163C24.1818 28.3731 24.2424 28.4169 24.2562 28.466C24.1436 28.4784 24.0365 28.3963 23.9295 28.3596C23.7196 28.4091 23.4803 28.4052 23.2898 28.4532L23.4303 28.5778C23.2524 28.5778 23.0839 28.4397 22.9064 28.4726C22.7422 28.4977 22.5658 28.459 22.397 28.4842L22.6088 28.7194C22.4194 28.6954 22.2627 28.5275 22.086 28.4292C21.8947 28.4339 21.7502 28.4223 21.5727 28.3963C21.6246 28.4907 21.6884 28.6029 21.7876 28.6896C21.6384 28.6076 21.4786 28.4726 21.3345 28.3538C21.1507 28.3298 20.9861 28.2613 20.8035 28.242C20.8035 28.3596 20.9349 28.459 20.9861 28.5778C20.8239 28.4842 20.6385 28.3298 20.5082 28.1747C20.3118 28.1236 20.1087 28.0926 19.9126 28.0242C19.9126 28.1236 19.9587 28.218 20.0079 28.3047C19.9016 28.2114 19.7615 28.0571 19.6792 27.9124C19.434 27.8698 19.2308 27.7475 19.0167 27.6346C19.0167 27.7205 19.0627 27.8091 19.11 27.8814C18.9364 27.8025 18.7958 27.5785 18.6451 27.4609C18.2514 27.2728 17.8617 27.0628 17.4685 26.92C17.7361 27.1738 17.9129 27.4841 18.1444 27.7591L18.1522 27.5034C18.5616 27.7657 18.8765 28.1553 19.2308 28.4977C19.2308 28.3859 19.1934 28.2683 19.1749 28.1487C19.4532 28.3905 19.8008 28.5527 20.0776 28.8014L20.052 28.4842C20.1276 28.4908 20.1972 28.5778 20.2807 28.6076C20.5496 28.7627 20.835 28.8873 21.1019 29.0688C21.1019 28.9732 21.0499 28.8803 21.0058 28.8014C21.29 28.8622 21.5797 28.9809 21.8573 29.085C21.8947 29.1121 21.9281 29.1407 21.973 29.1407C21.973 29.085 21.9474 28.9991 21.8947 28.943C22.2301 28.9693 22.558 29.1121 22.9064 29.1233L22.7111 28.9171C23.028 28.9809 23.4303 28.9566 23.7578 28.943L23.5618 28.7627C23.9098 28.7581 24.2751 28.7283 24.6117 28.7503L24.3585 28.4842H25.53L25.5663 28.466L25.1982 28.2741C26.0567 28.2799 26.6897 27.7591 27.4971 27.647C28.1018 27.5228 28.7088 27.404 29.3154 27.2798C28.2655 27.3676 27.1664 27.3173 26.1323 27.2365C26.1 27.2856 26.0134 27.269 26.006 27.3374L26.1 27.4245C25.9654 27.4543 25.8174 27.4543 25.7025 27.515C25.7339 27.5363 25.7713 27.5526 25.8044 27.5901C25.5505 27.6655 25.3053 27.7522 25.0659 27.8524C25.3946 27.5487 25.8044 27.2933 26.1638 26.9885L24.9392 27.002C24.9962 27.1014 25.1474 27.1378 25.2541 27.1869C25.0608 27.2295 24.851 27.2365 24.6695 27.3115C24.7116 27.3846 24.801 27.3916 24.8577 27.4477C24.7057 27.4841 24.529 27.4609 24.3849 27.515C24.4416 27.5785 24.5361 27.6094 24.6117 27.6605L24.0542 27.7398L24.1865 27.8961C23.9354 27.9317 23.7078 28.0365 23.4488 28.0636C23.9543 27.6945 24.5034 27.2798 24.9962 26.8217L24.9695 26.7966C24.629 26.8275 24.2515 26.785 23.905 26.8643L24.1574 27.0144C24.0168 27.0879 23.8472 27.0809 23.7145 27.1564L23.8354 27.2554C23.6645 27.3115 23.4803 27.3491 23.3173 27.411L23.5047 27.5363C23.3417 27.6094 23.1406 27.6346 22.9768 27.7135C23.0327 27.7657 23.1004 27.8091 23.1524 27.8698L22.3824 28.0242C22.9123 27.5487 23.5567 27.1564 24.0739 26.5865C23.6315 26.6608 23.178 26.6848 22.767 26.7966C22.9189 26.8767 23.0839 26.92 23.2449 26.9633C22.9945 27.0388 22.7111 27.0446 22.4635 27.1312L22.6658 27.2933C22.4883 27.3425 22.2871 27.3251 22.1234 27.3916C22.2104 27.4725 22.3332 27.491 22.4265 27.5595C22.2163 27.5835 22.0151 27.6346 21.8258 27.6907L21.9604 27.8141L21.3345 27.9247C21.7829 27.5104 22.2682 27.0446 22.767 26.6778C22.7993 26.6422 22.8237 26.6058 22.8493 26.5672C22.4521 26.6105 22.0092 26.6724 21.6443 26.8515C21.7061 26.9633 21.877 26.92 21.984 26.9761C21.777 27.0446 21.5549 27.0744 21.3345 27.1262C21.3963 27.1927 21.4912 27.2171 21.5609 27.2798C21.3912 27.3115 21.2137 27.3425 21.0625 27.4369L21.2137 27.5228C21.0696 27.5526 20.9172 27.5595 20.7798 27.6028C20.8409 27.6771 20.9428 27.6945 21.0184 27.7475C20.8172 27.7657 20.5818 27.7766 20.4051 27.6907C20.8645 27.3173 21.3912 26.9335 21.871 26.5285C21.4097 26.6337 20.9046 26.7157 20.4248 26.8217C20.5563 26.92 20.7602 26.896 20.9046 26.9761L20.2342 27.0446C20.2669 27.1448 20.4307 27.1177 20.5082 27.1997C20.2736 27.2171 20.0921 27.1699 19.8556 27.2133C19.9587 27.3251 20.1087 27.3587 20.2342 27.4369C19.939 27.4794 19.6406 27.4667 19.3816 27.3549C19.7674 27.1177 20.1902 26.8767 20.52 26.518C20.1028 26.6422 19.628 26.6848 19.1875 26.7649C19.308 26.8709 19.4859 26.8767 19.628 26.9335L19.5985 26.9633L19.0297 27.002C19.0403 27.0492 19.1344 27.0809 19.1875 27.1262C19.01 27.1448 18.8391 27.0879 18.6754 27.0446C18.8647 26.8643 19.1434 26.7223 19.3387 26.4987C19.1804 26.5111 19.01 26.5614 18.8344 26.573C17.659 26.6724 16.7886 26.0205 15.7915 25.6936C18.2211 25.6239 20.3413 24.8343 22.2438 23.5274L24.7939 21.8197C26.8023 20.5786 28.6147 18.8728 30.9364 18.376C31.6505 18.1783 32.4386 18.135 33.1901 18.0665C32.415 17.9481 31.7005 17.9412 30.9498 18.1091C30.9695 18.0243 31.0443 17.9288 31.0766 17.8293C30.7349 17.8796 30.3621 17.9172 30.0511 18.0793C30.1531 18.1149 30.2877 18.135 30.4192 18.135C30.218 18.2584 29.9393 18.3694 29.7256 18.537C29.7823 18.2816 29.9629 18.053 30.0972 17.817C29.6488 17.868 29.2327 18.0599 28.8021 18.2027L28.758 18.2449C28.9032 18.2383 29.0879 18.2151 29.2457 18.2209C29.0827 18.3203 28.8395 18.4205 28.6619 18.5807L29.1445 18.5563C29.0044 18.6492 28.7962 18.7358 28.6218 18.8244C28.6824 18.8411 28.7395 18.8728 28.7903 18.9277L28.4497 19.1138C28.4246 18.6608 28.6777 18.2952 28.8296 17.8986C28.3746 17.9856 27.9585 18.2275 27.5542 18.4704L27.9506 18.4263C27.8061 18.5931 27.605 18.759 27.4971 18.9703L27.862 18.8774C27.7601 18.9915 27.5719 19.132 27.4825 19.2825H27.7494L27.5227 19.5073L27.5853 19.5603C27.5451 19.6299 27.4971 19.7406 27.4266 19.7541C27.344 19.2268 27.4267 18.6855 27.5274 18.2027C27.2117 18.2952 26.92 18.5188 26.6425 18.7482C26.77 18.759 26.92 18.7234 27.0547 18.7358C26.8586 18.9231 26.7004 19.1273 26.5886 19.3502C26.6728 19.356 26.7759 19.3452 26.8586 19.3192C26.7464 19.455 26.6169 19.6164 26.5315 19.7839L26.8161 19.7282C26.7641 19.8276 26.6012 19.9344 26.576 20.0501C26.6358 20.0501 26.7004 20.0462 26.7307 20.1069L26.5051 20.3867C26.3276 19.7475 26.5051 19.0531 26.576 18.4321C26.2532 18.6557 25.8859 18.8728 25.6505 19.2074C25.7713 19.2005 25.8977 19.139 26.0186 19.1525C25.8115 19.3753 25.6037 19.5978 25.4631 19.8524C25.5702 19.8466 25.6733 19.7649 25.78 19.7406C25.8241 19.7406 25.8536 19.7166 25.893 19.7108C25.7851 19.9208 25.6202 20.1391 25.4631 20.3433C25.5663 20.3433 25.684 20.3124 25.8044 20.3124C25.728 20.4551 25.5466 20.5979 25.5064 20.7588C25.5761 20.7724 25.6269 20.7341 25.7025 20.7465C25.6092 20.895 25.4702 21.0502 25.3486 21.2065C25.2238 20.5054 25.3679 19.809 25.53 19.1699C25.5663 19.0581 25.6037 18.9529 25.6505 18.8476C25.2415 19.0724 24.8754 19.4252 24.5538 19.7839C24.6742 19.7599 24.8148 19.6597 24.9392 19.6547L24.5093 20.2872C24.6164 20.2807 24.7116 20.1998 24.8372 20.1998C24.688 20.411 24.5361 20.654 24.4416 20.9008C24.529 20.9248 24.6046 20.8331 24.6986 20.8331C24.6695 20.9945 24.5408 21.1496 24.4605 21.3059H24.6235L24.4014 21.764L24.3699 21.7272C24.2515 21.0018 24.3877 20.269 24.4282 19.5498C24.1436 19.8276 23.8649 20.1754 23.6448 20.5101L23.6645 20.5352C23.8078 20.4985 23.9354 20.4242 24.0609 20.3569C23.9472 20.6308 23.7708 20.9074 23.6039 21.1813C23.7019 21.1612 23.796 21.0877 23.8913 21.0436C23.7669 21.2614 23.6177 21.492 23.5185 21.7272L23.8354 21.6402C23.7578 21.8023 23.5677 21.9489 23.5449 22.1304C23.6177 22.1176 23.6685 22.1563 23.746 22.1427L23.4626 22.4522C23.3468 21.6955 23.4626 20.9144 23.5882 20.1998C23.2221 20.5546 22.9493 20.9693 22.6981 21.3798L23.1524 21.2065C23.0398 21.4293 22.8052 21.6355 22.6784 21.8766L22.9945 21.7822C22.9064 21.9586 22.7296 22.1253 22.6552 22.323C22.767 22.3095 22.8855 22.2545 23.0071 22.2159C22.9189 22.3664 22.7422 22.4967 22.6784 22.6635L22.9189 22.6027C22.8493 22.7068 22.7453 22.8322 22.6414 22.9374C22.4694 22.354 22.5836 21.7144 22.6343 21.1128C22.343 21.461 22.0151 21.8572 21.7593 22.2545L21.7829 22.275L22.1986 22.0986L22.1663 22.1725C22.0222 22.3153 21.8947 22.4708 21.8014 22.6325L22.0289 22.6027L21.7691 22.9819C21.8309 22.9935 21.9033 22.9614 21.973 22.9556C21.9533 23.0415 21.8455 23.1235 21.8014 23.2152L21.9395 23.2721C21.8907 23.3599 21.8199 23.44 21.7593 23.5274C21.6758 22.9935 21.6246 22.3915 21.7132 21.8379C21.4353 22.1613 21.2274 22.571 20.9487 22.925C20.981 22.9683 21.0499 22.9297 21.0881 22.9122C21.1507 22.8747 21.2203 22.8561 21.29 22.8322C21.2018 22.9683 21.0184 23.1053 20.9861 23.2585L21.2432 23.2218C21.1696 23.3394 21.0263 23.4512 20.9487 23.5816C21.0586 23.5583 21.1951 23.5382 21.3136 23.5139C21.1566 23.6508 20.8976 23.8485 20.835 24.0714C20.7602 23.5816 20.8298 23.0724 20.9046 22.6027C20.6523 22.9076 20.4051 23.2786 20.1224 23.6075C20.2228 23.5939 20.3413 23.5448 20.4492 23.5139C20.3874 23.6377 20.2295 23.7425 20.1776 23.8872C20.2925 23.8679 20.4248 23.8245 20.5496 23.8052C20.4445 23.9112 20.261 24.0106 20.1335 24.1542L20.3236 24.1708C20.1724 24.2536 20.1276 24.413 20.0284 24.5314C19.9461 24.1224 20.0331 23.6566 20.0843 23.2585C19.8008 23.5881 19.5536 23.9731 19.2001 24.2652C19.3895 24.24 19.5859 24.141 19.7575 24.0857C19.5859 24.24 19.3816 24.3518 19.2249 24.5062C19.3718 24.5132 19.5288 24.4629 19.6682 24.4184C19.5583 24.618 19.308 24.7291 19.1297 24.8931C19.0541 24.6296 19.0805 24.3259 19.11 24.059C18.8765 24.2536 18.6636 24.4764 18.4479 24.6981L18.4762 24.7244C18.5565 24.6741 18.6636 24.6807 18.7451 24.6296C18.6951 24.7414 18.5408 24.8409 18.4605 24.9527L18.6451 24.9461C18.5057 25.0405 18.3731 25.1639 18.2073 25.2026C18.2278 24.9527 18.3026 24.6981 18.3593 24.4513C17.7168 25.1639 16.8374 25.5419 15.8348 25.4138C15.8986 25.2382 16.0419 25.0649 16.1871 24.9217C17.45 23.5622 18.7069 22.1176 19.7371 20.6219C21.2137 18.2766 22.343 15.7703 23.0886 13.138C23.7145 11.4012 24.0877 9.56508 24.5672 7.76568C24.9695 6.52455 25.4123 5.29038 25.9351 4.09065L25.893 4.06086C25.3679 4.83038 25.1415 5.76858 24.738 6.60541C24.688 6.60541 24.692 6.51101 24.6427 6.47425C24.5034 6.92653 24.3585 7.37995 24.2141 7.83299C24.2621 7.8593 24.2967 7.78502 24.3448 7.77728L24.2889 8.15605C24.1436 8.02412 24.0798 7.78966 24.0306 7.57959C23.8795 7.95757 23.6775 8.31041 23.5618 8.70774C23.6775 8.70774 23.7669 8.57195 23.859 8.50424C23.8531 8.72128 23.6952 8.92556 23.6901 9.14183C23.7578 9.11784 23.8157 9.06174 23.8854 9.0424C23.8854 9.21688 23.8405 9.4022 23.7893 9.57862C23.6244 9.21688 23.4764 8.84664 23.3929 8.44853L23.335 8.50424C23.2016 8.90622 23.0642 9.30355 22.9064 9.70204C23.0642 9.68076 23.0977 9.52252 23.2221 9.46681C23.178 9.68076 23.1721 9.94307 23.1524 10.1918C23.1918 10.2158 23.2449 10.1601 23.2898 10.1493L23.4035 10.1361C23.4106 10.2843 23.3594 10.4464 23.3173 10.5938L23.5047 10.5389C23.4862 10.67 23.4488 10.8256 23.4173 10.9594L23.2898 10.805C23.0748 10.3404 22.869 9.87459 22.7111 9.38479C22.5147 9.70784 22.4076 10.0789 22.2801 10.4387L22.595 10.1667C22.5509 10.4089 22.497 10.6758 22.497 10.9497C22.5784 10.9555 22.6481 10.8747 22.7229 10.8372C22.6922 11.0291 22.6481 11.2469 22.6343 11.4446C22.7158 11.3761 22.8052 11.3142 22.8934 11.2527L22.9064 11.7993L23.1319 11.6682L23.0977 12.2334C22.5784 11.6926 22.3568 10.9594 22.0092 10.3145C21.8848 10.6015 21.7593 10.9122 21.6325 11.2082C21.6246 11.2767 21.5797 11.3521 21.6002 11.4194C21.7396 11.32 21.8258 11.1707 21.9604 11.0732C21.8848 11.3386 21.8199 11.6558 21.8455 11.9661C21.9203 11.9336 21.9769 11.8407 22.0537 11.8407L22.0289 12.4694C22.1289 12.4543 22.2163 12.3213 22.3135 12.3027C22.2997 12.5313 22.2997 12.7801 22.3135 13.0076C22.4029 12.9952 22.4588 12.8911 22.5509 12.859L22.5284 13.2188C22.5836 13.2258 22.6599 13.2014 22.7229 13.1948L22.6414 13.567C22.1045 12.859 21.6805 12.0396 21.3853 11.2082C21.19 11.5688 21.1637 11.9982 21.0499 12.3944L21.4148 12.0454C21.3912 12.3143 21.3294 12.6172 21.3853 12.9027L21.4148 13.0269C21.4912 13.0339 21.5679 12.9403 21.6443 12.9519C21.6384 13.1755 21.6002 13.4483 21.6758 13.6537L21.9281 13.4436C21.9144 13.702 21.871 13.976 21.871 14.2565C21.9671 14.2499 22.0289 14.1071 22.1419 14.1137L22.1793 14.5238C22.1986 14.5671 22.2438 14.54 22.2801 14.5486C22.293 14.646 22.3088 14.7772 22.2682 14.8697C21.5727 14.0754 21.207 13.107 20.8239 12.1708C20.7409 12.5062 20.6259 12.8234 20.5759 13.1755C20.6791 13.1024 20.7543 12.9468 20.8802 12.859C20.8239 13.2014 20.7602 13.5864 20.8035 13.9644L21.1184 13.6788C21.1302 13.976 21.0448 14.2921 21.1066 14.6035C21.207 14.5834 21.2833 14.4975 21.3853 14.5161C21.3912 14.7706 21.3538 15.05 21.4148 15.2875C21.4912 15.2914 21.5797 15.2651 21.6699 15.2612C21.7396 15.3734 21.5483 15.7154 21.8258 15.652C21.8309 15.7947 21.8065 15.9181 21.8014 16.0539C21.2322 15.274 20.8645 14.3857 20.4819 13.5179L20.3051 13.0134C20.2433 13.1136 20.2807 13.2053 20.25 13.3202C20.1165 13.673 20.1276 14.0754 20.0638 14.46C20.1972 14.3617 20.25 14.1686 20.3618 14.0328C20.3689 14.33 20.3315 14.6279 20.3925 14.913C20.4445 14.8766 20.513 14.7772 20.5885 14.7145L20.5937 15.5216C20.672 15.4407 20.735 15.2477 20.8605 15.2036C20.8605 15.4782 20.8535 15.7638 20.8476 16.0253L21.1566 15.652L21.1302 16.5805C21.2137 16.5573 21.3097 16.5081 21.403 16.4772C21.403 16.6521 21.3786 16.8494 21.29 17.0049C20.9046 16.4907 20.683 15.9007 20.3807 15.3541L19.8378 14.1996C19.6926 14.5969 19.6465 15.0743 19.6544 15.5293C19.7615 15.4341 19.8186 15.2612 19.939 15.1358C19.9055 15.3788 19.8615 15.6566 19.8489 15.9112C19.9323 15.8388 19.9961 15.7386 20.0969 15.6964C20.1028 15.968 20.039 16.247 20.0638 16.5275C20.1461 16.4524 20.2295 16.3828 20.3236 16.348C20.3315 16.5805 20.3051 16.8668 20.3504 17.1032C20.4122 17.0474 20.4748 16.9546 20.5496 16.9596C20.5563 17.1774 20.5326 17.4011 20.5759 17.6077L20.8605 17.3945L20.8172 18.1091C20.5818 17.868 20.4307 17.5198 20.2559 17.2169C19.9323 16.6257 19.7174 15.9808 19.3816 15.3974C19.2875 15.7436 19.2836 16.1611 19.258 16.5132L19.5288 16.2238C19.5103 16.4524 19.4702 16.7387 19.515 16.9797L19.6839 16.8494C19.6603 17.0289 19.6406 17.2401 19.6233 17.4398C19.6926 17.4138 19.7812 17.3647 19.8823 17.3837C19.8489 17.5697 19.8008 17.7926 19.8378 18.0108C19.9055 17.9651 19.9823 17.9373 20.0638 17.9237C20.0638 18.053 20.0705 18.2081 20.0197 18.3338C20.0776 18.376 20.1724 18.3934 20.2559 18.4023C20.25 18.5052 20.2342 18.6356 20.2228 18.759L20.4748 18.7791C20.4051 18.8902 20.4248 19.0329 20.3689 19.1525C20.1724 18.9471 20.0705 18.6608 19.939 18.4128C19.6347 17.7059 19.3013 17.0184 19.0864 16.2795L19.0061 16.1418C18.9687 16.6327 18.9844 17.1852 18.997 17.651L19.0167 17.6877C19.1072 17.5697 19.1493 17.4444 19.2001 17.3152C19.2442 17.5697 19.2072 17.8553 19.2308 18.1091C19.2954 18.0599 19.3572 18.027 19.4131 17.9787C19.434 18.195 19.3895 18.4128 19.3718 18.6356C19.4702 18.6 19.5662 18.4929 19.6792 18.458C19.5926 18.6356 19.5583 18.867 19.4985 19.0724C19.5859 19.0136 19.6792 18.9142 19.7938 18.8902C19.7674 19.0395 19.6997 19.19 19.6792 19.3502C19.7575 19.4311 19.8752 19.4995 19.9823 19.5603L19.8823 20.0211C19.3757 19.3088 19.1749 18.4704 18.8714 17.6742C18.8344 17.545 18.7714 17.4204 18.7136 17.2982L18.6892 17.3945V18.6557C18.788 18.5698 18.8596 18.4321 18.9482 18.3338C18.9529 18.6 18.8517 18.867 18.8714 19.139C18.9687 19.0956 18.9844 18.9703 19.0864 18.9277C19.0726 19.1138 19.0238 19.3192 18.997 19.5169L19.2442 19.2953C19.2001 19.4813 19.1493 19.7108 19.156 19.9208C19.2367 19.84 19.3013 19.7367 19.3816 19.6411C19.3946 19.8524 19.2639 20.0501 19.3277 20.2872C19.4084 20.2362 19.4269 20.1321 19.515 20.0895C19.515 20.2613 19.4131 20.4164 19.4532 20.6219C19.2308 20.4621 19.1934 20.1321 19.0403 19.8957C18.8214 19.4117 18.7136 18.8774 18.4479 18.4128L18.4164 18.4704C18.4105 18.9343 18.5203 19.356 18.4939 19.8276L18.6754 19.6411C18.6813 19.835 18.6175 20.0462 18.6451 20.2439L18.8714 20.1069C18.8517 20.276 18.8088 20.4551 18.8285 20.647C18.9029 20.6347 18.9793 20.5546 19.0541 20.5101L18.9482 21.0018C18.997 21.0068 19.049 20.9577 19.0974 20.9314C19.0974 21.0502 19.0726 21.1937 18.9734 21.2672C18.5868 20.7147 18.5057 20.0272 18.177 19.462C18.164 19.8601 18.2211 20.3743 18.1192 20.7782L18.3916 20.4551L18.3219 21.1256C18.379 21.131 18.436 21.0753 18.4939 21.0436C18.4801 21.1813 18.4231 21.3249 18.4301 21.4843C18.5057 21.4966 18.5683 21.3984 18.6451 21.3724C18.6085 21.5226 18.5262 21.6839 18.5478 21.8766C18.2416 21.4715 18.1014 20.9314 17.8617 20.4687C17.8117 20.8834 17.8168 21.3365 17.7228 21.764C17.8168 21.7144 17.855 21.5845 17.9503 21.5044C17.957 21.6355 17.9003 21.7582 17.8688 21.8816C17.9432 21.87 18.02 21.7705 18.0963 21.7272C18.0377 21.8816 17.97 22.0619 17.9503 22.2422V22.2681L18.1337 22.1977C18.0129 22.3269 17.9944 22.5025 17.9255 22.6569C17.7558 22.3153 17.6676 21.945 17.5216 21.5961C17.4881 21.9884 17.4126 22.3605 17.2937 22.7138C17.3763 22.6836 17.4578 22.5962 17.5275 22.5207C17.533 22.6894 17.45 22.8496 17.3673 23.0001C17.4645 22.9741 17.5578 22.8747 17.6539 22.812C17.5842 23.0047 17.4126 23.192 17.3803 23.4156C17.1732 23.1533 17.1484 22.8004 17.0102 22.4967C16.9839 22.6395 16.9583 22.7958 16.9394 22.925C16.8445 23.7878 16.3206 24.4764 15.7218 25.1334C15.671 25.1639 15.6325 25.22 15.5896 25.2583C15.5687 24.7743 15.5687 24.2826 15.5522 23.8052C15.5896 23.5208 15.5258 23.2353 15.6092 22.9683C15.6659 23.0983 15.6325 23.2721 15.6895 23.4032C15.8533 22.8623 16.0682 22.3474 16.3332 21.8495C16.0387 21.9133 15.8045 22.1861 15.5187 22.323C15.512 22.2159 15.4746 22.1176 15.5081 22.0185C15.5553 22.0445 15.5896 22.1052 15.6521 22.0986C15.8072 21.9056 15.8072 21.6518 15.9171 21.4359C15.9848 21.5477 15.9553 21.7214 16.0419 21.8379C16.2635 21.4293 16.4087 20.9623 16.6689 20.5546H16.613C16.2399 20.808 15.8907 21.1186 15.5317 21.3926L15.4187 21.4359C15.3912 21.3423 15.4108 21.2382 15.4041 21.138L15.5364 21.2614C15.7218 21.1496 15.71 20.9198 15.7592 20.7341C15.8163 20.813 15.8466 20.9074 15.8907 20.9894C16.0249 20.7832 16.0926 20.5546 16.1871 20.3309C16.2529 20.3936 16.2773 20.4985 16.3009 20.5913C16.5481 20.189 16.7953 19.7649 16.9721 19.3502C16.7012 19.5073 16.5481 19.809 16.2773 19.9893C15.9848 20.2362 15.6895 20.5294 15.3471 20.6904L15.3246 20.2574L15.5766 20.4551C15.6462 20.3124 15.6659 20.1263 15.7021 19.9642C15.7639 20.0272 15.7639 20.2129 15.8722 20.269C16.0045 20.0895 16.0249 19.8659 16.0997 19.6597C16.1643 19.7042 16.1832 19.8276 16.2568 19.8957C16.4087 19.6299 16.5107 19.3192 16.6158 19.0291C16.6756 19.108 16.6493 19.2508 16.6882 19.3502C16.9512 18.9587 17.1976 18.5014 17.437 18.0665C16.6756 18.6112 16.0812 19.356 15.2656 19.7715L15.2794 19.3753L15.4805 19.462C15.6659 19.2883 15.7407 19.084 15.8722 18.8902L15.9848 19.139C16.1753 18.9857 16.2123 18.7424 16.3009 18.537C16.3402 18.6047 16.3576 18.6925 16.4139 18.759C16.5481 18.5737 16.6158 18.3462 16.6882 18.135C16.7386 18.2027 16.7618 18.2816 16.8138 18.3567C16.8756 18.1648 16.9721 17.9651 17.028 17.7609L17.1291 18.0793C17.2799 17.7013 17.4763 17.3454 17.6078 16.9732C16.8024 17.5697 16.0859 18.4263 15.1959 18.8341L15.2097 18.4704C15.2845 18.4704 15.3038 18.6112 15.4041 18.5931L15.6758 18.1091L15.9045 18.2209C16.0926 18.0472 16.1643 17.8255 16.3265 17.644C16.4139 17.6703 16.5481 17.7493 16.5875 17.5941L16.7886 17.1477L16.9583 17.2169C17.078 17.0552 17.1083 16.8614 17.1543 16.6691C17.2114 16.7321 17.2291 16.8737 17.2673 16.9797C17.4126 16.5573 17.6539 16.1553 17.8031 15.7204C17.6283 15.8257 17.5275 15.9932 17.3126 16.1418L16.4717 16.919C16.0753 17.2169 15.671 17.5005 15.253 17.7744V17.4514C15.3175 17.4514 15.3786 17.5063 15.451 17.5198C15.5896 17.4011 15.6325 17.2285 15.7218 17.085C15.8045 17.1101 15.8722 17.2355 15.9368 17.2169C16.0753 16.948 16.2068 16.6818 16.3576 16.4215C16.441 16.4648 16.5158 16.5081 16.5607 16.5894L16.8701 16.0001C16.9319 16.0365 16.9512 16.1611 16.9965 16.247C17.1035 15.9317 17.2626 15.6384 17.4067 15.3413C17.4685 15.5022 17.4578 15.6964 17.5086 15.862C17.7287 15.3974 17.8227 14.8581 18.02 14.3694C17.2567 15.0937 16.4139 15.8562 15.5522 16.459L15.2912 16.5894C15.2735 16.4714 15.2845 16.3155 15.2794 16.1978L15.5081 16.3596C15.6758 16.192 15.7151 15.9499 15.8348 15.7502L16.0615 15.9433C16.2399 15.7328 16.3166 15.4852 16.4469 15.2612L16.6756 15.4407C16.8327 15.2419 16.928 15.0078 17.028 14.7811L17.1291 14.9942C17.2673 14.7579 17.2996 14.46 17.4263 14.2131L17.5645 14.5718L17.5972 14.5602L17.9373 13.2931C17.0984 13.9825 16.3265 14.8902 15.3353 15.3413C15.3305 15.1861 15.3412 15.0124 15.3675 14.8581C15.4423 14.9258 15.451 15.0693 15.5766 15.0937C15.8045 14.9645 15.923 14.708 15.9848 14.4677L16.1871 14.6279C16.3576 14.4418 16.4469 14.1996 16.5745 13.9895C16.6315 14.051 16.6756 14.1253 16.7433 14.1686C16.928 13.9141 17.0594 13.6231 17.1976 13.3442L17.337 13.5303C17.6854 13.4301 17.6775 13.0656 17.7924 12.8041L17.9621 12.0648C17.2161 12.8285 16.3981 13.6297 15.451 14.0715L15.4246 14.058C15.4246 13.8282 15.4679 13.6231 15.5187 13.4165C15.5364 13.5794 15.5825 13.702 15.6325 13.834C15.7777 13.6231 15.8072 13.3686 15.9171 13.138L16.2123 13.4165C16.4213 13.2123 16.5276 12.9403 16.6882 12.7039C16.7308 12.7724 16.7433 12.9027 16.8583 12.8958C17.0709 12.5797 17.1791 12.2265 17.337 11.8918C17.4204 12.004 17.3881 12.2025 17.5381 12.2586C17.7361 11.9336 17.8117 11.563 17.918 11.2082L17.9739 10.9412C17.742 11.0964 17.5381 11.3711 17.2937 11.544C16.7493 11.9537 16.2068 12.4002 15.5766 12.6172C15.5258 12.4493 15.5687 12.2632 15.6199 12.1166C15.6758 12.2083 15.6758 12.382 15.8348 12.382C15.9986 12.3317 16.1115 12.1398 16.2009 12.004L16.3332 11.7552L16.5548 11.922C16.7571 11.6926 16.8445 11.3711 16.9583 11.0848L17.1543 11.3896C17.2996 11.1273 17.3555 10.8611 17.437 10.571C17.5448 10.6867 17.5448 10.9122 17.6539 11.0616C17.7657 10.564 17.8412 10.0309 17.9255 9.53413C17.7031 9.71365 17.5137 9.96822 17.2799 10.1918C16.8024 10.5756 16.3206 11.0105 15.7592 11.2217C15.7269 11.0848 15.7513 10.9122 15.8045 10.7803C15.8466 10.8051 15.8986 10.9161 15.9742 10.9412C16.2202 10.8979 16.2832 10.6317 16.3902 10.4592C16.4784 10.4592 16.5875 10.646 16.6315 10.482C16.6756 10.3338 16.7308 10.1976 16.7571 10.0483C16.8327 10.0789 16.928 10.1918 16.9721 10.2777C17.1291 10.005 17.2114 9.68076 17.3126 9.37899L17.5381 9.72022L17.5842 9.70204C17.7098 9.2045 17.8031 8.73947 17.8617 8.21214C17.2996 8.75108 16.6619 9.27956 15.9927 9.65871C15.9553 9.50898 16.0171 9.37125 16.0308 9.22849C16.0812 9.24861 16.0997 9.36738 16.1871 9.38479C16.3265 9.27956 16.3265 9.07413 16.4469 8.93717C16.5107 8.99984 16.5804 9.08109 16.6689 9.10121C16.7815 8.89384 16.863 8.6826 16.9394 8.47252L17.1417 8.61605C17.2732 8.38005 17.3437 8.11852 17.3956 7.84654C17.4685 7.92082 17.5275 8.06861 17.5645 8.19202C17.5842 7.76568 17.7727 7.39814 17.7361 6.995C17.2732 7.32501 16.8583 7.77032 16.3576 8.01444C16.3765 7.90147 16.3666 7.74633 16.4139 7.63452L16.4843 7.77728C16.5922 7.63452 16.6225 7.45694 16.7307 7.31225C16.7886 7.39349 16.8024 7.4995 16.8701 7.57959C17.0386 7.34823 17.0709 7.06348 17.2114 6.82748C17.2567 6.92188 17.3496 7.00197 17.4126 7.08785C17.45 7.07509 17.494 7.05768 17.5086 7.02015L17.698 5.95737L17.6775 5.93455C17.3437 6.20808 17.0386 6.59961 16.6552 6.77138C16.6363 6.60541 16.6756 6.42435 16.713 6.25644C16.7689 6.33652 16.7386 6.47425 16.7815 6.57368C16.7953 6.58645 16.8071 6.60541 16.8237 6.59187C16.8756 6.36244 17.028 6.17635 17.1291 5.97092L17.2358 6.18138C17.2996 6.02701 17.3437 5.85833 17.3673 5.6912C17.4066 5.68075 17.4263 5.75503 17.4645 5.71248C17.4881 5.43198 17.5842 5.16967 17.6342 4.89886C17.4322 5.04819 17.2291 5.26524 16.9965 5.37589V5.29038C17.0476 5.15923 17.0709 5.02111 17.1083 4.88609C17.185 4.89886 17.2291 5.15227 17.3555 4.9979C17.3496 3.68287 17.5137 2.39145 17.7491 1.13214C17.7287 1.11202 17.7098 1.10815 17.6913 1.11202C17.494 1.65869 17.3881 2.24211 17.2114 2.79536C17.0524 3.59002 16.7052 4.29609 16.4139 5.02807C16.3528 5.01647 16.3462 4.91588 16.2899 4.8621C16.2123 5.34609 15.9612 5.75968 15.8466 6.22742L15.71 6.05796C15.5081 6.4994 15.4561 7.00196 15.2345 7.43025C15.1471 7.3548 15.14 7.23139 15.0518 7.1455C14.8959 7.53625 14.7936 7.95177 14.5976 8.32318C14.5602 8.29107 14.4897 8.17539 14.4425 8.14869C14.2071 8.61605 14.113 9.1368 13.9559 9.6324L13.7272 9.38479C13.5595 9.83203 13.5064 10.328 13.3761 10.7803C13.3123 10.6867 13.269 10.5826 13.1946 10.4948C13.1237 10.6317 13.1434 10.8314 13.0934 10.9865C13.0403 11.3521 12.9962 11.7011 12.9962 12.1031C12.91 12.0222 12.8029 11.8918 12.7147 11.78C12.638 12.2942 12.688 12.8234 12.7383 13.3442C12.645 13.3008 12.5427 13.2188 12.4427 13.1651C12.5368 13.6038 12.6183 14.0889 12.682 14.5602C12.588 14.5536 12.486 14.46 12.3978 14.4484C12.4604 14.913 12.588 15.3471 12.682 15.8013C12.5742 15.7761 12.486 15.6713 12.373 15.6338C12.5104 16.1042 12.7706 16.5507 12.9237 17.0347C12.8265 17.0347 12.7214 16.9596 12.6254 16.948L12.6509 17.0587L13.1946 18.1648C13.0934 18.1648 12.9962 18.0963 12.8962 18.0793C13.154 18.5613 13.4575 19.0581 13.7339 19.5498L13.4201 19.462C13.5839 19.8903 13.9429 20.2574 14.1264 20.6904C14.0382 20.6904 13.9429 20.6103 13.8488 20.6219C14.113 21.0242 14.3314 21.4475 14.5279 21.8766L14.3405 21.8495C14.6357 22.4147 14.9822 22.9614 15.1774 23.5711C15.1471 23.1533 15.2168 22.7378 15.0971 22.354C14.8704 22.1304 14.6495 21.8816 14.681 21.54C14.8007 21.7079 14.831 21.9385 15.0085 22.0986C15.0597 21.8379 14.9263 21.6289 14.9144 21.3798L14.3275 20.7782C14.5228 20.7646 14.4149 20.5352 14.5094 20.437C14.6161 20.7147 14.7046 21.0068 14.8959 21.2614C14.877 20.9384 14.8448 20.5979 14.7936 20.276C14.4964 19.9893 14.1303 19.809 13.8488 19.493C13.9823 19.462 13.9244 19.2953 13.9862 19.2074C14.0874 19.356 14.1441 19.5672 14.246 19.6848C14.2952 19.5672 14.3011 19.4434 14.3161 19.3192C14.4425 19.5429 14.5602 19.835 14.7369 20.0752C14.8074 19.8168 14.7428 19.5255 14.7428 19.2508C14.3082 18.9018 13.841 18.6112 13.3879 18.3133L13.4631 18.0963C13.5465 18.159 13.6213 18.2816 13.7048 18.376C13.741 18.3075 13.7673 18.2081 13.7713 18.1091C13.9138 18.2333 13.9941 18.4445 14.1303 18.6C14.2 18.5122 14.1815 18.3694 14.2385 18.2654L14.6554 19.0724C14.681 19.0956 14.718 19.132 14.7428 19.1138C14.7318 18.7908 14.7428 18.4929 14.6877 18.1911C14.1748 17.8487 13.6398 17.5121 13.1611 17.0714L13.1237 16.8668C13.1481 16.9855 13.2887 17.1167 13.4201 17.1736C13.4701 17.085 13.4631 16.9596 13.5064 16.8668C13.6024 17.0676 13.6654 17.3086 13.841 17.4765C13.9244 17.3512 13.9941 17.2026 14.0433 17.0587C14.1815 17.2912 14.1697 17.5755 14.3275 17.7996L14.4582 17.5198C14.5464 17.6877 14.5924 17.8796 14.6877 18.0406C14.7369 17.7435 14.6495 17.4312 14.681 17.1302C14.1 16.7434 13.4898 16.4033 12.9529 15.9433C12.9391 15.8446 12.9336 15.7436 12.9237 15.6384C13.0166 15.7591 13.0206 16.0733 13.2828 16.0539C13.3631 15.968 13.3761 15.8562 13.4201 15.7502L13.4631 15.8013C13.5398 16.0253 13.6654 16.2276 13.791 16.4338C13.8732 16.3155 13.8685 16.1611 13.9185 16.0299C14.0638 16.271 14.1197 16.57 14.3275 16.7937C14.4023 16.8002 14.3708 16.7012 14.3964 16.6586L14.3846 16.247C14.472 16.4389 14.5424 16.6385 14.6554 16.8246L14.681 16.0857C14.0941 15.6713 13.4701 15.3618 12.9336 14.8391L12.9529 14.5033C13.0166 14.6279 13.0206 14.8082 13.1611 14.9084C13.2288 14.9645 13.2993 15.0368 13.3926 15.0368C13.4938 14.9509 13.476 14.8082 13.5465 14.7041C13.6103 14.9258 13.7272 15.1235 13.8488 15.3173C13.9185 15.1919 13.8988 15.0124 13.9559 14.8697C14.05 15.0801 14.0744 15.3413 14.1901 15.5525C14.3011 15.4341 14.3011 15.2477 14.3708 15.1041C14.4464 15.3618 14.5838 15.59 14.681 15.8446C14.7046 15.5459 14.7133 15.2546 14.7566 14.9509C14.1901 14.5834 13.628 14.1814 13.0934 13.7396C13.0336 13.6665 12.947 13.6104 12.9336 13.5179L13.0474 13.5419C13.0737 13.4552 13.0844 13.3569 13.1111 13.2633C13.1737 13.4235 13.2139 13.6104 13.3182 13.7655C13.4201 13.6858 13.5268 13.591 13.589 13.4746C13.7075 13.6858 13.8036 13.969 13.9429 14.2131C14.0264 14.0944 14.1264 13.9036 14.246 13.7783C14.3846 14.1311 14.5023 14.5103 14.77 14.7946L14.8822 13.8456C14.2755 13.3628 13.6477 12.9712 13.1611 12.3387C13.2288 12.3251 13.3123 12.2826 13.3316 12.2025L13.5004 11.7552C13.5268 12.052 13.5201 12.3685 13.6213 12.6373L13.8862 12.4002C13.9059 12.6045 13.9244 12.8099 13.998 12.9952C14.1079 12.8524 14.2 12.6845 14.3011 12.536C14.3216 12.784 14.3511 13.0567 14.409 13.3067C14.5161 13.1948 14.5602 13.0397 14.6692 12.9151C14.7369 13.1651 14.6936 13.4676 14.8822 13.6537C14.9822 13.567 14.8822 13.4676 14.9263 13.3492L15.0195 12.7472C14.6436 12.3452 14.1952 12.0106 13.8488 11.5575C13.741 11.3711 13.5701 11.2082 13.4898 11.0163C13.5064 11.0105 13.5701 11.1223 13.6477 11.0964C13.7851 10.8573 13.8225 10.5756 13.9618 10.3338C13.9429 10.6758 13.9138 11.055 13.9059 11.3954C14.0803 11.2662 14.0697 11.0414 14.2275 10.8921C14.2334 11.1707 14.2385 11.4802 14.3275 11.7425C14.4464 11.643 14.472 11.4898 14.5672 11.3645C14.5672 11.5873 14.5554 11.8465 14.6239 12.0589L14.6877 11.9912L14.8704 11.643L14.9054 11.6752L14.9144 12.1444L14.9656 12.4261L15.0195 12.481L15.0518 12.4493L15.1203 11.8671L15.153 11.643L15.1097 11.544L14.5554 10.8871L14.2275 10.3481L14.0433 9.96822L14.1303 9.99143L14.4149 9.45405L14.4425 9.43393L14.409 9.70204L14.4149 10.2158L14.4425 10.4271L14.6877 10.0115L14.7566 9.94307L14.7133 10.5516L14.7239 10.8372V10.8747L14.8822 10.7184L15.0518 10.482H15.0833L15.0971 11.0732L15.14 11.2082C15.14 11.214 15.0971 11.2345 15.1774 11.2527L15.2471 11.0291L15.3109 10.5582L15.3616 10.3915L15.2794 10.2487L15.0518 9.93649L14.7936 9.41072L14.5672 8.82652L14.7428 8.96232L14.8145 8.87643L14.9656 8.5468L14.9054 9.44051L15.04 9.3287L15.2656 9.00565L15.2912 10.0375L15.3471 10.1795L15.3912 10.1601L15.5522 9.28653L15.6462 8.63927L15.2794 7.93436L15.19 7.75871L15.4746 7.46661L15.5628 7.31805L15.4246 7.94403V7.96995L15.5923 7.80243C15.5923 7.77728 15.5455 7.93939 15.6462 7.74633L15.6659 8.51507L15.7336 8.32318L15.8604 7.703L16.0419 6.97682L15.9301 6.41854L15.9742 6.4611L16.0753 6.74159L16.0997 6.72882L16.2725 6.1129L16.4717 5.4993V5.2517C16.4843 5.2517 16.3902 5.35113 16.5402 5.26524L16.5607 5.29038L16.6882 4.9979L16.8445 4.51971L17.0984 3.86974L17.2358 3.402V3.36331L17.2252 3.65657L17.0709 4.32781L16.245 7.12035L16.0308 8.13864L15.7336 9.5527L15.6092 10.2054L15.3109 12.1708L15.2345 12.7356L15.1097 14.0193L15.0085 15.2419L14.9822 16.1418L14.9518 17.9973L14.9656 19.7839L15.1203 21.4843L15.2097 22.1427L15.2794 23.0666L15.2912 23.5583L15.3038 24.2826L15.2656 24.979L15.2794 25.0475L15.2471 25.0088L14.9518 24.4764L14.5161 23.8942L13.9291 23.1668L13.8154 22.9935L13.2237 22.1563C13.219 22.1362 13.256 22.2066 13.256 22.2066L13.1796 22.0743L13.7477 22.7002L13.7339 22.5335L13.6339 21.9624L13.589 21.5605L13.4083 21.8197L13.1796 21.1496L13.104 20.7031C13.0973 20.6838 13.1375 20.671 13.0934 20.654L13.0206 20.8014L12.8265 21.4359L12.795 21.5148L12.6714 21.3171L12.5801 21.1128L12.695 21.1554L12.7253 21.1937L12.7509 21.1813L12.7076 20.9144L12.5242 20.4428L12.6576 20.5546L12.7627 20.6904L12.8088 20.7341V20.647L12.682 20.2574L12.4998 19.462L12.1857 20.5101L12.1022 20.7097L12.0719 20.678L11.9325 20.276C11.9396 20.2509 11.9766 20.2129 11.9199 20.189L12.1278 20.276L12.1455 20.2323L12.0837 19.8524L11.9463 19.438L12.1152 19.5978L12.2416 19.7649L12.2856 19.809V19.6411L12.0719 18.3133L12.0337 18.1783L11.9904 18.2209L11.8294 18.8043L11.6353 19.84C11.5979 19.8787 11.7932 19.5429 11.592 19.9777L11.5586 19.9394L11.4586 19.6411L11.5794 19.6732V19.5429L11.4775 19.1699H11.6617L11.6176 18.7358L11.5145 18.2027L11.5586 18.2449L11.692 18.6112C11.7247 18.6356 11.6227 18.6434 11.7452 18.6693L11.7326 18.0356L11.6617 17.4398V17.0714L11.5794 17.1852L11.3783 17.9102L11.1252 19.0956L11.0819 19.1842L11.024 19.0956L10.9346 18.7908C10.9346 18.7861 10.9287 18.8411 10.922 18.7675H11.0614L11.0937 18.759L10.9917 18.0356L11.1948 18.0963L11.1818 17.7609L11.1181 17.2026L11.333 17.5496L11.3507 17.5755L11.4027 17.4831L11.3645 16.9596L11.2625 16.3232L11.2318 16.1108L11.0484 16.459L10.7768 17.3512L10.6256 18.0356L10.5492 18.4023L10.5244 18.4263L10.3981 18.1648L10.5492 18.1091L10.4685 17.6614L10.4237 17.4204L10.6256 17.5392H10.6512L10.6051 17.1302L10.5492 16.8931L10.6512 16.9364L10.8228 17.0714V16.919L10.7071 16.0984L10.8335 16.192L10.9346 16.348L10.9681 16.3789L11.0055 16.3356L10.9346 15.8446L10.7768 15.1177L10.7504 15.0078L10.3107 16.3596L10.1721 16.7569L9.9879 17.4831L9.88673 16.9732C9.88082 16.9596 9.86232 17.0231 9.87492 16.948H10.0261L9.93082 16.3665L9.94578 16.3356L10.0832 16.4215L10.1587 16.4338C10.1654 16.4389 10.1095 16.459 10.1839 16.4474L10.2087 16.4215L10.0584 15.6636L10.0379 15.5092L10.128 15.5951L10.3205 15.9317C10.3312 15.9394 10.2942 15.9471 10.2942 15.946C10.2942 15.9441 10.3075 15.9402 10.3548 15.9317L10.3205 15.5765L10.1721 14.9691L10.2398 15.0368L10.4548 15.3858L10.4993 15.3413V15.1919L10.2536 14L10.1143 14.2371L9.76037 15.298L9.55921 15.9549L9.44544 16.459L9.41277 16.4215L9.30688 16.0686L9.32066 16.0435H9.43245L9.47064 16.0106L9.36396 15.539L9.59149 15.5216L9.47064 14.8391L9.47576 14.8012L9.53559 14.8581L9.64739 15.0078L9.68557 15.0368L9.72966 14.9942L9.71588 14.5602L9.68557 14.46L9.62692 14L9.81705 14.1872L9.90051 14.3126L9.93082 14.3489L9.98278 14.2921V14.0889L9.74344 13.083L9.53559 13.6104L9.26358 14.3915L9.03329 15.1312L8.93212 15.5525L8.83489 15.3734L8.75144 15.0627L8.90181 15.0801L8.88803 14.5923L8.87819 14.5602V14.5238L9.07935 14.5161L9.0144 13.9597L8.97818 13.7349L9.26358 13.9462L9.25098 13.6297L9.11675 12.9519L9.23051 13.0656L9.37656 13.2382L9.50134 13.3442C9.52654 13.3364 9.51512 13.2873 9.54543 13.3202L9.26358 12.382L9.18642 12.0648L8.93212 12.8842L8.5365 14.1253L8.41093 14.381L8.33259 14.1686V14.1311L8.39755 14.1002L8.37865 13.7396L8.35306 13.6537L8.36487 13.6297L8.5054 13.6413H8.5365L8.56209 13.598L8.54753 13.0134L8.52273 12.9027L8.5365 12.859L8.73294 12.9519L8.77506 12.9585L8.70656 12.4493L8.68097 12.3251V12.2884L8.87819 12.5797L8.90181 12.6045L8.9585 12.536V12.3387L8.75144 11.3645C8.74356 11.3711 8.79553 11.3954 8.73766 11.3386L8.64948 11.5312L8.2952 12.5062L7.98028 13.2749L7.95469 13.2931L7.92241 12.729H8.10782L8.04995 12.1773H8.11294L8.25111 12.2431L8.27669 12.2334L8.25111 11.433H8.32196L8.49163 11.5003L8.32196 10.6248L8.28457 10.3338L8.05704 11.0616L7.6378 12.2586C7.61418 12.2942 7.58111 12.1708 7.59489 12.3251L7.526 11.9661L7.62599 11.9336L7.59489 11.3521H7.6378L7.74093 11.433L7.76534 11.4512L7.80943 11.3954L7.79605 10.7254L7.77243 10.6143L7.82242 10.5938L7.99996 10.7501L8.03735 10.7803V10.6809L7.77243 9.64517L7.72834 9.4908C7.72834 9.48306 7.69094 9.53413 7.71456 9.45405L7.68189 9.52253L7.31107 10.6809L7.1847 10.9865L7.09023 10.3036L7.27288 10.4464L7.29847 10.4271L7.22879 9.56508L7.41224 9.70204L7.526 9.77632V9.6324L7.27288 8.58433V8.50424L7.22879 8.5468L6.94615 9.37899L6.84302 9.60184L6.8009 9.14183L6.71862 8.71471L6.96977 9.01919L7.01386 8.93252V8.71471L6.85601 8.10033L6.77452 7.74633L6.5714 8.02412L6.43283 7.24609L6.16239 5.23429C6.15452 5.22771 6.14468 5.23893 6.13759 5.22074L6.11712 5.26524L6.21908 6.58645L6.34583 7.4995L6.40764 8.057L6.67256 9.4966L7.03157 11.055L7.39964 12.2698L7.65866 13.0703L8.23851 14.6712L8.59043 15.4156L9.02227 16.1804L9.53559 17.1167L10.2981 18.4263L10.7658 19.1022L11.1181 19.5727L11.9199 20.7588L12.1857 21.1496L12.795 21.9884L13.9185 23.5382L14.3011 24.0532L14.7239 24.6432L15.0518 25.1891L14.9144 25.1593L14.113 24.7291L13.2619 24.2826L12.3978 23.8485L11.9199 23.6508L11.2625 23.3715L10.3981 23.0504L8.32196 22.2159L7.05795 21.6723L6.13759 21.1689L5.24085 20.5786L4.12918 19.7282L3.27535 18.8902L3.0557 18.6248L2.55615 18.053L2.15896 17.4765L1.64761 16.5894L1.62832 16.5132L1.69091 16.5805L2.11487 17.1736L2.61323 17.8553C2.68291 17.9044 2.47978 17.8255 2.6711 17.9288L2.69472 17.9237L2.63764 17.6193L2.59355 17.4958C2.58292 17.4831 2.55615 17.5264 2.56914 17.4649L2.62701 17.5198L2.79667 17.9856L2.82817 18.1474L3.59264 18.8774L3.56902 18.7791L3.42061 18.5246L3.20686 18.2333C3.20765 18.2383 3.20607 18.2286 3.19426 18.2081L3.29504 18.2333L3.4521 18.3203L3.63555 18.6356L3.73671 19.0291L3.94574 19.2689L4.30003 19.5727V19.4736L4.11659 18.9915L4.05951 18.8774H4.09179L4.34412 19.1842L4.46969 19.4736L4.56968 19.7715L4.98104 20.0895L5.17236 20.2129L5.15937 20.1456L4.81099 19.7166C4.79721 19.7212 4.79131 19.7108 4.78461 19.7108L4.79721 19.6848L4.98104 19.6732H5.01214L5.03891 19.6547L4.86807 19.4311L4.84051 19.4071H4.94365L5.02592 19.438L5.15268 19.6164L5.39792 20.3569L6.08091 20.8331L6.09272 20.7646C5.90219 20.6308 5.73843 20.4242 5.59396 20.276L5.90888 20.3309L5.49988 19.8276L5.70615 19.8206L5.77661 19.84L6.03642 20.276L6.36315 20.9248L6.40055 21.0242L6.90009 21.3492L7.09023 21.4359V21.3724L7.02764 21.2065L6.69185 20.9449C6.67256 20.9314 6.8253 21.0242 6.63517 20.9144L6.87372 20.8447L6.5214 20.4985L6.63517 20.4791C6.64186 20.4687 6.60486 20.483 6.60486 20.483C6.60761 20.4849 6.62415 20.4791 6.68516 20.4551L6.38796 20.2129C6.35174 20.1998 6.41433 20.2923 6.40055 20.1619L6.43283 20.1456H6.47731L6.84302 20.5418L7.12763 21.0695L7.31894 21.492C7.46735 21.5477 7.60079 21.764 7.74093 21.6955L7.526 21.3798L7.62599 21.2498L7.42286 20.9894L7.39964 20.9693L7.4457 20.8776L7.32996 20.6904L7.1847 20.5228L7.14534 20.49L7.21698 20.4428H7.25438L7.6378 20.9577L7.84092 21.4715L7.93619 21.7945L8.05704 21.863L8.45344 22.0185L8.47785 22.0445L8.46604 21.9884L8.2208 21.6289L8.33928 21.5044L8.11294 21.2111L8.13734 21.1256L8.08026 21.0126L7.94288 20.8447L7.99996 20.813L8.06963 20.8014L8.35306 21.2672L8.5054 21.6038L8.6239 22.0483L8.90181 22.1977L9.10297 22.2863C9.12344 22.2882 9.04982 22.2422 9.04904 22.2429C9.04904 22.246 9.0762 22.2681 9.18642 22.3416C9.19311 22.3346 9.13603 22.3269 9.20492 22.3269L9.04904 22.0866L8.87819 21.9056V21.8766L8.98999 21.7512L8.73294 21.4042L8.84473 21.2931L9.10297 21.7822L9.33129 22.3849L9.81312 22.5524L9.79934 22.4522L9.57181 22.1977L9.70329 22.0619L9.66117 21.8197C9.65329 21.8061 9.67179 21.8932 9.64739 21.7822L9.90051 22.1977L10.0958 22.6453L10.4922 22.8237L10.5126 22.8004L10.443 22.677L10.128 22.3973L10.3981 22.3849V22.1725L10.7209 22.8438L10.7394 22.9122L11.2763 23.1622L11.2625 22.9935L10.9681 22.7002L11.2625 22.6894C11.2625 22.6836 11.2625 22.6511 11.2968 22.677L11.4204 23.192L11.6865 23.3336L11.857 23.3904L12.0278 23.4833V23.3715L11.7755 23.1784L11.7483 23.1622L11.9463 23.2152L12.1022 23.2721L12.1975 23.5487L12.8962 23.9046L13.2619 24.0957L13.219 23.9971L12.8194 23.5026L12.7509 23.3827L12.7253 23.3599C12.7147 23.4512 12.6509 23.5448 12.7147 23.6377L12.5939 23.5487L12.0837 22.8561L12.0463 22.7753C11.9766 22.8496 11.9628 22.9683 11.9325 23.0376L11.3645 22.275L11.2625 22.1176L11.2192 22.0743L11.1358 22.3664L10.4237 21.5845L10.3851 21.5477L10.3548 21.6154L10.3292 21.8932H10.2831L9.62692 21.056L9.60212 21.4715L9.45804 21.3492L8.92149 20.6664L8.90772 20.9449V20.9836L8.80734 20.9314L7.99996 20.2574L7.99327 20.5669H7.94288L7.14534 19.9518V20.0462L7.1847 20.3008C7.17093 20.3046 7.20911 20.3124 7.17093 20.324L6.67256 19.8787L6.42142 19.6048C6.40055 19.6164 6.47731 19.6357 6.38796 19.6299L6.42142 19.9777L5.61285 19.1699L5.60498 19.5498L5.55578 19.5429L5.09481 18.9915L4.92987 18.759L4.82988 19.139L4.43151 18.7482L4.07919 18.3462L4.0351 18.6557L3.73671 18.3694L3.36589 17.868C3.34503 17.8255 3.59264 18.1474 3.30881 17.7435L3.22064 17.9651L2.95374 17.6077L2.76518 17.3152L2.48687 16.8668L2.3983 17.0916L2.37468 17.1167L2.14046 16.6691C2.08338 16.5081 2.02551 16.3394 1.9704 16.192L1.91844 16.2361L1.85663 16.459L1.71728 16.3232L1.2386 15.5649L0.907934 14.8128L0.852037 14.6279C0.852037 14.6221 0.838258 14.5602 0.806766 14.6279L0.776455 14.6712L0.93431 15.1861L1.36339 16.3232L1.54683 16.8118L1.80585 17.3395L2.15896 17.9288L2.08928 17.868L1.72909 17.3512L1.55864 17.2169V17.2827L2.05779 18.1474L2.3424 18.3694L2.7144 18.537L2.84076 18.7908L2.6585 18.7118L2.54474 18.6112V18.7041L2.61323 18.9277L2.37468 18.6557L2.19714 18.4878L1.9704 18.376V18.4321L2.22864 18.8159L2.6585 19.3502L3.66231 19.5429L3.82017 19.8206L3.76112 19.8276C3.66704 19.7541 3.55996 19.7715 3.4521 19.6411L3.4647 19.7649L3.57965 20.0462L3.62374 20.1321L3.0801 19.6547L3.09309 19.7282L3.19426 20.0462C3.19505 20.0462 3.12262 19.9739 3.20686 20.0895L3.09309 19.9777L2.7144 19.5293L2.55615 19.493H2.51325L2.82226 19.9208L3.16749 20.3008L3.34031 20.3801L3.86347 20.4428H4.7728L4.86807 20.6103L4.89838 20.7097L4.70313 20.6347L4.54527 20.5418L4.51496 20.5786V20.7031L4.48819 20.7205L4.0351 20.5352L4.07919 20.7031L4.20358 20.9248L3.87685 20.7341L3.68081 20.5669L3.73671 20.9144L3.33361 20.5352H3.12537L3.13718 20.5786L3.84457 21.1937L4.59015 21.1813L5.52428 21.0819L5.54908 21.0695H5.58018L5.80889 21.3249L5.36761 21.2498L5.34084 21.2672L5.35383 21.4293V21.461L5.21527 21.4293L4.87476 21.2815L4.89838 21.5605L4.33034 21.3608L4.41379 21.5044L4.68659 21.8379L4.56968 21.7945L3.96542 21.4715L3.84457 21.4158H3.66231L3.75049 21.5264L4.46969 22.0321L4.63936 22.0743L5.1389 21.9884L6.48991 21.6402H6.53518L6.78633 21.8061H6.48991L6.25136 21.7822L6.40055 21.9884L5.93447 21.9315H5.89156L5.89747 21.9884L6.03642 22.1613C6.03642 22.1667 6.05414 22.1253 6.04823 22.1861L5.89156 22.1563L5.58018 22.0483L5.45382 22.0321L5.4676 22.0986L5.7215 22.3416L5.61285 22.3269L5.19558 22.2104C5.16527 22.193 5.15268 22.2422 5.12591 22.2104L5.26329 22.3416L5.43532 22.4522L4.92987 22.323L4.68659 22.2545L4.53425 22.275L4.71612 22.4081L5.35383 22.677L5.51169 22.7002L6.10531 22.5459L7.31894 22.1052H7.43192L7.62599 22.2286L7.65354 22.2545C7.53112 22.2545 7.41224 22.248 7.27288 22.2979C7.25438 22.354 7.39964 22.4043 7.31894 22.4658L6.85601 22.4348L6.88947 22.4967L7.05795 22.6635L6.69185 22.6569L6.53518 22.6453H6.48991L6.67256 22.8004L6.47731 22.7888L6.25136 22.7443C6.23758 22.7312 6.20648 22.7184 6.18168 22.7571L6.40055 22.9819L6.06122 22.9006L5.93447 22.8438L5.55578 22.9374L5.60498 22.9819L6.02383 23.1119L6.60171 23.2353L6.91978 23.192L7.51222 22.9935L8.2952 22.619L8.5054 22.5652L8.61996 22.6325L8.64948 22.6635L8.37865 22.677L8.39243 22.8561L8.09404 22.8438L8.04995 22.8561V22.9006L8.16765 23.0666L7.59489 23.1053L7.85273 23.3278L7.11503 23.3336L6.95678 23.4264L6.91978 23.4589L7.62599 23.5487L7.86769 23.5583L8.39755 23.3904L8.97818 23.1119L9.43245 22.8561C9.51512 22.8794 9.57889 22.9374 9.66117 22.9819L9.41277 23.0105C9.4108 23.0504 9.45332 23.0144 9.4482 23.0047C9.44544 23.0001 9.41868 23.0039 9.34428 23.0504L9.41277 23.192L9.43245 23.2152L9.02227 23.2786L9.24429 23.4833L8.69357 23.44L8.9585 23.6377L8.22749 23.681L8.01059 23.7928L8.10782 23.8381C8.47273 23.9046 8.9959 23.8562 9.26358 23.8381L10.1839 23.4589L10.5953 23.3173L10.7827 23.44L10.8091 23.4589L10.5355 23.4833C10.4874 23.4763 10.8799 23.5026 10.3851 23.4589L10.5677 23.6624L10.0261 23.681L10.1391 23.7928L10.2831 23.8601L9.47064 23.917L9.40096 23.9421L9.26358 24.059L9.37656 24.0957L10.5244 24.028L10.8228 23.9472L11.5145 23.6694L11.6038 23.6934L11.7617 23.8052L11.5145 23.8179L11.6038 23.9607L11.592 23.9855L11.1496 23.9472L11.2968 24.0957C11.3192 24.1089 11.1358 24.0656 11.3645 24.1282L10.8335 24.1147H10.7209L10.4922 24.2207L10.9346 24.24L11.6617 24.2826L11.9699 24.295L12.5565 24.141L12.7509 24.24L12.7706 24.2652L12.4309 24.2536C12.2349 24.3135 12.0514 24.3259 11.8758 24.5437L12.9962 24.5565L13.8291 24.866L14.4287 25.215L14.7428 25.4494L15.0282 25.6239L14.5554 25.6479L12.1975 26.0077L12.229 25.971L13.5201 25.704L12.6116 25.3933L12.2526 25.2324V25.2815L12.638 25.7485L12.3093 25.6936L11.8451 25.5477C11.8365 25.5419 11.8235 25.5554 11.8168 25.538L12.2526 25.4688L11.9904 25.3442L11.2318 25.114H11.1751V25.1465L11.901 25.9141L11.333 25.7829L11.4775 25.68L11.5586 25.6479L11.5794 25.6239L11.5145 25.5922L10.7394 25.4494V25.4255L11.1633 25.3009L11.1252 25.2711L10.9346 25.2583L10.1143 25.1334L10.6256 25.6046L11.1358 26.0387L11.2318 26.1516L10.6827 26.1079H10.6512L10.7071 26.0522L10.9484 25.9528L10.2398 25.8475L10.2166 25.8286L10.5492 25.7164L10.4804 25.6479L10.0017 25.5613L9.67179 25.5477L9.74344 25.4804L10.0832 25.3705L9.92412 25.3268H9.30688L8.9585 25.3384L9.76037 25.9412L10.128 26.2371L10.1528 26.2634L9.92412 26.2739L9.64266 26.1756L9.68557 26.1265L9.81705 26.0696L9.75446 26.0147L9.07935 25.9837L9.45804 25.8855C9.46473 25.865 9.48166 25.8785 9.48953 25.8592L9.14903 25.7829L8.63689 25.7485L8.5365 25.7601L8.56721 25.7292L8.94787 25.6046C8.95653 25.5814 8.87819 25.6174 8.87898 25.6174C8.87898 25.6174 8.91441 25.6038 9.03329 25.5477L9.02227 25.5257L7.90863 25.538L8.83489 26.3857L8.39755 26.4426L8.45344 26.3308L8.52273 26.2634V26.219C8.32196 26.2143 8.13734 26.2371 7.96847 26.195L8.25111 26.0646L8.30897 26.0077V25.9837H7.48112L7.99327 25.8158L8.01059 25.7829L7.95469 25.7292L6.74224 25.7829L7.39964 26.2371L7.6378 26.429L7.25438 26.4619H7.20439L7.35516 26.3435C7.34925 26.3308 7.32288 26.3695 7.32996 26.3068L6.48991 26.2634L6.53518 26.219L6.85601 26.1195C6.89301 26.0832 6.96387 26.0522 6.96977 26.0147L6.91978 25.9961H5.8392L6.06792 26.2371L6.35174 26.4747L6.25136 26.5111L5.96714 26.4851L5.54908 26.4062L5.90888 26.2634L5.94746 26.2306L5.90888 26.2074H5.29675L4.71612 26.1516L4.74052 26.2371L4.81099 26.3435L4.41852 26.3172L3.54619 26.1195L3.56902 26.195L3.64932 26.3068L3.66231 26.3435L4.36183 26.4987L5.43532 26.6287L6.21908 26.6666L7.88501 26.6287L9.07226 26.573L11.7326 26.3992L13.8154 26.0522L14.4582 25.9412L15.153 25.9141L14.9711 26.2634L14.77 26.5285L14.3846 26.9335L14.0118 27.1997L13.3879 27.4667L13.01 27.6028L13.1946 27.7135L13.691 27.8265L13.7146 27.8524L13.2749 28.1062L13.4083 27.9124L13.3387 27.8698L12.9962 27.9963L12.8403 28.0822L13.054 27.8141L12.8403 27.8524L11.901 28.242L11.8758 28.2613L12.1857 28.3859L12.7706 28.5209C12.7911 28.5325 12.7246 28.5306 12.7246 28.5306L12.8403 28.541L12.273 28.7755L12.2045 28.8188L12.373 28.62C12.386 28.6029 12.4309 28.6637 12.4104 28.5643H12.3093C12.1152 28.6335 11.9396 28.7503 11.7617 28.8324L11.805 28.7322L12.014 28.466L11.9129 28.4842L11.344 28.8188L11.0055 29.0811C10.9976 29.085 10.9602 29.0483 10.9917 29.1121L11.5342 29.1937L12.0837 29.2471L12.0337 29.2924L11.5471 29.6135L11.6865 29.3589V29.3222H11.5716L11.2066 29.4467L11.1074 29.4901L11.1181 29.2104L10.4993 29.6576L9.9879 29.9501L11.0673 30.036L11.0614 30.0839L10.7965 30.2519L10.8799 30.0909L10.7658 30.0839L10.6953 30.106L10.0958 30.5316C10.0832 30.5393 10.1721 30.5149 10.0584 30.5498L10.3851 30.1273V30.106L10.3548 30.0839L10.2166 30.1273L9.38719 30.754C9.38364 30.7629 9.46473 30.73 9.36396 30.7861H10.0143L9.81312 30.997C9.79265 30.9479 9.84854 30.8968 9.76037 30.8554L9.30688 31.3204L8.98999 31.71L7.70866 32.9771L7.42286 33.3001L7.4457 33.3249L7.80943 33.0463L8.39755 32.5294L9.24429 31.9162L10.1528 31.3317L10.343 31.2334L10.3666 31.2075L10.3548 31.488L11.1948 30.9413V31.1777L11.8451 30.7196L12.1022 30.5064L12.1278 30.648V30.6743H12.1857L12.8265 30.029L12.8521 30.1176V30.272L13.5662 29.2471L13.6213 29.5334C13.628 29.5458 13.6477 29.5199 13.6339 29.5593L13.7339 29.3914L14.1697 28.3859L14.2385 28.6335L14.2952 28.5209L14.5672 27.628L14.6554 27.4245H14.6239L14.2952 27.7398L14.1901 28.0501L14.1697 28.1863C14.1441 28.2114 14.3161 27.9874 14.0744 28.2613L14.1 28.0203L14.0744 27.9963L13.6024 28.4726L13.5327 29.1121L13.219 29.3098L13.4505 29.0301V28.9732L13.1611 29.0688L13.4631 28.6954V28.596H13.4201L12.8832 29.0811L12.8088 29.8062L12.4565 29.9806L12.7253 29.6692L12.7147 29.6441L12.3553 29.7253L12.601 29.4467L12.6576 29.3345V29.2924H12.6116L12.1152 29.6924L12.0463 30.272L11.7058 30.4948L11.9325 30.1718V30.1466L11.8294 30.1718L11.5794 30.272L11.9199 29.9354L11.9699 29.8688C11.9628 29.8553 11.9502 29.9806 11.9569 29.8247L11.3086 30.3087L11.2763 30.6635L10.922 30.7985L11.1252 30.5621V30.4503L11.0673 30.4399L10.6953 30.7196L10.443 30.8852L10.4107 31.0655L10.3548 30.978L9.85524 31.2574L9.45804 31.5429L9.79934 31.2075L10.7256 30.4766L11.7058 29.7938L12.4565 29.1806L13.5595 28.218L14.8251 26.9335L15.253 26.4553L15.3038 26.4062L15.19 28.3298L14.9947 29.4146L14.6995 30.3281L14.257 31.2574L13.9429 31.8044L13.8862 31.8218H13.841L13.8154 31.8044L14.1264 31.2024L14.5838 30.036L14.7566 29.4216L14.9381 28.3596L15.0085 27.2554V27.1869L14.9144 27.2933L14.5976 28.2056L14.2169 29.2471L14.1571 28.9171L13.998 29.1937L13.7851 29.7129L13.6213 30.0607L13.5327 29.6019L13.4505 29.682L13.0336 30.3521L12.695 30.7726L12.682 30.407L11.9766 31.0655L11.9569 30.8295H11.9199L11.7058 31.0357L11.1252 31.4446L11.0937 31.4814L11.0614 31.221L11.0055 31.2334L10.3205 31.7619C10.2981 31.7619 10.2831 31.787 10.2646 31.7917V31.5247V31.4814L10.2087 31.488L9.09195 32.196L7.42286 33.4359L7.27288 33.3802L7.25438 33.3558L8.27669 32.2265L8.90772 31.5123L9.41277 30.9413H8.93212L9.34428 30.5621L9.86823 30.0909L9.68557 30.0839H9.57181L10.1017 29.6576L10.7768 29.1937L10.4548 29.1543L10.5355 29.0811L11.7058 28.3406L11.4078 28.2296L12.1719 27.8698L12.7627 27.628L12.7253 27.5785L12.5427 27.5034L13.104 27.2991L13.9429 27.0194L14.359 26.7088L14.6995 26.3172L14.9054 26.0522L14.8959 26.0259L14.5161 26.0696L13.9185 26.2371L13.5201 26.3857L12.601 27.0879L12.3171 27.3549L12.3093 27.0744H12.2612L11.9904 27.2365L11.1948 27.647L11.1751 27.4609L10.1528 28.0203V27.8141L9.6159 28.0242L9.09195 28.1747L8.90181 28.1928C8.90772 28.1186 8.91559 28.0636 8.97818 27.9808L8.86442 27.9963L8.19442 28.1371L7.6378 28.218H7.61418L7.69566 28.0636L7.76534 27.9681H7.01386H6.55959L6.59187 27.8961L6.70484 27.7708L6.69185 27.7475L5.72544 27.7135L5.42351 27.6605L5.54908 27.4794L5.15268 27.411L4.4756 27.3676L4.69722 27.1262L4.64644 27.0879L3.7316 26.8643L2.63764 26.4987L1.89994 26.1822L1.53384 26.0077L1.51534 25.9412V25.8978L3.50328 26.3172L3.26473 25.9141C3.26473 25.8855 3.28834 25.9211 3.28441 25.9238C3.28441 25.9269 3.27181 25.9153 3.24032 25.8719L4.1469 26.1195L4.4756 26.164L4.37561 25.9412L4.50197 25.9276L5.49988 25.9961L5.64986 25.971C5.67663 25.971 5.58806 26.0464 5.69513 25.9594L5.492 25.7829H6.16239L6.50369 25.7601L6.42142 25.6174L7.65354 25.5055L7.67047 25.4804L7.58111 25.3442V25.3144L8.73294 25.2583V25.215L8.57981 25.0896L8.54753 25.0598H9.75446L9.92412 25.078L9.77296 24.897L10.4993 24.9461L11.0673 25.0212V24.9527C11.0614 24.9094 11.0484 24.8726 11.0114 24.8343L11.1633 24.8409L12.0014 25.0896L12.0884 25.1334V25.0038L12.0719 24.9527L12.1581 24.9662L13.0474 25.3268L13.104 25.3442L13.3879 25.4255L13.9559 25.4939L14.4964 25.4494L14.0874 25.1775L13.5064 24.9094L12.9336 24.7117H12.0719L11.6491 24.7414L11.592 24.7678H11.5586L11.692 24.5062L10.8964 24.4184L10.3851 24.4455H9.98278L10.1721 24.2296L9.57181 24.2768L8.98999 24.3201L8.78883 24.3646L8.94787 24.1089L8.5365 24.0957L7.51222 24.0156L7.48782 23.9971L7.67047 23.8381L7.70866 23.8052L7.48112 23.7618L6.85601 23.7359L6.40764 23.7061L6.5714 23.5487L6.68516 23.4697L6.70484 23.4465L6.63517 23.4156L6.30726 23.3827L5.87778 23.2721L5.04364 22.9819L5.27235 22.8561L5.24085 22.812L4.70313 22.6074L4.09179 22.2863L4.02132 22.2159L4.24807 22.1563C4.25476 22.1478 4.23035 22.1977 4.27326 22.1427L3.26473 21.3492L3.20686 21.2931L3.22064 21.2672L3.60405 21.2498L3.44817 21.0927L2.78408 20.4985L2.61323 20.3433H2.99311L2.27194 19.5169L2.12865 19.2689L2.35539 19.2825L2.3983 19.3088H2.42979L2.01488 18.7675L1.64761 18.2027C1.62832 18.1698 1.65351 18.14 1.57714 18.1091L1.74287 18.135L1.89994 18.1911L1.2386 17.0289L1.34449 17.0347L1.55864 17.1477L1.54683 17.0916L1.24923 16.4907L0.919744 15.4291L0.776455 14.8832L0.682373 14.5795L0.852037 14.4108L0.979579 14.6712L1.2386 15.2875L1.62832 15.8883L1.79995 16.1108L1.86175 16.0106L1.94324 15.8083L1.9704 15.7878L2.12865 16.1108L2.24044 16.4215L2.36799 16.6586L2.48687 16.4772L2.76518 16.9797L3.14978 17.5392L3.22654 17.644L3.32062 17.408L3.95755 18.3338L4.00243 18.1783C4.01817 18.1439 3.9918 18.3075 3.98904 18.3075C3.98904 18.3075 3.99574 18.2344 4.0351 17.9856L4.40002 18.4445L4.59015 18.6797L4.74052 18.8159L4.85626 18.3888L5.07119 18.6492L5.492 19.139L5.52428 18.7791L6.20648 19.462C6.21908 19.4813 6.17578 19.4995 6.23758 19.5169L6.25136 19.1571L6.28875 19.139L6.95678 19.8957V19.5169L6.97568 19.493L7.80943 20.2574L7.82242 19.9394V19.9085L7.87911 19.9208L8.39243 20.324L8.76246 20.5913H8.78883L8.85064 20.269L9.2872 20.8014L9.41868 21.0242L9.47064 20.9314L9.50134 20.6219L9.52654 20.5979L9.88673 21.0927L10.195 21.5729L10.2981 21.1937L10.7827 21.6955L11.1181 22.0445L11.1751 21.9934L11.2389 21.7388L11.2625 21.7144L11.4342 21.9884L11.592 22.1977L11.864 22.5892L11.9463 22.6569L12.014 22.4967V22.4522L11.7617 22.323L11.864 22.2545L12.1455 22.2104L11.7483 21.9489L10.9346 21.4843L11.3086 21.4359L11.2066 21.3724L10.3548 20.9144L10.0017 20.6664C10.0017 20.6579 10.0076 20.6405 9.98278 20.654L10.3292 20.6219L10.2733 20.5669L9.57181 20.1011L9.00377 19.6848L9.14903 19.6597L9.25098 19.6732L9.24429 19.6411L7.99327 18.8341L8.42274 18.7908H8.5054L8.41093 18.7041L7.74093 18.2584L7.39964 17.9973L7.31894 17.9412C7.31107 17.9237 7.33469 18.0723 7.29847 17.8854H7.65866L7.1973 17.3713L6.73122 16.8931L7.00008 16.924L6.8627 16.7569L6.33206 16.1677L6.17578 15.9866L6.13759 15.968L6.5214 16.0253L6.40764 15.8446L6.23758 15.6384L6.03642 15.3038L5.77661 14.9509C5.75693 14.9374 5.76284 14.92 5.73843 14.9084L6.16239 14.9942L6.13759 14.8929L5.70615 14.1002L5.49988 13.6962L5.68253 13.7349L5.79512 13.7906L5.78252 13.6858L5.48019 12.6741C5.46169 12.5987 5.51838 13.0935 5.43532 12.4926L5.78252 12.784V12.6482L5.66875 12.1205L5.53727 11.3761C5.542 11.3521 5.51838 11.537 5.54908 11.3076L5.79512 11.4775L5.52428 10.2228L5.78252 10.3714L5.79512 10.2727L5.70615 9.73376L5.58018 8.92015C5.59396 8.90158 5.53727 8.88726 5.60498 8.87643L5.76284 9.00565V8.92015L5.59396 8.27946L5.49988 7.84654V7.82139L5.77661 7.93436L5.80889 7.76568L5.83369 6.1129L5.89156 4.84276L5.94746 4.04732L6.09272 3.99238L6.11712 4.07905L6.18168 4.89886L6.36315 5.93455L6.53518 6.97682L6.62926 7.5556L6.93237 7.21901L7.00008 7.46661L7.14534 8.26708L7.1973 8.22375L7.31107 7.9893L7.59489 9.19948L7.77243 8.83812L7.98028 9.70204L8.11294 10.111L8.1834 10.0483L8.33259 9.80031L8.57981 10.9969L8.60342 11.0964L8.66011 11.0414L8.77506 10.805C8.79553 10.7992 8.70656 10.7501 8.82111 10.7927L8.92149 11.3076L9.04904 11.7289L9.23051 11.5072L9.64266 12.9267L9.68557 12.8842L9.81312 12.6482L9.83004 12.6238L9.88673 12.8041L9.9879 13.3442L10.1017 13.8456L10.128 13.8649L10.3548 13.5303C10.3548 13.5353 10.3048 13.4746 10.3851 13.5303L10.5953 14.8012L10.6051 14.9084L10.6512 14.8581L10.7768 14.5923L10.8405 14.5486L10.922 14.8507L11.0484 15.5293L11.1496 15.9433L11.3889 15.5649L11.4775 16.4033L11.5586 16.919L11.6617 16.8118L11.7991 16.5894L11.8758 17.3647L11.9569 17.9102L12.1455 17.6877L12.2612 18.376L12.386 19.1842C12.3841 19.1745 12.3888 19.185 12.3978 19.2074L12.5801 18.9343L12.9391 20.5418C12.947 20.5546 12.9336 20.5584 12.9529 20.5669L13.0934 20.3673L13.2237 20.1456L13.2619 20.1754L13.4505 21.3492L13.476 21.461C13.48 21.4715 13.4631 21.3798 13.4898 21.492L13.7272 21.2065L13.8154 22.1052L13.998 22.9006L14.0874 23.1053L14.4964 23.5583L15.1333 24.4513L15.0971 23.8737L14.9656 23.4697L14.7566 23.0001L14.2275 22.0445L13.9185 21.5961L14.2275 21.6402L13.7713 20.813L13.5201 20.411L13.7851 20.4791L13.7713 20.411L13.4505 19.9344L13.0336 19.2132H13.1111L13.2619 19.2508H13.3072L12.8403 18.4321L12.4242 17.5883L12.5104 17.6309L12.8088 17.8293L12.8194 17.7996L12.5104 17.2169L12.2612 16.6006L12.601 16.7685L12.5695 16.6385L12.3282 16.0686L12.1857 15.6338L12.1278 15.3858L12.2416 15.4109L12.4565 15.5293L12.4427 15.4156L12.273 14.8929L12.1278 14.1582L12.3978 14.2441C12.3978 14.2441 12.4006 14.1841 12.4309 14.2692L12.3093 13.6858L12.1581 12.8958L12.1152 12.7608L12.2045 12.784L12.5104 12.9952L12.4801 12.4261L12.486 12.0589L12.5801 11.5003L12.6116 11.4639L12.8088 11.7011C12.8127 11.7077 12.7793 11.7146 12.7793 11.7146C12.7793 11.7127 12.7931 11.7088 12.8403 11.7011L12.8521 11.2527L12.9962 10.5516L13.104 10.2595L13.2237 10.3915C13.2237 10.3953 13.2426 10.3145 13.2493 10.4271L13.2828 10.328L13.3072 10.104L13.4898 9.38479L13.5595 9.21689L13.5772 9.07412C13.5701 9.05787 13.5965 9.05787 13.589 9.0424L13.8599 9.3287L13.9059 9.24281L14.1815 8.26244L14.3405 7.81404L14.3846 7.73473L14.5161 7.90147C14.6035 7.703 14.7239 7.44921 14.7239 7.28633L15.0085 6.69826L15.0518 6.74159L15.1959 6.98146L15.3246 6.67195L15.4187 6.36244L15.6199 5.72408L15.7639 5.8475L16.1643 4.58238L16.3462 4.74836L16.3902 4.66247L16.7307 3.6144L17.5775 1.07527L17.6078 0.976997C17.698 0.976997 17.8117 0.96423 17.8491 1.03194ZM16.8024 28.4397C17.028 28.6838 16.8894 29.0417 16.9583 29.3345H16.9839L17.0846 28.9306C17.3626 29.2401 17.5216 29.6626 17.6078 30.0839C17.6676 29.9423 17.6039 29.8004 17.6216 29.6441C17.8412 29.9354 18.3093 30.0975 18.2585 30.5316C18.2514 30.5621 18.2652 30.5873 18.2888 30.6066C18.3396 30.4995 18.3329 30.3702 18.3329 30.2402L18.8018 30.5873C18.8344 30.7494 18.9226 30.8852 18.997 31.0357V30.6442C19.5477 30.9181 20.1165 31.2527 20.5937 31.6798C20.3807 31.5738 20.1724 31.4446 19.952 31.3587L19.9252 31.6365C19.6741 31.438 19.4395 31.221 19.156 31.079C19.1493 31.139 19.1238 31.1959 19.1297 31.2643L18.4164 30.6743C18.3672 30.7629 18.379 30.872 18.3593 30.978L17.6676 30.1466C17.6283 30.2654 17.6039 30.3838 17.5775 30.4948C17.3763 30.1602 17.1976 29.8178 17.0102 29.4773C16.9512 29.4978 16.9162 29.5891 16.8701 29.6441L16.613 28.6896L16.4843 28.8072C16.5276 28.4292 16.454 28.0242 16.4599 27.6837C16.5607 27.9452 16.7189 28.1747 16.8024 28.4397ZM30.8939 18.5447C30.7802 18.6492 30.6093 18.7184 30.4751 18.8244C30.5507 18.9142 30.7349 18.9343 30.8617 19.0028C30.5341 19.1571 30.1983 19.356 29.8689 19.5293L30.3054 19.6164C29.9452 19.7916 29.5673 19.9208 29.2457 20.1754L29.2575 20.1998C29.3713 20.194 29.4595 20.2439 29.5724 20.2439C29.2575 20.3499 28.9729 20.5294 28.658 20.6347C28.7462 20.6962 28.8788 20.6904 28.9847 20.7341C28.6954 20.8517 28.3431 20.9759 28.0388 21.1496C28.1329 21.1987 28.2458 21.2305 28.3608 21.2498C27.9868 21.4417 27.5853 21.5605 27.1999 21.7272C27.2802 21.7887 27.4471 21.8332 27.5786 21.863C27.2743 21.9748 26.9086 22.0812 26.6012 22.2422C26.7193 22.323 26.8838 22.3029 27.0153 22.354C26.5819 22.5025 26.0823 22.5459 25.6505 22.7443L26.1638 22.8883C25.7615 22.9614 25.3946 23.1293 25.0273 23.3038C25.0726 23.3645 25.21 23.3645 25.2915 23.4264C24.9266 23.5324 24.5597 23.6191 24.2003 23.7359C24.3349 23.8179 24.5093 23.8381 24.6565 23.9046C24.2889 24.0234 23.8913 24.0714 23.5311 24.2083L23.6901 24.3762C23.3102 24.4455 22.9012 24.5062 22.508 24.5759L23.0327 24.755C22.6088 24.7677 22.2057 24.8602 21.7829 24.8931L21.7593 24.9094L22.0651 25.114L20.9861 25.215C21.0058 25.275 21.1066 25.3183 21.1763 25.3442C20.8869 25.3512 20.5818 25.3752 20.2925 25.4138L20.4248 25.5257L19.3816 25.5055L19.5859 25.704C19.2836 25.6982 18.8962 25.5814 18.5408 25.5922L18.7588 25.8719C18.3916 25.8545 18.0707 25.7485 17.7361 25.6615C18.2975 25.5055 18.8765 25.4003 19.4131 25.1891C19.6233 25.2517 19.8107 25.3442 20.0284 25.3705L20.039 25.1775C19.8752 25.1593 19.6926 25.22 19.5288 25.1728C19.8186 25.114 20.1028 24.738 20.4189 24.979L20.929 25.0598C20.981 24.6877 20.513 24.972 20.3118 24.8544C20.4374 24.7677 20.62 24.7117 20.7661 24.6296C21.0586 24.707 21.3853 24.7244 21.6758 24.7414C21.6108 24.2903 21.1763 24.6741 20.9046 24.5863C21.081 24.4679 21.2971 24.3762 21.4845 24.24C21.8573 24.2722 22.1852 24.4079 22.5658 24.4184C22.6088 24.3712 22.604 24.3019 22.6225 24.24C22.4883 24.1832 22.1986 24.3762 22.2104 24.1147C22.036 24.141 21.8258 24.1669 21.6325 24.1832C21.777 24.0656 22.0025 23.9797 22.1793 23.8485C22.604 23.9298 23.0071 24.059 23.4764 24.0423C23.4488 23.9673 23.3299 23.9363 23.2772 23.8601C23.1827 23.8872 23.0839 23.9046 22.9819 23.9298C22.9563 23.8601 23.0071 23.7878 22.9768 23.7185L22.3241 23.7812L22.8493 23.4697C23.2988 23.5208 23.7196 23.6307 24.1574 23.7185C24.1936 23.6694 24.1306 23.6075 24.12 23.5487C24.0609 23.5274 24.0227 23.6261 23.9472 23.6075L23.8913 23.4156C23.8078 23.4465 23.7196 23.4763 23.6315 23.4949L23.6448 23.3173C23.4303 23.3336 23.1917 23.4156 22.9768 23.3904C23.1721 23.2585 23.3732 23.0983 23.5882 22.9935C24.0609 23.0415 24.5361 23.1119 25.0207 23.1486C25.0403 23.1169 25.0273 23.0724 25.0273 23.0376C24.9266 23.0175 24.8148 23.0666 24.6986 23.0376L24.6813 22.925C24.5597 22.9122 24.4416 22.9683 24.314 22.9819C24.3015 22.925 24.3015 22.8623 24.2692 22.812C24.0877 22.8623 23.8913 22.9614 23.7019 22.925L24.1759 22.5776C24.5849 22.6894 25.0207 22.7312 25.4828 22.7138C25.5131 22.677 25.5261 22.6395 25.5202 22.5892C25.419 22.5962 25.2982 22.6635 25.1903 22.6569C25.1541 22.5962 25.2482 22.5459 25.2797 22.4898C25.11 22.4967 24.9266 22.5524 24.7451 22.5776C24.7821 22.5091 24.8148 22.4406 24.851 22.378C24.6616 22.3915 24.477 22.5207 24.283 22.5207C24.4152 22.378 24.5979 22.2584 24.7683 22.1613C25.2797 22.193 25.791 22.248 26.302 22.2422C26.3414 22.1795 26.3669 22.1176 26.3717 22.0445L26.043 22.1176C26.0382 22.0483 26.0697 21.9682 26.043 21.9191C25.8654 21.9884 25.7103 22.0936 25.5202 22.1304L25.5761 21.8816C25.3407 21.9191 25.101 22.0375 24.8577 22.0866C25.047 21.9191 25.312 21.7887 25.5367 21.6402L27.0409 21.7272C27.1196 21.6955 27.1117 21.5903 27.129 21.5148C27.0409 21.5102 26.9527 21.5643 26.8586 21.5961L26.9153 21.3608C26.7397 21.4293 26.5425 21.5342 26.3354 21.5729L26.3461 21.3492C26.0941 21.3798 25.8721 21.5477 25.6092 21.5845L26.2902 21.0819C26.7897 21.1496 27.3243 21.0877 27.8238 21.0927L27.975 20.8881C27.8809 20.9314 27.7601 20.9759 27.6416 20.9894C27.6522 20.9384 27.6983 20.895 27.712 20.8447C27.5274 20.8776 27.344 20.9894 27.129 20.9894L27.1999 20.8215C26.9606 20.8776 26.6956 20.9894 26.4287 20.9894C26.6063 20.8447 26.872 20.7097 27.0861 20.5418C27.5345 20.5979 28.0309 20.5979 28.5175 20.6103C28.6147 20.5488 28.7277 20.4486 28.7765 20.3433L28.347 20.49L28.3234 20.324L27.8691 20.49L27.8947 20.269C27.6522 20.3008 27.4137 20.4164 27.1664 20.4687C27.5589 19.9588 28.2919 20.1391 28.8599 20.1011L29.1182 20.1321C29.1575 20.081 29.1768 20.0211 29.1997 19.9642C29.1379 19.9394 29.0827 20.0021 29.0044 19.9951L28.9729 19.8833C28.8462 19.8833 28.7147 19.9344 28.5891 19.9518L28.5619 19.8524C28.3746 19.8276 28.2163 19.9394 28.0203 19.9344C28.184 19.7967 28.3694 19.6926 28.5509 19.6048C28.9158 19.5545 29.339 19.5672 29.7118 19.5978C29.7441 19.5255 29.7823 19.455 29.8149 19.3827C29.7047 19.4071 29.5843 19.462 29.4595 19.4871C29.4666 19.4252 29.4595 19.3684 29.4272 19.3231C29.2193 19.4001 29.0044 19.4705 28.7718 19.438C28.967 19.3231 29.1768 19.1773 29.3988 19.0956C29.6547 19.108 29.9523 19.1699 30.1983 19.084L30.1432 19.0395L29.6 19.0028C30.0354 18.8411 30.4318 18.6112 30.8939 18.5447ZM6.06122 4.28526C5.98446 5.644 6.21908 6.96328 6.25136 8.32318C6.35174 8.81491 6.40764 9.31516 6.5214 9.80031C6.25648 9.72525 6.32615 9.41458 6.21908 9.22849L6.1927 9.24281C6.21317 9.42813 6.1927 9.62582 6.29387 9.77632C6.8009 10.0309 6.63517 10.6143 6.83042 11.0163L6.90009 11.2527C6.48991 11.1099 6.62257 10.6066 6.43283 10.3036L6.40764 10.328C6.45251 10.4522 6.42732 10.6015 6.43283 10.7385L6.25136 10.3714C6.22616 10.5516 6.1994 10.7435 6.27498 10.9045C6.46629 11.0964 6.68516 11.2709 6.91387 11.3954L6.95678 11.4775C7.04024 11.9162 7.15243 12.351 7.28666 12.7724C7.07763 12.5004 7.01386 12.1638 6.84302 11.8794C6.80089 12.0288 6.83042 12.24 6.81979 12.3576C6.71862 12.1889 6.71272 11.9789 6.57809 11.8245C6.48991 11.9054 6.53006 12.1031 6.45763 12.1708C6.34583 11.9912 6.31237 11.7734 6.21908 11.5997C6.1679 11.7359 6.1679 11.9402 6.21908 12.0779C6.54778 12.4137 6.93749 12.7039 7.32996 12.9267L7.60079 13.7655C7.39373 13.6471 7.31107 13.3248 7.16109 13.107L7.07094 13.4746C6.99615 13.3306 6.93749 13.1813 6.90009 13.0269L6.87372 13.0397L6.85601 13.4552C6.76074 13.3306 6.71862 13.1252 6.62926 12.9712L6.59187 13.2931C6.48991 13.1457 6.37693 12.9952 6.26238 12.859L6.23758 12.8718L6.27498 13.2324C6.67847 13.591 7.19061 13.7164 7.65866 13.921L7.99996 14.7946C7.67047 14.7339 7.54372 14.33 7.39964 14.0715C7.34925 14.2073 7.35516 14.3857 7.35516 14.535C7.24257 14.3915 7.13353 14.1621 7.02764 13.976C6.98355 14.1137 7.04024 14.2603 7.03157 14.4108C6.91978 14.2565 6.79302 14.1002 6.73122 13.921C6.68516 14.0259 6.67256 14.1621 6.64777 14.2804L6.36315 13.9644C6.40055 14.0889 6.36906 14.292 6.5214 14.3489C7.02095 14.5795 7.526 14.79 8.05704 14.9374C8.17749 15.1997 8.27669 15.4659 8.43376 15.7069C8.18852 15.6152 7.95469 15.3974 7.87911 15.1486C7.83502 15.2419 7.86179 15.3618 7.85273 15.4659C7.75353 15.4291 7.67834 15.3173 7.60079 15.2477C7.53112 15.2651 7.55749 15.3904 7.50041 15.4531C7.36697 15.3788 7.24926 15.2477 7.1847 15.1041C7.14534 15.1745 7.11503 15.2477 7.08354 15.3173H7.04535C6.93749 15.2121 6.8253 15.1177 6.71862 15.0368C6.71272 15.1564 6.8127 15.2546 6.84302 15.3734C7.36697 15.6017 7.94878 15.6964 8.5054 15.8562C8.62389 16.1108 8.75734 16.3665 8.90181 16.6141C8.64948 16.5805 8.45935 16.348 8.33928 16.1418L8.30897 16.3789C8.20111 16.271 8.09404 16.1379 7.99996 16.0253C7.93619 16.1042 7.94288 16.2276 7.90863 16.3356L7.50041 15.9181L7.46735 16.1418L7.10401 15.9181C7.11503 16.0172 7.16109 16.1294 7.20439 16.2238C7.75865 16.4772 8.37196 16.5805 8.96362 16.7387C9.11084 16.919 9.19311 17.1302 9.32066 17.3152C9.16753 17.2827 9.07935 17.0985 8.97818 16.9797V17.2401L8.52273 16.8053C8.49832 16.9422 8.51013 17.085 8.49163 17.2026C8.37196 17.1593 8.25819 16.9914 8.16765 16.8931V17.1593C8.04326 17.1535 7.9598 17.0474 7.86769 16.9732C7.82833 17.0416 7.87911 17.1032 7.90863 17.1593C8.39243 17.2718 8.86442 17.3945 9.37656 17.4398C9.48166 17.6877 9.68557 17.868 9.79934 18.1091C9.66117 18.0839 9.56511 17.9481 9.45804 17.8553C9.38719 17.8603 9.38718 17.9651 9.37656 18.0356L9.07226 17.7435L8.98999 17.9651C8.86914 17.9373 8.75734 17.7562 8.64948 17.6877L8.63689 17.9412C8.50541 17.8719 8.39243 17.7667 8.2641 17.7013L8.39755 18.0243C8.85733 18.1284 9.3364 18.1833 9.84185 18.1911C10.0076 18.4263 10.1839 18.6797 10.3548 18.9277C10.1391 19.0465 10.0312 18.7745 9.90051 18.6693C9.83477 18.7424 9.91822 18.8244 9.9131 18.9018L9.51512 18.4704C9.46473 18.537 9.49623 18.6112 9.50134 18.6925L9.15965 18.4321C9.15965 18.537 9.24429 18.6356 9.26358 18.7482L8.90772 18.5931C9.08604 18.9962 9.55212 18.9103 9.90051 19.0136C10.1143 19.108 10.4992 18.8979 10.5677 19.2392L10.8964 19.7282C10.6886 19.6732 10.5355 19.4117 10.3548 19.2825C10.391 19.4252 10.4638 19.5804 10.5126 19.7282L10.1721 19.4311C10.1587 19.5255 10.1839 19.6299 10.2166 19.7166C10.0702 19.6249 9.94578 19.493 9.79934 19.3935C9.84185 19.5371 9.86823 19.7406 10.0379 19.8206C10.3548 19.8659 10.6756 19.9162 11.0114 19.9085L11.5145 20.6347C11.3192 20.5584 11.1252 20.3569 10.9543 20.189C10.9728 20.3046 11.0378 20.437 11.1181 20.5418C10.9681 20.5054 10.8142 20.3596 10.6618 20.269C10.7504 20.4428 10.9405 20.671 11.1496 20.7465C11.3507 20.7898 11.6038 20.7291 11.7326 20.9248C11.8451 21.0877 11.9463 21.2544 12.0719 21.4158C11.8963 21.4224 11.7247 21.2931 11.5794 21.1554C11.5657 21.2065 11.6038 21.2544 11.6353 21.2931C11.8294 21.7144 12.3624 21.5226 12.5104 21.9884C12.7009 22.3095 13.0277 22.5776 13.1796 22.9122C12.8832 22.7138 12.5801 22.5285 12.273 22.354L12.5565 22.3095C12.3093 22.0684 12.0081 21.8932 11.7058 21.6955L11.4342 21.54H11.7326V21.5044C11.3192 21.2382 10.8964 20.9945 10.4685 20.7782C10.5756 20.7395 10.7256 20.7646 10.8524 20.7588C10.4922 20.4551 10.0214 20.2439 9.64739 19.9085C9.59818 19.8787 9.52654 19.8466 9.47576 19.7967C9.58283 19.8206 9.70919 19.8206 9.81312 19.8206C9.41868 19.455 8.94078 19.2573 8.52273 18.9277L8.84473 18.8604C8.52273 18.5873 8.14521 18.3625 7.82242 18.0665H8.19442C7.86179 17.6943 7.43664 17.3945 7.14062 17.0587C7.31107 17.1302 7.5075 17.1852 7.67047 17.2401L6.66154 16.247C6.78633 16.2361 6.90009 16.2663 7.01386 16.2547C6.71862 15.9266 6.45763 15.5901 6.23758 15.2179C6.32025 15.2036 6.42142 15.2651 6.5214 15.2612C6.34583 14.8391 6.08091 14.4166 5.8392 14C5.95809 14.051 6.06122 14.1253 6.18168 14.1582C6.08091 13.7601 5.8392 13.3867 5.77661 12.9585C5.86597 13.0134 5.94037 13.083 6.03642 13.1206C5.95336 12.6482 5.87778 12.1444 5.79512 11.6752C5.85298 11.7011 5.92975 11.78 6.00415 11.8102C5.95809 11.433 5.85298 11.0414 5.83369 10.6635L6.02383 10.7803C5.98446 10.2777 5.87778 9.77632 5.80889 9.27182C5.87778 9.34146 5.96714 9.3906 6.02383 9.47726C5.97187 9.03776 5.86597 8.58936 5.76284 8.15605L5.98053 8.30577C5.96714 6.87275 5.99155 5.70396 6.00415 4.28526C6.02776 4.30189 6.04154 4.24695 6.06122 4.28526ZM17.918 27.7475C17.5381 27.5901 17.1291 27.4667 16.8374 27.1448C16.7189 26.9076 16.5875 26.6778 16.441 26.4553C17.0035 26.7726 17.5275 27.2171 17.918 27.7475Z" fill="white" stroke="white" stroke-width="0.2"/>
</svg>
